<svg width="99" height="85" viewBox="0 0 99 85" fill="none" xmlns="http://www.w3.org/2000/svg">
<path d="M68.7877 4.15986C68.5989 4.43718 67.7831 5.06627 67.5779 5.09645C67.5193 5.10508 67.3647 5.20767 67.2506 5.31429C66.9015 5.65513 65.965 6.14226 65.315 6.3377C64.9802 6.43685 64.6135 6.59061 64.5077 6.68602C64.2698 6.90069 62.3916 7.63615 61.4206 7.88879C61.0369 7.99513 60.574 8.17303 60.3998 8.2785C60.2257 8.38397 59.8199 8.54348 59.5033 8.62999C59.1851 8.70673 58.7207 8.87486 58.4572 8.9835C58.2049 9.10047 57.6609 9.27033 57.2647 9.35857C56.8684 9.4468 56.2896 9.65172 55.9816 9.79686C55.6735 9.94199 54.6666 10.2897 53.7502 10.5743C52.8323 10.849 51.8923 11.177 51.6596 11.2911C51.4282 11.4149 51.0532 11.5799 50.8176 11.6745C49.2488 12.2745 48.7273 12.4611 48.4537 12.5013C48.2778 12.5272 47.9781 12.6611 47.779 12.8002C47.5813 12.9491 47.2384 13.1293 47.0195 13.2014C46.2525 13.4839 45.0243 14.0239 44.9297 14.1277C44.8185 14.2538 43.9197 14.7255 43.2728 15.0103C43.0191 15.1175 42.4325 15.4732 41.9702 15.7908C41.5176 16.1069 41.0788 16.3811 41.0006 16.3926C40.9224 16.4041 40.7986 16.5122 40.7167 16.634C40.6348 16.7559 40.5109 16.8639 40.4328 16.8754C40.2764 16.8984 39.4158 17.4942 39.2282 17.7114C39.0141 17.9525 38.0839 18.6184 37.9276 18.6414C37.8592 18.6515 37.752 18.7371 37.6867 18.8365C37.5911 19.0003 37.2876 19.2446 36.6609 19.6662C36.5063 19.7688 36.2614 20.0045 36.1183 20.1852C35.9752 20.366 35.7192 20.5933 35.5534 20.6876C35.3876 20.7818 35.1732 20.9531 35.0801 21.0666C34.9855 21.1704 34.6654 21.4371 34.3674 21.6506C34.0709 21.8739 33.787 22.1153 33.7398 22.2021C33.6927 22.2889 33.4367 22.5162 33.1666 22.7156C32.8964 22.9151 32.4622 23.2884 32.2022 23.5562C31.9421 23.8241 31.647 24.0571 31.5493 24.0715C31.4516 24.0859 31.2901 24.2095 31.1915 24.3537C31.093 24.498 30.8134 24.7687 30.5613 24.9555C30.3205 25.1506 30.038 25.4018 29.9435 25.5056C29.8504 25.6191 29.6653 25.7861 29.5386 25.8746C29.2783 26.0726 28.8469 26.4654 28.1418 27.1681C27.705 27.5917 26.8814 28.3716 26.3012 28.9062C26.1774 29.0142 25.8673 29.3493 25.6018 29.6479C25.3377 29.9563 24.9719 30.3195 24.8021 30.4543C24.6239 30.6003 24.3291 30.9032 24.1526 31.1288C23.9664 31.3558 23.6523 31.7314 23.448 31.9711C22.2983 33.2482 18.9923 37.5776 19.0181 37.7535C19.0268 37.8121 18.8604 38.1061 18.648 38.4268C18.4245 38.7392 18.1081 39.2349 17.9305 39.5205C17.7529 39.8062 17.5072 40.1717 17.3906 40.3286C17.2739 40.4856 17.1242 40.7571 17.0593 40.9264C16.9958 41.1054 16.7866 41.5155 16.5757 41.846C16.3745 42.175 16.1432 42.6383 16.0673 42.8691C15.9915 43.0998 15.8671 43.4076 15.7895 43.5588C15.7119 43.7099 15.5513 44.043 15.4406 44.3088C15.3202 44.5761 15.1567 44.8896 15.0748 45.0114C15.0027 45.1319 14.8174 45.5684 14.6766 45.9684C14.5372 46.3782 14.3769 46.7811 14.3298 46.8679C14.2826 46.9547 14.1321 47.3561 14.0094 47.7435C13.8769 48.1323 13.7485 48.4806 13.7025 48.5074C13.6065 48.6013 12.8856 50.8934 12.7997 51.3952C12.6566 52.2547 12.4808 52.9594 12.3489 53.1485C12.2836 53.2479 12.19 53.5611 12.1604 53.835C12.0561 54.6189 11.9179 55.3081 11.7515 55.9414C11.6691 56.263 11.6191 56.6696 11.6435 56.8357C11.668 57.0018 11.6427 57.305 11.5933 57.5119C11.5424 57.7091 11.4967 58.145 11.487 58.4858C11.4758 58.8169 11.3867 59.2293 11.3008 59.3916C11.0985 59.7807 11.2425 60.1489 11.5408 60.0052C11.6523 59.9488 12.0023 59.8175 12.3175 59.7212C12.6313 59.6152 13.0997 59.4065 13.3477 59.2602C13.8785 58.9326 14.9417 58.0176 15.2613 57.6112C15.3877 57.4529 15.5906 57.2034 15.7282 57.0534C16.1245 56.6258 17.6107 54.6503 18.0437 53.9977C18.2546 53.6672 18.6363 53.0721 18.8972 52.6743C19.1469 52.2683 19.5618 51.6283 19.8046 51.2432C20.0489 50.8679 20.4541 50.2293 20.6954 49.8345C20.9368 49.4396 21.3213 48.864 21.5365 48.5628C21.7517 48.2616 21.9196 47.9774 21.9124 47.9286C21.9023 47.8602 22.1437 47.4653 23.104 45.9865C24.4695 43.8691 26.8431 40.6651 27.8414 39.5799C27.9457 39.4747 28.0261 39.3431 28.0399 39.3012C28.0523 39.2494 28.3218 38.9103 28.6373 38.5445C28.9543 38.1884 29.5017 37.499 29.86 37.0171C30.2198 36.5449 30.6075 36.0587 30.7313 35.9506C30.8537 35.8328 31.1069 35.5859 31.2988 35.398C31.4908 35.21 31.8707 34.8746 32.1379 34.6557C32.4052 34.4367 32.767 34.1139 32.9311 33.9401C33.0937 33.7564 33.3986 33.5219 33.5992 33.3926C33.8012 33.2731 34.0434 33.0877 34.138 32.9839C34.2311 32.8704 34.5736 32.6204 34.9024 32.4123C35.2325 32.214 35.5736 31.9542 35.6765 31.8393C35.7682 31.716 35.8837 31.6191 35.9228 31.6134C36.001 31.6019 36.8786 31.0536 37.2852 30.7642C37.7085 30.4524 38.6602 29.933 39.0117 29.8115C39.1916 29.7451 39.441 29.6086 39.5648 29.5005C39.8292 29.262 40.6991 28.8645 41.8566 28.4547C42.3322 28.2949 42.7922 28.0974 42.9009 28.0216C43.0526 27.8994 44.8274 27.4786 46.2662 27.2171C47.0729 27.0685 48.4793 27.0612 48.8779 27.1923C49.0989 27.2696 49.4204 27.352 49.5839 27.3779C50.073 27.4457 50.0897 27.7627 49.6271 28.3498C49.409 28.6314 49.1837 28.8642 49.1153 28.8742C49.0469 28.8843 48.9147 29.0036 48.8147 29.1381C48.7259 29.2809 48.488 29.4956 48.2972 29.6234C48.1078 29.7611 47.8544 29.9381 47.7291 30.0364C47.6023 30.1249 47.3587 30.3005 47.1845 30.406C47.0104 30.5115 46.7472 30.6899 46.5925 30.7925C46.4477 30.8937 46.148 31.0276 45.9388 31.0983C45.7282 31.1593 45.4508 31.3099 45.3201 31.4389C45.1879 31.5582 44.9008 31.7102 44.6721 31.7838C44.4419 31.8476 44.1715 31.9772 44.0657 32.0726C43.9586 32.1582 43.6896 32.2976 43.4594 32.3614C43.2307 32.435 42.8683 32.6181 42.6427 32.781C42.4171 32.944 42.1398 33.0946 42.0128 33.1132C41.8858 33.1319 41.6795 33.2222 41.5444 33.3219C41.4093 33.4216 41.1194 33.5541 40.92 33.6234C40.7108 33.6941 40.3694 33.884 40.1633 34.0441C39.9573 34.2042 39.7093 34.3505 39.6116 34.3648C39.5153 34.389 39.2728 34.5045 39.0736 34.6436C38.8745 34.7827 38.6222 34.8997 38.5259 34.9238C38.3696 34.9468 37.1647 35.713 36.3974 36.2651C35.8474 36.6654 35.1293 37.2801 34.8623 37.5689C34.6997 37.7526 34.3549 38.1227 34.0948 38.3905C33.4399 39.0958 32.6609 40.1786 32.5451 40.545C32.3451 41.1534 32.1667 41.5689 32.0029 41.8126C31.9029 41.9471 31.8394 42.1262 31.8509 42.2043C31.8624 42.2825 31.8219 42.6179 31.7716 42.9547C31.7115 43.2929 31.648 43.8113 31.6394 44.0921C31.6225 44.384 31.5909 44.8479 31.5627 45.1315C31.5429 45.4039 31.551 45.6623 31.5958 45.6956C31.684 45.7525 32.1967 45.4375 32.5766 45.1021C32.8674 44.8398 33.7674 44.3081 33.9531 44.2808C34.041 44.2679 34.2723 44.144 34.4603 43.9966C34.8209 43.7339 35.3741 43.4229 36.3511 42.9398C36.6299 42.799 36.9879 42.5866 37.1313 42.4757C37.2845 42.3633 37.4796 42.2647 37.5773 42.2504C37.675 42.236 37.8618 42.1486 37.9969 42.0489C38.1334 41.959 38.4722 41.8193 38.7595 41.7371C39.0469 41.6549 39.3912 41.4845 39.5219 41.3554C39.6541 41.2362 39.9759 41.0491 40.2423 40.96C40.7834 40.7706 41.4386 40.4746 42.3082 40.0073C43.3088 39.4808 44.208 39.079 44.4718 39.0402C44.6183 39.0186 44.8301 38.8976 44.9497 38.7602C45.0804 38.6312 45.6741 38.3243 46.2764 38.076C46.8788 37.8277 47.4558 37.5431 47.5615 37.4477C47.8092 37.2316 49.3679 36.5631 50.0585 36.3717C50.3458 36.2895 50.6832 36.1401 50.807 36.032C51.02 35.851 51.6709 35.5256 52.7347 35.0896C53.008 34.9796 53.2853 34.829 53.3436 34.7505C53.4729 34.6117 54.2867 34.1726 54.9336 33.8878C55.1399 33.7975 55.4198 33.5966 55.5477 33.4481C55.6868 33.3078 55.8664 33.1716 55.9543 33.1587C56.0423 33.1457 56.2443 33.0262 56.3848 32.8957C56.5351 32.7638 56.7273 32.6457 56.8153 32.6328C56.9032 32.6198 57.0828 32.4836 57.2204 32.3336C57.3483 32.185 57.5627 32.0137 57.6937 31.9545C57.8248 31.8953 58.0058 31.7689 58.1032 31.6847C58.1992 31.5907 58.3469 31.5091 58.4446 31.4947C58.5423 31.4803 58.6955 31.368 58.7871 31.2447C58.8788 31.1214 59.1794 30.8576 59.4691 30.6552C59.7587 30.4529 60.2584 30.05 60.5757 29.7638C60.8944 29.4873 61.3188 29.1154 61.5332 28.9442C61.7475 28.7729 62.1608 28.3927 62.4444 28.0814C62.7392 27.7785 63.0953 27.4167 63.2329 27.2667C63.6237 26.8698 65.0229 25.1168 65.0447 24.9938C65.0556 24.9323 65.2013 24.7013 65.3694 24.4869C65.7625 23.9699 66.5378 22.658 66.5912 22.4106C66.6159 22.3071 66.7145 22.1629 66.8036 22.0899C66.9024 22.0154 67.0148 21.8292 67.0518 21.674C67.1398 21.3217 67.4136 20.6725 67.5829 20.3981C67.6564 20.2874 67.8291 19.8328 67.9627 19.3839C68.0978 18.9448 68.2526 18.5727 68.3015 18.5655C68.3504 18.5583 68.411 18.3597 68.4449 18.1152C68.4704 17.8818 68.5239 17.6344 68.5641 17.5686C68.6043 17.5028 68.6773 17.2525 68.721 17.0065C68.7744 16.7591 68.8612 16.4668 68.9362 16.3659C69.0598 16.188 69.1253 15.8191 69.2859 14.4678C69.3249 14.1227 69.3948 13.783 69.4419 13.6962C69.489 13.6094 69.5456 13.4514 69.5689 13.3382C69.6511 12.9468 69.7119 11.1211 69.6762 10.2679C69.6575 9.80149 69.6943 9.2371 69.7521 9.01898C69.8716 8.54222 69.7189 6.41856 69.4683 4.91821C69.2722 3.78913 69.1418 3.64861 68.7877 4.15986Z" fill="url(#paint0_linear_603_8195)" fill-opacity="0.85"/>
<path d="M30.0635 80.7443C30.2688 80.479 31.1214 79.9007 31.3281 79.8831C31.3871 79.878 31.5477 79.785 31.668 79.6855C32.0372 79.3666 33.0016 78.9373 33.6624 78.7817C34.0026 78.7031 34.3779 78.572 34.4893 78.4832C34.7398 78.2833 36.6593 77.6635 37.6439 77.4704C38.0333 77.3876 38.5062 77.2381 38.6864 77.1435C38.8666 77.0488 39.2814 76.9142 39.6027 76.8471C39.9249 76.7899 40.3987 76.6503 40.6683 76.5579C40.9272 76.4565 41.4806 76.32 41.8815 76.2561C42.2824 76.1921 42.8725 76.0228 43.1888 75.8966C43.5052 75.7705 44.5314 75.4846 45.4634 75.2563C46.3963 75.0379 47.3544 74.7678 47.5937 74.668C47.8321 74.5585 48.2165 74.4166 48.4575 74.3366C50.0598 73.833 50.5917 73.6785 50.8673 73.655C51.0444 73.6399 51.3517 73.5244 51.5589 73.3977C51.7653 73.2611 52.1185 73.1021 52.3414 73.0434C53.1242 72.8081 54.3829 72.3438 54.4836 72.246C54.6023 72.1268 55.5282 71.7107 56.1912 71.4658C56.451 71.3742 57.058 71.0548 57.5388 70.7659C58.0098 70.4779 58.4645 70.2309 58.5432 70.2242C58.6219 70.2175 58.7521 70.1172 58.8413 70.0005C58.9304 69.8839 59.0606 69.7836 59.1393 69.7768C59.2968 69.7634 60.1921 69.2211 60.3926 69.0156C60.6209 68.788 61.5899 68.1799 61.7473 68.1665C61.8162 68.1606 61.9284 68.0816 61.9996 67.9863C62.1051 67.8287 62.4228 67.6033 63.074 67.2206C63.2346 67.1276 63.4933 66.9073 63.6471 66.7355C63.8009 66.5638 64.0703 66.3525 64.2416 66.2685C64.4128 66.1845 64.6372 66.0265 64.737 65.9189C64.8377 65.8211 65.1735 65.5744 65.4839 65.3794C65.7935 65.1745 66.0916 64.9508 66.1439 64.8671C66.1962 64.7833 66.4656 64.572 66.7473 64.3893C67.0291 64.2067 67.4852 63.8605 67.761 63.6089C68.0369 63.3574 68.3457 63.1427 68.4441 63.1343C68.5425 63.1259 68.7112 63.0124 68.8183 62.8744C68.9255 62.7364 69.221 62.4832 69.4839 62.3121C69.7362 62.1319 70.0334 61.8984 70.1341 61.8006C70.2339 61.693 70.4288 61.5375 70.5607 61.4569C70.8326 61.2751 71.287 60.9092 72.0336 60.2507C72.4953 59.8545 73.3648 59.1261 73.9764 58.6278C74.1066 58.5275 74.4365 58.2119 74.7197 57.93C75.002 57.6383 75.3893 57.2979 75.567 57.1737C75.7537 57.0388 76.0664 56.7544 76.2562 56.54C76.4559 56.3247 76.7922 55.9689 77.0108 55.7421C78.236 54.5373 81.7992 50.417 81.7841 50.2398C81.7791 50.1808 81.963 49.8975 82.1945 49.5903C82.4366 49.2921 82.7826 48.8165 82.9772 48.5422C83.1718 48.2679 83.4393 47.9179 83.5653 47.7684C83.6913 47.6189 83.8572 47.3569 83.9323 47.1919C84.0066 47.0171 84.2404 46.6205 84.471 46.3034C84.6918 45.9872 84.9508 45.5389 85.0406 45.3132C85.1303 45.0875 85.2732 44.7878 85.3599 44.6417C85.4465 44.4955 85.6271 44.1728 85.7537 43.9142C85.8901 43.6548 86.0724 43.3518 86.1615 43.2351C86.2409 43.1193 86.4524 42.6949 86.6173 42.3042C86.7813 41.9036 86.9658 41.5112 87.0181 41.4274C87.0705 41.3437 87.2452 40.9521 87.3912 40.5729C87.5471 40.1929 87.6964 39.853 87.744 39.8291C87.8455 39.7412 88.7045 37.4972 88.8207 37.0016C89.0158 36.1523 89.2342 35.4597 89.3773 35.279C89.4485 35.1837 89.561 34.8767 89.6072 34.6052C89.759 33.829 89.9389 33.1496 90.1434 32.5275C90.2453 32.2115 90.3199 31.8087 90.3056 31.6414C90.2914 31.4741 90.335 31.173 90.3969 30.9695C90.4597 30.7758 90.5318 30.3435 90.5623 30.0039C90.5936 29.6741 90.7076 29.2679 90.8032 29.1111C91.0288 28.735 90.9074 28.3588 90.601 28.4841C90.4863 28.5335 90.1289 28.6434 89.8084 28.7203C89.4887 28.8071 89.0085 28.9868 88.7521 29.1178C88.2023 29.4125 87.0854 30.2612 86.7418 30.6473C86.6059 30.7977 86.3883 31.0343 86.2417 31.1757C85.8202 31.5784 84.2166 33.4598 83.7447 34.0849C83.5141 34.402 83.097 34.9728 82.8123 35.354C82.5384 35.7441 82.0853 36.3576 81.8195 36.7273C81.5529 37.087 81.1096 37.6998 80.8447 38.0792C80.5797 38.4586 80.161 39.0098 79.9278 39.2973C79.6947 39.5849 79.5099 39.8583 79.5141 39.9075C79.52 39.9764 79.255 40.3559 78.2065 41.7736C76.7148 43.804 74.1507 46.8577 73.0883 47.8801C72.9778 47.9788 72.8895 48.1053 72.8732 48.1463C72.8577 48.1972 72.568 48.5193 72.2308 48.8652C71.8928 49.2014 71.3045 49.8562 70.9175 50.3155C70.5297 50.7649 70.1132 51.2267 69.983 51.327C69.8536 51.4371 69.5859 51.6682 69.3829 51.8441C69.1799 52.02 68.7803 52.3317 68.5002 52.534C68.2201 52.7363 67.8394 53.0364 67.665 53.2C67.4915 53.3734 67.1729 53.5889 66.9649 53.7058C66.7559 53.8129 66.5029 53.9832 66.4022 54.081C66.3024 54.1886 65.9453 54.4173 65.6045 54.605C65.2628 54.7829 64.9066 55.0214 64.7969 55.1299C64.6979 55.2474 64.5767 55.3371 64.5373 55.3404C64.4586 55.3471 63.5493 55.8411 63.1258 56.1052C62.6844 56.3907 61.7028 56.8512 61.3446 56.9512C61.161 57.0065 60.9037 57.1276 60.7735 57.2279C60.4951 57.4499 59.6027 57.7937 58.4224 58.1324C57.938 58.263 57.4668 58.4321 57.3537 58.5012C57.1948 58.6139 55.3978 58.9259 53.9457 59.0995C53.1315 59.1988 51.7272 59.1205 51.3374 58.9655C51.1215 58.8749 50.8055 58.773 50.6439 58.7372C50.1598 58.6398 50.1624 58.3224 50.6599 57.7645C50.8948 57.4967 51.1338 57.278 51.2027 57.2722C51.2715 57.2663 51.4107 57.1553 51.5187 57.0271C51.616 56.8899 51.8666 56.6901 52.0648 56.5741C52.2622 56.4482 52.526 56.2869 52.657 56.1964C52.7889 56.1158 53.0428 55.9553 53.223 55.8607C53.4033 55.766 53.6769 55.6038 53.8374 55.5108C53.9881 55.4187 54.2954 55.3032 54.5086 55.2454C54.7225 55.1974 55.0085 55.0639 55.1468 54.9431C55.286 54.8321 55.5818 54.6978 55.8146 54.6383C56.0482 54.5886 56.326 54.4756 56.4374 54.3868C56.5496 54.3079 56.8265 54.1851 57.0602 54.1354C57.293 54.0759 57.6658 53.9152 57.9009 53.7663C58.1359 53.6173 58.4219 53.4839 58.5498 53.473C58.6777 53.462 58.8892 53.3845 59.03 53.2932C59.1709 53.2019 59.4684 53.0873 59.6717 53.0303C59.8848 52.9724 60.2371 52.8036 60.4525 52.6563C60.6679 52.5091 60.9243 52.3781 61.0227 52.3697C61.1203 52.3515 61.3694 52.2509 61.5766 52.1242C61.7838 51.9975 62.0428 51.8961 62.1404 51.8778C62.2978 51.8644 63.5471 51.1729 64.3465 50.6685C64.9198 50.3024 65.674 49.7325 65.958 49.4604C66.1315 49.287 66.4983 48.9385 66.7741 48.687C67.4707 48.0229 68.3141 46.9894 68.452 46.6308C68.6886 46.0357 68.892 45.6318 69.0703 45.3985C69.1783 45.2703 69.2526 45.0955 69.2458 45.0167C69.2391 44.938 69.3 44.6057 69.3706 44.2726C69.4511 43.9387 69.546 43.4251 69.5717 43.1454C69.6064 42.855 69.6661 42.3939 69.7115 42.1125C69.7478 41.8418 69.7555 41.5834 69.7128 41.5474C69.6282 41.4853 69.0973 41.7685 68.6977 42.0802C68.3915 42.3244 67.4608 42.8003 67.2738 42.8163C67.1853 42.8238 66.9468 42.9334 66.7503 43.0691C66.3743 43.3094 65.8033 43.5861 64.7987 44.0089C64.5119 44.1325 64.1416 44.3227 63.9917 44.4247C63.832 44.5276 63.6312 44.6141 63.5328 44.6225C63.4344 44.6309 63.2427 44.7068 63.1018 44.7981C62.9601 44.8796 62.6134 44.9984 62.3216 45.063C62.0297 45.1275 61.6757 45.2767 61.5374 45.3975C61.3982 45.5085 61.0655 45.6757 60.7942 45.7484C60.2426 45.9046 59.5706 46.1602 58.6742 46.5738C57.6435 47.0384 56.7215 47.3848 56.4559 47.4075C56.3083 47.4201 56.0895 47.528 55.9618 47.6578C55.8235 47.7786 55.2122 48.0489 54.5959 48.2601C53.9796 48.4713 53.3863 48.7202 53.275 48.809C53.0146 49.0097 51.4181 49.5821 50.7172 49.7312C50.4254 49.7958 50.0796 49.9244 49.9494 50.0247C49.7258 50.1925 49.0564 50.4777 47.968 50.8481C47.6885 50.9414 47.4026 51.0748 47.3396 51.1496C47.202 51.2803 46.363 51.6691 45.7 51.914C45.4886 51.9916 45.197 52.1751 45.0603 52.3156C44.913 52.4471 44.7254 52.5722 44.6369 52.5797C44.5483 52.5873 44.3394 52.6943 44.1912 52.816C44.0332 52.9385 43.8341 53.0447 43.7455 53.0523C43.657 53.0599 43.4694 53.1849 43.3229 53.3263C43.1862 53.4668 42.9618 53.6247 42.8275 53.6758C42.6931 53.727 42.5047 53.8422 42.4023 53.9203C42.3008 54.0083 42.1484 54.0808 42.05 54.0892C41.9516 54.0976 41.7919 54.2004 41.6929 54.3179C41.5939 54.4354 41.2778 54.6804 40.9764 54.8647C40.675 55.0491 40.1517 55.4208 39.8176 55.6873C39.4827 55.9438 39.0364 56.2892 38.812 56.4471C38.5876 56.6051 38.1521 56.9594 37.85 57.2528C37.5373 57.5372 37.1599 57.8767 37.0134 58.0181C36.5992 58.3905 35.096 60.0551 35.0668 60.1766C35.0521 60.2373 34.8926 60.4591 34.7118 60.6628C34.288 61.155 33.4344 62.4173 33.366 62.661C33.335 62.7627 33.2279 62.9007 33.1345 62.9682C33.0313 63.0365 32.9078 63.2155 32.8614 63.3682C32.7522 63.7145 32.4394 64.3458 32.2538 64.6094C32.1736 64.7154 31.9736 65.1587 31.8129 65.5986C31.6514 66.0287 31.4742 66.3907 31.425 66.3949C31.3758 66.3991 31.3032 66.5937 31.2545 66.8357C31.2148 67.0671 31.1464 67.3108 31.1023 67.374C31.0581 67.4373 30.97 67.6827 30.9115 67.9255C30.8431 68.1693 30.7387 68.4557 30.6577 68.5518C30.5235 68.7219 30.4357 69.0862 30.1933 70.4251C30.1333 70.7673 30.0429 71.1021 29.9906 71.1858C29.9383 71.2696 29.8722 71.4239 29.8421 71.5355C29.7362 71.9212 29.5645 73.7398 29.5482 74.5936C29.5385 75.0602 29.4674 75.6214 29.3965 75.8356C29.2482 76.3042 29.2715 78.4332 29.4304 79.946C29.5574 81.0849 29.6791 81.2331 30.0635 80.7443Z" fill="url(#paint1_linear_603_8195)"/>
<defs>
<linearGradient id="paint0_linear_603_8195" x1="43.7136" y1="55.2885" x2="17" y2="59.9996" gradientUnits="userSpaceOnUse">
<stop/>
<stop offset="1" stop-color="#666666"/>
</linearGradient>
<linearGradient id="paint1_linear_603_8195" x1="60" y1="62.9997" x2="105.5" y2="33.4997" gradientUnits="userSpaceOnUse">
<stop stop-color="#225A4B"/>
<stop offset="1" stop-color="#112E27"/>
</linearGradient>
</defs>
</svg>
