<svg width="86" height="15" viewBox="0 0 86 15" fill="none" xmlns="http://www.w3.org/2000/svg">
<path d="M4.34056 0.306113C3.95128 0.361799 3.17271 0.598466 3.06149 0.695916C2.99893 0.751602 2.83209 0.849053 2.68611 0.918661C2.22037 1.13445 1.71986 1.6565 1.37229 2.30385C0.906544 3.14611 0.830078 3.68905 0.830078 6.06963C0.830078 8.04649 0.941301 9.1811 1.16375 9.51521C1.22631 9.61266 1.33058 9.8006 1.39314 9.93286C1.55998 10.2739 2.34549 11.0605 2.67221 11.2136C2.82514 11.2832 3.02673 11.4016 3.12405 11.4642C3.49248 11.7148 4.03469 11.8192 5.18168 11.861C6.07842 11.8888 6.37038 11.8749 6.64148 11.7914C6.82917 11.7357 7.09333 11.6661 7.23236 11.6452C7.37139 11.6174 7.53822 11.5408 7.60078 11.4712C7.66335 11.4016 7.80933 11.325 7.9136 11.3041C8.14995 11.2554 8.72692 10.7403 8.99802 10.3366C9.10925 10.1695 9.26913 9.95374 9.3456 9.85629C9.64451 9.48737 9.76268 8.70776 9.76268 7.16247C9.76268 5.9861 9.74878 5.74247 9.65841 5.68679C9.51243 5.5963 5.44584 5.5963 5.27205 5.68679C5.15388 5.7564 5.13997 5.83993 5.13997 6.59169V7.42002L5.40413 7.48963C5.54316 7.53139 6.02976 7.5662 6.47465 7.5662C7.42005 7.5662 7.43395 7.57316 7.43395 8.22747C7.43395 8.68688 7.31577 8.97923 6.94735 9.39688C6.711 9.66835 6.62758 9.71011 6.12013 9.82149C5.63352 9.93286 5.48754 9.93982 5.0218 9.87021C4.72289 9.82845 4.41007 9.73796 4.3197 9.66835C4.22238 9.6057 4.0764 9.50129 3.98603 9.43864C3.74273 9.27855 3.53419 8.97923 3.45772 8.69384C3.36735 8.35276 3.32565 4.54522 3.40211 3.87003C3.47163 3.29924 3.63151 2.98601 3.99994 2.67278C4.32665 2.40131 4.46568 2.35258 5.11217 2.30385C5.92549 2.24121 6.39123 2.3665 6.75271 2.74238C6.98906 2.98601 7.36443 3.66817 7.36443 3.85611C7.36443 3.90483 7.39919 4.02316 7.44785 4.12062L7.52432 4.29463H8.51142C9.70012 4.29463 9.75573 4.26679 9.74878 3.73777C9.74183 3.41062 9.6028 2.82591 9.44291 2.45003C9.35255 2.24817 8.8868 1.6217 8.77558 1.55905C8.71997 1.52425 8.58094 1.39895 8.45581 1.27366C8.33068 1.15533 8.07348 0.974347 7.88579 0.890818C7.69115 0.800328 7.48956 0.681994 7.43395 0.64023C7.20455 0.45229 6.08537 0.257388 5.30681 0.264349C4.88972 0.271309 4.45873 0.292192 4.34056 0.306113Z" fill="black"/>
<path d="M48.9679 0.321064C48.815 0.355868 48.5161 0.418515 48.3075 0.460279C48.099 0.502045 47.8487 0.599495 47.7514 0.669103C47.6541 0.73871 47.5012 0.82224 47.4038 0.850082C46.8825 1.01714 46.2568 1.6993 45.8328 2.59028L45.4922 3.28635V6.07066V8.85497L45.7216 9.31438C45.8398 9.56497 45.944 9.79467 45.944 9.82252C45.944 9.85036 46.0135 9.96869 46.097 10.094C46.6809 10.9293 47.5568 11.5209 48.5508 11.7507C49.677 12.0082 51.6025 11.869 52.1795 11.4861C52.2907 11.4165 52.4992 11.2982 52.6452 11.2216C52.9233 11.0824 53.4724 10.5673 53.8131 10.1288C54.0703 9.79467 54.2719 9.22389 54.3275 8.63919C54.39 7.92223 54.3761 7.91527 53.1735 7.91527C52.2559 7.91527 52.2003 7.92223 52.103 8.0684C52.0404 8.15193 51.9918 8.28419 51.9918 8.36076C51.9918 8.59046 51.7137 9.08468 51.4079 9.40487C51.1507 9.66242 51.0394 9.72507 50.6154 9.82252C50.0037 9.96173 49.8785 9.96173 49.2946 9.82252C48.7246 9.69026 48.384 9.41879 48.1337 8.88281L47.9599 8.50693V6.07762V3.65527L48.1407 3.25851C48.3909 2.70861 48.7107 2.47194 49.4128 2.31881C49.9481 2.20047 50.0037 2.20047 50.5459 2.31881C51.0116 2.41626 51.1576 2.48586 51.3175 2.65292C51.672 3.03576 51.9292 3.47429 51.9848 3.78753C52.0196 3.96155 52.0822 4.13557 52.1239 4.17733C52.1795 4.23302 52.534 4.26086 53.1805 4.26086C54.0772 4.26086 54.1676 4.24694 54.2649 4.12164C54.4874 3.82929 54.2371 2.57635 53.8478 2.04734C53.7644 1.929 53.5211 1.66449 53.3126 1.44871C52.8955 1.0241 52.0335 0.55077 51.4009 0.397633C50.9769 0.293221 49.3502 0.244495 48.9679 0.321064Z" fill="black"/>
<path d="M74.005 0.453256C73.8938 0.571589 73.8868 1.05884 73.8868 6.06364C73.8868 9.71108 73.9077 11.5905 73.9564 11.681C74.0259 11.7993 74.1162 11.8132 75.1033 11.8132C76.0904 11.8132 76.1808 11.7993 76.2503 11.681C76.299 11.5905 76.3198 9.70412 76.3198 6.04971C76.3198 0.815216 76.3129 0.550706 76.1947 0.446295C76.0904 0.348844 75.9028 0.327962 75.0894 0.327962C74.2344 0.327962 74.1023 0.341884 74.005 0.453256Z" fill="black"/>
<path d="M15.3159 3.46085C14.8989 3.54438 14.3566 3.83674 14.2176 4.04556C14.0994 4.24046 13.9118 4.28223 13.87 4.13605C13.8492 4.09428 13.8214 3.96899 13.8005 3.86458C13.7449 3.60007 13.4599 3.53046 12.4659 3.53046C11.6873 3.53046 11.6039 3.54438 11.5344 3.66272C11.4926 3.75321 11.4648 5.1384 11.4648 7.68604C11.4648 10.8462 11.4857 11.605 11.5622 11.7094C11.6456 11.8207 11.7499 11.8347 12.5493 11.8207C13.0706 11.8138 13.5225 11.772 13.6198 11.7233L13.7936 11.6398L13.8075 9.34271C13.8214 8.07585 13.8422 6.9482 13.8631 6.83683C13.8839 6.70457 14.0299 6.49575 14.2315 6.29389C14.5443 5.98761 14.586 5.96673 15.1144 5.89016C15.4202 5.8484 15.8095 5.82752 15.9902 5.8484C16.164 5.86928 16.3448 5.86232 16.3934 5.82752C16.449 5.79967 16.5255 5.54212 16.5742 5.26369C16.6228 4.9783 16.7132 4.6233 16.7757 4.47017C16.8314 4.31703 16.88 4.08732 16.887 3.96203C16.887 3.75321 16.8522 3.7184 16.595 3.60007C16.2266 3.43997 15.6913 3.37733 15.3159 3.46085Z" fill="black"/>
<path d="M19.97 3.60415C19.6919 3.67376 19.3583 3.80601 19.2262 3.8965C19.0941 3.98003 18.8369 4.14013 18.6631 4.24454C18.4893 4.35591 18.3017 4.52993 18.246 4.6413C18.1904 4.74572 18.1001 4.85013 18.0514 4.87101C17.8985 4.9267 17.683 5.6715 17.7733 5.81768C17.8707 5.97081 18.3225 6.07522 19.1636 6.13787C20.0187 6.20052 20.1577 6.17267 20.3106 5.90817C20.4914 5.60189 20.8181 5.4766 21.4854 5.46964C22.2153 5.46268 22.3752 5.52532 22.688 5.93601C22.9661 6.29797 23.0356 6.74346 22.827 6.82699C22.7645 6.84787 22.1528 6.86875 21.4576 6.86875C20.3593 6.86875 20.1507 6.88963 19.8935 7.00797C19.7337 7.07758 19.4834 7.1611 19.3444 7.18895C19.1984 7.21679 18.9342 7.31424 18.7535 7.40473C18.4268 7.57179 17.8637 8.066 17.8637 8.19826C17.8637 8.23306 17.7942 8.35836 17.7108 8.46973C17.5787 8.65071 17.5648 8.75512 17.5718 9.47208C17.5787 10.1751 17.5996 10.3143 17.7525 10.6136C17.8498 10.8016 18.0445 11.0522 18.1904 11.1775C18.3364 11.2958 18.5032 11.442 18.5658 11.4977C18.7604 11.6856 19.4069 11.8179 20.2967 11.8527C21.0405 11.8875 21.2421 11.8735 21.6801 11.7483C21.9651 11.6717 22.264 11.5464 22.3404 11.4698C22.6672 11.1705 22.9383 11.1566 22.9383 11.442C22.9383 11.4907 23.0008 11.5951 23.0773 11.6717C23.2024 11.797 23.3067 11.8109 24.1409 11.8109C24.9542 11.8109 25.0863 11.797 25.1836 11.6856C25.2879 11.5673 25.3018 11.254 25.3018 8.59502V5.62973L25.1349 5.26777C24.9264 4.81532 24.4259 4.27934 24.0366 4.07748C23.8698 3.99395 23.689 3.88954 23.6334 3.83386C23.5708 3.78513 23.2511 3.68072 22.9174 3.59719C22.0971 3.40925 20.693 3.40925 19.97 3.60415ZM22.8201 8.20522C22.9105 8.25395 22.9383 8.35836 22.9383 8.69247C22.9383 9.17277 22.7645 9.49992 22.3474 9.82708C21.826 10.2238 20.6304 10.2169 20.1577 9.81316C19.977 9.66002 19.9491 9.59737 19.9491 9.27718C19.9491 8.97091 19.977 8.88738 20.1438 8.72728C20.3732 8.50453 20.7972 8.26787 21.0961 8.1913C21.3811 8.12169 22.6672 8.12865 22.8201 8.20522Z" fill="black"/>
<path d="M29.4767 3.60743C29.2334 3.67704 28.9832 3.78145 28.9206 3.83714C28.858 3.89283 28.6912 3.98331 28.5452 4.04596C28.2115 4.18518 27.4955 4.92302 27.2662 5.37547C26.8769 6.12723 26.6614 7.74213 26.856 8.41733C26.9116 8.61919 26.9811 8.93938 27.0089 9.12732C27.0715 9.55193 27.3496 10.1854 27.5859 10.4359C27.6832 10.5404 27.864 10.7283 27.9752 10.8536C28.0934 10.9789 28.3436 11.1599 28.5313 11.2573C28.726 11.3548 28.9345 11.4731 28.9971 11.5218C29.2473 11.7237 30.0954 11.8838 30.9226 11.8838C31.8263 11.8838 32.4797 11.7446 33.0428 11.4383C33.3973 11.2504 34.0021 10.784 34.0508 10.6726C34.0647 10.6378 34.1481 10.5404 34.2315 10.4638C34.4261 10.2828 34.6555 9.8234 34.7181 9.51017C34.7876 9.14125 34.6625 8.91154 34.3566 8.82801C33.9951 8.73752 32.6535 8.66791 32.5562 8.73056C32.5145 8.7584 32.4311 8.87674 32.3685 8.99507C32.3129 9.10644 32.1252 9.33615 31.9584 9.48928C31.576 9.8582 31.152 9.96262 30.5055 9.85124C30.1093 9.7886 30.0259 9.73987 29.7548 9.45448C29.5879 9.28046 29.4281 9.07164 29.4002 8.98811C29.3655 8.91154 29.3238 8.45213 29.296 7.9788C29.2265 6.84419 29.3168 6.3987 29.6922 5.95321C29.9981 5.58429 30.2692 5.46596 30.8461 5.459C31.6386 5.45204 32.1044 5.72351 32.3963 6.3639C32.5701 6.73978 32.6952 6.77458 33.5572 6.66321C34.7876 6.50311 34.7181 6.53096 34.739 6.14811C34.7737 5.6539 34.4609 5.04831 33.9048 4.54018C33.6684 4.31743 33.3626 4.09469 33.2374 4.039C33.1054 3.98331 32.9177 3.8789 32.8134 3.8093C32.3407 3.46822 30.3665 3.34988 29.4767 3.60743Z" fill="black"/>
<path d="M38.7146 3.60047C37.9569 3.80233 37.4634 4.12253 36.9281 4.72812C36.4763 5.25017 36.1634 5.86272 36.0731 6.3987C35.934 7.28968 36.0383 9.12036 36.2469 9.37791C36.2955 9.4336 36.4276 9.67722 36.5388 9.91389C36.8238 10.4847 37.2757 10.9998 37.7067 11.2295C37.8943 11.3339 38.1029 11.4592 38.1655 11.5149C38.3879 11.7028 39.375 11.8838 40.1953 11.8838C41.0155 11.8768 41.954 11.7098 42.1764 11.5218C42.239 11.4661 42.4753 11.3339 42.6908 11.2225C43.1496 10.9998 43.5806 10.5543 43.5806 10.3107C43.5806 10.2132 43.4972 10.067 43.3582 9.95566C43.24 9.84428 42.9967 9.6285 42.8229 9.46144C42.6561 9.30134 42.4684 9.16909 42.4058 9.16909C42.3502 9.16909 42.1625 9.28742 41.9887 9.4336C41.6342 9.73291 41.3214 9.83036 40.515 9.89997C39.7851 9.96958 39.2916 9.8234 38.8675 9.41968C38.5895 9.15517 38.5547 9.08556 38.5478 8.81409L38.5408 8.50782L41.1893 8.48693C43.7336 8.47301 43.8448 8.46605 43.963 8.3338C44.0811 8.20154 44.0811 8.14585 43.9769 7.21311C43.8934 6.44743 43.8378 6.18292 43.7266 6.02978C43.6501 5.92537 43.5667 5.75135 43.5389 5.64694C43.4764 5.38243 43.1774 4.85341 42.9898 4.67243C42.9063 4.59586 42.809 4.48449 42.7743 4.4288C42.6283 4.1991 41.8358 3.74665 41.3284 3.60743C40.6402 3.41949 39.382 3.41253 38.7146 3.60047ZM40.6263 5.53557C40.9947 5.64694 41.0712 5.70262 41.2727 6.00194C41.53 6.3987 41.523 6.38478 41.4048 6.55184C41.3284 6.65625 41.1685 6.67713 40.1049 6.69105C39.4376 6.69801 38.8189 6.67713 38.7355 6.64929C38.4852 6.56576 38.5617 6.14115 38.8954 5.69566C38.944 5.63998 39.806 5.41723 40.0006 5.41723C40.1188 5.41723 40.3969 5.46596 40.6263 5.53557Z" fill="black"/>
<path d="M67.2242 3.56233C67.099 3.61802 66.9183 3.66674 66.8349 3.66674C66.7445 3.66674 66.5846 3.74331 66.4734 3.8338C66.3691 3.92429 66.2093 4.02174 66.1189 4.04959C65.8686 4.12615 65.1109 4.9336 64.9371 5.30948C64.8537 5.49743 64.7147 5.77586 64.6313 5.92203C64.3393 6.47889 64.3254 8.63673 64.6104 9.28408C64.6799 9.43026 64.812 9.71565 64.9024 9.91751C65.3056 10.7806 66.1745 11.4767 67.1755 11.7343C68.1904 11.9988 70.1577 11.8526 70.5748 11.4837C70.6582 11.4141 70.8042 11.3097 70.9015 11.2679C71.3672 11.0452 71.6383 10.7737 72.0624 10.1194C72.3404 9.69477 72.4099 9.31889 72.264 9.04046C72.1458 8.81075 72.1249 8.80379 70.8528 8.7133C70.1716 8.66458 70.0395 8.72026 69.8657 9.11703C69.678 9.54859 69.4695 9.70173 68.9134 9.82006C67.9193 10.0289 67.3145 9.70173 67.0156 8.78987C66.8766 8.37222 66.8627 8.21213 66.8836 7.46732C66.9183 6.54154 67.0365 6.16566 67.4049 5.81066C68.1279 5.11458 69.6989 5.39997 69.8935 6.25615C69.9213 6.36056 70.0326 6.5137 70.1507 6.59723C70.3315 6.72948 70.4149 6.7434 70.7486 6.70164C70.971 6.6738 71.3811 6.62507 71.6661 6.60419C71.9512 6.57634 72.2292 6.52762 72.2779 6.49978C72.3821 6.43017 72.3891 5.92203 72.2779 5.6088C72.0902 5.04498 71.1309 4.02174 70.7903 4.01478C70.7486 4.01478 70.6373 3.95214 70.54 3.88253C70.4496 3.80596 70.109 3.68067 69.7893 3.6041C69.0733 3.42312 67.5995 3.40223 67.2242 3.56233Z" fill="black"/>
<path d="M80.7357 3.56413C80.5828 3.61982 80.3951 3.66854 80.3117 3.66854C80.2352 3.66854 80.0962 3.74511 80.0058 3.84256C79.9154 3.94002 79.8042 4.01658 79.7625 4.01658C79.6513 4.01658 79.1021 4.43423 78.8588 4.7057C78.6364 4.95629 78.4556 5.26952 78.1637 5.9308C78.0038 6.29276 77.969 6.46677 77.9412 7.25334C77.9204 7.7754 77.9343 8.30442 77.976 8.50628C78.0803 8.97265 78.3722 9.80098 78.5599 10.1212C78.7545 10.4623 79.4427 11.1444 79.7416 11.2975C79.8668 11.3602 80.0197 11.4507 80.0753 11.4994C80.4646 11.8266 82.3137 11.9867 83.3008 11.7848C83.5997 11.7222 83.9264 11.6247 84.0307 11.569C84.128 11.5133 84.3505 11.402 84.5173 11.3184C84.9066 11.1305 85.567 10.4901 85.567 10.3022C85.567 10.1421 84.6633 9.28589 84.3991 9.20932C84.274 9.16755 84.1697 9.21628 83.9056 9.43902C83.551 9.73834 82.9602 9.93324 82.404 9.93324C81.9035 9.93324 81.2014 9.7453 80.9373 9.53647C80.5272 9.20932 80.2839 8.61069 80.5341 8.51324C80.5967 8.49236 81.7923 8.47148 83.1896 8.47148C84.5938 8.47148 85.7824 8.44363 85.8311 8.40883C86.0258 8.28354 86.0536 7.83805 85.9076 6.99579C85.7477 6.02129 85.7685 6.08393 85.3515 5.33217C84.8718 4.47599 84.1558 3.84953 83.3773 3.61286C82.8698 3.45972 81.1041 3.42492 80.7357 3.56413ZM82.7238 5.5758C82.9741 5.68021 83.2869 6.02129 83.3703 6.28579C83.3912 6.36236 83.3703 6.4807 83.3147 6.55726C83.2313 6.6756 83.1131 6.68952 82.0495 6.69648C81.403 6.70344 80.8052 6.68256 80.7218 6.64775C80.5967 6.60599 80.5619 6.54334 80.5619 6.3554C80.5619 6.02129 80.8956 5.65236 81.3196 5.51315C81.695 5.39482 82.3554 5.42266 82.7238 5.5758Z" fill="black"/>
<path d="M55.5958 3.60683C55.5263 3.64163 55.4707 3.753 55.4707 3.85045C55.4707 4.05928 55.7071 4.81104 55.8669 5.09643C55.9295 5.2078 56.0199 5.45839 56.0685 5.65329C56.2076 6.20319 56.3674 6.67653 56.5134 6.948C56.5829 7.08025 56.6872 7.36564 56.7498 7.57446C56.9027 8.13829 57.0695 8.61162 57.2086 8.92485C57.2781 9.07799 57.431 9.50956 57.5492 9.88544C57.6674 10.2544 57.8203 10.679 57.8968 10.8251C58.2513 11.5212 58.1818 12.2034 57.716 12.6141C57.4171 12.8786 57.3476 12.8995 56.5204 12.9899C56.0894 13.0387 55.9086 13.0874 55.8391 13.1779C55.7766 13.2614 55.7488 13.5468 55.7488 14.048C55.7488 14.6536 55.7696 14.8067 55.8669 14.8833C56.0894 15.0712 58.1401 14.925 58.3834 14.7093C58.4459 14.6536 58.6058 14.5631 58.7379 14.5004C59.2662 14.2498 59.3844 14.1524 59.6763 13.693C60.0378 13.1292 60.4062 12.3635 60.4062 12.1755C60.4062 12.099 60.4827 11.8971 60.5731 11.7231C60.6704 11.5491 60.7677 11.2846 60.7955 11.1384C60.8164 10.9922 60.8789 10.8043 60.9345 10.7207C60.9832 10.6372 61.0597 10.4214 61.1014 10.2404C61.1431 10.0595 61.2404 9.83671 61.3099 9.73926C61.3864 9.64877 61.4489 9.5026 61.4489 9.41907C61.4559 9.3425 61.5046 9.1476 61.5602 8.99446C61.6158 8.84132 61.7061 8.54897 61.7548 8.35407C61.8035 8.15221 61.8799 7.95035 61.9216 7.90162C62.0259 7.77633 62.3874 6.75309 62.45 6.41898C62.4778 6.26584 62.5612 6.06398 62.6376 5.95957C62.7072 5.85515 62.7697 5.73682 62.7697 5.69506C62.7697 5.56976 63.1799 4.33771 63.2911 4.14281C63.4301 3.89222 63.4232 3.69036 63.2633 3.59986C63.1868 3.56506 62.6793 3.53026 62.1232 3.53026C60.9345 3.53026 60.865 3.56506 60.7538 4.13584C60.719 4.33771 60.6426 4.58829 60.587 4.69271C60.4966 4.88761 60.2741 5.68114 60.0934 6.48858C60.0378 6.71829 59.9474 7.00368 59.8849 7.12898C59.8223 7.24731 59.7458 7.5327 59.7111 7.74848C59.6763 7.97123 59.6068 8.17309 59.5582 8.20093C59.4261 8.28446 59.1967 8.10348 59.1411 7.87378C59.1133 7.7624 59.0368 7.48397 58.9812 7.25427C58.9186 7.02456 58.8282 6.64172 58.7726 6.40506C58.724 6.16839 58.6336 5.90388 58.571 5.81339C58.5154 5.7229 58.4251 5.46535 58.3625 5.23565C58.3069 5.00594 58.2304 4.69271 58.1887 4.53957C58.154 4.38643 58.0983 4.14281 58.0775 4.00359C58.0149 3.5929 57.8203 3.53026 56.6733 3.53026C56.145 3.53026 55.6584 3.56506 55.5958 3.60683Z" fill="black"/>
</svg>
