<svg width="390" height="121" viewBox="0 0 390 121" fill="none" xmlns="http://www.w3.org/2000/svg">
<rect width="390" height="121" fill="#EEEADF"/>
<ellipse cx="83.786" cy="84" rx="4.98721" ry="5" fill="#D9D9D9"/>
<circle cx="338.632" cy="50.5004" r="3.49552" fill="#D9D9D9"/>
<circle cx="205.972" cy="64.5004" r="3.49552" fill="#D9D9D9"/>
<circle cx="107.224" cy="115.5" r="3.49552" fill="#D9D9D9"/>
<ellipse cx="126.675" cy="37" rx="4.98721" ry="5" fill="#D9D9D9"/>
<ellipse cx="4.98721" cy="100" rx="4.98721" ry="5" fill="#D9D9D9"/>
<ellipse cx="249.36" cy="18" rx="4.98721" ry="5" fill="#D9D9D9"/>
<ellipse cx="239.386" cy="104" rx="4.98721" ry="5" fill="#D9D9D9"/>
<path d="M301.955 96.7777C302.376 96.0061 303.479 96.0041 303.903 96.7743L305.003 98.7724C305.101 98.951 305.246 99.0991 305.422 99.2007L307.672 100.498C308.42 100.929 308.416 102.015 307.664 102.441L305.104 103.89C304.906 104.002 304.748 104.172 304.649 104.377L303.846 106.043C303.456 106.852 302.323 106.891 301.88 106.11L300.859 104.313C300.766 104.148 300.632 104.01 300.471 103.912L298.096 102.461C297.371 102.019 297.386 100.958 298.121 100.535L300.444 99.2018C300.623 99.0995 300.769 98.9497 300.868 98.769L301.955 96.7777Z" fill="#5C8277"/>
<path d="M292.027 59.1386C292.297 58.6444 293.003 58.6432 293.274 59.1364L293.979 60.4162C294.042 60.5306 294.135 60.6255 294.248 60.6905L295.688 61.5213C296.168 61.7976 296.165 62.4934 295.683 62.7659L294.044 63.6942C293.917 63.7658 293.815 63.8745 293.752 64.0059L293.238 65.073C292.988 65.5913 292.262 65.616 291.978 65.1157L291.325 63.965C291.265 63.8595 291.179 63.7711 291.076 63.708L289.555 62.7788C289.091 62.4956 289.1 61.8159 289.571 61.5454L291.059 60.6912C291.173 60.6258 291.267 60.5298 291.33 60.4141L292.027 59.1386Z" fill="#5C8277"/>
<path d="M168.66 113.139C168.929 112.644 169.635 112.643 169.907 113.136L170.612 114.416C170.675 114.531 170.768 114.625 170.88 114.691L172.321 115.521C172.8 115.798 172.798 116.493 172.316 116.766L170.676 117.694C170.55 117.766 170.448 117.875 170.385 118.006L169.871 119.073C169.621 119.591 168.895 119.616 168.611 119.116L167.958 117.965C167.898 117.86 167.812 117.771 167.709 117.708L166.187 116.779C165.724 116.496 165.733 115.816 166.204 115.545L167.692 114.691C167.806 114.626 167.9 114.53 167.963 114.414L168.66 113.139Z" fill="#5C8277"/>
<path d="M96.2778 6.13719C96.5481 5.64358 97.255 5.64234 97.5269 6.13499L98.2343 7.41645C98.2973 7.5307 98.3904 7.62544 98.5034 7.69042L99.9495 8.52208C100.429 8.79806 100.427 9.49299 99.9446 9.76516L98.2988 10.6943C98.1722 10.7658 98.0703 10.8745 98.007 11.0056L97.4905 12.0745C97.2404 12.5922 96.5138 12.6168 96.2294 12.1172L95.5733 10.9648C95.5134 10.8594 95.4277 10.7711 95.3243 10.7081L93.7973 9.77799C93.333 9.49513 93.3421 8.81636 93.814 8.54619L95.3072 7.69112C95.4215 7.62571 95.5154 7.52991 95.5787 7.41429L96.2778 6.13719Z" fill="#5C8277"/>
<path d="M4.51222 38.1372C4.78244 37.6436 5.48934 37.6423 5.76129 38.135L6.46865 39.4165C6.53172 39.5307 6.62478 39.6254 6.73775 39.6904L8.18384 40.5221C8.66372 40.7981 8.66098 41.493 8.17893 41.7652L6.5332 42.6943C6.40655 42.7658 6.30471 42.8745 6.24134 43.0056L5.72489 44.0745C5.47475 44.5922 4.7482 44.6168 4.46378 44.1172L3.80772 42.9648C3.74776 42.8594 3.66206 42.7711 3.55868 42.7081L2.03171 41.778C1.56736 41.4951 1.57652 40.8164 2.04833 40.5462L3.54162 39.6911C3.65584 39.6257 3.7498 39.5299 3.81309 39.4143L4.51222 38.1372Z" fill="#5C8277"/>
<path d="M40.3991 106.775C40.821 106.005 41.9247 106.003 42.3493 106.772L43.4537 108.773C43.5521 108.951 43.6974 109.099 43.8738 109.2L46.1315 110.499C46.8808 110.93 46.8765 112.015 46.1239 112.44L43.5544 113.89C43.3567 114.002 43.1977 114.172 43.0988 114.376L42.2924 116.045C41.9019 116.854 40.7676 116.892 40.3235 116.112L39.2992 114.313C39.2056 114.148 39.0718 114.01 38.9104 113.912L36.5264 112.46C35.8014 112.018 35.8157 110.958 36.5523 110.537L38.8838 109.202C39.0621 109.099 39.2088 108.95 39.3076 108.769L40.3991 106.775Z" fill="#5C8277"/>
<path d="M205.975 22.7755C206.397 22.0048 207.501 22.0029 207.925 22.772L209.03 24.7727C209.128 24.9511 209.274 25.099 209.45 25.2005L211.708 26.4989C212.457 26.9298 212.453 28.0148 211.7 28.4397L209.131 29.8904C208.933 30.002 208.774 30.1716 208.675 30.3764L207.869 32.0452C207.478 32.8535 206.344 32.892 205.9 32.1119L204.875 30.3126C204.782 30.1482 204.648 30.0103 204.487 29.912L202.103 28.4597C201.378 28.0181 201.392 26.9584 202.129 26.5366L204.46 25.2016C204.638 25.0995 204.785 24.9499 204.884 24.7694L205.975 22.7755Z" fill="#5C8277"/>
<path d="M381.522 6.77547C381.944 6.00481 383.048 6.00287 383.472 6.77204L384.577 8.77274C384.675 8.9511 384.82 9.09903 384.997 9.20047L387.255 10.4989C388.004 10.9298 388 12.0148 387.247 12.4397L384.677 13.8904C384.48 14.002 384.321 14.1716 384.222 14.3764L383.415 16.0452C383.025 16.8535 381.891 16.892 381.447 16.1119L380.422 14.3126C380.329 14.1482 380.195 14.0103 380.033 13.912L377.649 12.4597C376.924 12.0181 376.939 10.9584 377.675 10.5366L380.007 9.20157C380.185 9.09945 380.332 8.94987 380.431 8.76937L381.522 6.77547Z" fill="#5C8277"/>
<path d="M92.2663 50.7755C92.6882 50.0048 93.7919 50.0029 94.2164 50.772L95.3208 52.7727C95.4193 52.9511 95.5646 53.099 95.741 53.2005L97.9987 54.4989C98.7479 54.9298 98.7437 56.0148 97.991 56.4397L95.4216 57.8904C95.2239 58.002 95.0649 58.1716 94.966 58.3764L94.1596 60.0452C93.7691 60.8535 92.6347 60.892 92.1907 60.1119L91.1664 58.3126C91.0728 58.1482 90.939 58.0103 90.7776 57.912L88.3936 56.4597C87.6686 56.0181 87.6829 54.9584 88.4195 54.5366L90.7509 53.2016C90.9293 53.0995 91.076 52.9499 91.1748 52.7694L92.2663 50.7755Z" fill="#5C8277"/>
</svg>
