<svg width="26" height="26" viewBox="0 0 26 26" fill="none" xmlns="http://www.w3.org/2000/svg">
<path d="M0.866667 0C0.636812 0 0.416372 0.0913092 0.253841 0.253841C0.0913093 0.416372 0 0.636812 0 0.866667C0 1.09652 0.0913093 1.31696 0.253841 1.47949C0.416372 1.64202 0.636812 1.73333 0.866667 1.73333H2.79067L3.48573 4.5188L6.08227 18.3595C6.11944 18.5581 6.22484 18.7374 6.38024 18.8666C6.53565 18.9957 6.73128 19.0665 6.93333 19.0667H8.66667C7.74725 19.0667 6.86549 19.4319 6.21536 20.082C5.56524 20.7322 5.2 21.6139 5.2 22.5333C5.2 23.4527 5.56524 24.3345 6.21536 24.9846C6.86549 25.6348 7.74725 26 8.66667 26C9.58608 26 10.4678 25.6348 11.118 24.9846C11.7681 24.3345 12.1333 23.4527 12.1333 22.5333C12.1333 21.6139 11.7681 20.7322 11.118 20.082C10.4678 19.4319 9.58608 19.0667 8.66667 19.0667H20.8C19.8806 19.0667 18.9988 19.4319 18.3487 20.082C17.6986 20.7322 17.3333 21.6139 17.3333 22.5333C17.3333 23.4527 17.6986 24.3345 18.3487 24.9846C18.9988 25.6348 19.8806 26 20.8 26C21.7194 26 22.6012 25.6348 23.2513 24.9846C23.9014 24.3345 24.2667 23.4527 24.2667 22.5333C24.2667 21.6139 23.9014 20.7322 23.2513 20.082C22.6012 19.4319 21.7194 19.0667 20.8 19.0667H22.5333C22.7354 19.0665 22.931 18.9957 23.0864 18.8666C23.2418 18.7374 23.3472 18.5581 23.3844 18.3595L25.9844 4.4928C26.0078 4.36772 26.0034 4.23901 25.9715 4.11583C25.9395 3.99265 25.8809 3.87801 25.7996 3.78006C25.7184 3.68211 25.6166 3.60325 25.5014 3.54909C25.3863 3.49492 25.2606 3.46678 25.1333 3.46667H5.00933L4.30733 0.656933C4.26055 0.469359 4.15239 0.302811 4.00007 0.183776C3.84774 0.0647412 3.65999 5.34066e-05 3.46667 0H0.866667ZM7.65267 17.3333L5.3768 5.2H24.0899L21.814 17.3333H7.65267ZM10.4 22.5333C10.4 22.993 10.2174 23.4339 9.89232 23.759C9.56725 24.084 9.12638 24.2667 8.66667 24.2667C8.20696 24.2667 7.76608 24.084 7.44101 23.759C7.11595 23.4339 6.93333 22.993 6.93333 22.5333C6.93333 22.0736 7.11595 21.6327 7.44101 21.3077C7.76608 20.9826 8.20696 20.8 8.66667 20.8C9.12638 20.8 9.56725 20.9826 9.89232 21.3077C10.2174 21.6327 10.4 22.0736 10.4 22.5333ZM22.5333 22.5333C22.5333 22.993 22.3507 23.4339 22.0257 23.759C21.7006 24.084 21.2597 24.2667 20.8 24.2667C20.3403 24.2667 19.8994 24.084 19.5743 23.759C19.2493 23.4339 19.0667 22.993 19.0667 22.5333C19.0667 22.0736 19.2493 21.6327 19.5743 21.3077C19.8994 20.9826 20.3403 20.8 20.8 20.8C21.2597 20.8 21.7006 20.9826 22.0257 21.3077C22.3507 21.6327 22.5333 22.0736 22.5333 22.5333Z" fill="black"/>
</svg>
