<svg width="23" height="22" viewBox="0 0 23 22" fill="none" xmlns="http://www.w3.org/2000/svg">
<path d="M1.6409 -0.000488281C1.44994 -0.000488281 1.26681 0.0753686 1.13178 0.210395C0.996755 0.345421 0.920898 0.528556 0.920898 0.719512C0.920898 0.910468 0.996755 1.0936 1.13178 1.22863C1.26681 1.36365 1.44994 1.43951 1.6409 1.43951H3.2393L3.81674 3.75359L5.97386 15.252C6.00474 15.417 6.09231 15.566 6.22141 15.6733C6.35051 15.7806 6.51304 15.8394 6.6809 15.8395H8.1209C7.35708 15.8395 6.62454 16.1429 6.08443 16.683C5.54433 17.2232 5.2409 17.9557 5.2409 18.7195C5.2409 19.4833 5.54433 20.2159 6.08443 20.756C6.62454 21.2961 7.35708 21.5995 8.1209 21.5995C8.88472 21.5995 9.61726 21.2961 10.1574 20.756C10.6975 20.2159 11.0009 19.4833 11.0009 18.7195C11.0009 17.9557 10.6975 17.2232 10.1574 16.683C9.61726 16.1429 8.88472 15.8395 8.1209 15.8395H18.2009C17.4371 15.8395 16.7045 16.1429 16.1644 16.683C15.6243 17.2232 15.3209 17.9557 15.3209 18.7195C15.3209 19.4833 15.6243 20.2159 16.1644 20.756C16.7045 21.2961 17.4371 21.5995 18.2009 21.5995C18.9647 21.5995 19.6973 21.2961 20.2374 20.756C20.7775 20.2159 21.0809 19.4833 21.0809 18.7195C21.0809 17.9557 20.7775 17.2232 20.2374 16.683C19.6973 16.1429 18.9647 15.8395 18.2009 15.8395H19.6409C19.8088 15.8394 19.9713 15.7806 20.1004 15.6733C20.2295 15.566 20.3171 15.417 20.3479 15.252L22.5079 3.73199C22.5274 3.62808 22.5237 3.52115 22.4972 3.41882C22.4707 3.31648 22.4219 3.22124 22.3544 3.13987C22.2869 3.0585 22.2024 2.99298 22.1067 2.94799C22.011 2.90299 21.9066 2.87961 21.8009 2.87951H5.0825L4.4993 0.545272C4.46043 0.389441 4.37058 0.251078 4.24403 0.152187C4.11748 0.0532967 3.9615 -0.000443913 3.8009 -0.000488281H1.6409ZM7.2785 14.3995L5.38778 4.31951H20.934L19.0433 14.3995H7.2785ZM9.5609 18.7195C9.5609 19.1014 9.40918 19.4677 9.13913 19.7377C8.86908 20.0078 8.50281 20.1595 8.1209 20.1595C7.73899 20.1595 7.37272 20.0078 7.10267 19.7377C6.83261 19.4677 6.6809 19.1014 6.6809 18.7195C6.6809 18.3376 6.83261 17.9713 7.10267 17.7013C7.37272 17.4312 7.73899 17.2795 8.1209 17.2795C8.50281 17.2795 8.86908 17.4312 9.13913 17.7013C9.40918 17.9713 9.5609 18.3376 9.5609 18.7195ZM19.6409 18.7195C19.6409 19.1014 19.4892 19.4677 19.2191 19.7377C18.9491 20.0078 18.5828 20.1595 18.2009 20.1595C17.819 20.1595 17.4527 20.0078 17.1827 19.7377C16.9126 19.4677 16.7609 19.1014 16.7609 18.7195C16.7609 18.3376 16.9126 17.9713 17.1827 17.7013C17.4527 17.4312 17.819 17.2795 18.2009 17.2795C18.5828 17.2795 18.9491 17.4312 19.2191 17.7013C19.4892 17.9713 19.6409 18.3376 19.6409 18.7195Z" fill="#225A4B"/>
</svg>
