<svg width="18" height="18" viewBox="0 0 18 18" fill="none" xmlns="http://www.w3.org/2000/svg">
<path fill-rule="evenodd" clip-rule="evenodd" d="M7.3125 6.1875C7.3125 3.70222 9.32722 1.6875 11.8125 1.6875C14.2977 1.6875 16.3125 3.70222 16.3125 6.1875C16.3125 8.67278 14.2977 10.6875 11.8125 10.6875C11.3122 10.6875 10.8327 10.6062 10.3854 10.4567C10.0821 10.3554 9.74751 10.4343 9.52138 10.6604L8.36926 11.8125H7.03125C6.56526 11.8125 6.1875 12.1903 6.1875 12.6562V13.9942L6.11926 14.0625H4.78125C4.31526 14.0625 3.9375 14.4403 3.9375 14.9062V16.2442L3.86926 16.3125H1.96875C1.81342 16.3125 1.6875 16.1866 1.6875 16.0312V14.1308L7.33962 8.47862C7.56575 8.25249 7.64461 7.91795 7.54327 7.61463C7.3938 7.16728 7.3125 6.68774 7.3125 6.1875ZM11.8125 0C8.39523 0 5.625 2.77023 5.625 6.1875C5.625 6.68556 5.68402 7.17075 5.7957 7.63606L0.247129 13.1847C0.0888948 13.3428 0 13.5575 0 13.7812V16.0312C0 17.1186 0.88144 18 1.96875 18H4.21875C4.44252 18 4.65714 17.9111 4.81537 17.7528L5.37787 17.1903C5.5361 17.0322 5.625 16.8175 5.625 16.5938V15.75H6.46875C6.69252 15.75 6.90714 15.6611 7.06537 15.5028L7.62787 14.9403C7.7861 14.7822 7.875 14.5675 7.875 14.3438V13.5H8.71875C8.94252 13.5 9.15714 13.4111 9.31537 13.2528L10.3639 12.2043C10.8293 12.3159 11.3145 12.375 11.8125 12.375C15.2298 12.375 18 9.60477 18 6.1875C18 2.77023 15.2298 0 11.8125 0ZM12.375 6.75C12.9963 6.75 13.5 6.24632 13.5 5.625C13.5 5.00368 12.9963 4.5 12.375 4.5C11.7537 4.5 11.25 5.00368 11.25 5.625C11.25 6.24632 11.7537 6.75 12.375 6.75Z" fill="#24292E"/>
</svg>
