<svg width="25" height="20" viewBox="0 0 25 20" fill="none" xmlns="http://www.w3.org/2000/svg">
<path d="M23.5288 12.5032C23.2312 12.274 22.8848 12.1166 22.5165 12.0432C22.1481 11.9699 21.7678 11.9826 21.4052 12.0803L17.2219 13.0421C17.3193 12.631 17.3223 12.2032 17.2307 11.7907C17.1392 11.3782 16.9555 10.9918 16.6934 10.6605C16.4313 10.3291 16.0976 10.0614 15.7173 9.87734C15.337 9.69329 14.9199 9.59771 14.4974 9.59775H9.49235C9.07203 9.5967 8.65566 9.67895 8.26731 9.83975C7.87896 10.0005 7.52632 10.2367 7.22977 10.5346L4.96818 12.7972H2.09971C1.67544 12.7972 1.26855 12.9657 0.968543 13.2657C0.66854 13.5657 0.5 13.9726 0.5 14.3969L0.5 18.3961C0.5 18.8204 0.66854 19.2273 0.968543 19.5273C1.26855 19.8273 1.67544 19.9958 2.09971 19.9958H12.4978C12.5632 19.9959 12.6283 19.9878 12.6918 19.9718L19.0906 18.3721C19.1314 18.3624 19.1712 18.349 19.2096 18.3322L23.0959 16.6785L23.1399 16.6585C23.5134 16.4718 23.8332 16.1932 24.0692 15.8488C24.3053 15.5044 24.4498 15.1055 24.4891 14.6898C24.5284 14.2742 24.4612 13.8553 24.2939 13.4728C24.1266 13.0902 23.8647 12.7566 23.5328 12.5032H23.5288ZM2.09971 14.3969H4.49927V18.3961H2.09971V14.3969ZM22.439 15.2177L18.6397 16.8354L12.3978 18.3961H6.09897V13.928L8.36156 11.6664C8.50957 11.5172 8.68575 11.3989 8.87988 11.3184C9.07401 11.2379 9.2822 11.1968 9.49235 11.1975H14.4974C14.8156 11.1975 15.1208 11.3239 15.3458 11.5489C15.5708 11.7739 15.6972 12.079 15.6972 12.3972C15.6972 12.7154 15.5708 13.0206 15.3458 13.2456C15.1208 13.4706 14.8156 13.597 14.4974 13.597H11.6979C11.4858 13.597 11.2824 13.6813 11.1324 13.8313C10.9824 13.9813 10.8981 14.1847 10.8981 14.3969C10.8981 14.609 10.9824 14.8125 11.1324 14.9625C11.2824 15.1125 11.4858 15.1967 11.6979 15.1967H14.8974C14.9576 15.1966 15.0176 15.1899 15.0763 15.1767L21.7751 13.636L21.8061 13.628C22.0106 13.5712 22.2288 13.5921 22.4189 13.6866C22.6089 13.7811 22.7573 13.9425 22.8355 14.1398C22.9137 14.3371 22.9161 14.5563 22.8424 14.7553C22.7686 14.9543 22.6239 15.119 22.436 15.2177H22.439ZM15.9312 6.16438C15.7811 6.0143 15.6968 5.81074 15.6968 5.59849C15.6968 5.38623 15.7811 5.18267 15.9312 5.03259C16.0813 4.8825 16.2848 4.79819 16.4971 4.79819C16.7093 4.79819 16.9129 4.8825 17.063 5.03259L18.8966 6.86725V0.799365C18.8966 0.587231 18.9809 0.383785 19.1309 0.233783C19.2809 0.0837817 19.4843 -0.000488281 19.6965 -0.000488281C19.9086 -0.000488281 20.1121 0.0837817 20.2621 0.233783C20.4121 0.383785 20.4963 0.587231 20.4963 0.799365V6.86725L22.33 5.03259C22.4801 4.8825 22.6836 4.79819 22.8959 4.79819C23.1081 4.79819 23.3117 4.8825 23.4618 5.03259C23.6119 5.18267 23.6962 5.38623 23.6962 5.59849C23.6962 5.81074 23.6119 6.0143 23.4618 6.16438L20.2624 9.3638C20.1881 9.43816 20.0999 9.49716 20.0028 9.53741C19.9057 9.57766 19.8016 9.59838 19.6965 9.59838C19.5914 9.59838 19.4873 9.57766 19.3902 9.53741C19.2931 9.49716 19.2049 9.43816 19.1306 9.3638L15.9312 6.16438Z" fill="#A19F9C"/>
</svg>
