<svg width="186" height="209" viewBox="0 0 186 209" fill="none" xmlns="http://www.w3.org/2000/svg">
<path d="M157.916 175.961C159.611 175.165 161.517 174.934 163.353 175.303C164.338 175.464 165.37 175.763 166.037 176.5C166.705 177.236 166.838 178.544 166.065 179.179C165.566 179.519 164.962 179.67 164.361 179.607C162.92 179.607 161.327 179.336 160.181 180.201C159.523 180.694 159.09 181.513 158.307 181.757C157.913 181.849 157.5 181.809 157.132 181.642C156.763 181.476 156.459 181.193 156.268 180.837C155.896 180.116 155.813 179.281 156.037 178.502C156.134 177.963 156.354 177.453 156.68 177.012C157.005 176.571 157.428 176.212 157.916 175.961Z" fill="#225A4B"/>
<path d="M154.104 168.649C155.117 170.09 157.083 169.616 157.994 168.732C158.906 167.848 159.288 166.573 159.638 165.358C160.439 162.572 161.249 159.653 160.655 156.817C160.508 155.965 160.13 155.169 159.564 154.515C159.276 154.191 158.907 153.948 158.495 153.81C158.083 153.673 157.642 153.646 157.216 153.733C156.222 153.995 155.609 154.966 155.163 155.887C153.85 158.617 153.163 161.606 153.151 164.635C153.151 166.044 153.312 167.517 154.104 168.682" fill="#225A4B"/>
<path d="M151.327 170.721C151.848 170.042 152.194 169.247 152.337 168.403C152.48 167.56 152.415 166.695 152.147 165.882C151.59 164.265 150.6 162.831 149.283 161.739C147.786 160.407 146.044 159.379 144.154 158.714C143.424 158.419 142.639 158.285 141.853 158.323C141.459 158.345 141.077 158.463 140.74 158.667C140.403 158.871 140.121 159.154 139.919 159.492C139.376 160.523 139.919 161.771 140.453 162.788C141.438 164.585 142.565 166.3 143.823 167.917C144.831 169.22 145.987 170.505 147.529 171.094C149.072 171.683 150.665 171.61 151.479 170.546" fill="#225A4B"/>
<path d="M154.039 190.431C154.09 190.216 154.119 189.997 154.127 189.777C154.177 189.316 154.233 188.699 154.302 187.986C154.39 187.103 154.525 186.225 154.707 185.357C154.941 184.3 155.26 183.264 155.66 182.259C156.053 181.254 156.586 180.31 157.244 179.455C157.779 178.757 158.463 178.188 159.246 177.788C159.777 177.525 160.345 177.348 160.931 177.263C161.152 177.255 161.371 177.225 161.585 177.171C161.363 177.147 161.14 177.147 160.918 177.171C160.31 177.22 159.717 177.376 159.164 177.632C158.339 178.019 157.616 178.593 157.05 179.307C156.366 180.176 155.814 181.141 155.411 182.171C155.003 183.191 154.686 184.245 154.463 185.32C154.293 186.199 154.177 187.088 154.113 187.981C154.053 188.741 154.035 189.362 154.026 189.781C154.005 189.998 154.009 190.215 154.039 190.431Z" fill="#263238"/>
<path d="M154.159 189.054C154.173 188.953 154.173 188.851 154.159 188.75V187.894C154.159 187.139 154.159 186.052 154.196 184.671C154.265 181.969 154.495 179.064 154.946 174.966C155.37 171.113 155.941 166.628 156.544 163.714C156.673 163.051 156.802 162.453 156.926 161.932C157.05 161.412 157.142 160.956 157.239 160.593C157.336 160.229 157.386 159.966 157.442 159.745C157.467 159.645 157.485 159.544 157.497 159.442C157.451 159.532 157.415 159.628 157.391 159.727C157.322 159.948 157.239 160.224 157.138 160.565C157.036 160.906 156.907 161.375 156.779 161.895C156.65 162.416 156.498 163.01 156.355 163.673C155.617 167.124 155.062 170.613 154.693 174.124C154.233 178.23 154.039 181.95 154.025 184.676C154.025 186.029 154.025 187.125 154.071 187.899C154.071 188.253 154.108 188.543 154.122 188.769C154.126 188.865 154.138 188.96 154.159 189.054Z" fill="#263238"/>
<path d="M154.177 181.845C154.203 181.538 154.203 181.23 154.177 180.924C154.125 180.099 154.031 179.277 153.897 178.461C153.699 177.249 153.432 176.05 153.095 174.87C152.706 173.417 152.204 171.996 151.595 170.62C150.553 168.085 149.06 165.759 147.189 163.756C146.862 163.413 146.515 163.092 146.148 162.794C145.992 162.655 145.849 162.522 145.688 162.416L145.287 162.14C145.046 161.955 144.789 161.791 144.518 161.652C145.402 162.342 146.24 163.09 147.027 163.889C148.842 165.906 150.297 168.221 151.328 170.731C151.925 172.098 152.429 173.504 152.838 174.939C153.184 176.108 153.468 177.294 153.689 178.493C153.878 179.52 153.989 180.335 154.053 180.933C154.072 181.24 154.114 181.544 154.177 181.845Z" fill="#263238"/>
<path d="M147.207 194.566L147.93 204.464H160.651L161.369 194.566H147.207Z" fill="#263238"/>
<path d="M162.893 190.661H145.982V194.565H162.893V190.661Z" fill="#263238"/>
<path d="M145.982 204.086V205.164H146.774H162.607V204.086H145.982Z" fill="#455A64"/>
<path d="M147.552 207.07L146.774 205.164H162.004L161.092 207.07H147.552Z" fill="#455A64"/>
<path d="M161.139 197.797C161.139 197.797 161.139 197.834 161.079 197.889L160.89 198.143L160.149 199.091L160.117 199.132L160.084 199.086L158.266 196.573H158.376L156.581 199.109L156.525 199.188L156.461 199.114L154.339 196.582H154.458L154.343 196.729L152.442 199.109L152.382 199.192L152.322 199.109C151.677 198.189 151.074 197.342 150.526 196.573H150.632L148.427 199.086L148.386 199.132L148.353 199.082C148.063 198.594 147.833 198.202 147.663 197.922L147.488 197.613C147.465 197.579 147.446 197.542 147.433 197.503C147.433 197.503 147.46 197.53 147.506 197.599L147.704 197.899L148.427 199.036H148.358L150.531 196.49L150.586 196.425L150.637 196.494L152.446 199.022H152.322L154.233 196.642L154.352 196.494L154.412 196.416L154.472 196.49L156.594 199.027H156.475L158.284 196.499L158.335 196.425L158.39 196.499C159.104 197.526 159.716 198.396 160.172 199.045H160.103L160.876 198.124L161.083 197.885L161.139 197.797Z" fill="#E0E0E0"/>
<path d="M161.548 194.496C161.548 194.542 158.362 194.579 154.431 194.579C150.499 194.579 147.313 194.542 147.313 194.496C147.313 194.45 150.499 194.418 154.431 194.418C158.362 194.418 161.548 194.455 161.548 194.496Z" fill="#455A64"/>
<path d="M162.193 205.274C162.193 205.316 158.726 205.353 154.458 205.353C150.19 205.353 146.724 205.316 146.724 205.274C146.724 205.233 150.186 205.192 154.458 205.192C158.731 205.192 162.193 205.228 162.193 205.274Z" fill="#263238"/>
<path d="M36.7396 173.691C36.7028 173.732 36.4127 173.557 36.0905 173.299C35.7682 173.042 35.5334 172.798 35.5702 172.752C35.607 172.706 35.8925 172.885 36.2148 173.143C36.537 173.401 36.7718 173.645 36.7396 173.691Z" fill="#263238"/>
<path d="M45.5791 160.505C45.7045 159.277 45.603 158.037 45.2799 156.845C44.8931 155.671 43.9907 154.599 42.7845 154.345C41.4033 154.06 39.9945 154.93 39.221 156.109C38.4476 157.287 38.1852 158.715 37.955 160.1C36.3842 169.676 35.8056 179.388 36.2285 189.082L41.8637 189.874C44.3176 179.759 45.1187 170.915 45.5791 160.505Z" fill="#455A64"/>
<path d="M41.9788 154.285L41.9512 154.377L41.8591 154.631L41.4816 155.607C41.4033 155.819 41.2974 156.067 41.2146 156.311L40.9429 157.163L40.6252 158.144L40.3352 159.262C39.8621 161.11 39.4978 162.984 39.2441 164.875C38.9402 166.992 38.7422 169.34 38.5811 171.808C38.2956 176.748 38.2496 181.232 38.1207 184.474C38.0608 186.099 38.0056 187.411 37.9457 188.313C37.9135 188.774 37.8905 189.101 37.8721 189.358C37.8721 189.464 37.8721 189.556 37.8721 189.625C37.8721 189.694 37.8721 189.717 37.8721 189.717C37.8721 189.717 37.8721 189.69 37.8721 189.625C37.8721 189.561 37.8721 189.464 37.8721 189.354C37.8721 189.101 37.8721 188.751 37.9043 188.309C37.9411 187.388 37.9734 186.094 38.0148 184.469C38.1069 181.246 38.1299 176.744 38.4199 171.799C38.5765 169.327 38.7837 166.974 39.0967 164.847C39.3608 162.962 39.7406 161.096 40.2339 159.258L40.5378 158.139C40.6575 157.795 40.768 157.468 40.8693 157.158L41.1639 156.307C41.2514 156.049 41.3619 155.819 41.4447 155.607L41.8591 154.649C41.9021 154.548 41.9389 154.465 41.9696 154.4C41.9663 154.362 41.9694 154.323 41.9788 154.285Z" fill="#263238"/>
<path d="M42.4992 154.308C42.7929 154.655 43.0264 155.049 43.1898 155.473C43.6207 156.637 43.795 157.881 43.7009 159.119C43.5535 162.236 43.2727 166.527 42.9044 171.269C42.5361 176.011 42.1171 180.293 41.7856 183.391C41.6153 184.938 41.4726 186.19 41.3667 187.074C41.3114 187.493 41.27 187.825 41.2378 188.069L41.2009 188.327C41.2031 188.356 41.2031 188.385 41.2009 188.414C41.2009 188.414 41.2009 188.386 41.2009 188.327C41.2009 188.267 41.2009 188.17 41.2009 188.064C41.2009 187.82 41.2516 187.489 41.2884 187.065C41.3759 186.181 41.4956 184.933 41.6429 183.382C41.9376 180.279 42.3289 176.016 42.7018 171.255C43.0747 166.495 43.374 162.227 43.5582 159.119C43.6584 157.895 43.5016 156.664 43.0978 155.505C42.934 155.089 42.7337 154.688 42.4992 154.308Z" fill="#263238"/>
<path d="M46.408 168.899C46.0382 168.872 45.6763 168.778 45.3399 168.622C44.9822 168.529 44.644 168.373 44.3408 168.162C44.7111 168.186 45.0734 168.28 45.4089 168.438C45.767 168.53 46.1054 168.686 46.408 168.899Z" fill="#263238"/>
<path d="M47.0893 163.153C46.7839 163.397 46.4401 163.588 46.0718 163.719C45.7296 163.908 45.3574 164.038 44.9714 164.101C45.617 163.664 46.3336 163.343 47.0893 163.153Z" fill="#263238"/>
<path d="M46.7347 158.461C46.1783 158.561 45.6055 158.522 45.0681 158.346C45.3405 158.268 45.6273 158.253 45.906 158.304C46.1907 158.292 46.4743 158.345 46.7347 158.461Z" fill="#263238"/>
<path d="M40.9153 155.459C40.8693 155.487 40.6207 155.179 40.3675 154.773C40.1832 154.539 40.0527 154.267 39.9854 153.977C40.0314 153.949 40.28 154.253 40.5378 154.663C40.7956 155.073 40.9752 155.427 40.9153 155.459Z" fill="#263238"/>
<path d="M38.9955 158.295C38.7392 158.387 38.4642 158.416 38.1944 158.378C37.9231 158.404 37.6496 158.363 37.3979 158.258C37.6543 158.166 37.9292 158.138 38.199 158.175C38.4703 158.149 38.7439 158.19 38.9955 158.295Z" fill="#263238"/>
<path d="M37.6143 163.954C37.3196 163.942 37.0315 163.863 36.7718 163.723C36.4876 163.643 36.2249 163.499 36.0029 163.304C36.2976 163.316 36.5857 163.395 36.8455 163.535C37.1297 163.615 37.3923 163.759 37.6143 163.954Z" fill="#263238"/>
<path d="M37.4671 168.737C37.4671 168.792 37.1586 168.908 36.7488 168.99C36.3391 169.073 36.003 169.106 35.9892 169.05C35.9754 168.995 36.3023 168.88 36.7074 168.797C36.9518 168.714 37.2128 168.694 37.4671 168.737Z" fill="#263238"/>
<path d="M36.8317 176.546C36.8317 176.601 36.5003 176.707 36.0675 176.785C35.8089 176.862 35.5355 176.875 35.271 176.822C35.5032 176.684 35.7654 176.603 36.0353 176.587C36.2932 176.508 36.5669 176.493 36.8317 176.546Z" fill="#263238"/>
<path d="M36.3712 180.855C36.3988 180.901 36.1134 181.103 35.7358 181.315C35.3583 181.527 35.0314 181.638 35.0084 181.587C34.9854 181.536 35.2662 181.338 35.6437 181.126C36.0213 180.915 36.3712 180.804 36.3712 180.855Z" fill="#263238"/>
<path d="M39.9027 185.745C39.8566 185.772 39.608 185.431 39.3502 184.98C39.1637 184.722 39.0349 184.427 38.9727 184.115C39.0187 184.087 39.2673 184.428 39.5251 184.879C39.7116 185.137 39.8404 185.432 39.9027 185.745Z" fill="#263238"/>
<path d="M40.92 177.618C40.9568 177.655 40.6805 177.991 40.303 178.364C39.9255 178.737 39.5848 179.004 39.5434 178.962C39.5019 178.921 39.7828 178.589 40.1603 178.216C40.5378 177.843 40.8785 177.576 40.92 177.618Z" fill="#263238"/>
<path d="M40.6945 173.35C40.653 173.392 40.3998 173.18 40.1236 172.89C39.8473 172.6 39.6632 172.319 39.7 172.282C39.7368 172.245 39.9946 172.452 40.2709 172.742C40.5471 173.032 40.7359 173.313 40.6945 173.35Z" fill="#263238"/>
<path d="M41.3941 167.904C41.4356 167.941 41.2054 168.268 40.8785 168.627C40.5516 168.986 40.257 169.257 40.2155 169.221C40.1741 169.184 40.4043 168.857 40.7266 168.493C41.0488 168.129 41.3527 167.867 41.3941 167.904Z" fill="#263238"/>
<path d="M41.7855 163.954C41.7441 163.995 41.4264 163.742 41.0673 163.392C40.7082 163.042 40.455 162.724 40.4918 162.683C40.5287 162.642 40.8509 162.895 41.2101 163.249C41.5692 163.604 41.8224 163.912 41.7855 163.954Z" fill="#263238"/>
<path d="M42.5589 158.604C42.498 158.895 42.3738 159.168 42.1952 159.405C41.9512 159.82 41.7118 160.133 41.6657 160.105C41.6197 160.078 41.7762 159.718 42.0248 159.304C42.2735 158.89 42.5083 158.577 42.5589 158.604Z" fill="#263238"/>
<path d="M44.0092 153.65C44.0599 153.678 43.9172 154.037 43.6916 154.451C43.466 154.865 43.2312 155.183 43.1943 155.16C43.2382 154.872 43.3468 154.599 43.512 154.359C43.7376 153.94 43.9586 153.627 44.0092 153.65Z" fill="#263238"/>
<path d="M45.6574 155.901C45.6804 155.952 45.4548 156.108 45.151 156.256C44.8471 156.403 44.5847 156.477 44.5617 156.426C44.5387 156.375 44.7643 156.219 45.0681 156.071C45.372 155.924 45.6344 155.85 45.6574 155.901Z" fill="#263238"/>
<path d="M45.6942 173.691C44.9294 173.635 44.2052 173.326 43.6362 172.812C43.9947 172.92 44.3417 173.064 44.6721 173.24C45.0273 173.355 45.3698 173.506 45.6942 173.691Z" fill="#263238"/>
<path d="M45.0222 177.457C45.0222 177.512 44.6953 177.622 44.2625 177.705C44.0053 177.788 43.7317 177.805 43.4661 177.756C43.6963 177.615 43.9565 177.53 44.2257 177.507C44.6585 177.425 45.013 177.401 45.0222 177.457Z" fill="#263238"/>
<path d="M44.198 183.916C44.1658 183.962 43.7376 183.663 43.3416 183.166C43.078 182.882 42.8924 182.534 42.803 182.157C43.0603 182.431 43.2929 182.727 43.4982 183.041C43.7578 183.311 43.9921 183.604 44.198 183.916Z" fill="#263238"/>
<path d="M35.1328 186.872C35.0959 186.831 35.3261 186.573 35.6438 186.301C35.9615 186.03 36.2515 185.841 36.2884 185.887C36.3252 185.933 36.095 186.182 35.7773 186.458C35.4597 186.734 35.1696 186.914 35.1328 186.872Z" fill="#263238"/>
<path d="M32.527 172.775C32.1587 171.629 31.4727 170.294 30.2711 170.275C29.913 170.295 29.5668 170.41 29.2687 170.609C28.9706 170.808 28.7316 171.084 28.5768 171.408C28.2461 172.047 28.0874 172.761 28.1164 173.479C28.2648 178.582 29.1343 183.638 30.6992 188.498H35.1052C35.0518 183.156 34.1824 177.854 32.527 172.775Z" fill="#455A64"/>
<path d="M24.5668 165.561C24.3489 164.487 23.7766 163.517 22.9417 162.808C22.1068 162.098 21.0577 161.689 19.9628 161.647C18.0154 161.988 17.2603 163.903 17.0301 165.864C16.7999 167.826 17.4076 169.778 18.0107 171.661C19.9383 177.701 21.8689 183.743 23.8025 189.787L29.2812 189.188C27.5686 181.094 26.5741 173.59 24.5668 165.561Z" fill="#455A64"/>
<path d="M30.271 170.275C30.1287 170.471 30.0039 170.679 29.8981 170.897C29.671 171.519 29.5999 172.188 29.6909 172.844C29.7738 173.682 29.8705 174.686 30.0132 175.791C30.1559 176.896 30.3539 178.093 30.6025 179.373C31.0998 181.905 31.6614 184.17 32.0159 185.818C32.1955 186.642 32.3336 187.314 32.4165 187.779C32.4533 187.996 32.4855 188.171 32.5086 188.318C32.5316 188.465 32.5362 188.507 32.5086 188.507C32.4846 188.449 32.4662 188.389 32.4533 188.327L32.3244 187.798C32.2047 187.305 32.0482 186.647 31.864 185.85C31.4727 184.202 30.888 181.942 30.3907 179.405C30.1421 178.134 29.9303 176.919 29.8152 175.804C29.7416 175.252 29.6955 174.718 29.6495 174.225C29.6035 173.733 29.5574 173.268 29.5344 172.844C29.4557 172.168 29.5508 171.484 29.8106 170.855C29.9202 170.631 30.0773 170.433 30.271 170.275Z" fill="#263238"/>
<path d="M20.0641 161.491C19.82 161.769 19.5983 162.066 19.4012 162.379C18.8969 163.255 18.6111 164.239 18.5679 165.248C18.545 166.744 18.7737 168.233 19.2446 169.654C19.705 171.283 20.2529 173.074 20.81 174.948C21.9011 178.705 22.8864 182.103 23.6092 184.584L24.4379 187.512C24.53 187.844 24.599 188.106 24.6543 188.309C24.6844 188.4 24.7045 188.494 24.7141 188.59C24.6719 188.504 24.638 188.415 24.6129 188.323C24.553 188.12 24.4655 187.862 24.3642 187.531C24.1479 186.826 23.844 185.837 23.4757 184.626L20.6166 175.003C20.0641 173.12 19.5439 171.32 19.0651 169.7C18.5961 168.259 18.3796 166.748 18.4251 165.234C18.4845 164.205 18.8011 163.208 19.3459 162.333C19.5372 162.015 19.7799 161.73 20.0641 161.491Z" fill="#263238"/>
<path d="M28.1072 188.604C28.0608 188.519 28.0193 188.431 27.9829 188.341C27.9138 188.162 27.7987 187.908 27.6744 187.568C27.412 186.896 27.0759 185.906 26.7536 184.663C26.4313 183.42 26.063 181.9 25.7315 180.243C25.4 178.585 25.0686 176.73 24.7002 174.796C24.3319 172.863 23.8991 171.044 23.4065 169.419C22.9791 167.974 22.4451 166.563 21.8089 165.197C21.3764 164.278 20.8827 163.389 20.3311 162.536C20.1423 162.232 19.972 162.007 19.8707 161.85C19.813 161.772 19.7622 161.689 19.7188 161.601C19.7863 161.67 19.8479 161.744 19.9029 161.822C20.018 161.979 20.1976 162.191 20.3955 162.495C20.9778 163.334 21.4935 164.217 21.9379 165.137C22.5982 166.5 23.1479 167.913 23.5815 169.364C24.1014 171.139 24.5287 172.94 24.8614 174.76C25.2251 176.689 25.5658 178.53 25.8788 180.211C26.1919 181.891 26.5234 183.378 26.8549 184.626C27.1864 185.874 27.4948 186.863 27.7342 187.54C27.8447 187.885 27.9506 188.143 28.0105 188.323C28.0532 188.412 28.0856 188.507 28.1072 188.604Z" fill="#263238"/>
<path d="M18.1305 170.758C18.1305 170.809 17.845 170.929 17.4629 171.021C17.0808 171.113 16.7631 171.145 16.7539 171.09C16.7447 171.034 17.0347 170.919 17.4168 170.827C17.799 170.735 18.1166 170.703 18.1305 170.758Z" fill="#263238"/>
<path d="M17.5503 167.02C17.2511 167.104 16.9399 167.138 16.6295 167.121C16.3233 167.165 16.0119 167.155 15.7087 167.094C15.9954 166.957 16.3126 166.897 16.6295 166.919C16.9401 166.874 17.257 166.908 17.5503 167.02Z" fill="#263238"/>
<path d="M18.1673 163.604C18.1304 163.65 17.8312 163.456 17.5043 163.175C17.1774 162.895 16.9334 162.632 16.9702 162.591C17.0071 162.549 17.3017 162.738 17.6332 163.019C17.9647 163.3 18.2041 163.562 18.1673 163.604Z" fill="#263238"/>
<path d="M19.8384 160.445C19.8936 160.445 19.8752 160.726 19.8706 161.044C19.866 161.362 19.8706 161.633 19.8015 161.642C19.7325 161.652 19.6588 161.385 19.668 161.039C19.6772 160.694 19.7969 160.432 19.8384 160.445Z" fill="#263238"/>
<path d="M23.2501 161.933C23.2961 161.965 23.1626 162.237 22.9508 162.536C22.739 162.835 22.5318 163.056 22.4904 163.024C22.449 162.992 22.5779 162.725 22.7851 162.421C22.9922 162.117 23.204 161.901 23.2501 161.933Z" fill="#263238"/>
<path d="M25.4646 165.795C25.4646 165.851 25.2022 166.012 24.8339 166.164C24.4656 166.316 24.1433 166.394 24.1249 166.343C24.1065 166.293 24.3873 166.127 24.7556 165.979C25.1239 165.832 25.4462 165.731 25.4646 165.795Z" fill="#263238"/>
<path d="M26.8088 169.741C26.5652 169.952 26.2636 170.086 25.9433 170.123C25.6364 170.223 25.3078 170.234 24.9949 170.155C25.2903 170.038 25.5999 169.961 25.9157 169.925C26.2048 169.828 26.5047 169.766 26.8088 169.741Z" fill="#263238"/>
<path d="M20.6395 168.617C20.5889 168.617 20.6395 168.327 20.727 168.005C20.8145 167.683 20.9526 167.439 21.0032 167.457C21.0539 167.476 21.0032 167.747 20.9158 168.069C20.8283 168.392 20.7178 168.636 20.6395 168.617Z" fill="#263238"/>
<path d="M21.5005 173.59C21.5191 173.3 21.6042 173.018 21.7491 172.766C21.9379 172.333 22.1312 172.001 22.1819 172.024C22.1633 172.314 22.0782 172.596 21.9333 172.848C21.7445 173.281 21.5511 173.622 21.5005 173.59Z" fill="#263238"/>
<path d="M19.3734 174.952C19.1021 174.946 18.8346 174.886 18.5861 174.777C18.1671 174.644 17.8264 174.524 17.8402 174.469C18.1143 174.434 18.3927 174.474 18.6459 174.584C19.0741 174.718 19.3964 174.902 19.3734 174.952Z" fill="#263238"/>
<path d="M20.5982 179.004C20.6304 179.05 20.3956 179.271 20.0779 179.501C19.7603 179.732 19.4656 179.879 19.4334 179.837C19.4012 179.796 19.636 179.566 19.9582 179.336C20.2805 179.105 20.566 178.958 20.5982 179.004Z" fill="#263238"/>
<path d="M21.5834 183.046C21.5834 183.097 21.3071 183.217 20.9342 183.304C20.5613 183.392 20.2528 183.424 20.239 183.373C20.2252 183.323 20.5152 183.203 20.8882 183.111C21.2611 183.019 21.5695 182.991 21.5834 183.046Z" fill="#263238"/>
<path d="M26.9193 173.12C26.947 173.166 26.6984 173.364 26.3392 173.497C25.9801 173.631 25.6579 173.649 25.6487 173.599C25.6394 173.548 25.9249 173.442 26.2656 173.308C26.6063 173.175 26.8917 173.069 26.9193 173.12Z" fill="#263238"/>
<path d="M27.6789 179.405C27.6559 179.455 27.3612 179.368 27.0205 179.207C26.6798 179.045 26.422 178.875 26.445 178.824C26.4681 178.774 26.7673 178.866 27.108 179.022C27.4487 179.179 27.7065 179.354 27.6789 179.405Z" fill="#263238"/>
<path d="M29.0279 183.907C28.723 183.892 28.4248 183.812 28.1531 183.673C27.6927 183.493 27.3382 183.304 27.3566 183.249C27.6601 183.265 27.9567 183.345 28.2268 183.484C28.6872 183.663 29.0463 183.852 29.0279 183.907Z" fill="#263238"/>
<path d="M21.7998 187.433C21.7722 187.383 22.1313 187.143 22.5457 186.817C22.96 186.49 23.2823 186.195 23.3237 186.236C23.3652 186.278 23.1028 186.632 22.67 186.973C22.4292 187.206 22.1275 187.365 21.7998 187.433Z" fill="#263238"/>
<path d="M25.3539 185.132C25.2986 185.132 25.2204 184.838 25.0822 184.488C24.9441 184.138 24.806 183.857 24.852 183.825C24.8981 183.792 25.1283 184.032 25.271 184.414C25.4137 184.796 25.4091 185.132 25.3539 185.132Z" fill="#263238"/>
<path d="M24.401 179.731C24.3688 179.777 24.1386 179.667 23.8854 179.487C23.6321 179.307 23.4572 179.123 23.4894 179.077C23.5216 179.031 23.7518 179.142 24.0051 179.321C24.2583 179.501 24.447 179.685 24.401 179.731Z" fill="#263238"/>
<path d="M32.688 171.251C32.7203 171.297 32.4947 171.518 32.1862 171.744C31.8777 171.969 31.6015 172.121 31.5693 172.075C31.5371 172.029 31.758 171.813 32.0665 171.583C32.375 171.352 32.688 171.205 32.688 171.251Z" fill="#263238"/>
<path d="M33.9543 174.667C33.9543 174.722 33.609 174.796 33.1762 174.75C32.7434 174.704 32.4165 174.556 32.4304 174.506C32.4442 174.455 32.7849 174.506 33.1992 174.547C33.6136 174.588 33.9497 174.611 33.9543 174.667Z" fill="#263238"/>
<path d="M28.5814 175.436C28.5814 175.487 28.2729 175.602 27.8494 175.63C27.4258 175.657 27.0943 175.588 27.0989 175.533C27.1035 175.478 27.435 175.459 27.8402 175.432C28.2453 175.404 28.5722 175.381 28.5814 175.436Z" fill="#263238"/>
<path d="M29.0465 172.204C29.0465 172.259 28.715 172.268 28.3559 172.098C27.9968 171.928 27.7896 171.684 27.8265 171.638C27.8633 171.592 28.1119 171.767 28.4388 171.914C28.7657 172.061 29.0511 172.149 29.0465 172.204Z" fill="#263238"/>
<path d="M34.4146 178.336C34.387 178.382 34.0509 178.226 33.6642 177.982C33.2774 177.738 32.992 177.521 33.0242 177.457C33.0564 177.392 33.3879 177.572 33.7747 177.811C34.1614 178.051 34.4468 178.29 34.4146 178.336Z" fill="#263238"/>
<path d="M47.522 187.922H18.8623V193H47.522V187.922Z" fill="#225A4B"/>
<path d="M21.0032 191.996L24.4884 207.176H41.5691L45.3811 191.996H21.0032Z" fill="#225A4B"/>
<path d="M47.5084 193.01C47.5084 193.065 41.0628 193.111 33.0703 193.111C25.0779 193.111 18.6323 193.065 18.6323 193.01C18.6323 192.954 25.0779 192.908 33.0703 192.908C41.0628 192.908 47.5084 192.959 47.5084 193.01Z" fill="#263238"/>
<path d="M31.5692 175.546C31.5232 175.574 31.3252 175.348 31.1319 175.035C30.9385 174.722 30.8188 174.446 30.8648 174.418C30.9109 174.391 31.1088 174.616 31.3022 174.929C31.4956 175.242 31.6153 175.514 31.5692 175.546Z" fill="#263238"/>
<path d="M31.5786 179.63C31.5648 179.365 31.617 179.101 31.7305 178.861C31.864 178.451 32.0206 178.134 32.0712 178.152C32.0854 178.419 32.0332 178.684 31.9193 178.926C31.7673 179.331 31.6338 179.648 31.5786 179.63Z" fill="#263238"/>
<path d="M32.9782 183.921C32.9276 183.948 32.7158 183.603 32.5178 183.156C32.3589 182.897 32.2584 182.606 32.2231 182.305C32.2738 182.277 32.4856 182.622 32.6835 183.069C32.8424 183.328 32.9429 183.619 32.9782 183.921Z" fill="#263238"/>
<path d="M29.9535 187.374C29.912 187.337 30.0824 187.075 30.3356 186.78C30.5888 186.485 30.8236 186.283 30.8697 186.32C30.9157 186.356 30.7408 186.623 30.4875 186.914C30.2343 187.204 29.9949 187.434 29.9535 187.374Z" fill="#263238"/>
<path d="M29.3181 181.108C29.3181 181.164 29.0327 181.159 28.7012 181.108C28.3697 181.058 28.1119 180.961 28.1211 180.906C28.1303 180.851 28.4065 180.855 28.7334 180.906C29.0603 180.956 29.3273 181.053 29.3181 181.108Z" fill="#263238"/>
<path d="M129.026 153.015H61.0625V207.213H129.026V153.015Z" fill="#E0E0E0"/>
<g opacity="0.3">
<path d="M66.0117 153.125C74.0134 155.98 82.8392 156.592 91.4256 156.753C93.2073 156.785 95.0075 156.781 96.7293 157.214C98.4512 157.646 100.113 158.627 100.997 160.169C101.959 161.85 101.858 163.954 101.31 165.809C100.762 167.665 99.8186 169.382 99.1372 171.191C97.9308 174.392 97.5616 177.849 98.0645 181.232C98.2194 182.674 98.7046 184.06 99.4825 185.284C99.8766 185.892 100.407 186.399 101.033 186.765C101.658 187.131 102.36 187.346 103.083 187.393C105.666 187.429 107.434 184.893 108.713 182.646C113.967 173.438 119.648 162.987 123.009 152.937L66.0117 153.125Z" fill="black"/>
</g>
<path d="M84.2203 206.923C84.1512 206.923 84.1006 194.911 84.1006 180.096C84.1006 165.28 84.1512 153.264 84.2203 153.264C84.2893 153.264 84.34 165.276 84.34 180.096C84.34 194.916 84.2847 206.923 84.2203 206.923Z" fill="#455A64"/>
<path d="M112.07 112.96C111.867 111.607 107.825 107.141 107.825 107.141C107.825 107.141 105.808 99.0334 105.201 96.644C104.998 95.9531 104.703 95.2933 104.321 94.6827C102.892 92.3015 100.859 90.34 98.4282 88.9968L92.8344 85.8523L91.4993 82.8781L78.0649 75.9722L74.4232 82.4177C74.4232 82.4177 65.579 85.2261 64.4096 87.2196C63.2402 89.2132 64.9897 116.133 64.9897 116.133C64.9897 116.133 61.3065 131.657 60.51 134.871C59.7135 138.084 60.7586 141.915 60.7586 141.915L67.3469 133.651C69.3957 131.082 73.8891 129.898 77.1165 129.944L104.699 130.069L103.589 122.343L125.905 126.662C125.905 126.662 129.74 119.176 130.048 119.028C130.357 118.881 112.07 112.96 112.07 112.96Z" fill="#225A4B"/>
<path d="M77.4939 84.9268C77.3005 84.7289 79.05 90.6449 81.2507 96.6715C82.4346 99.9282 83.0377 103.367 83.0324 106.832V128.655L96.255 127.757L94.2799 113.384C94.2799 113.384 92.6685 104.112 92.2173 100.585C91.803 97.3621 90.3757 88.6146 90.3757 88.6146C90.3757 88.6146 83.0324 90.5667 77.4939 84.9268Z" fill="white"/>
<path d="M106.84 118.375C106.819 118.264 106.819 118.15 106.84 118.039C106.87 117.738 106.929 117.44 107.015 117.15C107.294 116.182 107.813 115.3 108.525 114.586C109.24 113.874 110.121 113.352 111.089 113.066C111.379 112.98 111.677 112.922 111.978 112.891C112.087 112.871 112.2 112.871 112.309 112.891C112.309 112.933 111.849 112.983 111.14 113.228C110.22 113.543 109.384 114.065 108.697 114.754C108.01 115.443 107.489 116.28 107.176 117.201C106.932 117.914 106.881 118.375 106.84 118.375Z" fill="#263238"/>
<path d="M107.521 113.145C108.135 112.784 108.83 112.583 109.542 112.56C110.247 112.462 110.965 112.548 111.628 112.808C111.628 112.882 110.707 112.703 109.561 112.808C108.414 112.914 107.549 113.214 107.521 113.145Z" fill="#263238"/>
<g opacity="0.3">
<path d="M63.659 125.055L62.5081 126.354C63.7082 127.835 65.3347 128.912 67.1673 129.438C69.0142 129.83 70.9014 130 72.7887 129.945C73.5533 129.982 74.3192 129.909 75.0631 129.728C75.8135 129.512 76.5087 129.088 77.2868 129.042C77.8086 129.045 78.3276 129.119 78.8291 129.263C79.3338 129.406 79.8673 129.414 80.376 129.286C80.6279 129.218 80.8512 129.071 81.0129 128.866C81.1745 128.661 81.266 128.41 81.2738 128.149C75.5342 126.472 69.6267 125.434 63.659 125.055Z" fill="black"/>
</g>
<path d="M101.412 126.722L98.1888 123.279L91.4901 121.598C91.4901 121.598 85.376 123.44 85.2287 123.44C85.0814 123.44 79.9065 122.022 79.9065 122.022L78.0972 128.661L87.4202 129.301L98.0645 128.872C98.0645 128.872 98.6216 128.357 98.2901 128.002C97.9586 127.648 100.072 128.601 100.32 128.61C100.569 128.619 101.048 128.813 101.379 128.417C101.605 128.122 101.909 127.252 101.412 126.722Z" fill="#FFBE9D"/>
<path d="M98.29 127.979C97.9284 127.91 97.5739 127.809 97.2311 127.675C96.5865 127.472 95.6887 127.214 94.6897 126.938C93.6906 126.662 92.7698 126.478 92.1023 126.363C91.737 126.315 91.3776 126.23 91.0295 126.109C91.3983 126.093 91.7677 126.121 92.1299 126.192C93.0105 126.315 93.8836 126.487 94.7449 126.708C95.6075 126.927 96.4562 127.197 97.2863 127.518C97.6391 127.628 97.9764 127.783 98.29 127.979Z" fill="#EB996E"/>
<path d="M101.412 126.722C100.91 126.595 100.415 126.442 99.9292 126.262C99.0084 125.958 97.7515 125.58 96.3381 125.189C94.9247 124.798 93.6724 124.351 92.7194 124.296C92.206 124.269 91.6914 124.289 91.1816 124.356C91.3063 124.287 91.4418 124.241 91.5822 124.218C91.9586 124.136 92.3441 124.105 92.7286 124.125C93.7138 124.125 95.0306 124.544 96.4117 124.959C97.7929 125.373 99.0912 125.755 99.9936 126.105C100.454 126.276 100.799 126.432 101.048 126.543C101.177 126.584 101.3 126.645 101.412 126.722Z" fill="#EB996E"/>
<path d="M64.4095 87.2205C64.4095 87.2205 59.5983 90.5675 58.4243 95.3833C57.2503 100.199 52.1814 119.881 53.2219 122.823C54.2624 125.765 74.4922 128.656 74.4922 128.656L76.8908 118.527L66.6148 115.714C66.6148 115.714 66.7483 106.345 66.8772 102.464C67.0061 98.583 64.4095 87.2205 64.4095 87.2205Z" fill="#225A4B"/>
<path d="M76.762 120.051L80.0723 120.865L78.0788 128.499L74.8284 127.979L76.762 120.051Z" fill="white"/>
<path d="M53.1481 121.782C53.1481 121.782 53.1481 121.952 53.1988 122.242C53.3107 122.688 53.5565 123.088 53.9032 123.389C54.7825 124.208 56.463 124.89 58.59 125.272C59.5614 125.594 60.671 125.847 61.8542 126.114C63.0374 126.381 64.3173 126.653 65.6617 126.925C68.355 127.477 71.3338 128.057 74.4921 128.646L74.354 128.734C74.5796 127.813 74.8144 126.805 75.0676 125.797C75.6339 123.495 76.1863 121.229 76.7066 119.098L76.7894 119.236L67.6782 116.653C66.4202 116.123 65.059 115.884 63.6958 115.953C62.6598 116.011 61.6421 116.251 60.6894 116.662C60.084 116.924 59.5057 117.245 58.9629 117.62L58.544 117.924C58.4982 117.961 58.4488 117.993 58.3966 118.02C58.3966 118.02 58.4381 117.974 58.5255 117.901C58.613 117.827 58.7465 117.712 58.9307 117.574C59.4654 117.177 60.0411 116.839 60.648 116.566C61.6067 116.131 62.6362 115.874 63.6866 115.806C65.0737 115.718 66.4627 115.947 67.7473 116.478L76.8861 119.038L76.9966 119.066L76.969 119.176C76.4488 121.308 75.9009 123.554 75.3392 125.879C75.0906 126.883 74.8512 127.878 74.621 128.812L74.5934 128.923H74.4829C71.3246 128.329 68.3504 127.739 65.6571 127.178C64.3127 126.897 63.0374 126.616 61.8496 126.34C60.6618 126.064 59.5476 125.801 58.5716 125.465C56.4169 125.055 54.7365 124.346 53.8479 123.485C53.4956 123.169 53.2536 122.748 53.1573 122.284C53.1241 122.118 53.121 121.948 53.1481 121.782Z" fill="#263238"/>
<path d="M67.1765 116.4C67.1489 116.432 66.8036 116.115 66.1867 115.705C64.571 114.623 62.6612 114.065 60.7172 114.107C59.9713 114.107 59.5156 114.209 59.5063 114.167C59.8921 114.028 60.2979 113.952 60.708 113.942C62.7055 113.797 64.6887 114.374 66.2972 115.567C66.6343 115.794 66.9314 116.076 67.1765 116.4Z" fill="#263238"/>
<path d="M68.5254 99.9172C68.5423 100.123 68.5423 100.329 68.5254 100.534C68.5254 100.935 68.484 101.506 68.4287 102.215C68.3137 103.628 68.1065 105.576 67.7335 107.712C67.4421 109.539 67.0158 111.343 66.4583 113.108C66.3478 113.444 66.2281 113.748 66.1314 114.028L65.8367 114.691C65.7504 114.88 65.6439 115.059 65.519 115.225C65.5768 115.028 65.6539 114.837 65.7492 114.655C65.8275 114.457 65.9104 114.231 66.0071 113.982C66.1037 113.734 66.1958 113.411 66.2971 113.062C66.8003 111.29 67.2015 109.492 67.4987 107.675C67.8671 105.548 68.1019 103.61 68.2584 102.201C68.3275 101.533 68.3873 100.976 68.4334 100.534C68.4393 100.326 68.4702 100.118 68.5254 99.9172Z" fill="#263238"/>
<path d="M80.2562 94.7016C80.2562 94.7016 80.2102 94.5773 80.0997 94.3609C79.9359 94.0542 79.6967 93.7943 79.4045 93.6058C79.1884 93.4575 78.9412 93.3605 78.6819 93.3222C78.4226 93.2839 78.158 93.3053 77.9082 93.3848C77.5916 93.4932 77.3087 93.6823 77.0875 93.9334C76.8663 94.1845 76.7143 94.4889 76.6467 94.8167L76.5823 95.1435L76.4395 94.8397C75.901 93.684 75.4321 92.4971 75.0353 91.2854C74.3319 89.2671 73.98 87.143 73.9948 85.0056C73.9948 84.5959 74.0501 84.2276 74.0731 83.9007C74.0961 83.5738 74.1698 83.3022 74.2204 83.0812C74.269 82.8488 74.3368 82.6209 74.423 82.3998C74.266 83.26 74.1782 84.1314 74.1606 85.0056C74.1985 87.1194 74.5698 89.2138 75.2609 91.2118C75.658 92.4141 76.1191 93.5944 76.6421 94.7476L76.4349 94.7752C76.5144 94.4132 76.6876 94.0784 76.9373 93.8044C77.187 93.5305 77.5044 93.327 77.8576 93.2145C78.1316 93.1317 78.4212 93.1141 78.7034 93.1628C78.9855 93.2116 79.2523 93.3254 79.4828 93.4953C79.7818 93.7055 80.0175 93.9938 80.1641 94.3286C80.2044 94.4168 80.2338 94.5096 80.2516 94.6049C80.2608 94.6647 80.2654 94.7016 80.2562 94.7016Z" fill="#263238"/>
<path d="M91.4808 95.7369C91.4315 95.5573 91.3961 95.3741 91.3749 95.189C91.2742 94.6815 91.2417 94.1628 91.2782 93.6467C91.3818 92.8526 91.7773 92.1255 92.3877 91.6072C92.7653 91.2965 93.2386 91.1258 93.7275 91.1237C93.994 91.1207 94.2579 91.1755 94.5012 91.2844C94.7444 91.3933 94.9611 91.5537 95.1363 91.7545L94.9337 91.8742L94.4964 90.7738C93.6354 88.6054 92.8712 86.6303 92.3279 85.2077L91.6971 83.5088C91.6095 83.306 91.5431 83.0946 91.4992 82.8781C91.6125 83.0684 91.708 83.2687 91.7846 83.4766C91.9688 83.937 92.2036 84.4756 92.489 85.1478C93.0737 86.5612 93.8702 88.5179 94.722 90.6726L95.1547 91.7775L95.4356 92.4865L94.9752 91.8926C94.8231 91.7163 94.6342 91.5754 94.4218 91.48C94.2095 91.3845 93.9787 91.3368 93.7459 91.3401C93.3077 91.3373 92.8818 91.4852 92.5397 91.7591C91.9643 92.2401 91.5805 92.9115 91.4577 93.6513C91.4082 94.1556 91.4175 94.6639 91.4854 95.166C91.5072 95.3558 91.5057 95.5475 91.4808 95.7369Z" fill="#263238"/>
<path d="M100.021 96.8788C100.086 96.8788 101.126 103.868 102.346 112.509C103.566 121.151 104.496 128.163 104.432 128.163C104.367 128.163 103.327 121.174 102.107 112.509C100.887 103.845 99.9568 96.888 100.021 96.8788Z" fill="#263238"/>
<g opacity="0.3">
<path d="M75.1736 91.3585C75.2296 93.1488 75.6183 94.913 76.32 96.561C76.8218 95.9395 77.3789 95.2857 78.1616 95.1015C79.11 94.8759 80.0722 95.4606 80.7582 96.1789C80.6393 95.4608 80.3557 94.78 79.9295 94.19C79.7167 93.8999 79.4398 93.663 79.1203 93.4977C78.8009 93.3324 78.4475 93.2432 78.0879 93.2369C77.7294 93.2454 77.3841 93.3731 77.1064 93.5999C76.8287 93.8267 76.6346 94.1397 76.5548 94.4892L75.2334 91.3907" fill="black"/>
</g>
<path d="M67.3974 96.4188C67.356 96.4188 67.3698 95.9354 67.2317 95.185C67.0425 94.2072 66.6623 93.2763 66.1129 92.4456C65.8036 91.9959 65.4504 91.578 65.0586 91.1979C64.734 90.8906 64.381 90.6146 64.0043 90.3738C63.3552 89.9641 62.8994 89.8075 62.9178 89.7661C63.0308 89.7743 63.1414 89.8023 63.2447 89.849C63.3735 89.8837 63.4985 89.9315 63.6176 89.9917C63.7767 90.0601 63.9306 90.1401 64.078 90.2311C64.4784 90.4575 64.8535 90.726 65.1967 91.0322C65.6096 91.4169 65.9787 91.8462 66.2971 92.3121C66.8677 93.1672 67.2391 94.1395 67.3836 95.1574C67.4295 95.462 67.4449 95.7704 67.4297 96.0781C67.4297 96.2991 67.4158 96.4188 67.3974 96.4188Z" fill="#263238"/>
<path d="M94.1236 63.5877C93.8606 61.1224 92.6791 58.8465 90.8143 57.2128C88.9494 55.5791 86.5378 54.7074 84.0593 54.7711H83.5483C78.0465 55.2315 75.367 60.1623 75.984 65.6456L77.4941 84.9362L78.134 85.7189C79.5707 87.4839 81.5509 88.7241 83.7661 89.2462C85.9812 89.7684 88.3068 89.5431 90.3805 88.6056L89.957 82.3994C89.957 82.3994 95.2331 81.4418 95.1595 76.1473C95.1272 73.5783 94.63 68.3205 94.1236 63.5877Z" fill="#FFBE9D"/>
<path d="M89.9984 82.3863C87.5419 82.4546 85.1176 81.8154 83.0142 80.5447C83.0142 80.5447 84.7406 84.3153 90.0122 83.703L89.9984 82.3863Z" fill="#EB996E"/>
<path d="M92.4475 67.9428C92.4528 68.1395 92.382 68.3306 92.25 68.4763C92.1179 68.6221 91.9347 68.7114 91.7385 68.7255C91.6426 68.735 91.5457 68.7253 91.4535 68.697C91.3613 68.6687 91.2757 68.6224 91.2016 68.5607C91.1274 68.499 91.0663 68.4232 91.0218 68.3377C90.9772 68.2522 90.9501 68.1586 90.9421 68.0625C90.9356 67.8656 91.006 67.6739 91.1383 67.5278C91.2706 67.3818 91.4545 67.2929 91.6511 67.2799C91.7471 67.2697 91.8443 67.279 91.9367 67.307C92.0292 67.3351 92.1151 67.3813 92.1893 67.4432C92.2636 67.505 92.3247 67.581 92.369 67.6668C92.4134 67.7527 92.4401 67.8465 92.4475 67.9428Z" fill="#263238"/>
<path d="M92.7838 65.0662C92.7239 65.1582 92.1254 65.2227 91.4026 65.6094C90.6798 65.9962 90.2562 66.4796 90.1595 66.4704C90.0629 66.4612 90.1595 66.3369 90.3391 66.1205C90.6144 65.8151 90.9418 65.561 91.3059 65.37C91.6534 65.1758 92.0346 65.0493 92.4293 64.9971C92.7009 64.9695 92.816 65.0201 92.7838 65.0662Z" fill="#263238"/>
<path d="M84.805 68.344C84.8138 68.5415 84.7442 68.7346 84.6114 68.8811C84.4787 69.0277 84.2934 69.1159 84.096 69.1266C83.9999 69.1368 83.9028 69.1275 83.8103 69.0995C83.7179 69.0715 83.632 69.0252 83.5577 68.9633C83.4835 68.9015 83.4224 68.8255 83.378 68.7397C83.3336 68.6538 83.3069 68.56 83.2995 68.4637C83.2931 68.2667 83.3634 68.075 83.4957 67.929C83.628 67.7829 83.8119 67.694 84.0085 67.681C84.1046 67.6709 84.2017 67.6801 84.2941 67.7081C84.3866 67.7362 84.4725 67.7825 84.5467 67.8443C84.621 67.9061 84.6821 67.9821 84.7265 68.068C84.7708 68.1538 84.7975 68.2476 84.805 68.344Z" fill="#263238"/>
<path d="M84.7128 66.1756C84.607 66.1756 84.1143 65.8672 83.3317 65.6738C82.549 65.4804 81.8998 65.5219 81.8308 65.4574C81.7617 65.393 81.9136 65.3653 82.1945 65.3423C82.6047 65.3163 83.0164 65.3551 83.4145 65.4574C83.7999 65.5489 84.1672 65.7046 84.5011 65.9178C84.6852 66.0651 84.7405 66.1664 84.7128 66.1756Z" fill="#263238"/>
<path d="M87.8805 72.4966C88.3071 72.3541 88.7491 72.2629 89.1973 72.2249C89.4044 72.2249 89.5978 72.1513 89.63 72.0085C89.643 71.7952 89.59 71.583 89.4781 71.4008L88.8197 69.8309C87.8989 67.6025 87.2452 65.7656 87.3373 65.7333C87.4293 65.7011 88.2581 67.4736 89.1466 69.702C89.3676 70.2544 89.5794 70.7793 89.7774 71.2811C89.9133 71.528 89.9589 71.8145 89.9063 72.0914C89.8776 72.1657 89.8325 72.2324 89.7743 72.2867C89.7161 72.3409 89.6463 72.3812 89.5702 72.4045C89.4568 72.44 89.3391 72.4602 89.2203 72.4643C88.7769 72.5325 88.3266 72.5434 87.8805 72.4966Z" fill="#263238"/>
<path d="M84.7129 63.0355C84.6208 63.2519 83.8151 63.1091 82.8713 63.1736C81.9275 63.238 81.1264 63.4682 81.0297 63.2611C80.9744 63.1644 81.1218 62.9618 81.4394 62.7638C81.8668 62.5206 82.3441 62.3784 82.8349 62.3481C83.3257 62.3177 83.8169 62.4001 84.2709 62.5889C84.5747 62.75 84.7405 62.9296 84.7129 63.0355Z" fill="#263238"/>
<path d="M92.7651 63.2152C92.5856 63.4039 91.8858 63.2152 91.0479 63.2152C90.2099 63.2152 89.4963 63.3579 89.3306 63.1645C89.2569 63.0724 89.3674 62.8837 89.6759 62.7041C90.1013 62.4811 90.577 62.3717 91.0571 62.3864C91.541 62.3831 92.0173 62.5069 92.4383 62.7456C92.7421 62.9343 92.8434 63.1277 92.7651 63.2152Z" fill="#263238"/>
<path d="M95.6657 58.8826C95.6191 58.6409 95.4857 58.4247 95.2906 58.2746C95.0956 58.1244 94.8523 58.0509 94.6068 58.0677C94.8714 57.9922 95.1185 57.8655 95.3342 57.6948C95.4415 57.6083 95.5221 57.4932 95.5669 57.3629C95.6117 57.2326 95.6188 57.0923 95.5874 56.9581C95.4493 56.5484 94.9245 56.4609 94.5101 56.3458C93.9662 56.1877 93.484 55.8663 93.1289 55.425C92.6271 54.7897 92.4337 53.961 91.9963 53.275C91.7139 52.8321 91.3357 52.4582 90.8896 52.1809C90.4435 51.9035 89.9409 51.7297 89.4188 51.6723C88.8966 51.6149 88.3683 51.6753 87.8726 51.8491C87.3769 52.0228 86.9264 52.3056 86.5545 52.6765C86.1482 52.2589 85.6482 51.9443 85.096 51.7589C84.5437 51.5734 83.9551 51.5225 83.3792 51.6103C82.8033 51.6981 82.2567 51.9221 81.7848 52.2637C81.3129 52.6053 80.9293 53.0546 80.666 53.5742C79.9597 53.2797 79.1873 53.1804 78.4295 53.2869C77.6717 53.3934 76.9565 53.7016 76.3587 54.1793C75.761 54.6571 75.3026 55.2868 75.0317 56.0024C74.7609 56.7181 74.6874 57.4934 74.819 58.2472L78.1154 60.2684C78.1421 60.0177 78.2218 59.7755 78.3491 59.5579C78.4764 59.3402 78.6484 59.1521 78.8538 59.0059C79.0592 58.8596 79.2933 58.7587 79.5406 58.7097C79.7879 58.6606 80.0428 58.6646 80.2885 58.7214C81.2829 59.0115 81.9183 60.1625 82.9496 60.2408C83.7552 60.3006 84.4412 59.6791 85.2193 59.4719C86.1631 59.2187 87.1622 59.5962 88.0139 60.075C88.8656 60.5538 89.6805 61.1523 90.629 61.3917C91.7618 61.6188 92.9376 61.4785 93.9852 60.9912C94.4504 60.828 94.8746 60.5657 95.2283 60.2223C95.4027 60.0501 95.5334 59.8386 95.6095 59.6055C95.6856 59.3725 95.7049 59.1246 95.6657 58.8826Z" fill="#263238"/>
<path d="M78.6726 58.7124L93.7736 58.6295C93.2287 57.6146 92.437 56.7533 91.4716 56.125C89.4662 54.6597 87.0493 53.8653 84.5656 53.8552C82.1025 53.8552 77.1763 57.0181 75.4406 58.763C74.0594 60.1442 74.0962 61.3367 74.0962 61.3367C73.9213 63.2979 75.0769 65.4802 75.5695 67.4001C75.8181 68.3853 76.3384 71.3687 76.3384 71.3687C77.1671 71.3457 77.4571 70.6735 77.3098 69.854L77.0658 66.6312C77.8806 65.9514 78.4514 65.0243 78.6916 63.9907C78.9317 62.957 78.828 61.8733 78.3963 60.9039C78.1892 60.6184 77.6919 59.2879 78.6726 58.7124Z" fill="#263238"/>
<path d="M76.8493 66.4195C76.0804 63.7492 75.3714 60.8948 76.1909 58.2245H75.7305L75.5463 58.358C75.1206 58.2149 74.6604 58.2112 74.2324 58.3474C73.8045 58.4836 73.431 58.7526 73.1663 59.1153C72.9015 59.4781 72.7592 59.9158 72.76 60.3649C72.7608 60.814 72.9046 61.2512 73.1707 61.613C72.7217 61.609 72.2868 61.7692 71.9477 62.0634C71.6086 62.3576 71.3886 62.7656 71.3291 63.2106C71.3306 63.8307 71.5009 64.4386 71.8217 64.9693C72.1432 65.5015 72.34 66.0996 72.3972 66.7188C72.4166 67.0271 72.3265 67.3324 72.1429 67.5808C71.9593 67.8292 71.694 68.0049 71.3936 68.077C71.5391 68.3911 71.7884 68.6454 72.0995 68.7972C72.4106 68.949 72.7645 68.9889 73.1016 68.9103C72.8866 69.4351 72.5275 69.8884 72.0657 70.2178C73.051 70.89 74.3999 70.6782 75.4681 70.1395C76.1307 69.873 76.6717 69.3714 76.9874 68.7307C77.282 67.9895 77.061 67.1746 76.8493 66.4195Z" fill="#263238"/>
<path d="M76.6008 69.5358C76.5088 69.4989 72.9177 68.5551 73.1433 72.1692C73.3688 75.7833 76.9415 74.8303 76.9415 74.7244C76.9415 74.6185 76.6008 69.5358 76.6008 69.5358Z" fill="#FFBE9D"/>
<path d="M76.0758 73.4128C76.0758 73.4128 76.016 73.4589 75.9101 73.5141C75.7671 73.5851 75.6022 73.5983 75.4497 73.551C75.0584 73.4313 74.7039 72.8466 74.6486 72.1928C74.6208 71.8804 74.6632 71.5658 74.7729 71.272C74.8023 71.1558 74.8596 71.0485 74.9398 70.9594C75.02 70.8704 75.1208 70.8023 75.2333 70.761C75.3048 70.7387 75.3817 70.7417 75.4513 70.7693C75.5208 70.797 75.5788 70.8477 75.6155 70.9129C75.6707 71.0096 75.6477 71.0832 75.6707 71.0925C75.6937 71.1017 75.7444 71.0234 75.7075 70.8761C75.6779 70.7901 75.6234 70.7148 75.551 70.6597C75.5 70.6241 75.4422 70.5992 75.3813 70.5865C75.3204 70.5739 75.2575 70.5737 75.1965 70.586C75.0499 70.6245 74.9156 70.6996 74.806 70.8043C74.6965 70.909 74.6154 71.0398 74.5704 71.1845C74.4375 71.508 74.3823 71.858 74.4092 72.2066C74.4783 72.934 74.8696 73.5878 75.4221 73.7167C75.5201 73.7383 75.6218 73.7379 75.7196 73.7156C75.8175 73.6933 75.9093 73.6497 75.9884 73.5878C76.0758 73.5003 76.0897 73.4174 76.0758 73.4128Z" fill="#EB996E"/>
<path d="M72.8486 66.5393C72.8486 66.5393 72.7473 66.4011 72.7795 66.1157C72.8181 65.922 72.8987 65.7392 73.0156 65.5801C73.1325 65.421 73.283 65.2895 73.4563 65.1949C73.975 64.9479 74.5395 64.8115 75.1137 64.7944C75.435 64.7944 75.7518 64.7185 76.0382 64.5729C76.3247 64.4273 76.5726 64.2161 76.7619 63.9564C77.0627 63.371 77.163 62.703 77.0474 62.055C76.9599 61.4473 76.7988 60.8994 76.7205 60.4252C76.5747 59.9171 76.5827 59.3772 76.7435 58.8737C76.7467 59.3816 76.8038 59.8878 76.9139 60.3838C77.0152 60.8442 77.1947 61.3828 77.3052 62.0228C77.4443 62.7308 77.337 63.4651 77.0014 64.1038C76.8017 64.4339 76.4993 64.6894 76.1404 64.8312C75.8191 64.9504 75.483 65.0248 75.1414 65.0522C74.5969 65.0554 74.0579 65.1616 73.553 65.3652C73.3949 65.4465 73.2545 65.5584 73.1399 65.6943C73.0253 65.8302 72.9388 65.9875 72.8854 66.1571C72.8648 66.2836 72.8524 66.4112 72.8486 66.5393Z" fill="#455A64"/>
<path d="M71.9737 64.9691C71.9737 64.9691 71.8955 64.8678 71.8632 64.6422C71.826 64.3241 71.8888 64.0023 72.0428 63.7214C72.1485 63.5219 72.2942 63.3463 72.471 63.2058C72.6775 63.0508 72.9144 62.941 73.1662 62.8835C73.4104 62.8312 73.6429 62.7344 73.8521 62.5981C73.9447 62.5153 74.0172 62.4127 74.0642 62.2978C74.1113 62.183 74.1317 62.059 74.1238 61.9351C74.1238 61.6635 74.0915 61.3734 74.1008 61.0834C74.1046 60.8063 74.1354 60.5303 74.1928 60.2593C74.2858 59.8013 74.4621 59.3643 74.7131 58.9701C74.7929 58.8255 74.9076 58.703 75.0466 58.6138C75.1857 58.5246 75.3448 58.4714 75.5096 58.4591C75.749 58.4591 75.8503 58.5696 75.8411 58.5788C75.8318 58.588 75.7213 58.5374 75.5188 58.5788C75.3804 58.6084 75.2506 58.6694 75.1396 58.7573C75.0286 58.8451 74.9394 58.9573 74.8788 59.0852C74.671 59.4714 74.525 59.8877 74.4461 60.3191C74.4015 60.5745 74.3784 60.8333 74.377 61.0926C74.377 61.3596 74.4184 61.645 74.4046 61.9581C74.4113 62.122 74.3804 62.2852 74.3141 62.4353C74.2479 62.5853 74.1481 62.7182 74.0225 62.8237C73.7848 62.9828 73.5168 63.0909 73.2352 63.1413C73.0256 63.1772 72.8259 63.2573 72.6497 63.3764C72.4734 63.4955 72.3246 63.6508 72.2131 63.8319C72.024 64.1795 71.9408 64.5748 71.9737 64.9691Z" fill="#455A64"/>
<path d="M93.1336 55.4248C93.1567 55.4248 92.862 55.6228 92.3878 55.4018C92.1208 55.257 91.8871 55.0578 91.7018 54.8171C91.4736 54.5176 91.1889 54.2658 90.8639 54.0758C90.4411 53.8382 89.9584 53.7286 89.4744 53.7605C88.9905 53.7924 88.5263 53.9643 88.1383 54.2554C87.678 54.5777 87.2958 55.0335 86.7572 55.411C86.4833 55.6142 86.1695 55.7569 85.8364 55.83C85.4917 55.8903 85.1371 55.8569 84.8097 55.7333C84.1559 55.4985 83.6403 55.0979 83.0786 54.8953C82.5366 54.6873 81.9603 54.5826 81.3797 54.5869C80.3796 54.5856 79.4076 54.9177 78.6174 55.5307C78.0895 55.9431 77.6509 56.4584 77.3283 57.0454C77.1027 57.4644 77.0198 57.7222 76.9968 57.713C76.9737 57.7038 76.9968 57.6439 77.0336 57.5196C77.0857 57.3404 77.1503 57.165 77.227 56.9948C77.5243 56.3678 77.9567 55.8144 78.4931 55.3742C79.3011 54.7136 80.3086 54.3453 81.3521 54.3291C81.9666 54.3131 82.5782 54.4179 83.1523 54.6375C83.76 54.8585 84.2848 55.2591 84.8787 55.4662C85.1601 55.5746 85.4656 55.6048 85.7627 55.5537C86.0509 55.4876 86.3222 55.3622 86.5592 55.1854C87.0426 54.8401 87.4478 54.3843 87.9404 54.0436C88.3958 53.7024 88.9505 53.5197 89.5195 53.5234C90.0049 53.5269 90.481 53.657 90.9007 53.9009C91.2369 54.1153 91.5291 54.3919 91.7617 54.7158C91.923 54.9523 92.1314 55.153 92.374 55.3051C92.6025 55.441 92.8744 55.4839 93.1336 55.4248Z" fill="#455A64"/>
<path d="M85.8731 73.4445C85.9882 73.4445 86.1171 74.1903 86.8722 74.6277C87.6272 75.065 88.4329 74.8441 88.4605 74.9499C88.4882 75.0558 88.2994 75.1341 87.9541 75.1986C87.5029 75.2824 87.0365 75.2041 86.6374 74.9776C86.255 74.7563 85.9717 74.3973 85.8455 73.9739C85.7626 73.6562 85.8179 73.4491 85.8731 73.4445Z" fill="#263238"/>
<path d="M133.515 145.382C132.113 144.178 130.294 143.573 128.451 143.697L125.338 153.582C127.617 153.683 129.892 154.857 132.092 154.254C132.971 153.983 133.754 153.466 134.349 152.764C134.944 152.063 135.325 151.206 135.449 150.294C135.544 149.38 135.419 148.457 135.082 147.602C134.746 146.747 134.208 145.985 133.515 145.382Z" fill="#225A4B"/>
<path d="M128.487 143.471C128.487 143.393 128.824 143.329 129.408 143.333C130.278 143.349 131.139 143.513 131.954 143.817C133.2 144.302 134.278 145.138 135.057 146.225C135.534 146.869 135.885 147.596 136.093 148.37C136.319 149.217 136.344 150.104 136.167 150.962C135.995 151.832 135.607 152.644 135.039 153.324C134.494 153.943 133.805 154.418 133.032 154.705C131.775 155.149 130.421 155.237 129.118 154.958C128.28 154.794 127.462 154.539 126.678 154.199C126.13 153.964 125.84 153.789 125.868 153.711C125.895 153.632 126.227 153.655 126.789 153.752C127.35 153.849 128.202 154.028 129.215 154.12C130.364 154.248 131.526 154.09 132.599 153.66C133.187 153.411 133.708 153.026 134.118 152.537C134.548 152.001 134.842 151.369 134.974 150.695C135.101 150.027 135.091 149.34 134.947 148.676C134.802 148.011 134.525 147.383 134.132 146.828C133.497 145.867 132.625 145.086 131.6 144.563C130.873 144.22 130.112 143.954 129.33 143.771C128.8 143.651 128.478 143.554 128.487 143.471Z" fill="#F5F5F5"/>
<path d="M99.6528 180.556L92.885 199.52L116.434 208.06C117.116 205.758 106.568 196.826 106.568 196.826L111.402 184.856L99.6528 180.556Z" fill="#225A4B"/>
<g opacity="0.6">
<path d="M99.6573 193.167C99.4057 193.153 99.1579 193.233 98.9616 193.391C98.7653 193.549 98.6343 193.774 98.5938 194.023C98.5712 194.273 98.6456 194.523 98.8015 194.72C98.9574 194.917 99.183 195.046 99.4317 195.082C99.7001 195.096 99.9641 195.01 100.172 194.839C100.38 194.669 100.516 194.427 100.555 194.161C100.555 193.659 100.058 193.084 99.5606 193.153" fill="white"/>
</g>
<path d="M92.885 199.52L93.571 197.609L115.937 206.532C115.937 206.532 116.821 207.365 116.434 208.06L92.885 199.52Z" fill="white"/>
<path d="M106.996 196.844C106.95 196.96 106.356 196.803 105.656 196.969C104.957 197.135 104.478 197.507 104.39 197.429C104.303 197.351 104.713 196.743 105.564 196.559C106.416 196.375 107.056 196.748 106.996 196.844Z" fill="#263238"/>
<path d="M109.114 198.764C109.114 198.884 108.529 198.898 107.963 199.225C107.397 199.552 107.097 200.044 106.982 199.998C106.867 199.952 107.033 199.275 107.747 198.856C108.46 198.437 109.114 198.654 109.114 198.764Z" fill="#263238"/>
<path d="M109.422 202.227C109.312 202.227 109.358 201.582 109.883 201.057C110.408 200.533 111.034 200.482 111.048 200.597C111.061 200.712 110.61 200.924 110.187 201.361C109.763 201.799 109.542 202.259 109.422 202.227Z" fill="#263238"/>
<path d="M107.793 193.995C107.705 194.083 107.236 193.733 106.573 193.535C105.91 193.337 105.325 193.364 105.302 193.245C105.279 193.125 105.91 192.89 106.683 193.13C107.457 193.369 107.885 193.926 107.793 193.995Z" fill="#263238"/>
<path d="M108.244 190.998C107.821 190.96 107.416 190.811 107.07 190.565C106.671 190.336 106.303 190.058 105.974 189.736C105.778 189.548 105.595 189.347 105.426 189.133C105.32 189.012 105.233 188.875 105.168 188.728C105.122 188.619 105.114 188.497 105.145 188.383C105.176 188.269 105.244 188.168 105.339 188.097C105.425 188.038 105.524 188 105.628 187.985C105.732 187.971 105.838 187.981 105.937 188.014C106.087 188.068 106.228 188.142 106.356 188.235C106.586 188.389 106.802 188.563 107.001 188.755C107.334 189.078 107.613 189.451 107.83 189.86C108.066 190.219 108.187 190.642 108.175 191.071C108.11 191.071 107.972 190.634 107.572 190.012C107.334 189.655 107.053 189.329 106.734 189.041C106.545 188.872 106.344 188.718 106.131 188.581C105.905 188.424 105.693 188.346 105.592 188.433C105.491 188.521 105.541 188.484 105.569 188.576C105.617 188.684 105.681 188.785 105.758 188.875C105.909 189.079 106.073 189.273 106.25 189.455C106.549 189.77 106.878 190.055 107.231 190.307C107.839 190.744 108.272 190.938 108.244 190.998Z" fill="#263238"/>
<path d="M108.037 191.117C107.937 190.7 107.972 190.261 108.138 189.865C108.277 189.421 108.491 189.004 108.769 188.631C108.936 188.412 109.122 188.209 109.326 188.024C109.447 187.892 109.6 187.793 109.77 187.737C109.94 187.68 110.121 187.668 110.297 187.701C110.401 187.743 110.491 187.813 110.557 187.903C110.623 187.993 110.662 188.101 110.67 188.212C110.679 188.367 110.666 188.522 110.633 188.673C110.561 189.046 110.414 189.402 110.202 189.718C109.991 190.034 109.718 190.305 109.399 190.514C108.718 190.975 108.189 190.919 108.193 190.878C108.198 190.837 108.654 190.731 109.225 190.27C109.549 190.006 109.813 189.675 109.998 189.299C110.105 189.08 110.181 188.848 110.224 188.608C110.279 188.346 110.256 188.106 110.155 188.102C110.051 188.098 109.948 188.117 109.852 188.157C109.757 188.198 109.671 188.259 109.602 188.337C109.411 188.498 109.235 188.677 109.077 188.871C108.807 189.201 108.587 189.568 108.423 189.962C108.138 190.657 108.106 191.117 108.037 191.117Z" fill="#263238"/>
<path d="M76.8402 129.912C73.2676 129.995 69.879 130.497 67.4159 133.089C64.1517 136.528 60.1186 141.422 59.8884 144.815C59.5478 149.88 62.6094 151.399 64.8423 152.642C65.83 153.176 66.943 153.435 68.0651 153.392L109.353 153.079L110.647 146.086L83.9441 139.502L85.0537 129.452L76.8402 129.912Z" fill="#263238"/>
<path d="M85.0767 129.448L98.0645 128.849C98.0645 128.849 120.504 130.097 125.288 134.485C130.071 138.872 129.477 143.858 127.88 148.642C126.282 153.425 112.226 184.037 112.226 184.037C112.226 184.037 113.368 185.985 112.728 187.927C112.469 188.778 111.994 189.547 111.348 190.159C110.702 190.771 109.909 191.204 109.045 191.417L96.559 186.813C96.559 186.813 94.8647 186.215 96.0618 184.617C97.2588 183.02 98.0553 182.725 98.0553 182.725V179.534C98.0553 179.534 102.443 171.556 102.839 170.46C103.235 169.364 107.443 153.131 107.443 153.131L110.237 148.329C110.237 148.329 103.483 145.152 97.6271 142.85L83.9534 139.48L85.0767 129.448Z" fill="#263238"/>
<path d="M106.144 186.252C105.767 186.032 105.401 185.792 105.049 185.533C103.285 184.39 101.298 183.636 99.22 183.319C98.7842 183.277 98.3508 183.212 97.9216 183.125C98.3596 183.075 98.8024 183.083 99.2384 183.149C101.368 183.376 103.403 184.15 105.145 185.395C105.514 185.636 105.85 185.923 106.144 186.252Z" fill="#455A64"/>
<path d="M112.383 184.059C112.111 183.836 111.868 183.579 111.66 183.295C111.236 182.803 110.675 182.103 110.09 181.302C109.505 180.501 108.999 179.759 108.654 179.211C108.448 178.925 108.275 178.616 108.138 178.291C108.385 178.541 108.604 178.817 108.792 179.115L110.283 181.159C110.84 181.914 111.352 182.595 111.793 183.189C112.021 183.457 112.219 183.749 112.383 184.059Z" fill="#455A64"/>
<path d="M116.941 143.964C116.941 144.001 116.48 144.102 115.757 144.342C113.865 144.966 112.15 146.037 110.757 147.463C110.486 147.777 110.198 148.076 109.896 148.361C110.091 147.989 110.339 147.648 110.633 147.348C111.303 146.592 112.078 145.936 112.935 145.401C113.792 144.862 114.722 144.451 115.697 144.181C116.099 144.046 116.518 143.973 116.941 143.964Z" fill="#455A64"/>
<path d="M104.188 165.639C104.193 165.547 104.21 165.455 104.238 165.367L104.432 164.608L105.178 161.822L107.733 152.656C108.253 150.865 108.695 149.161 109.197 147.614C109.727 146.27 110.528 145.049 111.549 144.028C112.224 143.336 112.971 142.719 113.778 142.186C114.068 142.002 114.293 141.864 114.455 141.781C114.532 141.732 114.614 141.691 114.699 141.657C114.699 141.657 114.386 141.869 113.833 142.26C113.053 142.817 112.328 143.447 111.669 144.143C110.683 145.16 109.913 146.366 109.404 147.688C108.944 149.212 108.483 150.938 107.963 152.72L105.343 161.864C105.003 163.01 104.722 163.945 104.519 164.626C104.423 164.93 104.349 165.178 104.284 165.372C104.264 165.465 104.232 165.555 104.188 165.639Z" fill="#455A64"/>
<path d="M92.7008 142.256C92.6317 142.256 92.3601 139.834 92.0885 136.832C91.8168 133.831 91.6281 131.391 91.7201 131.386C91.8122 131.381 92.0562 133.808 92.3279 136.809C92.5995 139.811 92.7652 142.251 92.7008 142.256Z" fill="#455A64"/>
<path d="M71.0805 148.761C71.0437 148.761 70.8457 148.389 70.436 147.813C69.907 147.065 69.2728 146.396 68.5529 145.829C67.8275 145.269 67.026 144.814 66.1727 144.48C65.5143 144.222 65.0862 144.125 65.0954 144.084C65.4829 144.102 65.8651 144.181 66.2279 144.319C68.0284 144.912 69.5664 146.113 70.5787 147.716C70.8022 148.035 70.9717 148.388 71.0805 148.761Z" fill="#455A64"/>
<path d="M79.0362 139.922C79.0362 139.959 78.4653 139.609 77.5123 139.171C75.0118 138.036 72.2384 137.639 69.5198 138.03C68.4839 138.177 67.8532 138.361 67.844 138.32C67.9779 138.244 68.1222 138.188 68.2722 138.154C68.6722 138.03 69.0797 137.932 69.4922 137.859C72.2419 137.377 75.0738 137.783 77.5768 139.019C77.952 139.205 78.3149 139.414 78.6633 139.646C78.7998 139.72 78.9254 139.813 79.0362 139.922Z" fill="#455A64"/>
<path d="M110.141 146.072C110.03 146.067 109.92 146.048 109.814 146.017L108.893 145.819L105.532 145.078C102.691 144.443 98.7597 143.586 94.3997 142.725C90.0398 141.864 86.0803 141.151 83.2121 140.658L79.8098 140.074L78.889 139.912C78.7802 139.9 78.6735 139.873 78.5713 139.834C78.6807 139.837 78.7898 139.846 78.8982 139.862L79.819 139.981C80.6247 140.092 81.7895 140.267 83.2305 140.492C86.108 140.953 90.0766 141.625 94.4411 142.491C98.8057 143.356 102.728 144.236 105.564 144.912C106.978 145.253 108.124 145.538 108.911 145.746L109.832 145.985C109.937 146.005 110.041 146.034 110.141 146.072Z" fill="#455A64"/>
<path d="M83.967 140.681C83.921 140.681 83.8243 140.137 83.3961 139.364C83.1456 138.918 82.8359 138.507 82.4753 138.144C82.0206 137.696 81.5378 137.278 81.0297 136.892C80.0935 136.2 79.1036 135.584 78.0693 135.05C77.6318 134.842 77.2101 134.602 76.8079 134.332C77.2712 134.478 77.7197 134.668 78.1476 134.898C79.2161 135.394 80.2311 135.997 81.177 136.698C81.692 137.091 82.1782 137.52 82.6319 137.983C83.0016 138.366 83.312 138.802 83.5527 139.277C83.7181 139.598 83.8433 139.938 83.9256 140.289C83.9635 140.416 83.9776 140.549 83.967 140.681Z" fill="#455A64"/>
<path d="M129.956 146.92C130.007 146.975 129.316 147.67 128.778 148.734C128.239 149.797 128.064 150.755 127.995 150.741C127.993 149.997 128.19 149.266 128.566 148.623C128.871 147.943 129.351 147.355 129.956 146.92Z" fill="#263238"/>
<g opacity="0.3">
<path d="M100.403 99.7473L103.359 120.566L103.506 120.898C104.2 113.7 103.135 106.442 100.403 99.7473Z" fill="black"/>
</g>
<path d="M116.319 111.709L106.711 128.504L83.0325 129.02L82.9727 130.092L105.9 129.922L106.628 129.894L130.835 129.945L135.729 121.506L141.982 112.547C142.072 112.414 142.125 112.259 142.133 112.098C142.142 111.938 142.107 111.778 142.032 111.636C141.957 111.493 141.844 111.375 141.706 111.292C141.568 111.209 141.41 111.165 141.25 111.166L117.083 111.258C116.928 111.259 116.775 111.301 116.641 111.38C116.506 111.46 116.395 111.573 116.319 111.709Z" fill="#E0E0E0"/>
<path d="M135.729 121.52C135.729 121.52 136.972 122.662 136.779 123.629C136.586 124.595 136.646 125.318 135.729 125.383C135.746 125.736 135.627 126.083 135.396 126.351C135.164 126.62 134.839 126.789 134.486 126.824C134.486 126.824 134.767 128.343 132.999 128.605C132.999 128.605 132.456 130.231 131.342 129.835C130.7 129.616 130.082 129.331 129.5 128.983L129.173 128.394C129.173 128.394 127.53 127.777 127.935 126.851C128.183 126.29 129.031 126.142 129.031 126.142C128.933 125.912 128.892 125.661 128.91 125.411C128.929 125.162 129.006 124.92 129.136 124.706C129.528 124.176 130.808 124.614 130.808 124.614C130.781 124.16 130.926 123.713 131.213 123.361C131.673 122.841 133.69 124.245 133.69 124.245L134.799 122.92L135.729 121.52Z" fill="#FFBE9D"/>
<path d="M132.999 128.605C132.281 128.299 131.596 127.921 130.955 127.477C130.272 127.1 129.63 126.652 129.04 126.142C129.757 126.45 130.442 126.83 131.084 127.274C131.766 127.652 132.407 128.098 132.999 128.605Z" fill="#EB996E"/>
<path d="M134.486 126.823C133.819 126.561 133.182 126.224 132.59 125.819C131.956 125.484 131.362 125.079 130.817 124.613C131.486 124.873 132.123 125.21 132.714 125.617C133.347 125.952 133.942 126.357 134.486 126.823Z" fill="#EB996E"/>
<path d="M132.461 123.49C132.498 123.421 133.257 123.821 134.141 124.383C134.689 124.699 135.217 125.05 135.72 125.433C135.688 125.511 134.896 125.152 134.012 124.585C133.458 124.276 132.938 123.909 132.461 123.49Z" fill="#EB996E"/>
<path d="M141.982 111.81C141.944 111.816 141.905 111.816 141.867 111.81H141.526H140.218L135.412 111.847L119.551 111.884H118.396C118.225 111.868 118.054 111.897 117.899 111.97C117.744 112.043 117.612 112.156 117.516 112.298C117.148 112.955 116.789 113.603 116.439 114.241L114.395 117.924L110.928 124.153C109.943 125.912 109.137 127.339 108.571 128.348C108.299 128.808 108.078 129.204 107.922 129.48L107.747 129.77L107.682 129.867C107.682 129.867 107.682 129.825 107.724 129.756L107.88 129.452L108.492 128.301L110.794 124.07L114.22 117.814C114.864 116.64 115.546 115.406 116.245 114.13L117.327 112.174C117.445 111.999 117.608 111.858 117.798 111.766C117.988 111.673 118.199 111.633 118.409 111.649H119.565L135.426 111.681L140.232 111.723L141.54 111.746H141.88C141.917 111.761 141.952 111.783 141.982 111.81Z" fill="#263238"/>
<path d="M124.947 120.258C124.835 120.42 124.773 120.61 124.766 120.807C124.76 121.003 124.811 121.197 124.912 121.366C125.014 121.534 125.161 121.67 125.338 121.756C125.515 121.843 125.712 121.877 125.908 121.854C126.103 121.831 126.287 121.752 126.439 121.627C126.59 121.501 126.703 121.335 126.762 121.148C126.822 120.96 126.826 120.76 126.774 120.57C126.722 120.38 126.617 120.21 126.471 120.078C126.244 119.902 125.957 119.821 125.672 119.855C125.387 119.889 125.126 120.033 124.947 120.258Z" fill="white"/>
<g opacity="0.3">
<path d="M57.7291 113.771C57.5265 113.853 57.2917 113.992 57.2917 114.231C57.2991 114.32 57.3363 114.404 57.3973 114.469C57.4583 114.534 57.5395 114.577 57.6278 114.59C57.9655 114.542 58.2963 114.454 58.6131 114.328C61.1038 113.78 63.1526 114.305 65.519 115.248L65.5973 115.17C64.6581 113.131 60.4086 112.679 57.7291 113.771Z" fill="black"/>
</g>
<path d="M186 207.231C186 207.295 144.357 207.35 93 207.35C41.6428 207.35 0 207.277 0 207.231C0 207.185 41.6336 207.111 93 207.111C144.366 207.111 186 207.143 186 207.231Z" fill="#263238"/>
<path d="M44.8517 60.4623C44.93 60.5406 60.2198 55.2875 60.2198 55.2875L54.3267 41.7979L40.7312 47.0141L48.2172 51.3142L44.8517 60.4623Z" fill="#455A64"/>
<path d="M52.0247 45.8589V27.4937C52.0247 27.4937 73.1154 23.6355 88.3131 23.8657C103.511 24.0959 119.16 26.5867 119.16 26.5867V44.2198C119.16 44.2198 71.527 39.9658 52.0247 45.8589Z" fill="#455A64"/>
<path d="M51.9143 45.8776L60.2014 55.3664V44.2202C60.2014 44.2202 53.2725 45.0489 51.9143 45.8776Z" fill="#263238"/>
<path d="M52.0247 27.4886C52.0938 27.4886 52.1214 31.6322 52.0938 36.6966C52.0662 41.7609 51.9833 45.9045 51.9188 45.9045C51.8544 45.9045 51.8222 41.7885 51.8498 36.6966C51.8774 31.6046 51.9557 27.4886 52.0247 27.4886Z" fill="#263238"/>
<path d="M126.296 59.0542C126.217 59.1325 110.928 53.8793 110.928 53.8793L116.807 40.3851L130.416 45.5922L122.926 49.8923L126.296 59.0542Z" fill="#455A64"/>
<path d="M119.242 44.4687L110.955 53.9574V43.6169C113.734 43.7121 116.503 43.9966 119.242 44.4687Z" fill="#263238"/>
<path d="M119.151 26.5868C119.215 26.5868 119.289 30.5876 119.312 35.5277C119.335 40.4677 119.312 44.4686 119.233 44.4686C119.155 44.4686 119.095 40.4677 119.072 35.5277C119.049 30.5876 119.082 26.5868 119.151 26.5868Z" fill="#263238"/>
<path d="M63.9166 35.5457C63.8732 35.017 63.9865 34.4872 64.2426 34.0225C64.4986 33.5579 64.886 33.1791 65.3562 32.9334C65.8264 32.6877 66.3585 32.5862 66.8862 32.6414C67.4138 32.6965 67.9134 32.9061 68.3226 33.2437L67.6781 34.0172C67.5046 33.8588 67.2982 33.7408 67.0738 33.6715C66.8493 33.6023 66.6123 33.5836 66.3798 33.6166C65.967 33.674 65.594 33.893 65.3428 34.2254C65.0915 34.5578 64.9826 34.9765 65.04 35.3892C65.0974 35.8019 65.3164 36.1749 65.6488 36.4261C65.9812 36.6774 66.3998 36.7863 66.8125 36.7289C67.0466 36.6981 67.2707 36.6151 67.4684 36.486C67.666 36.3569 67.8321 36.185 67.9543 35.9831L68.7646 36.5494C68.4644 36.9861 68.042 37.3246 67.5504 37.5224C67.0587 37.7202 66.5196 37.7686 66.0006 37.6614C65.4815 37.5543 65.0056 37.2964 64.6325 36.92C64.2594 36.5437 64.0055 36.0656 63.9028 35.5457H63.9166Z" fill="white"/>
<path d="M68.9396 34.855C68.8539 34.3235 68.9297 33.7784 69.1573 33.2905C69.3849 32.8025 69.7537 32.3942 70.216 32.1182C70.6783 31.8423 71.2129 31.7115 71.7504 31.7428C72.2879 31.7741 72.8036 31.9661 73.2307 32.2939C73.6579 32.6216 73.9768 33.0701 74.1462 33.5811C74.3156 34.0922 74.3276 34.6424 74.1808 35.1604C74.0339 35.6783 73.7349 36.1403 73.3225 36.4865C72.9101 36.8326 72.4033 37.0469 71.8677 37.1017C71.5266 37.1562 71.178 37.1405 70.8431 37.0556C70.5083 36.9708 70.1943 36.8186 69.9202 36.6083C69.6462 36.3981 69.4179 36.1341 69.2493 35.8327C69.0807 35.5312 68.9753 35.1986 68.9396 34.855ZM73.1338 34.4222C73.0963 34.1235 72.9718 33.8424 72.7757 33.614C72.5795 33.3856 72.3205 33.22 72.0309 33.1379C71.7412 33.0557 71.4338 33.0607 71.147 33.1521C70.8601 33.2435 70.6066 33.4174 70.4179 33.652C70.2292 33.8865 70.1138 34.1715 70.086 34.4713C70.0582 34.771 70.1193 35.0724 70.2616 35.3377C70.4039 35.6029 70.6212 35.8204 70.8864 35.963C71.1515 36.1056 71.4528 36.167 71.7526 36.1395C71.9593 36.1259 72.1609 36.0695 72.3447 35.974C72.5285 35.8784 72.6905 35.7457 72.8203 35.5842C72.9502 35.4228 73.0451 35.2362 73.099 35.0361C73.153 34.8361 73.1648 34.6271 73.1338 34.4222Z" fill="white"/>
<path d="M79.7911 36.3884L79.5931 33.4511L78.3086 35.9648L77.8022 35.9971L76.2138 33.7319L76.4026 36.6048L75.3391 36.6738L75.0444 31.7798L75.9652 31.72L77.991 34.6435L79.5978 31.4898L80.5185 31.4299L80.85 36.3193L79.7911 36.3884Z" fill="white"/>
<path d="M86.1309 33.0365C86.1585 34.1322 85.3574 34.832 84.0499 34.8781L83.06 34.9057L83.1015 36.2593L81.9643 36.2915L81.8262 31.3606L83.9486 31.3008C85.2607 31.2824 86.094 31.9407 86.1309 33.0365ZM84.9799 33.0687C84.9799 32.53 84.607 32.2262 83.9118 32.2446L82.991 32.2722L83.0416 33.9757L83.9624 33.9481C84.653 33.9297 84.9937 33.6028 84.9799 33.0687Z" fill="white"/>
<path d="M87.0149 31.2555H88.1475V35.2333H90.606V36.1541H87.0149V31.2555Z" fill="white"/>
<path d="M95.0026 35.3754V36.2962L91.2043 36.1857L91.3471 31.2825L95.0302 31.393L95.0026 32.3138L92.4244 32.2355L92.3968 33.3036L94.6711 33.3681L94.6435 34.252L92.3691 34.183L92.3369 35.3201L95.0026 35.3754Z" fill="white"/>
<path d="M97.1022 32.4202L95.5369 32.3281L95.5921 31.4073L99.8554 31.6652L99.8001 32.586L98.2348 32.4893L97.9954 36.4625L96.8628 36.3934L97.1022 32.4202Z" fill="white"/>
<path d="M103.985 36.0476L103.902 36.9684L100.118 36.6185L100.578 31.7383L104.261 32.079L104.178 32.9998L101.609 32.7419L101.513 33.8055L103.778 34.0126L103.7 34.892L101.43 34.6848L101.329 35.8128L103.985 36.0476Z" fill="white"/>
<path d="M105.403 32.1852L107.608 32.4798C109.197 32.6916 110.159 33.792 109.966 35.2422C109.772 36.6925 108.548 37.5442 106.959 37.314L104.754 37.0193L105.403 32.1852ZM107.028 36.407C107.229 36.4392 107.433 36.4309 107.631 36.3826C107.828 36.3343 108.013 36.247 108.176 36.1258C108.339 36.0047 108.476 35.8521 108.579 35.6772C108.682 35.5022 108.748 35.3084 108.775 35.1072C108.802 34.9061 108.788 34.7016 108.734 34.5058C108.681 34.31 108.589 34.127 108.463 33.9675C108.338 33.808 108.181 33.6752 108.004 33.5771C107.826 33.4789 107.631 33.4174 107.429 33.396L106.402 33.2579L106.002 36.2689L107.028 36.407Z" fill="white"/>
<path d="M128.584 28.2576L129.79 29.671L133.188 28.2576L132.193 26.7705L128.584 28.2576Z" fill="#455A64"/>
<path d="M127.028 21.5309C127.028 21.8805 126.924 22.2223 126.73 22.5131C126.536 22.8038 126.259 23.0304 125.936 23.1642C125.613 23.298 125.258 23.333 124.915 23.2648C124.572 23.1966 124.257 23.0282 124.01 22.781C123.763 22.5337 123.594 22.2187 123.526 21.8758C123.458 21.5328 123.493 21.1774 123.627 20.8543C123.76 20.5313 123.987 20.2551 124.278 20.0609C124.568 19.8666 124.91 19.7629 125.26 19.7629C125.728 19.7642 126.177 19.9508 126.509 20.2821C126.84 20.6134 127.027 21.0624 127.028 21.5309Z" fill="#225A4B"/>
<path d="M87.4246 47.9022C87.4237 48.0774 87.3707 48.2484 87.2724 48.3935C87.1741 48.5385 87.0349 48.6511 86.8725 48.7168C86.7101 48.7826 86.5318 48.7986 86.3603 48.7629C86.1888 48.7271 86.0317 48.6412 85.9091 48.516C85.7865 48.3908 85.7039 48.232 85.6718 48.0598C85.6396 47.8875 85.6594 47.7096 85.7285 47.5486C85.7977 47.3876 85.9131 47.2508 86.0602 47.1556C86.2072 47.0603 86.3793 47.0109 86.5545 47.0137C86.7873 47.0173 87.0093 47.1127 87.1723 47.279C87.3352 47.4454 87.4259 47.6694 87.4246 47.9022Z" fill="#225A4B"/>
<path d="M46.2421 34.6157C46.2421 34.7491 46.2024 34.8794 46.1281 34.9901C46.0538 35.1008 45.9483 35.187 45.8249 35.2376C45.7016 35.2882 45.566 35.3009 45.4353 35.2742C45.3047 35.2475 45.1849 35.1826 45.0913 35.0877C44.9977 34.9927 44.9344 34.8721 44.9095 34.7411C44.8846 34.6101 44.8993 34.4747 44.9516 34.352C45.0038 34.2294 45.0914 34.1251 45.2032 34.0523C45.3149 33.9796 45.4458 33.9417 45.5791 33.9435C45.7558 33.946 45.9244 34.0179 46.0485 34.1436C46.1725 34.2694 46.2421 34.439 46.2421 34.6157Z" fill="#225A4B"/>
<path d="M43.7468 27.2169L45.7265 27.3366L46.6657 23.4417L44.8149 23.5199L43.7468 27.2169Z" fill="#455A64"/>
<path d="M105.624 58.3078L106.292 60.177L110.242 59.514L109.445 57.8428L105.624 58.3078Z" fill="#225A4B"/>
<path d="M65.671 47.5198L64.4509 49.0851L67.1258 52.0639L68.1111 50.4939L65.671 47.5198Z" fill="#455A64"/>
<path d="M60.9427 10.7479L65.6157 15.513L72.1947 13.0269L72.4572 14.6613L69.6073 20.4945L72.2362 24.8499L72.0152 26.1528L65.6479 25.0801L61.8819 29.2098L60.9979 28.5422L60.2198 23.2891L54.2807 20.1953L54.0183 18.9936L59.9989 17.3592L60.9427 10.7479Z" fill="#C7A537"/>
<g opacity="0.3">
<path d="M60.9427 10.7474L65.6157 15.5125L72.1947 13.0264L72.4572 14.6608L69.6073 20.494L72.2362 24.8494L72.0152 26.1523L65.6479 25.0796L61.8819 29.2093L60.9979 28.5417L60.2198 23.2886L54.2807 20.1948L54.0183 18.9931L59.9989 17.3587L60.9427 10.7474Z" fill="black"/>
</g>
<path d="M60.9427 9.40808L65.6157 14.1778L72.1947 13.0268L69.1055 18.9475L72.2362 24.8498L65.6479 23.7448L60.9979 28.5421L60.0173 21.9355L54.0183 18.9935L59.9989 16.0194L60.9427 9.40808Z" fill="#C7A537"/>
<path d="M109.399 10.7479L104.722 15.513L98.1428 13.0269L97.8804 14.6613L100.73 20.4945L98.1014 24.8499L98.3223 26.1528L104.69 25.0801L108.456 29.2098L109.34 28.5422L110.118 23.2891L116.057 20.1953L116.319 18.9936L110.339 17.3592L109.399 10.7479Z" fill="#C7A537"/>
<g opacity="0.3">
<path d="M109.399 10.7474L104.722 15.5125L98.1428 13.0264L97.8804 14.6608L100.73 20.494L98.1014 24.8494L98.3223 26.1523L104.69 25.0796L108.456 29.2093L109.34 28.5417L110.118 23.2886L116.057 20.1948L116.319 18.9931L110.339 17.3587L109.399 10.7474Z" fill="black"/>
</g>
<path d="M109.399 9.40808L104.722 14.1778L98.1428 13.0268L101.232 18.9475L98.1013 24.8498L104.69 23.7448L109.34 28.5421L110.32 21.9355L116.319 18.9935L110.339 16.0194L109.399 9.40808Z" fill="#C7A537"/>
<path d="M85.0168 2.38171L88.9072 9.98285L97.8803 9.4534L97.5764 11.5436L91.8767 17.5794L93.419 23.8914L92.6594 25.3969L85.2977 21.6631L79.133 25.2726L78.3088 24.117L79.3585 17.409L73.2905 11.3732L73.4286 9.81251L81.3475 10.0933L85.0168 2.38171Z" fill="#C7A537"/>
<g opacity="0.3">
<path d="M85.0168 2.3822L88.9072 9.98334L97.8803 9.45388L97.5764 11.5441L91.8767 17.5799L93.419 23.8919L92.6594 25.3974L85.2977 21.6636L79.133 25.2731L78.3088 24.1175L79.3585 17.4095L73.2905 11.3737L73.4286 9.81299L81.3475 10.0938L85.0168 2.3822Z" fill="black"/>
</g>
<path d="M85.5233 0.752319L89.4137 8.34885L97.8803 9.4538L91.8538 15.5034L93.4191 23.8918L85.8088 20.0337L78.3089 24.1174L79.6302 15.683L73.4287 9.81291L81.8586 8.45935L85.5233 0.752319Z" fill="#C7A537"/>
<path d="M101.025 68.9417L107.525 69.6599C109.72 66.5528 112.998 64.3789 116.714 63.5654C120.43 62.752 124.316 63.3578 127.608 65.2639C130.9 67.1699 133.36 70.2383 134.505 73.8661C135.65 77.4939 135.397 81.4186 133.795 84.869C132.193 88.3194 129.358 91.0459 125.848 92.5127C122.339 93.9795 118.407 94.0805 114.826 92.7959C111.246 91.5113 108.275 88.9339 106.498 85.5703C104.721 82.2067 104.266 78.3001 105.223 74.6184L101.025 68.9417Z" fill="#FAFAFA"/>
<path d="M101.025 68.9412C101.278 69.2819 102.595 71.0222 105.283 74.5903H105.187C105.19 74.5827 105.195 74.576 105.201 74.5706C105.207 74.5651 105.215 74.5612 105.223 74.559C105.231 74.5568 105.239 74.5564 105.247 74.5578C105.255 74.5592 105.263 74.5625 105.27 74.5673C105.28 74.5737 105.289 74.5835 105.294 74.595C105.299 74.6066 105.3 74.6194 105.297 74.6317C104.638 77.2146 104.673 79.9257 105.398 82.4907C105.611 83.2603 105.893 84.0092 106.241 84.7282C106.425 85.0965 106.6 85.4741 106.798 85.847L107.484 86.9381C109.675 90.1136 112.988 92.3398 116.756 93.1673C118.842 93.6257 121.002 93.6351 123.091 93.1949C125.294 92.7155 127.365 91.7567 129.155 90.3865C131.03 88.9625 132.537 87.1109 133.552 84.986C134.602 82.8254 135.119 80.4448 135.062 78.0433C134.995 75.7458 134.413 73.4928 133.358 71.4504C132.367 69.5143 130.962 67.8199 129.242 66.4873C126.145 64.0936 122.248 62.9796 118.354 63.375C116.709 63.5725 115.102 64.0164 113.589 64.6918C111.181 65.8045 109.106 67.5283 107.571 69.6917C107.567 69.7005 107.559 69.7075 107.55 69.7117C107.541 69.7159 107.531 69.7169 107.521 69.7147L101.025 68.9412L107.535 69.5996L107.479 69.6272C109.01 67.4345 111.094 65.687 113.52 64.5629C115.041 63.862 116.66 63.3993 118.322 63.1909C122.269 62.7729 126.226 63.8907 129.371 66.3124C131.12 67.6607 132.549 69.3791 133.556 71.3445C134.633 73.4163 135.226 75.7049 135.292 78.0387C135.353 80.478 134.828 82.8965 133.763 85.0919C132.731 87.2496 131.199 89.1295 129.293 90.5752C127.473 91.9643 125.37 92.9357 123.133 93.4205C121.006 93.8678 118.808 93.8537 116.687 93.379C112.879 92.5396 109.533 90.283 107.327 87.067L106.637 85.9621C106.439 85.5845 106.264 85.1978 106.075 84.8249C105.729 84.0964 105.448 83.3383 105.237 82.5597C104.515 79.9673 104.496 77.2294 105.182 74.6271L105.293 74.6686C105.284 74.6819 105.271 74.6917 105.256 74.6959C105.24 74.7002 105.224 74.6986 105.21 74.6916L101.025 68.9412Z" fill="#263238"/>
<path d="M114.362 72.9971C114.368 73.0676 114.368 73.1384 114.362 73.2089C114.362 73.3608 114.362 73.5541 114.362 73.7982C114.362 74.3322 114.362 75.0735 114.39 76.0127C114.39 77.9233 114.422 80.6166 114.445 83.8394L114.339 83.7335H125.172C125.2 83.7059 124.947 83.9591 125.053 83.8486V82.3753C125.053 81.8919 125.053 81.4085 125.053 80.9297V78.1259C125.053 76.3119 125.053 74.5946 125.053 73.0155L125.154 73.1214L117.327 73.0661L115.113 73.0431H114.523H114.312H114.5H115.071L117.258 73.0155L125.145 72.9648H125.251V73.0661C125.251 74.6453 125.251 76.3626 125.251 78.1765V83.844C125.361 83.7381 125.108 83.9959 125.131 83.9683H114.298H114.192V83.844C114.192 80.5936 114.229 77.8819 114.243 75.9574C114.243 75.0366 114.243 74.2908 114.27 73.7659C114.27 73.5311 114.27 73.3424 114.27 73.195C114.292 73.1252 114.323 73.0586 114.362 72.9971Z" fill="#263238"/>
<path d="M124.026 74.7884C124.183 74.9128 122.728 77.0122 120.771 79.4799C120.384 79.9725 120.002 80.4421 119.648 80.8611L119.417 81.1419L119.16 80.9071C117.465 79.3832 116.319 78.2138 116.42 78.0941C116.522 77.9744 117.852 78.9412 119.606 80.3961L119.114 80.4421C119.45 79.9817 119.818 79.5213 120.209 79.0333C122.161 76.5656 123.874 74.6687 124.026 74.7884Z" fill="#C7A537"/>
</svg>
