<svg width="17" height="18" viewBox="0 0 17 18" fill="none" xmlns="http://www.w3.org/2000/svg">
<path fill-rule="evenodd" clip-rule="evenodd" d="M15.4386 7.42148C15.1697 4.66335 13.5391 0.32666 8.49993 0.32666C3.46069 0.32666 1.83009 4.66335 1.56123 7.42148C0.617998 7.77946 -0.0041666 8.68504 2.10093e-05 9.69389V10.9082C2.10093e-05 12.2494 1.08734 13.3367 2.42855 13.3367C3.7698 13.3367 4.85712 12.2494 4.85712 10.9082V9.69389C4.85273 8.7068 4.25345 7.81984 3.33925 7.4475C3.51273 5.85158 4.36274 2.06135 8.49993 2.06135C12.6371 2.06135 13.4784 5.85158 13.6519 7.4475C12.7396 7.82065 12.1433 8.70822 12.1427 9.69389V10.9082C12.1446 11.3651 12.2749 11.8124 12.5187 12.1988C12.7626 12.5853 13.1102 12.8955 13.5218 13.0939C13.1575 13.779 12.2295 14.7071 9.94835 14.9846C9.49239 14.2923 8.61019 14.0193 7.84284 14.3332C7.07553 14.6471 6.63754 15.4601 6.79757 16.2735C6.95759 17.087 7.67087 17.6734 8.49993 17.6734C8.82117 17.6716 9.1356 17.5806 9.40819 17.4107C9.68078 17.2407 9.90081 16.9983 10.0438 16.7107C13.7646 16.2856 14.9529 14.3688 15.3259 13.2413C16.3348 12.9144 17.0134 11.9687 16.9998 10.9082V9.69389C17.004 8.68504 16.3818 7.77946 15.4386 7.42148ZM3.12243 10.9082C3.12243 11.2914 2.81178 11.602 2.42855 11.602C2.04532 11.602 1.73471 11.2914 1.73471 10.9082V9.69389C1.73401 9.60233 1.75144 9.51153 1.78599 9.42673C1.82055 9.34193 1.87155 9.26481 1.93605 9.19981C2.00055 9.13482 2.07727 9.08323 2.16181 9.04803C2.24634 9.01282 2.337 8.9947 2.42857 8.9947C2.52014 8.9947 2.6108 9.01282 2.69533 9.04803C2.77986 9.08323 2.85659 9.13482 2.92109 9.19981C2.98559 9.26481 3.03659 9.34193 3.07115 9.42673C3.1057 9.51153 3.12313 9.60233 3.12243 9.69389V10.9082ZM13.8774 9.69389C13.8774 9.31066 14.188 9.00001 14.5713 9.00001C14.9545 9.00001 15.2652 9.31066 15.2652 9.69389V10.9082C15.2652 11.2914 14.9545 11.602 14.5713 11.602C14.188 11.602 13.8774 11.2914 13.8774 10.9082V9.69389Z" fill="black" fill-opacity="0.8"/>
</svg>
