<svg width="20" height="20" viewBox="0 0 20 20" fill="none" xmlns="http://www.w3.org/2000/svg">
<path fill-rule="evenodd" clip-rule="evenodd" d="M17.4974 16.668C17.9576 16.668 18.3307 17.0411 18.3307 17.5013C18.3307 17.9615 17.9576 18.3346 17.4974 18.3346H2.4974C2.03716 18.3346 1.66406 17.9615 1.66406 17.5013C1.66406 17.0411 2.03716 16.668 2.4974 16.668H17.4974ZM5.24017 11.0787L14.4068 1.91205C14.7072 1.61164 15.1799 1.58854 15.5068 1.84272L15.5853 1.91205L18.0853 4.41205C18.3858 4.71245 18.4089 5.18514 18.1547 5.51205L18.0853 5.59056L8.91868 14.7572C8.78845 14.8875 8.61955 14.9701 8.43896 14.9941L8.32943 15.0013H5.82943C5.40206 15.0013 5.04984 14.6796 5.0017 14.2652L4.99609 14.168V11.668C4.99609 11.4838 5.05706 11.3059 5.16783 11.1613L5.24017 11.0787L14.4068 1.91205L5.24017 11.0787ZM14.9974 3.67969L6.66406 12.013V13.3345H7.98555L16.3189 5.00118L14.9974 3.67969Z" fill="black"/>
</svg>
