<svg width="185" height="315" viewBox="0 0 185 315" fill="none" xmlns="http://www.w3.org/2000/svg">
<path d="M131.874 98.3166C131.072 104.56 130.196 110.835 129.266 117.079L126.475 136.066C126.044 138.373 125.121 140.56 123.771 142.48C122.536 144.202 121.048 145.727 119.355 147.002C116.374 149.176 113.059 150.851 109.541 151.963C106.311 153.022 102.995 153.801 99.631 154.293C97.9739 154.55 96.3275 154.721 94.6705 154.86C93.0134 154.999 91.4098 155.084 89.6458 155.084L89.1006 149.055C91.9764 148.392 95.0233 147.622 97.8777 146.671C100.706 145.793 103.471 144.721 106.152 143.464C108.591 142.375 110.857 140.934 112.877 139.187C113.666 138.471 114.34 137.638 114.876 136.718C115.267 135.99 115.503 135.189 115.571 134.366L115.881 129.865C115.988 128.261 116.137 126.658 116.276 125.075C116.554 121.89 116.872 118.714 117.228 115.55C117.923 109.2 118.746 102.903 119.74 96.5847L131.874 98.3166Z" fill="#E4897B"/>
<path d="M124.952 88.7485C124.952 88.7485 115.437 113.102 124.471 158.463H167.619C167.907 151.834 163.749 119.538 170.142 88.3316C165.372 87.412 160.548 86.8049 155.699 86.5142C149.592 86.1558 143.47 86.1558 137.364 86.5142C133.175 86.9332 129.025 87.6802 124.952 88.7485Z" fill="#577A71"/>
<path opacity="0.2" d="M124.952 88.7485C124.952 88.7485 115.437 113.102 124.471 158.463H167.619C167.907 151.834 163.749 119.538 170.142 88.3316C165.372 87.412 160.548 86.8049 155.699 86.5142C149.592 86.1558 143.47 86.1558 137.364 86.5142C133.175 86.9332 129.025 87.6802 124.952 88.7485Z" fill="black"/>
<path d="M134.531 94.2658C137.247 101.482 130.736 125.675 130.736 125.675L112.818 116.716C112.818 116.716 113.663 104.657 117.768 95.3349C121.873 86.0126 131.602 86.3547 134.531 94.2658Z" fill="#577A71"/>
<path opacity="0.2" d="M134.531 94.2658C137.247 101.482 130.736 125.675 130.736 125.675L112.818 116.716C112.818 116.716 113.663 104.657 117.768 95.3349C121.873 86.0126 131.602 86.3547 134.531 94.2658Z" fill="black"/>
<path d="M176.015 306.421H167.943L161.657 287.744H169.729L176.015 306.421Z" fill="#E4897B"/>
<path d="M109.048 287.744L110.149 297.376H118.221L117.109 287.744H109.048Z" fill="#CE6F64"/>
<path d="M169.729 287.744H161.657L164.907 297.376H172.968L169.729 287.744Z" fill="#CE6F64"/>
<path d="M139.782 158.463C139.782 158.463 123.746 203.364 128.781 226.466C134.276 251.75 161.11 295.507 161.11 295.507H175.885C175.885 295.507 156.117 253.813 152.974 228.765C149.564 201.589 167.621 178.668 167.621 158.463H139.782Z" fill="#577A71"/>
<path opacity="0.7" d="M139.782 158.463C139.782 158.463 123.746 203.364 128.781 226.466C134.276 251.75 161.11 295.507 161.11 295.507H175.885C175.885 295.507 156.117 253.813 152.974 228.765C149.564 201.589 167.621 178.668 167.621 158.463H139.782Z" fill="black"/>
<path d="M119.248 306.421H111.187L109.038 287.744H117.11L119.248 306.421Z" fill="#E4897B"/>
<path d="M124.475 158.463C124.475 158.463 93.0339 202.049 93.9106 226.637C94.8193 252.22 107.124 295.507 107.124 295.507H120.787C120.787 295.507 115.196 253.717 115.794 228.594C116.457 201.204 152.838 179.588 152.838 158.463H124.475Z" fill="#577A71"/>
<path opacity="0.7" d="M124.475 158.463C124.475 158.463 93.0339 202.049 93.9106 226.637C94.8193 252.22 107.124 295.507 107.124 295.507H120.787C120.787 295.507 115.196 253.717 115.794 228.594C116.457 201.204 152.838 179.588 152.838 158.463H124.475Z" fill="black"/>
<path d="M166.886 305.482H176.722C176.882 305.481 177.038 305.536 177.163 305.638C177.288 305.739 177.374 305.881 177.406 306.038L178.999 313.201C179.038 313.376 179.036 313.557 178.995 313.731C178.954 313.906 178.873 314.068 178.76 314.207C178.647 314.346 178.504 314.457 178.342 314.533C178.179 314.609 178.002 314.647 177.823 314.644C174.616 314.591 172.349 314.398 168.362 314.398C165.913 314.398 160.878 314.655 157.478 314.655C154.079 314.655 153.651 311.309 155.041 311.009C161.252 309.641 163.593 307.802 165.582 305.985C165.939 305.661 166.404 305.482 166.886 305.482Z" fill="#263238"/>
<path d="M111.289 305.482H120.099C120.26 305.483 120.417 305.538 120.543 305.639C120.669 305.74 120.757 305.881 120.794 306.038L122.386 313.201C122.425 313.375 122.424 313.555 122.383 313.729C122.342 313.902 122.263 314.064 122.151 314.203C122.039 314.342 121.897 314.453 121.736 314.53C121.575 314.606 121.399 314.645 121.221 314.644C118.014 314.591 113.449 314.398 109.461 314.398C104.79 314.398 100.759 314.655 95.2855 314.655C91.9713 314.655 91.0092 311.309 92.4417 311.009C98.7493 309.62 103.902 309.481 109.354 306.113C109.928 305.727 110.598 305.508 111.289 305.482Z" fill="#263238"/>
<path d="M93.3873 148.317L84.5889 148.905L88.7048 158.345C90.3569 158.298 91.9508 157.724 93.2532 156.707C94.5555 155.689 95.4979 154.281 95.9424 152.689L93.3873 148.317Z" fill="#E4897B"/>
<path d="M79.8281 151.89L84.7138 158.497L88.7014 158.347L84.5855 148.907L79.8281 151.89Z" fill="#E4897B"/>
<path opacity="0.2" d="M161.349 103.246C162.761 96.1255 165.508 97.3549 168.106 100.861C166.991 110.302 166.477 119.804 166.566 129.309C164.749 126.295 158.997 115.176 161.349 103.246Z" fill="black"/>
<path d="M153.885 65.8584C152.731 71.7597 151.576 82.568 155.703 86.5129C155.703 86.5129 154.089 92.489 143.12 92.489C131.071 92.489 137.368 86.5129 137.368 86.5129C143.943 84.9413 143.783 80.0984 142.628 75.4694L153.885 65.8584Z" fill="#E4897B"/>
<path d="M149.297 69.7832L142.626 75.4707C142.91 76.5208 143.099 77.5941 143.193 78.6779C145.705 78.3144 149.158 75.5562 149.425 72.9263C149.573 71.8795 149.53 70.8145 149.297 69.7832Z" fill="#CE6F64"/>
<path d="M139.571 43.2052C135.369 44.1994 130.943 56.4082 135.519 59.7758C140.094 63.1434 147.514 41.3557 139.571 43.2052Z" fill="#263238"/>
<path d="M155.595 58.8902C153.254 66.5447 152.27 71.1418 147.385 74.1886C140.051 78.7749 131.349 72.9164 131.349 64.7166C131.349 57.3293 135.187 46.0613 143.536 44.7891C145.373 44.5068 147.251 44.6979 148.993 45.3444C150.735 45.9908 152.283 47.0713 153.49 48.4834C154.698 49.8955 155.525 51.5924 155.893 53.4136C156.262 55.2347 156.159 57.1198 155.595 58.8902Z" fill="#E4897B"/>
<path d="M153.225 66.3735C148.725 67.0791 145.175 50.3374 156.999 49.0439C171.335 47.4189 160.474 65.2403 153.225 66.3735Z" fill="#263238"/>
<path d="M158.93 53.0199C153.275 53.1268 136.736 49.7379 134.598 40.5652C133.722 36.8021 140.232 31.8844 146.796 32.622C138.126 36.4279 144.936 42.5109 154.13 41.7091C164.639 40.779 166.563 52.8809 158.93 53.0199Z" fill="#263238"/>
<path d="M161.445 49.8237C161.445 49.8237 167.154 49.4068 165.722 54.4955C165.474 53.4133 164.95 52.4139 164.2 51.595C163.451 50.7761 162.501 50.1658 161.445 49.8237Z" fill="#263238"/>
<path d="M159.914 49.6418C159.914 49.6418 164.821 52.6031 165.815 47.3967C165.105 48.2432 164.19 48.8939 163.157 49.2868C162.124 49.6798 161.008 49.802 159.914 49.6418Z" fill="#263238"/>
<path d="M157.048 68.2963C155.601 69.6924 153.661 70.4608 151.65 70.4344C148.988 70.381 148.442 67.8152 149.8 65.6985C151.04 63.7955 153.927 61.5184 156.289 62.5981C158.652 63.6779 158.791 66.5537 157.048 68.2963Z" fill="#E4897B"/>
<path d="M158.49 295.828H177.808V290.632L156.213 290.301L158.49 295.828Z" fill="#577A71"/>
<path d="M104.079 295.828H123.386V290.568L101.802 290.301L104.079 295.828Z" fill="#577A71"/>
<path d="M143.292 58.237C143.142 58.8677 142.683 59.3061 142.223 59.1991C141.763 59.0922 141.603 58.5042 141.753 57.8735C141.902 57.2427 142.362 56.8044 142.822 56.9113C143.281 57.0182 143.442 57.6062 143.292 58.237Z" fill="#263238"/>
<path d="M136.137 56.5171C135.987 57.1586 135.527 57.5862 135.068 57.49C134.608 57.3938 134.448 56.7951 134.597 56.1643C134.747 55.5336 135.207 55.0953 135.666 55.1915C136.126 55.2877 136.286 55.8864 136.137 56.5171Z" fill="#263238"/>
<path d="M138.342 57.3931C137.121 59.1451 135.664 60.7207 134.013 62.0756C134.371 62.4884 134.814 62.818 135.313 63.0414C135.812 63.2648 136.353 63.3767 136.899 63.3692L138.342 57.3931Z" fill="#DE5753"/>
<path d="M141.641 63.3265C140.991 63.0165 139.991 63.3065 139.421 63.9465C138.841 64.5765 139.281 65.7165 139.931 66.0265C140.581 66.3365 141.621 65.9365 142.061 65.2265C142.501 64.5165 142.291 63.6365 141.641 63.3265Z" fill="#DE5753"/>
<path d="M141.021 65.9073C141.011 65.8273 141.341 65.7573 141.681 65.4174C142.031 65.1074 142.261 64.4174 141.831 63.8574C141.441 63.3174 140.671 63.4574 140.231 63.6474C139.761 63.8374 139.461 64.0074 139.421 63.9374C139.391 63.8874 139.591 63.6274 140.071 63.3174C140.311 63.1674 140.641 63.0174 141.041 62.9974C141.441 62.9574 141.961 63.1374 142.251 63.5474C142.551 63.9374 142.631 64.4274 142.521 64.8374C142.411 65.2474 142.151 65.5374 141.911 65.6973C141.411 66.0373 141.011 65.9673 141.021 65.9073Z" fill="#263238"/>
<path d="M146.079 56.4626C146.006 56.459 145.935 56.435 145.874 56.3935C145.814 56.352 145.766 56.2945 145.737 56.2274C145.551 55.7768 145.26 55.3774 144.888 55.0629C144.516 54.7485 144.074 54.5282 143.599 54.4207C143.549 54.413 143.502 54.3954 143.459 54.369C143.417 54.3426 143.38 54.3079 143.351 54.2671C143.322 54.2262 143.302 54.1799 143.291 54.131C143.28 54.0821 143.279 54.0316 143.289 53.9824C143.304 53.8818 143.359 53.7916 143.442 53.7315C143.524 53.6714 143.626 53.6463 143.727 53.6616C144.317 53.7972 144.867 54.0729 145.328 54.4656C145.79 54.8582 146.15 55.3562 146.378 55.9174C146.4 55.9637 146.412 56.0137 146.414 56.0647C146.415 56.1156 146.407 56.1665 146.389 56.2142C146.371 56.262 146.344 56.3057 146.309 56.3428C146.274 56.3799 146.232 56.4098 146.186 56.4305C146.152 56.4459 146.116 56.4566 146.079 56.4626Z" fill="#263238"/>
<path d="M133.744 53.319C133.654 53.3218 133.566 53.2913 133.498 53.2334C133.421 53.1689 133.372 53.0769 133.362 52.977C133.352 52.8772 133.382 52.7774 133.444 52.6989C133.821 52.2148 134.31 51.8294 134.868 51.5762C135.427 51.3229 136.039 51.2092 136.651 51.245C136.752 51.2583 136.843 51.3107 136.905 51.3907C136.967 51.4708 136.995 51.572 136.983 51.6726C136.978 51.7218 136.962 51.7696 136.939 51.813C136.915 51.8564 136.882 51.8946 136.844 51.9254C136.805 51.9563 136.76 51.9791 136.713 51.9926C136.665 52.0061 136.615 52.0099 136.566 52.004C136.086 51.9881 135.608 52.0863 135.173 52.2908C134.739 52.4952 134.358 52.8 134.064 53.18C134.027 53.2282 133.978 53.2662 133.922 53.2905C133.866 53.3148 133.804 53.3246 133.744 53.319Z" fill="#263238"/>
<path d="M164.203 306.893C163.641 306.942 163.079 306.799 162.61 306.486C162.465 306.363 162.354 306.205 162.285 306.028C162.216 305.851 162.192 305.659 162.214 305.471C162.214 305.361 162.243 305.253 162.3 305.158C162.356 305.064 162.438 304.987 162.535 304.936C163.422 304.476 166.031 306.069 166.33 306.262C166.362 306.282 166.387 306.311 166.402 306.345C166.417 306.379 166.422 306.417 166.416 306.454C166.408 306.491 166.39 306.525 166.363 306.552C166.337 306.578 166.303 306.596 166.266 306.604C165.592 306.778 164.899 306.875 164.203 306.893ZM163.005 305.225C162.92 305.218 162.835 305.237 162.76 305.278C162.719 305.297 162.686 305.328 162.663 305.366C162.64 305.404 162.629 305.448 162.631 305.492C162.613 305.621 162.629 305.753 162.675 305.874C162.722 305.996 162.799 306.103 162.899 306.187C163.795 306.604 164.818 306.657 165.753 306.337C164.917 305.792 163.984 305.415 163.005 305.225Z" fill="#577A71"/>
<path d="M166.265 306.613C166.237 306.624 166.207 306.624 166.179 306.613C165.335 306.164 163.731 304.4 163.902 303.502C163.925 303.361 163.998 303.232 164.108 303.14C164.218 303.048 164.358 302.998 164.501 303C164.648 302.982 164.797 302.994 164.938 303.036C165.08 303.079 165.211 303.15 165.324 303.246C166.254 304.005 166.393 306.335 166.457 306.453C166.458 306.488 166.451 306.522 166.436 306.554C166.421 306.585 166.399 306.613 166.372 306.635C166.335 306.639 166.298 306.631 166.265 306.613ZM164.64 303.342H164.554C164.298 303.342 164.287 303.492 164.276 303.534C164.17 304.069 165.196 305.405 166.03 306.036C165.971 305.116 165.64 304.234 165.078 303.502C164.955 303.4 164.8 303.343 164.64 303.342Z" fill="#577A71"/>
<path d="M107.891 306.893C107.199 306.956 106.506 306.783 105.924 306.401C105.794 306.287 105.694 306.142 105.633 305.98C105.572 305.818 105.55 305.643 105.571 305.471C105.577 305.367 105.609 305.266 105.663 305.176C105.717 305.087 105.792 305.012 105.881 304.958C106.865 304.413 110.104 306.027 110.478 306.252C110.512 306.271 110.539 306.299 110.556 306.333C110.573 306.368 110.58 306.406 110.575 306.444C110.571 306.484 110.554 306.521 110.527 306.55C110.5 306.578 110.464 306.598 110.425 306.605C109.591 306.781 108.743 306.878 107.891 306.893ZM106.427 305.226C106.304 305.217 106.182 305.243 106.074 305.3C106.036 305.32 106.004 305.349 105.982 305.384C105.959 305.42 105.947 305.461 105.946 305.503C105.934 305.616 105.95 305.73 105.991 305.836C106.032 305.942 106.097 306.037 106.181 306.113C106.683 306.551 108.009 306.626 109.783 306.337C108.736 305.778 107.601 305.402 106.427 305.226Z" fill="#577A71"/>
<path d="M110.386 306.616H110.311C109.338 306.177 107.414 304.478 107.553 303.526C107.553 303.312 107.745 303.045 108.269 302.992C108.46 302.967 108.654 302.983 108.838 303.038C109.022 303.093 109.193 303.187 109.338 303.312C110.407 304.157 110.579 306.327 110.589 306.423C110.595 306.456 110.59 306.49 110.577 306.52C110.564 306.55 110.542 306.576 110.514 306.594C110.475 306.614 110.43 306.621 110.386 306.616ZM108.419 303.344H108.312C107.959 303.344 107.938 303.515 107.938 303.558C107.842 304.114 109.157 305.482 110.151 306.081C110.058 305.161 109.685 304.291 109.082 303.59C108.899 303.429 108.663 303.341 108.419 303.344Z" fill="#577A71"/>
<path d="M109.894 97.4315C111.741 96.1374 113.825 95.2213 116.027 94.7357C118.229 94.2502 120.505 94.2048 122.725 94.6022C124.945 94.9997 127.064 95.832 128.96 97.0515C130.857 98.2709 132.494 99.8533 133.777 101.708C137.511 99.1063 142.126 98.0948 146.606 98.8958C151.086 99.6967 155.064 102.245 157.665 105.979C160.267 109.713 161.278 114.327 160.477 118.807C159.676 123.287 157.129 127.266 153.394 129.867L125.192 149.485L105.586 121.315C104.293 119.466 103.379 117.38 102.896 115.177C102.413 112.973 102.37 110.696 102.771 108.477C103.171 106.257 104.007 104.138 105.229 102.243C106.452 100.347 108.037 98.7119 109.894 97.4315Z" fill="#577A71"/>
<path opacity="0.3" d="M109.894 97.4315C111.741 96.1374 113.825 95.2213 116.027 94.7357C118.229 94.2502 120.505 94.2048 122.725 94.6022C124.945 94.9997 127.064 95.832 128.96 97.0515C130.857 98.2709 132.494 99.8533 133.777 101.708C137.511 99.1063 142.126 98.0948 146.606 98.8958C151.086 99.6967 155.064 102.245 157.665 105.979C160.267 109.713 161.278 114.327 160.477 118.807C159.676 123.287 157.129 127.266 153.394 129.867L125.192 149.485L105.586 121.315C104.293 119.466 103.379 117.38 102.896 115.177C102.413 112.973 102.37 110.696 102.771 108.477C103.171 106.257 104.007 104.138 105.229 102.243C106.452 100.347 108.037 98.7119 109.894 97.4315Z" fill="white"/>
<path d="M72.5069 126.434C73.3052 122.805 75.5108 119.641 78.6396 117.637C81.7685 115.632 85.5647 114.951 89.1951 115.743C90.0584 112.186 92.2795 109.107 95.3834 107.166C98.4872 105.224 102.228 104.574 105.804 105.355C109.381 106.136 112.51 108.285 114.523 111.343C116.536 114.401 117.272 118.126 116.574 121.719L110.598 149.098L83.219 143.122C81.4195 142.731 79.7147 141.988 78.2023 140.937C76.6898 139.887 75.3992 138.548 74.4044 136.998C73.4095 135.448 72.7299 133.718 72.4044 131.905C72.0788 130.092 72.1136 128.233 72.5069 126.434Z" fill="#577A71"/>
<path opacity="0.5" d="M72.5069 126.434C73.3052 122.805 75.5108 119.641 78.6396 117.637C81.7685 115.632 85.5647 114.951 89.1951 115.743C90.0584 112.186 92.2795 109.107 95.3834 107.166C98.4872 105.224 102.228 104.574 105.804 105.355C109.381 106.136 112.51 108.285 114.523 111.343C116.536 114.401 117.272 118.126 116.574 121.719L110.598 149.098L83.219 143.122C81.4195 142.731 79.7147 141.988 78.2023 140.937C76.6898 139.887 75.3992 138.548 74.4044 136.998C73.4095 135.448 72.7299 133.718 72.4044 131.905C72.0788 130.092 72.1136 128.233 72.5069 126.434Z" fill="white"/>
<path d="M89.3864 136.365C92.8656 131.172 98.2647 127.572 104.397 126.357C110.529 125.142 116.893 126.412 122.089 129.887C123.785 127.252 125.989 124.982 128.572 123.209C131.156 121.435 134.066 120.194 137.134 119.559C140.203 118.923 143.367 118.905 146.442 119.506C149.517 120.106 152.442 121.314 155.045 123.058C157.648 124.802 159.878 127.047 161.604 129.662C163.329 132.277 164.517 135.21 165.096 138.289C165.676 141.368 165.636 144.532 164.979 147.596C164.323 150.66 163.062 153.562 161.271 156.133L135.036 195.303L95.8542 169.058C93.2782 167.34 91.0667 165.13 89.3467 162.556C87.6267 159.981 86.4319 157.092 85.831 154.055C85.2301 151.017 85.2348 147.891 85.8449 144.856C86.455 141.82 87.6585 138.935 89.3864 136.365Z" fill="#577A71"/>
<path opacity="0.7" d="M89.3864 136.365C92.8656 131.172 98.2647 127.572 104.397 126.357C110.529 125.142 116.893 126.412 122.089 129.887C123.785 127.252 125.989 124.982 128.572 123.209C131.156 121.435 134.066 120.194 137.134 119.559C140.203 118.923 143.367 118.905 146.442 119.506C149.517 120.106 152.442 121.314 155.045 123.058C157.648 124.802 159.878 127.047 161.604 129.662C163.329 132.277 164.517 135.21 165.096 138.289C165.676 141.368 165.636 144.532 164.979 147.596C164.323 150.66 163.062 153.562 161.271 156.133L135.036 195.303L95.8542 169.058C93.2782 167.34 91.0667 165.13 89.3467 162.556C87.6267 159.981 86.4319 157.092 85.831 154.055C85.2301 151.017 85.2348 147.891 85.8449 144.856C86.455 141.82 87.6585 138.935 89.3864 136.365Z" fill="white"/>
<path d="M173.211 94.6079C173.917 96.1046 174.494 97.4303 175.05 98.8842C175.606 100.338 176.119 101.685 176.675 103.16C177.744 105.994 178.631 108.869 179.433 111.809C180.264 114.763 180.946 117.756 181.475 120.779L181.86 123.077L182.138 125.419C182.245 126.199 182.287 127.001 182.341 127.792L182.426 128.989V129.289V129.78C182.426 130.165 182.426 130.497 182.426 130.849C182.216 132.952 181.607 134.995 180.63 136.868C179.877 138.376 179.019 139.83 178.065 141.219C176.301 143.762 174.368 146.183 172.281 148.468C168.256 152.889 163.896 156.992 159.238 160.741L154.962 156.464C158.458 152.006 161.932 147.399 165.086 142.823C166.63 140.597 168.057 138.291 169.362 135.917C169.951 134.849 170.465 133.741 170.902 132.603C171.218 131.876 171.4 131.097 171.436 130.304C171.436 130.251 171.436 130.304 171.436 130.304C171.436 130.358 171.436 130.368 171.436 130.304V130.058L171.287 129.096C171.19 128.444 171.105 127.813 170.955 127.15L170.57 125.205L170.111 123.238C169.469 120.618 168.721 117.989 167.876 115.369C167.032 112.75 166.112 110.131 165.139 107.522C164.669 106.218 164.167 104.924 163.653 103.631L162.125 99.8677L173.211 94.6079Z" fill="#E4897B"/>
<path d="M171.824 88.8677C179.019 91.6366 184.183 117.957 184.183 117.957L167.077 124.703C167.077 124.703 161.337 111.479 159.412 101.697C157.349 91.4014 163.678 85.7246 171.824 88.8677Z" fill="#577A71"/>
<path opacity="0.2" d="M171.824 88.8677C179.019 91.6366 184.183 117.957 184.183 117.957L167.077 124.703C167.077 124.703 161.337 111.479 159.412 101.697C157.349 91.4014 163.678 85.7246 171.824 88.8677Z" fill="black"/>
<path d="M156.837 155.266L148.926 157.404L155.479 165.347C155.479 165.347 161.819 162.065 160.45 158.505L156.837 155.266Z" fill="#E4897B"/>
<path d="M143.19 163.98L148.921 170.202L155.474 165.317L148.921 157.374L143.19 163.98Z" fill="#E4897B"/>
<path d="M26.4679 64.6993C26.2626 65.0017 22.4828 69.1215 19.7512 69.9012C17.0197 70.681 13.1352 72.2392 10.8915 75.3371C8.64876 78.4297 7.17471 80.9927 5.78541 80.5703C4.39518 80.1531 3.54115 92.0829 6.23144 92.6101C8.92173 93.1374 14.4103 92.245 17.6086 90.7573C20.807 89.2696 23.2136 88.1404 25.3198 86.3754C27.426 84.6103 26.8241 83.0152 26.8241 83.0152C26.8241 83.0152 29.0739 81.7392 29.1236 80.0566C29.1732 78.374 29.176 78.3583 29.176 78.3583L29.1732 78.374C30.4209 77.6073 31.6315 76.209 29.5987 74.4532C29.5987 74.4532 33.2163 73.2403 32.7023 71.4562C32.1936 69.6731 29.8029 69.8462 29.8029 69.8462L27.9571 67.9787C27.9571 67.9787 28.8616 67.2634 28.3894 65.4868C27.9172 63.7103 26.4669 64.7045 26.4669 64.7045L26.4679 64.6993Z" fill="#E4897B"/>
<path d="M4.05844 79.4847L6.76809 78.3777L10.57 95.2989L7.40257 96.345L4.05844 79.4847Z" fill="#E0E0E0"/>
<path d="M11.4424 86.7382C11.4424 86.7382 11.6132 86.7474 11.9147 86.6885C12.2153 86.6349 12.6475 86.5079 13.1474 86.2747C14.1548 85.8257 15.3946 84.8636 16.3634 83.4918C17.3331 82.1148 17.8944 80.702 18.2762 79.6879C18.6486 78.6667 18.8399 78.0224 18.8043 78.0106C18.7635 77.9979 18.5114 78.6205 18.0949 79.6176C17.669 80.6076 17.0801 81.9939 16.1388 83.3329C15.1975 84.6719 14.0188 85.6234 13.0598 86.1027C12.1042 86.5933 11.43 86.6875 11.4424 86.7382Z" fill="#CE6F64"/>
<path d="M1.49868 98.1011C2.76318 99.2768 4.73773 99.2012 5.91251 97.9419L40.0711 61.1911C41.2468 59.9266 41.1712 57.952 39.9119 56.7773C38.6474 55.6016 36.6728 55.6772 35.4981 56.9365L1.33949 93.6873C0.163779 94.9518 0.239397 96.9263 1.49868 98.1011Z" fill="#455A64"/>
<path opacity="0.3" d="M30.3499 62.4761L35.143 66.4956L33.6209 68.1287L28.8879 64.0446L30.3499 62.4761Z" fill="black"/>
<path d="M50.288 35.6001C38.6203 50.0228 31.9059 63.8339 35.2488 66.5419C38.5917 69.2499 50.7293 59.8195 62.3969 45.3967C74.0645 30.974 80.813 17.0936 77.4701 14.3856C74.1262 11.6828 61.9608 21.1783 50.288 35.6001Z" fill="#E0E0E0"/>
<path d="M45.2408 31.6531C56.9085 17.2304 69.0791 7.7359 72.4229 10.4387L79.1176 15.7162C75.7737 13.0134 63.6083 22.5089 51.9355 36.9307C40.2679 51.3534 33.5194 65.2338 36.8623 67.9418L31.0257 63.045L29.6028 61.8515L29.5795 61.8312L29.5928 61.8174C27.9338 57.7747 34.4855 44.9579 45.2442 31.6645L45.2408 31.6531Z" fill="#455A64"/>
<path d="M60.4266 43.1725C69.5377 31.9099 75.621 21.0074 76.273 15.4682C77.5012 15.1397 78.4768 15.1968 79.1212 15.7168C82.4651 18.4196 75.7157 32.3052 64.048 46.7279C52.3804 61.1507 40.2098 70.6452 36.8659 67.9424C36.1327 67.3471 35.8708 66.2279 36.0539 64.6717C41.2167 63.2843 51.0028 54.826 60.4309 43.1787L60.4266 43.1725Z" fill="#263238"/>
<path d="M51.6812 51.3602C51.7542 51.3734 52.2955 48.0661 52.8791 43.9853C53.4636 39.8992 53.8778 36.5798 53.8048 36.5667C53.7317 36.5535 53.1913 39.8556 52.6068 43.9416C52.0223 48.0277 51.6081 51.3471 51.6821 51.355L51.6812 51.3602Z" fill="#455A64"/>
<path d="M57.2792 44.3573C57.3157 44.3639 57.4291 43.824 57.5816 42.9464C57.7342 42.0688 57.9198 40.8578 58.1132 39.5135C58.3067 38.1692 58.4662 36.9534 58.5656 36.0717C58.6651 35.1899 58.7105 34.6378 58.6731 34.6365C58.6366 34.6299 58.5232 35.1698 58.3707 36.0474C58.2181 36.9249 58.0325 38.136 57.8391 39.4803C57.6456 40.8246 57.4861 42.0403 57.3866 42.9221C57.2872 43.8039 57.2417 44.3559 57.2792 44.3573Z" fill="#455A64"/>
<path d="M54.7047 45.1868C54.7787 45.1947 55.0153 43.6104 55.2229 41.6491C55.4356 39.6887 55.5451 38.0923 55.4659 38.0834C55.3919 38.0755 55.1553 39.6598 54.9478 41.6211C54.735 43.5815 54.6255 45.1779 54.6995 45.1859L54.7047 45.1868Z" fill="#455A64"/>
<path d="M31.7061 70.1948C31.6461 70.3187 23.7598 70.6449 22.7016 71.8551C21.6098 73.1024 22.6359 73.8366 23.5605 74.2669C24.4955 74.6992 24.7814 74.6967 24.7814 74.6967C24.7814 74.6967 19.8602 74.5922 19.4203 76.3178C18.9805 78.0433 20.9651 78.5406 20.9651 78.5406C20.9651 78.5406 19.1178 78.9569 18.799 80.4888C18.4812 82.0154 19.9297 82.4377 19.9297 82.4377C19.9297 82.4377 18.0205 82.719 19.2646 84.3975C20.5086 86.0759 24.3397 85.9519 24.3397 85.9519" fill="#E4897B"/>
<path d="M24.3428 85.9424C24.3428 85.9424 24.1407 85.9276 23.7627 85.9027C23.3847 85.8778 22.8265 85.8366 22.1343 85.7012C21.4536 85.5626 20.5783 85.3673 19.8004 84.7802C19.4267 84.4921 19.0906 84.0545 18.9655 83.5525C18.9138 83.3008 18.9964 83.0517 19.1895 82.8763C19.3879 82.7019 19.6656 82.5957 19.9444 82.5435C20.0055 82.5329 20.0491 82.4707 20.0385 82.4096C20.0304 82.365 20.0038 82.3333 19.963 82.3206C19.6037 82.1913 19.2391 81.9425 19.0502 81.5853C18.8499 81.2314 18.8401 80.7771 18.964 80.3576C19.1991 79.5003 20.0768 78.904 20.9935 78.6596C21.067 78.6405 21.1072 78.5669 21.0881 78.4934C21.0747 78.4479 21.0386 78.4091 20.9978 78.3964C20.3734 78.214 19.7068 77.7869 19.5368 77.1153C19.4641 76.8005 19.4937 76.3964 19.6464 76.1168C19.8124 75.8235 20.1297 75.6166 20.4647 75.4614C21.1494 75.159 21.9008 75.0249 22.6281 74.9349C23.3607 74.8459 24.0838 74.809 24.7776 74.8154L24.7776 74.546C24.3696 74.478 23.886 74.2616 23.4736 74.0689C23.063 73.8657 22.6618 73.6103 22.4572 73.2503C22.2413 72.8936 22.3785 72.4604 22.6217 72.127C22.7504 71.9509 22.8672 71.8103 23.0454 71.7184C23.2193 71.6204 23.406 71.5409 23.6012 71.4737C24.3709 71.2082 25.1389 71.0716 25.851 70.9466C26.5621 70.8268 27.2301 70.7369 27.836 70.6628C30.2579 70.3767 31.715 70.2726 31.6987 70.1835C31.6987 70.1835 31.3374 70.2154 30.6726 70.2574C30.0069 70.3046 29.0315 70.3661 27.8182 70.4925C27.2089 70.5553 26.5428 70.6347 25.8231 70.7422C25.1025 70.855 24.3302 70.9854 23.5273 71.2557C23.3268 71.322 23.1288 71.4048 22.9312 71.5147C22.7294 71.6185 22.5595 71.8142 22.4308 71.9903C22.3045 72.1831 22.1764 72.3863 22.1322 72.6315C22.0829 72.8759 22.1204 73.1466 22.2412 73.373C22.4943 73.8226 22.933 74.0793 23.3616 74.3019C23.579 74.4111 23.7992 74.5046 24.0298 74.6C24.2676 74.6859 24.4764 74.7827 24.7828 74.8163C24.8559 74.8294 24.9255 74.7719 24.9334 74.6979C24.9466 74.6249 24.8881 74.5605 24.8151 74.5473L24.789 74.5427C24.0786 74.5387 23.345 74.5737 22.602 74.6609C21.8581 74.7533 21.0911 74.8846 20.359 75.2107C20.0003 75.3778 19.6313 75.6023 19.4129 75.9778C19.2927 76.1663 19.2708 76.3779 19.2413 76.5719C19.2339 76.6729 19.2369 76.7758 19.2347 76.8778C19.2439 76.9764 19.2626 77.0821 19.277 77.1817C19.3773 77.5822 19.6354 77.9142 19.9375 78.1517C20.2447 78.3901 20.5765 78.5522 20.9404 78.6554L20.9437 78.3974C20.4347 78.5321 19.9741 78.7563 19.5725 79.0719C19.1771 79.3832 18.8587 79.8054 18.7287 80.2883C18.591 80.7538 18.5991 81.2778 18.8455 81.7047C19.0867 82.1306 19.4808 82.3954 19.9069 82.5421L19.9203 82.3183C19.596 82.3838 19.2956 82.4968 19.0513 82.7168C18.8017 82.9358 18.6933 83.2988 18.7688 83.5979C18.9225 84.1805 19.2847 84.6227 19.6973 84.934C20.5368 85.5377 21.4221 85.7077 22.1213 85.8336C22.8276 85.9499 23.3896 85.9702 23.7714 85.9743C24.1531 85.9784 24.3566 85.9557 24.3532 85.9443L24.3428 85.9424Z" fill="#CE6F64"/>
<path d="M20.8351 78.4913C20.839 78.5297 21.308 78.5279 22.0587 78.5176C22.9175 78.5051 23.9105 78.4953 25.0064 78.4824C26.1554 78.4737 27.2025 78.4628 27.9551 78.442C28.7076 78.4212 29.177 78.3872 29.1784 78.3497C29.1798 78.3123 28.7121 78.2766 27.9585 78.2433C27.204 78.2153 26.1573 78.1939 25.0083 78.2026C23.854 78.2104 22.8108 78.2597 22.0569 78.3179C21.303 78.3762 20.8374 78.4486 20.8413 78.487L20.8351 78.4913Z" fill="#CE6F64"/>
<path d="M29.5269 74.3996C29.5296 74.3247 28.4586 74.2289 27.1328 74.292C25.807 74.3551 24.7531 74.5533 24.7618 74.6249C24.7695 74.7017 25.8331 74.6291 27.1485 74.5642C28.4587 74.4983 29.5242 74.4745 29.5279 74.3944L29.5269 74.3996Z" fill="#CE6F64"/>
<path d="M26.5052 82.9006C26.5118 82.8641 26.1574 82.768 25.5739 82.6576C24.9904 82.5472 24.1788 82.4173 23.2724 82.335C21.4562 82.159 19.9794 82.3727 19.9923 82.4504C20.0001 82.5272 21.4596 82.4397 23.2496 82.611C25.0406 82.7771 26.4954 82.9851 26.5052 82.9006Z" fill="#CE6F64"/>
</svg>
