<svg width="29" height="28" viewBox="0 0 29 28" fill="none" xmlns="http://www.w3.org/2000/svg">
<path d="M27.9211 13.7868H9.94216M3.59606 13.7868H1M3.59606 13.7868C3.59606 12.9454 3.93029 12.1385 4.52521 11.5436C5.12014 10.9487 5.92703 10.6145 6.76838 10.6145C7.60973 10.6145 8.41663 10.9487 9.01155 11.5436C9.60648 12.1385 9.9407 12.9454 9.9407 13.7868C9.9407 14.6281 9.60648 15.435 9.01155 16.0299C8.41663 16.6249 7.60973 16.9591 6.76838 16.9591C5.92703 16.9591 5.12014 16.6249 4.52521 16.0299C3.93029 15.435 3.59606 14.6281 3.59606 13.7868ZM27.9211 23.4012H19.5566M19.5566 23.4012C19.5566 24.2428 19.2216 25.0506 18.6265 25.6456C18.0315 26.2407 17.2244 26.575 16.3828 26.575C15.5415 26.575 14.7346 26.2393 14.1397 25.6444C13.5447 25.0495 13.2105 24.2426 13.2105 23.4012M19.5566 23.4012C19.5566 22.5597 19.2216 21.7533 18.6265 21.1583C18.0315 20.5632 17.2244 20.2289 16.3828 20.2289C15.5415 20.2289 14.7346 20.5631 14.1397 21.1581C13.5447 21.753 13.2105 22.5599 13.2105 23.4012M13.2105 23.4012H1M27.9211 4.17232H23.4027M17.0566 4.17232H1M17.0566 4.17232C17.0566 3.33097 17.3908 2.52408 17.9857 1.92915C18.5807 1.33423 19.3876 1 20.2289 1C20.6455 1 21.058 1.08205 21.4429 1.24148C21.8278 1.4009 22.1775 1.63457 22.4721 1.92915C22.7667 2.22373 23.0003 2.57344 23.1598 2.95832C23.3192 3.34321 23.4012 3.75572 23.4012 4.17232C23.4012 4.58891 23.3192 5.00143 23.1598 5.38631C23.0003 5.7712 22.7667 6.12091 22.4721 6.41549C22.1775 6.71006 21.8278 6.94374 21.4429 7.10316C21.058 7.26258 20.6455 7.34464 20.2289 7.34464C19.3876 7.34464 18.5807 7.01041 17.9857 6.41549C17.3908 5.82056 17.0566 5.01367 17.0566 4.17232Z" stroke="black" stroke-width="1.5" stroke-miterlimit="10" stroke-linecap="round"/>
</svg>
