<svg width="185" height="206" viewBox="0 0 185 206" fill="none" xmlns="http://www.w3.org/2000/svg">
<path d="M87.1934 173.328H4.52355L0 40.3749H82.6698L87.1934 173.328Z" fill="#225A4B"/>
<path d="M91.3212 169.2H8.65133L4.12195 36.2472H86.7918L91.3212 169.2Z" fill="#225A4B"/>
<path opacity="0.3" d="M91.3212 169.2H8.65133L4.12195 36.2472H86.7918L91.3212 169.2Z" fill="white"/>
<path d="M63.6222 90.9572C72.4738 81.9528 72.0972 67.2293 62.7811 58.0711C53.465 48.913 38.7371 48.7883 29.8855 57.7926C21.0339 66.7969 21.4105 81.5205 30.7266 90.6786C40.0428 99.8367 54.7706 99.9615 63.6222 90.9572Z" fill="#225A4B"/>
<path d="M65.9496 74.3804C66.0687 77.5484 65.3774 80.6944 63.9411 83.5207C62.3909 86.5664 60.0228 89.12 57.1023 90.8949C54.1818 92.6698 50.8245 93.5958 47.4071 93.5691C43.9094 93.5503 40.4781 92.6119 37.4576 90.8482C34.437 89.0845 31.9334 86.5575 30.1978 83.5207C28.5796 80.7379 27.6755 77.5977 27.5664 74.3804C27.459 71.8858 27.8599 69.3954 28.7447 67.0605C29.6296 64.7257 30.9799 62.5951 32.7136 60.7982C34.4473 59.0013 36.5283 57.5756 38.83 56.6078C41.1317 55.6401 43.6062 55.1503 46.103 55.1684C51.2468 55.2048 56.1788 57.2213 59.8747 60.799C63.5705 64.3767 65.7461 69.2406 65.9496 74.3804Z" fill="white"/>
<path opacity="0.6" d="M63.9294 83.5208C62.3792 86.5665 60.0111 89.1201 57.0906 90.895C54.1701 92.6699 50.8129 93.5959 47.3955 93.5692C43.8977 93.5504 40.4665 92.612 37.4459 90.8483C34.4254 89.0846 31.9217 86.5576 30.1862 83.5208C35.1098 80.164 40.9358 78.3796 46.8948 78.4034C52.9498 78.4165 58.8696 80.1949 63.9294 83.5208Z" fill="#225A4B"/>
<path opacity="0.6" d="M52.7351 73.9025C55.9899 70.5915 55.8514 65.1775 52.4258 61.81C49.0002 58.4425 43.5846 58.3966 40.3298 61.7076C37.075 65.0186 37.2134 70.4326 40.639 73.8001C44.0647 77.1676 49.4802 77.2135 52.7351 73.9025Z" fill="#225A4B"/>
<path d="M74.7112 121.053H21.9772L21.6221 110.574H74.3561L74.7112 121.053Z" fill="white"/>
<path d="M75.3518 139.782H22.612L22.2568 129.303H74.9967L75.3518 139.782Z" fill="white"/>
<path d="M54.9986 130.746L42.2896 132.493C42.1683 132.507 42.0512 132.546 41.9457 132.607C41.8401 132.668 41.7484 132.75 41.6762 132.849C41.604 132.947 41.553 133.06 41.5263 133.179C41.4996 133.298 41.4978 133.421 41.5211 133.541L43.192 142.058C43.2467 142.308 43.3929 142.529 43.6019 142.676C43.8109 142.824 44.0676 142.888 44.3214 142.856L57.0304 141.109C57.1514 141.094 57.268 141.054 57.3729 140.992C57.4778 140.93 57.5688 140.847 57.6403 140.748C57.7118 140.649 57.7623 140.537 57.7886 140.418C57.8148 140.298 57.8164 140.175 57.7931 140.056L56.1281 131.538C56.0734 131.289 55.9269 131.069 55.7177 130.922C55.5085 130.775 55.2519 130.713 54.9986 130.746ZM51.3483 139.374L49.0196 139.683L48.7926 136.935C48.5526 136.831 48.3411 136.671 48.176 136.469C48.0108 136.266 47.8968 136.027 47.8436 135.771C47.8008 135.572 47.8001 135.367 47.8416 135.169C47.883 134.97 47.9657 134.783 48.0842 134.618C48.2027 134.453 48.3545 134.315 48.5297 134.213C48.7048 134.111 48.8995 134.046 49.1011 134.024C49.5146 133.971 49.9331 134.075 50.2737 134.315C50.6143 134.556 50.8524 134.915 50.9408 135.322C50.9913 135.568 50.9758 135.823 50.8961 136.062C50.8164 136.3 50.6751 136.513 50.4867 136.679L51.3483 139.374Z" fill="#B98F05"/>
<path d="M53.741 130.287C53.5163 130.315 53.2891 130.259 53.1038 130.129C52.9186 129.998 52.7887 129.804 52.7397 129.582L52.5767 128.75C52.344 127.614 51.7072 126.601 50.7844 125.898C49.8615 125.196 48.7153 124.852 47.5583 124.931C46.9744 124.964 46.4045 125.123 45.8874 125.396C45.3702 125.669 44.9179 126.05 44.5611 126.513C44.2044 126.977 43.9515 127.511 43.8197 128.081C43.6879 128.651 43.6803 129.242 43.7974 129.815L43.9837 130.776C44.0054 130.882 44.0046 130.992 43.9814 131.098C43.9582 131.204 43.9131 131.304 43.849 131.392C43.7849 131.48 43.7031 131.553 43.609 131.607C43.5149 131.662 43.4105 131.696 43.3025 131.707C43.0774 131.739 42.8488 131.683 42.6629 131.553C42.477 131.422 42.3477 131.225 42.3012 131.003L42.144 130.194C41.9841 129.437 41.9788 128.657 42.1284 127.898C42.278 127.14 42.5793 126.419 43.0144 125.78C43.4494 125.141 44.0092 124.597 44.66 124.18C45.3108 123.763 46.0392 123.481 46.8014 123.353C48.4542 123.075 50.1504 123.445 51.538 124.385C52.9255 125.325 53.8979 126.763 54.2534 128.401L54.4397 129.355C54.4614 129.463 54.4601 129.574 54.4359 129.681C54.4116 129.789 54.365 129.89 54.299 129.978C54.2331 130.066 54.1492 130.139 54.0531 130.192C53.9569 130.245 53.8506 130.277 53.741 130.287Z" fill="#B98F05"/>
<path d="M66.6482 154.459H32.3169L32.0898 147.636H66.4153L66.6482 154.459Z" fill="#225A4B"/>
<path d="M50.0851 115.814C50.0953 116.063 50.0549 116.312 49.9664 116.544C49.8778 116.777 49.7428 116.99 49.5697 117.169C49.3966 117.348 49.189 117.49 48.9593 117.586C48.7297 117.683 48.4828 117.732 48.2337 117.73C47.7204 117.726 47.2282 117.525 46.8588 117.168C46.4893 116.812 46.2709 116.327 46.2485 115.814C46.2383 115.566 46.2786 115.317 46.3672 115.084C46.4558 114.852 46.5907 114.639 46.7639 114.46C46.937 114.281 47.1446 114.139 47.3743 114.043C47.6039 113.946 47.8508 113.897 48.0998 113.899C48.6136 113.902 49.1066 114.102 49.4764 114.459C49.8461 114.816 50.0641 115.301 50.0851 115.814Z" fill="#263238"/>
<path d="M41.8064 115.814C41.8175 116.064 41.7777 116.312 41.6894 116.545C41.6012 116.779 41.4663 116.991 41.293 117.171C41.1197 117.35 40.9117 117.492 40.6817 117.588C40.4516 117.684 40.2044 117.732 39.9551 117.73C39.4423 117.726 38.9508 117.525 38.5823 117.168C38.2138 116.811 37.9966 116.327 37.9757 115.814C37.9654 115.566 38.0058 115.317 38.0944 115.084C38.183 114.852 38.3179 114.639 38.491 114.46C38.6641 114.281 38.8718 114.139 39.1015 114.043C39.3311 113.946 39.578 113.897 39.827 113.899C40.3402 113.902 40.8326 114.102 41.2014 114.459C41.5702 114.816 41.7869 115.302 41.8064 115.814Z" fill="#263238"/>
<path d="M33.5802 115.814C33.5905 116.063 33.5501 116.312 33.4615 116.544C33.3729 116.777 33.238 116.99 33.0649 117.169C32.8918 117.348 32.6841 117.49 32.4545 117.586C32.2248 117.683 31.978 117.732 31.7289 117.73C31.2157 117.727 30.7234 117.527 30.3546 117.17C29.9858 116.813 29.769 116.327 29.7495 115.814C29.7392 115.566 29.7796 115.317 29.8682 115.084C29.9568 114.852 30.0917 114.639 30.2648 114.46C30.4379 114.281 30.6456 114.139 30.8753 114.043C31.1049 113.946 31.3518 113.897 31.6008 113.899C32.114 113.902 32.6064 114.102 32.9752 114.459C33.344 114.816 33.5607 115.302 33.5802 115.814Z" fill="#263238"/>
<path d="M58.3346 115.814C58.3448 116.063 58.3044 116.311 58.2158 116.544C58.1273 116.777 57.9923 116.989 57.8192 117.168C57.6461 117.347 57.4384 117.489 57.2088 117.586C56.9791 117.682 56.7323 117.731 56.4832 117.729C55.97 117.727 55.4777 117.526 55.1089 117.169C54.7401 116.812 54.5233 116.327 54.5038 115.814C54.4951 115.566 54.5369 115.319 54.6266 115.087C54.7164 114.855 54.8522 114.645 55.0258 114.467C55.1995 114.29 55.4073 114.149 55.6369 114.055C55.8664 113.96 56.1127 113.913 56.361 113.916C56.8703 113.92 57.3587 114.119 57.7258 114.472C58.0929 114.825 58.3108 115.305 58.3346 115.814Z" fill="#263238"/>
<path d="M66.5841 115.814C66.5952 116.064 66.5554 116.312 66.4672 116.545C66.3789 116.779 66.244 116.991 66.0707 117.171C65.8974 117.35 65.6894 117.492 65.4594 117.588C65.2293 117.684 64.9821 117.732 64.7328 117.73C64.2201 117.726 63.7285 117.525 63.36 117.168C62.9915 116.811 62.7743 116.327 62.7534 115.814C62.7431 115.566 62.7835 115.317 62.8721 115.084C62.9607 114.852 63.0956 114.639 63.2687 114.46C63.4418 114.281 63.6495 114.139 63.8792 114.043C64.1088 113.946 64.3557 113.897 64.6047 113.899C65.1179 113.902 65.6103 114.102 65.9791 114.459C66.3479 114.816 66.5646 115.302 66.5841 115.814Z" fill="#263238"/>
<path d="M136.068 64.5931C136.842 65.839 137.488 67.0266 138.152 68.2667C138.816 69.5067 139.415 70.7526 140.003 72.0276C141.203 74.6092 142.196 77.2821 142.972 80.0209C143.077 80.3644 143.153 80.7312 143.24 81.0863L143.368 81.6277L143.432 81.8956L143.508 82.338C143.639 83.3417 143.578 84.3613 143.327 85.3421C142.926 86.8649 142.314 88.3246 141.511 89.6793C140.074 92.1413 138.338 94.4156 136.341 96.4501L133.89 94.5988C135.121 92.3372 136.215 90.0043 137.168 87.6126C137.592 86.5588 137.891 85.4586 138.059 84.3349C138.112 83.9918 138.096 83.6413 138.012 83.3044L137.779 82.5942C137.686 82.3031 137.599 82.012 137.488 81.7151C136.603 79.3133 135.578 76.9651 134.42 74.6823C133.256 72.3536 132.004 70.0249 130.752 67.8009L136.068 64.5931Z" fill="#FF8B7B"/>
<path d="M134.513 93.7902L131.835 95.205L134.909 98.8028C134.909 98.8028 136.83 97.5046 136.918 95.5252L134.513 93.7902Z" fill="#FF8B7B"/>
<path d="M128.243 97.4231L131.532 100.037L134.909 98.8028L131.835 95.2049L128.243 97.4231Z" fill="#FF8B7B"/>
<path d="M116.995 45.5436C116.931 45.8697 116.704 46.0967 116.495 46.056C116.285 46.0152 116.163 45.7125 116.227 45.3923C116.291 45.0721 116.518 44.8101 116.733 44.8799C116.949 44.9498 117.059 45.2176 116.995 45.5436Z" fill="#263238"/>
<path d="M116.733 46.1041C116.147 47.016 115.438 47.8427 114.626 48.5609C114.817 48.7597 115.05 48.9146 115.307 49.0151C115.564 49.1156 115.84 49.1593 116.116 49.1431L116.733 46.1041Z" fill="#FF5652"/>
<path d="M115.685 57.5249V53.7058L120.739 54.288C120.739 54.288 120.657 57.5715 117.828 58.5379L115.685 57.5249Z" fill="#FF8B7B"/>
<path d="M117.141 50.9591L120.698 51.9837L120.762 54.3183L115.709 53.707L117.141 50.9591Z" fill="#FF8B7B"/>
<path opacity="0.2" d="M120.698 51.9837L117.141 50.9591L116.448 52.2865C116.486 53.3324 116.813 54.3474 117.392 55.2188C117.972 56.0903 118.782 56.7841 119.732 57.2234C120.343 56.3697 120.7 55.3605 120.762 54.3125L120.698 51.9837Z" fill="black"/>
<path d="M118.544 43.9889C118.581 43.9879 118.617 43.9764 118.648 43.9556C118.679 43.9349 118.704 43.9058 118.719 43.8717C118.734 43.8376 118.74 43.7999 118.734 43.763C118.729 43.726 118.714 43.6913 118.689 43.6629C118.485 43.4319 118.228 43.2533 117.94 43.1419C117.653 43.0305 117.343 42.9895 117.036 43.0225C116.986 43.031 116.941 43.0591 116.912 43.1006C116.882 43.142 116.87 43.1935 116.879 43.2437C116.887 43.2942 116.915 43.3394 116.956 43.3698C116.998 43.4002 117.049 43.4135 117.1 43.4067C117.343 43.3829 117.588 43.4175 117.815 43.5076C118.042 43.5977 118.244 43.7408 118.404 43.9248C118.422 43.9443 118.443 43.96 118.467 43.971C118.491 43.982 118.517 43.9881 118.544 43.9889Z" fill="#263238"/>
<path d="M125.984 51.4368C125.402 54.435 125.041 58.586 127.149 60.5829C127.149 60.5829 126.333 63.6219 120.745 63.6219C114.626 63.6219 117.805 60.9555 117.805 60.9555C120.349 60.1637 120.325 57.2702 119.743 54.9415L125.984 51.4368Z" fill="#FF8B7B"/>
<path d="M128.284 62.5838C128.831 61.8154 128.808 59.376 128.226 58.9452C127.288 58.2524 123.265 58.0894 117.857 59.3353C118.439 61.6989 117.187 62.9331 117.187 62.9331L128.284 62.5838Z" fill="#225A4B"/>
<path d="M146.483 200.8C146.317 200.859 146.141 200.884 145.965 200.874C145.789 200.864 145.617 200.819 145.458 200.742C145.398 200.686 145.357 200.613 145.34 200.533C145.324 200.452 145.332 200.369 145.365 200.294C145.383 200.231 145.415 200.173 145.458 200.123C145.502 200.074 145.555 200.035 145.615 200.009C146.168 199.741 147.438 200.259 147.496 200.282C147.513 200.289 147.528 200.301 147.538 200.317C147.549 200.332 147.554 200.351 147.554 200.369C147.554 200.388 147.549 200.407 147.54 200.423C147.531 200.439 147.517 200.453 147.502 200.463C147.173 200.607 146.832 200.72 146.483 200.8ZM145.813 200.142C145.775 200.151 145.738 200.165 145.703 200.183C145.666 200.196 145.634 200.218 145.607 200.246C145.581 200.275 145.562 200.309 145.551 200.346C145.499 200.521 145.551 200.579 145.586 200.597C145.807 200.783 146.623 200.597 147.199 200.381C146.76 200.2 146.287 200.118 145.813 200.142Z" fill="#225A4B"/>
<path d="M147.478 200.468H147.432C146.966 200.334 145.976 199.629 145.965 199.17C145.964 199.096 145.989 199.025 146.034 198.968C146.08 198.911 146.144 198.871 146.215 198.855C146.284 198.829 146.358 198.819 146.431 198.825C146.505 198.831 146.576 198.853 146.64 198.89C147.187 199.169 147.536 200.299 147.548 200.351C147.556 200.365 147.561 200.382 147.561 200.398C147.561 200.414 147.556 200.43 147.548 200.444C147.539 200.454 147.528 200.46 147.516 200.464C147.504 200.469 147.491 200.47 147.478 200.468ZM146.314 199.018H146.267C146.151 199.059 146.151 199.117 146.151 199.146C146.151 199.42 146.815 199.973 147.315 200.194C147.193 199.868 146.925 199.222 146.57 199.03C146.491 198.994 146.402 198.99 146.32 199.018H146.314Z" fill="#225A4B"/>
<path d="M116.244 201.487C115.72 201.487 115.214 201.411 115.045 201.178C115.001 201.116 114.977 201.042 114.977 200.966C114.977 200.889 115.001 200.815 115.045 200.753C115.078 200.696 115.123 200.647 115.176 200.608C115.229 200.569 115.289 200.541 115.353 200.526C116.035 200.34 117.467 201.155 117.525 201.19C117.543 201.198 117.557 201.213 117.566 201.231C117.574 201.249 117.576 201.269 117.572 201.289C117.569 201.309 117.561 201.327 117.547 201.342C117.534 201.357 117.516 201.367 117.496 201.37C117.083 201.446 116.664 201.485 116.244 201.487ZM115.598 200.689C115.536 200.679 115.473 200.679 115.412 200.689C115.372 200.697 115.335 200.713 115.302 200.736C115.269 200.759 115.241 200.789 115.22 200.823C115.15 200.945 115.179 201.003 115.22 201.038C115.412 201.306 116.442 201.312 117.205 201.201C116.707 200.929 116.161 200.755 115.598 200.689Z" fill="#225A4B"/>
<path d="M117.49 201.371H117.449C116.955 201.149 115.977 200.264 116.052 199.799C116.052 199.688 116.145 199.554 116.413 199.531C116.509 199.52 116.606 199.528 116.698 199.556C116.79 199.584 116.876 199.631 116.949 199.694C117.322 200.14 117.546 200.692 117.589 201.272C117.589 201.288 117.585 201.305 117.578 201.32C117.571 201.335 117.561 201.348 117.548 201.359C117.53 201.368 117.51 201.372 117.49 201.371ZM116.489 199.711H116.431C116.256 199.711 116.244 199.793 116.244 199.816C116.198 200.096 116.861 200.794 117.368 201.097C117.323 200.63 117.134 200.188 116.827 199.834C116.731 199.752 116.609 199.709 116.483 199.711H116.489Z" fill="#225A4B"/>
<path d="M121.984 201.278H117.892L117.484 191.794H121.577L121.984 201.278Z" fill="#FF8B7B"/>
<path d="M152.043 199.38L148.043 200.247L144.02 191.416L148.026 190.548L152.043 199.38Z" fill="#FF8B7B"/>
<path d="M147.653 199.846L152.153 198.874C152.232 198.857 152.314 198.868 152.386 198.904C152.458 198.94 152.515 198.999 152.549 199.072L154.109 202.46C154.151 202.542 154.172 202.633 154.172 202.725C154.172 202.817 154.15 202.908 154.108 202.989C154.066 203.071 154.005 203.142 153.93 203.196C153.856 203.249 153.769 203.285 153.679 203.299C152.107 203.607 151.321 203.683 149.347 204.108C148.13 204.376 145.382 205.045 143.7 205.406C142.017 205.767 141.441 204.154 142.099 203.857C145.039 202.513 146.262 201.331 147.059 200.231C147.203 200.034 147.415 199.897 147.653 199.846Z" fill="#263238"/>
<path d="M117.921 200.8H122.392C122.473 200.801 122.552 200.828 122.615 200.879C122.679 200.93 122.723 201 122.741 201.079L123.551 204.718C123.574 204.806 123.577 204.898 123.559 204.988C123.54 205.077 123.501 205.16 123.445 205.232C123.388 205.303 123.315 205.36 123.233 205.398C123.15 205.437 123.06 205.455 122.968 205.452C121.356 205.423 119.027 205.329 117.001 205.329C114.626 205.329 112.582 205.457 109.8 205.457C108.117 205.457 107.651 203.757 108.356 203.6C111.558 202.902 114.178 202.826 116.943 201.12C117.233 200.926 117.572 200.815 117.921 200.8Z" fill="#263238"/>
<path d="M134.472 61.5193C138.309 62.3984 141.458 72.1965 141.458 72.1965L133.791 78.0591C131.801 75.9313 130.397 73.3235 129.716 70.4907C128.359 65.3559 130.548 60.6111 134.472 61.5193Z" fill="#225A4B"/>
<path opacity="0.4" d="M134.472 61.5193C138.309 62.3984 141.458 72.1965 141.458 72.1965L133.791 78.0591C131.801 75.9313 130.397 73.3235 129.716 70.4907C128.359 65.3559 130.548 60.6111 134.472 61.5193Z" fill="black"/>
<path d="M114.288 73.2039C113.333 74.2343 112.379 75.1542 111.377 76.1148C110.882 76.5805 110.382 77.0463 109.869 77.4945L109.095 78.1757L108.903 78.3445L108.571 78.6123C108.23 78.8852 107.851 79.1086 107.448 79.276C106.998 79.4668 106.515 79.5657 106.027 79.5671C105.61 79.5689 105.196 79.4959 104.804 79.3517C104.37 79.1864 103.974 78.9348 103.64 78.6123C103.214 78.1955 102.901 77.6764 102.732 77.1045C102.643 76.8225 102.587 76.5316 102.563 76.237C102.533 75.8923 102.533 75.5455 102.563 75.2007C102.592 74.9213 102.627 74.6768 102.674 74.4497C102.833 73.6559 103.059 72.8769 103.349 72.121C103.611 71.4025 103.912 70.6989 104.251 70.0135C104.624 69.2741 104.979 68.7327 105.334 68.1156C106.777 65.7526 108.423 63.5202 110.254 61.4438C112.066 59.3796 114.064 57.4855 116.221 55.785L118.363 57.9914C116.861 60.0058 115.383 62.1657 114.015 64.2906C112.653 66.4036 111.409 68.5901 110.289 70.8402C110.038 71.3874 109.706 72.0046 109.549 72.447C109.341 72.961 109.16 73.4857 109.008 74.0189C108.861 74.4991 108.75 74.9895 108.676 75.486C108.672 75.5636 108.672 75.6413 108.676 75.7189C108.676 75.7655 108.676 75.7887 108.676 75.6665C108.666 75.5358 108.641 75.4068 108.6 75.2822C108.474 74.8695 108.244 74.4964 107.931 74.1994C107.652 73.9436 107.326 73.7457 106.97 73.6172C106.658 73.4988 106.326 73.4377 105.992 73.4367C105.671 73.4328 105.352 73.4942 105.055 73.6172C104.954 73.6583 104.857 73.7069 104.764 73.7628L104.985 73.559L105.689 72.9186L107.081 71.6145C108.001 70.747 108.926 69.8214 109.8 68.9598L114.288 73.2039Z" fill="#FF8B7B"/>
<path opacity="0.2" d="M131.183 68.7147C133.267 70.7756 133.948 74.5365 134.094 77.7967L133.756 78.0587C131.766 75.9309 130.362 73.3232 129.681 70.4904C129.605 70.1876 129.535 69.9082 129.483 69.5763L131.183 68.7147Z" fill="black"/>
<path d="M110.219 65.5937C109.38 70.0182 108.856 79.1061 111.284 97.0955H133.209C133.36 93.7363 131.247 77.3304 134.49 61.4893C132.067 61.024 129.617 60.7149 127.154 60.5636C124.052 60.3857 120.942 60.3857 117.84 60.5636C116.815 60.6568 115.802 60.8081 114.929 60.9653C113.767 61.1691 112.695 61.7207 111.854 62.5471C111.013 63.3736 110.443 64.436 110.219 65.5937Z" fill="#225A4B"/>
<path opacity="0.4" d="M110.219 65.5937C109.38 70.0182 108.856 79.1061 111.284 97.0955H133.209C133.36 93.7363 131.247 77.3304 134.49 61.4893C132.067 61.024 129.617 60.7149 127.154 60.5636C124.052 60.3857 120.942 60.3857 117.84 60.5636C116.815 60.6568 115.802 60.8081 114.929 60.9653C113.767 61.1691 112.695 61.7207 111.854 62.5471C111.013 63.3736 110.443 64.436 110.219 65.5937Z" fill="black"/>
<path opacity="0.2" d="M113.572 72.1562L109.613 71.2072C109.491 73.6058 109.479 76.575 109.654 80.2485C111.476 78.176 113.805 74.939 113.572 72.1562Z" fill="black"/>
<path opacity="0.2" d="M117.484 191.794L117.694 196.685H121.792L121.583 191.794H117.484Z" fill="black"/>
<path opacity="0.2" d="M148.026 190.548L144.02 191.416L146.093 195.968L150.098 195.101L148.026 190.548Z" fill="black"/>
<path d="M127.929 47.0581C126.881 50.982 126.462 53.334 124.04 54.9642C120.401 57.4442 115.86 54.6032 115.744 50.4581C115.616 46.7146 117.356 40.9219 121.565 40.1302C122.49 39.9566 123.444 40.0214 124.337 40.3185C125.23 40.6155 126.033 41.1351 126.67 41.8283C127.306 42.5214 127.756 43.3652 127.976 44.2802C128.196 45.1952 128.18 46.1512 127.929 47.0581Z" fill="#FF8B7B"/>
<path d="M118.742 47.2022C118.544 46.6782 117.642 42.6204 118.492 41.5666C119.342 40.5129 129.035 41.2755 130.467 42.6844C132.848 45.0132 131.195 47.109 128.593 49.8045C126.636 51.8305 126.561 54.1127 125.571 54.462C123.824 55.0442 121.158 54.4969 120.622 52.6514C120.087 50.8059 118.742 47.2022 118.742 47.2022Z" fill="#263238"/>
<path d="M129.291 38.069C125.868 36.6136 119.446 38.2262 115.977 37.3879C115.932 38.6781 116.357 39.9407 117.171 40.9423C117.985 41.944 119.135 42.6171 120.407 42.8371C123.285 43.3856 126.21 43.6566 129.14 43.6463C132.947 43.4717 132.202 39.3091 129.291 38.069Z" fill="#263238"/>
<path d="M129.827 42.807C131.077 42.9301 132.336 42.6895 133.454 42.1142C134.094 43.6628 130.572 44.0878 129.827 42.807Z" fill="#263238"/>
<path d="M120.605 47.3667C120.526 48.3764 120.117 49.332 119.441 50.0855C118.544 51.0694 117.612 50.4523 117.455 49.2588C117.316 48.176 117.607 46.3479 118.701 45.824C119.796 45.3 120.681 46.15 120.605 47.3667Z" fill="#FF8B7B"/>
<path d="M119.056 97.1136C119.056 97.1136 123.714 128.406 126.258 140.131C129.046 152.968 144.032 195.438 144.032 195.438L151.361 193.849C151.361 193.849 140.882 159.232 138.553 141.284C136.749 127.498 133.203 97.1019 133.203 97.1019L119.056 97.1136Z" fill="#225A4B"/>
<path d="M142.274 192.998C142.245 192.998 143.642 195.653 143.642 195.653L151.885 193.866L151.193 191.386L142.274 192.998Z" fill="#263238"/>
<path opacity="0.3" d="M121.996 108.263C127.37 109.317 126.799 129.355 126.153 139.666C124.604 132.377 122.334 118.358 120.785 108.408C121.16 108.223 121.588 108.172 121.996 108.263Z" fill="black"/>
<path d="M111.284 97.1145C111.284 97.1145 110.702 127.731 111.168 140.196C111.633 153.184 116.168 195.713 116.168 195.713H123.108C123.108 195.713 123.358 153.941 123.69 141.186C124.028 127.283 125.705 97.0912 125.705 97.0912L111.284 97.1145Z" fill="#225A4B"/>
<path d="M114.835 192.976C114.8 192.976 115.225 195.852 115.225 195.852H123.661L123.894 193.285L114.835 192.976Z" fill="#263238"/>
<path d="M118.8 66.9576C120.762 72.2496 109.229 78.4848 109.229 78.4848L104.234 72.0808C104.234 72.0808 107.593 65.4322 111.668 62.4398C116.704 58.7488 117.304 62.9289 118.8 66.9576Z" fill="#225A4B"/>
<path opacity="0.4" d="M118.8 66.9576C120.762 72.2496 109.229 78.4848 109.229 78.4848L104.234 72.0808C104.234 72.0808 107.593 65.4322 111.668 62.4398C116.704 58.7488 117.304 62.9289 118.8 66.9576Z" fill="black"/>
<path d="M163.989 26.7804C175.593 26.7804 185 20.7854 185 13.3902C185 5.99499 175.593 0 163.989 0C152.385 0 142.978 5.99499 142.978 13.3902C142.978 20.7854 152.385 26.7804 163.989 26.7804Z" fill="#B98F05"/>
<path d="M156.409 20.1326C155.025 20.1281 153.687 19.636 152.629 18.7427C151.572 17.8494 150.863 16.612 150.628 15.2481C150.396 13.7706 150.73 12.2602 151.561 11.0174C152.393 9.77459 153.662 8.89058 155.117 8.54134C156.31 8.26638 157.559 8.37236 158.689 8.84438C159.819 9.31639 160.773 10.1307 161.416 11.1728L174.905 8.38997C175.423 8.27644 175.965 8.36265 176.423 8.63138C176.881 8.90011 177.22 9.33158 177.373 9.83961C177.444 10.1067 177.459 10.3854 177.419 10.6586C177.378 10.9319 177.282 11.1939 177.136 11.4288C176.991 11.6636 176.799 11.8664 176.572 12.0245C176.346 12.1827 176.09 12.2931 175.819 12.3488L175.47 12.4187C175.418 12.428 175.369 12.4491 175.326 12.4804C175.284 12.5117 175.249 12.5523 175.225 12.5991C175.204 12.6467 175.192 12.6983 175.192 12.7505C175.192 12.8027 175.204 12.8543 175.225 12.9019L175.464 13.519C175.544 13.719 175.552 13.9407 175.486 14.1458C175.42 14.3509 175.284 14.5266 175.103 14.6426C174.96 14.731 174.839 14.8509 174.749 14.9932C174.659 15.1354 174.603 15.2963 174.585 15.4635C174.568 15.6554 174.49 15.837 174.364 15.9823C174.237 16.1277 174.068 16.2293 173.88 16.2727L173.607 16.3309C173.417 16.366 173.221 16.3397 173.047 16.256C172.874 16.1723 172.731 16.0354 172.64 15.8652C172.519 15.6621 172.338 15.5018 172.122 15.4067C171.906 15.3115 171.665 15.2862 171.434 15.3342C171.202 15.3823 170.992 15.5013 170.831 15.6748C170.671 15.8482 170.569 16.0674 170.539 16.3018C170.522 16.4925 170.446 16.6731 170.32 16.8175C170.195 16.962 170.027 17.0627 169.84 17.1052L169.566 17.1635C169.377 17.1976 169.181 17.1709 169.008 17.0873C168.834 17.0036 168.691 16.8673 168.6 16.6977C168.513 16.5533 168.395 16.4296 168.255 16.3351C168.116 16.2406 167.957 16.1776 167.791 16.1505C167.567 16.1235 167.36 16.0158 167.21 15.8475C167.06 15.6792 166.977 15.4619 166.976 15.2364V14.5727C166.973 14.5208 166.96 14.47 166.936 14.4238C166.912 14.3776 166.879 14.3371 166.838 14.305C166.797 14.273 166.749 14.2501 166.699 14.2381C166.648 14.226 166.596 14.225 166.545 14.2351L162.242 15.12C162.067 16.3119 161.529 17.4209 160.7 18.2959C159.872 19.1709 158.795 19.7695 157.614 20.0103C157.218 20.0914 156.814 20.1324 156.409 20.1326ZM155.245 9.07113C153.924 9.37957 152.77 10.1769 152.013 11.3025C151.257 12.4281 150.956 13.7984 151.169 15.1375C151.398 16.3833 152.066 17.506 153.05 18.3025C154.035 19.0991 155.273 19.5168 156.539 19.4803C157.805 19.4437 159.016 18.9552 159.953 18.1031C160.891 17.251 161.492 16.0917 161.649 14.8347V14.6251L166.393 13.6645C166.53 13.6316 166.671 13.6294 166.808 13.6581C166.945 13.6868 167.074 13.7456 167.186 13.8303C167.297 13.9151 167.389 14.0236 167.453 14.148C167.517 14.2723 167.553 14.4095 167.558 14.5495V15.2131C167.559 15.2922 167.588 15.3683 167.638 15.4288C167.689 15.4892 167.76 15.5303 167.837 15.545C168.092 15.5814 168.335 15.6754 168.547 15.8196C168.76 15.9638 168.937 16.1546 169.066 16.3775C169.097 16.4403 169.146 16.492 169.208 16.5254C169.269 16.5588 169.34 16.5722 169.409 16.5638L169.677 16.5056C169.745 16.4881 169.805 16.4492 169.849 16.3947C169.893 16.3402 169.919 16.2729 169.921 16.2029C169.958 15.8404 170.109 15.4991 170.353 15.2281C170.596 14.9571 170.919 14.7706 171.276 14.6954C171.632 14.6202 172.003 14.6603 172.335 14.8099C172.668 14.9595 172.944 15.2108 173.123 15.5275C173.153 15.5899 173.202 15.6414 173.262 15.6748C173.323 15.7082 173.392 15.7218 173.461 15.7138L173.741 15.6556C173.807 15.6371 173.867 15.5977 173.909 15.5433C173.952 15.4889 173.977 15.4222 173.979 15.3529C174.008 15.0973 174.095 14.8516 174.233 14.6347C174.371 14.4177 174.557 14.2353 174.777 14.1012C174.841 14.0549 174.888 13.9885 174.91 13.9126C174.932 13.8367 174.928 13.7555 174.899 13.682L174.66 13.0649C174.611 12.9377 174.59 12.8012 174.599 12.665C174.608 12.5289 174.646 12.3963 174.712 12.2765C174.777 12.1568 174.868 12.0527 174.978 11.9717C175.087 11.8907 175.214 11.8346 175.347 11.8074L175.703 11.7317C175.895 11.6907 176.077 11.6114 176.237 11.4985C176.398 11.3855 176.535 11.2413 176.639 11.0745C176.742 10.9076 176.811 10.7215 176.842 10.5274C176.872 10.3332 176.863 10.1349 176.814 9.9444C176.701 9.57802 176.453 9.26817 176.12 9.07704C175.788 8.88591 175.395 8.82765 175.021 8.91394L161.154 11.7957L161.049 11.6153C160.492 10.6234 159.627 9.8398 158.585 9.38292C157.543 8.92604 156.381 8.82069 155.274 9.08277L155.245 9.07113ZM156.409 17.9669C155.686 17.9749 154.976 17.7727 154.366 17.3847C153.644 16.9107 153.108 16.2011 152.851 15.3766C152.594 14.5522 152.631 13.6641 152.955 12.8637C153.279 12.0633 153.871 11.4002 154.63 10.9873C155.388 10.5745 156.266 10.4375 157.115 10.5998C157.963 10.762 158.729 11.2134 159.281 11.877C159.834 12.5407 160.139 13.3754 160.145 14.239C160.151 15.1026 159.858 15.9416 159.314 16.6128C158.771 17.2841 158.012 17.7462 157.166 17.9203C156.918 17.9651 156.666 17.9846 156.415 17.9785L156.409 17.9669ZM156.409 11.0913C156.192 11.0925 155.976 11.114 155.763 11.1553C155.357 11.2417 154.973 11.4072 154.631 11.6422C154.289 11.8772 153.997 12.1772 153.772 12.5251C153.546 12.873 153.391 13.2619 153.316 13.6697C153.24 14.0775 153.246 14.4961 153.332 14.9017C153.419 15.3073 153.584 15.6919 153.819 16.0335C154.054 16.3752 154.354 16.6672 154.702 16.8929C155.05 17.1186 155.439 17.2736 155.847 17.3489C156.254 17.4243 156.673 17.4187 157.079 17.3323C157.687 17.2055 158.245 16.9014 158.681 16.4581C159.118 16.0149 159.413 15.4524 159.53 14.8416C159.647 14.2308 159.581 13.599 159.339 13.0259C159.098 12.4528 158.692 11.964 158.173 11.6211C157.658 11.2783 157.051 11.0978 156.432 11.1029L156.409 11.0913Z" fill="white"/>
<path opacity="0.6" d="M146.891 34.6329C150.704 34.6329 153.795 32.6624 153.795 30.2317C153.795 27.8009 150.704 25.8304 146.891 25.8304C143.077 25.8304 139.986 27.8009 139.986 30.2317C139.986 32.6624 143.077 34.6329 146.891 34.6329Z" fill="#B98F05"/>
<path opacity="0.3" d="M135.905 36.4398C137.471 36.4398 138.74 35.6318 138.74 34.6351C138.74 33.6383 137.471 32.8303 135.905 32.8303C134.339 32.8303 133.069 33.6383 133.069 34.6351C133.069 35.6318 134.339 36.4398 135.905 36.4398Z" fill="#B98F05"/>
</svg>
