<svg width="18" height="19" viewBox="0 0 18 19" fill="none" xmlns="http://www.w3.org/2000/svg">
<path d="M6.24334 1.18247C4.42772 1.79969 2.86194 2.97119 1.77597 4.52491C0.69001 6.07862 0.141107 7.93265 0.209891 9.81466C0.278674 11.6967 0.961518 13.5075 2.15812 14.9811C3.35473 16.4547 5.00202 17.5134 6.85804 18.0018C8.36276 18.3823 9.93926 18.399 11.452 18.0505C12.8224 17.7488 14.0894 17.1036 15.1289 16.1779C16.2108 15.1851 16.9961 13.9221 17.4004 12.5247C17.8398 11.0051 17.918 9.407 17.6289 7.85315H9.17917V11.288H14.0727C13.9749 11.8358 13.7653 12.3587 13.4565 12.8253C13.1477 13.2919 12.746 13.6926 12.2754 14.0035C11.6779 14.3909 11.0043 14.6515 10.2979 14.7687C9.58937 14.8978 8.86267 14.8978 8.15418 14.7687C7.43611 14.6232 6.75682 14.3328 6.15958 13.9159C5.20011 13.2503 4.47967 12.3048 4.10109 11.2142C3.7161 10.1032 3.7161 8.89876 4.10109 7.78776C4.37057 7.00901 4.81607 6.29995 5.40432 5.71352C6.07751 5.0301 6.92978 4.54159 7.86764 4.30159C8.80549 4.06158 9.79268 4.07935 10.7209 4.35295C11.446 4.57108 12.1091 4.95218 12.6573 5.46589C13.2091 4.92797 13.7599 4.38866 14.3098 3.84796C14.5937 3.5572 14.9032 3.28036 15.1829 2.98265C14.3461 2.21955 13.3638 1.62577 12.2925 1.23533C10.3414 0.54112 8.20668 0.522464 6.24334 1.18247Z" fill="#322115"/>
<path d="M6.24337 1.18242C8.20655 0.521974 10.3413 0.540139 12.2925 1.2339C13.3641 1.62699 14.3458 2.22363 15.1815 2.98956C14.8975 3.28727 14.598 3.56551 14.3084 3.85487C13.7576 4.39372 13.2072 4.93071 12.6573 5.46585C12.1091 4.95214 11.4461 4.57104 10.7209 4.35291C9.79302 4.07835 8.80586 4.05955 7.86776 4.29858C6.92966 4.5376 6.07686 5.02521 5.40294 5.70792C4.81468 6.29435 4.36919 7.0034 4.0997 7.78216L1.15677 5.54932C2.21016 3.50229 4.03404 1.93647 6.24337 1.18242Z" fill="#E33629"/>
<path d="M0.376045 7.76098C0.534224 6.99276 0.796834 6.24881 1.15685 5.54901L4.09978 7.78741C3.71479 8.89841 3.71479 10.1029 4.09978 11.2139C3.11928 11.9558 2.1383 12.7015 1.15685 13.4509C0.255588 11.6929 -0.0192812 9.68985 0.376045 7.76098Z" fill="#F8BD00"/>
<path d="M9.17934 7.85144H17.6291C17.9181 9.40529 17.8399 11.0034 17.4005 12.523C16.9963 13.9204 16.211 15.1834 15.1291 16.1762C14.1793 15.45 13.2253 14.7294 12.2756 14.0032C12.7465 13.692 13.1484 13.2908 13.4572 12.8237C13.766 12.3566 13.9754 11.8332 14.0729 11.2849H9.17934C9.17792 10.1413 9.17934 8.99638 9.17934 7.85144Z" fill="#587DBD"/>
<path d="M1.15536 13.4515C2.13682 12.7095 3.11779 11.9638 4.0983 11.2144C4.47764 12.3054 5.1991 13.251 6.15963 13.9161C6.75873 14.331 7.43948 14.6191 8.15849 14.7619C8.86698 14.891 9.59368 14.891 10.3022 14.7619C11.0086 14.6448 11.6822 14.3841 12.2797 13.9968C13.2295 14.723 14.1835 15.4436 15.1332 16.1698C14.0939 17.096 12.8269 17.7417 11.4563 18.0437C9.94357 18.3922 8.36707 18.3755 6.86235 17.995C5.67226 17.6836 4.56064 17.1347 3.59716 16.3827C2.57737 15.5893 1.74446 14.5894 1.15536 13.4515Z" fill="#319F43"/>
</svg>
