<svg width="22" height="22" viewBox="0 0 22 22" fill="none" xmlns="http://www.w3.org/2000/svg">
<path d="M12.375 13.0625V17.1875C12.375 17.3698 12.4474 17.5447 12.5764 17.6736C12.7053 17.8026 12.8802 17.875 13.0625 17.875H17.1875C17.3698 17.875 17.5447 17.8026 17.6736 17.6736C17.8026 17.5447 17.875 17.3698 17.875 17.1875V13.0625C17.875 12.8802 17.8026 12.7053 17.6736 12.5764C17.5447 12.4474 17.3698 12.375 17.1875 12.375H13.0625C12.8802 12.375 12.7053 12.4474 12.5764 12.5764C12.4474 12.7053 12.375 12.8802 12.375 13.0625ZM13.75 16.5V13.75H16.5V16.5H13.75ZM4.125 0C4.02423 3.77851e-05 3.9247 0.0222271 3.83346 0.064997C3.74222 0.107767 3.66149 0.170072 3.597 0.2475L0.1595 4.3725C0.0565113 4.496 7.23571e-05 4.65169 0 4.8125V6.875C0 8.096 0.53075 9.19462 1.375 9.9495V21.3125C1.375 21.4948 1.44743 21.6697 1.57636 21.7986C1.7053 21.9276 1.88016 22 2.0625 22H19.9375C20.1198 22 20.2947 21.9276 20.4236 21.7986C20.5526 21.6697 20.625 21.4948 20.625 21.3125V9.9495C21.4692 9.19325 22 8.096 22 6.875V4.78775C22 4.664 22 4.565 21.8405 4.3725L18.403 0.2475C18.3385 0.170072 18.2578 0.107767 18.1665 0.064997C18.0753 0.0222271 17.9758 3.77851e-05 17.875 0H4.125ZM4.125 9.625C3.39565 9.625 2.69618 9.33527 2.18046 8.81954C1.66473 8.30382 1.375 7.60435 1.375 6.875V5.5H6.875V6.875C6.875 7.60435 6.58527 8.30382 6.06954 8.81954C5.55382 9.33527 4.85435 9.625 4.125 9.625ZM11 9.625C10.2707 9.625 9.57118 9.33527 9.05546 8.81954C8.53973 8.30382 8.25 7.60435 8.25 6.875V5.5H13.75V6.875C13.75 7.60435 13.4603 8.30382 12.9445 8.81954C12.4288 9.33527 11.7293 9.625 11 9.625ZM17.875 9.625C17.1457 9.625 16.4462 9.33527 15.9305 8.81954C15.4147 8.30382 15.125 7.60435 15.125 6.875V5.5H20.625V6.875C20.625 7.60435 20.3353 8.30382 19.8195 8.81954C19.3038 9.33527 18.6043 9.625 17.875 9.625ZM4.125 20.625H2.75V10.7662C3.61673 11.0727 4.56099 11.0809 5.43288 10.7894C6.30476 10.4979 7.0543 9.92357 7.5625 9.1575C7.93904 9.72433 8.44997 10.1892 9.04974 10.5107C9.64951 10.8322 10.3195 11.0003 11 11C11.6806 11.0001 12.3507 10.8318 12.9505 10.5101C13.5503 10.1883 14.0611 9.72321 14.4375 9.15613C14.9457 9.9222 15.6952 10.4966 16.5671 10.788C17.439 11.0795 18.3833 11.0713 19.25 10.7649V20.625H11V13.0625C11 12.8802 10.9276 12.7053 10.7986 12.5764C10.6697 12.4474 10.4948 12.375 10.3125 12.375H4.8125C4.63016 12.375 4.4553 12.4474 4.32636 12.5764C4.19743 12.7053 4.125 12.8802 4.125 13.0625V20.625ZM7.0675 4.125H2.156L4.44675 1.375H7.98325L7.0675 4.125ZM13.4832 4.125H8.51675L9.4325 1.375H12.5675L13.4832 4.125ZM14.9325 4.125L14.0168 1.375H17.5532L19.8454 4.125H14.9325ZM5.5 20.625V13.75H9.625V20.625H5.5Z" fill="#5B5B5B"/>
</svg>
