<svg width="366" height="255" viewBox="0 0 366 255" fill="none" xmlns="http://www.w3.org/2000/svg">
<path d="M366 0H120C53.7258 0 0 53.7258 0 120V135C0 201.274 53.7258 255 120 255H366V0Z" fill="#DEE9E4"/>
<path d="M307.816 44.25H241.159V198.985H307.816V44.25Z" fill="#C7C7C7"/>
<path d="M307.816 182.127H241.159V198.984H307.816V182.127Z" fill="#A6A6A6"/>
<path d="M244.65 44.25H241.159V198.985H244.65V44.25Z" fill="#DBDBDB"/>
<path d="M282.588 190.962L244.651 198.985V44.25L282.588 55.5594V190.962Z" fill="#EBEBEB"/>
<path d="M249.865 152.203C249.907 153.662 249.931 155.126 249.96 156.589C249.989 158.052 250.01 159.515 250.026 160.974C250.067 163.901 250.095 166.826 250.109 169.75C250.129 172.677 250.109 175.603 250.129 178.53C250.15 181.456 250.129 184.387 250.1 187.318L249.874 186.954C251.391 186.72 252.902 186.499 254.408 186.292L256.688 186.007C257.446 185.912 258.205 185.821 258.963 185.751C258.205 185.945 257.446 186.119 256.688 186.297L254.408 186.813C252.891 187.147 251.38 187.462 249.874 187.76L249.647 187.805V187.392C249.647 184.465 249.622 181.535 249.614 178.604C249.606 175.673 249.614 172.739 249.639 169.804C249.663 166.869 249.676 163.934 249.713 160.999C249.729 159.533 249.753 158.066 249.783 156.597C249.804 155.134 249.828 153.671 249.865 152.203Z" fill="#A6A6A6"/>
<path d="M261.329 182.124C261.288 180.508 261.263 178.887 261.239 177.267C261.214 175.647 261.185 174.031 261.169 172.406C261.13 169.165 261.103 165.922 261.086 162.676C261.061 159.427 261.086 156.182 261.053 152.933C261.02 149.684 261.053 146.435 261.078 143.186L261.313 143.575C259.425 143.61 257.538 143.626 255.653 143.62C254.713 143.62 253.77 143.609 252.825 143.587C251.885 143.587 250.941 143.558 249.997 143.521C250.941 143.426 251.885 143.351 252.825 143.281C253.765 143.211 254.713 143.137 255.653 143.083C257.541 142.962 259.428 142.862 261.313 142.785H261.544V143.199C261.568 146.439 261.568 149.684 261.577 152.925C261.585 156.165 261.577 159.41 261.556 162.655C261.535 165.9 261.519 169.145 261.482 172.39C261.465 174.013 261.443 175.639 261.416 177.267C261.391 178.871 261.366 180.5 261.329 182.124Z" fill="#A6A6A6"/>
<path d="M265.864 151.258C265.905 152.638 265.93 154.023 265.959 155.391C265.987 156.76 266.012 158.161 266.029 159.546C266.07 162.301 266.097 165.069 266.111 167.85C266.136 170.615 266.111 173.385 266.14 176.154C266.169 178.924 266.14 181.697 266.115 184.471L265.884 184.132C267.406 183.892 268.923 183.665 270.444 183.462L272.719 183.169C273.478 183.074 274.24 182.979 274.999 182.904C274.24 183.098 273.482 183.272 272.719 183.442L270.444 183.954C268.921 184.285 267.401 184.598 265.884 184.892L265.658 184.938V184.553C265.633 181.779 265.621 179.005 265.621 176.233C265.621 173.455 265.621 170.681 265.621 167.904C265.621 165.126 265.658 162.348 265.695 159.57C265.711 158.193 265.733 156.804 265.761 155.404C265.802 154.015 265.827 152.647 265.864 151.258Z" fill="#A6A6A6"/>
<path d="M277.34 179.478C277.299 177.953 277.274 176.423 277.25 174.894C277.225 173.364 277.192 171.839 277.176 170.306C277.134 167.247 277.105 164.184 277.089 161.117C277.064 158.05 277.064 154.983 277.052 151.916C277.04 148.848 277.052 145.781 277.073 142.714L277.303 143.078C275.418 143.114 273.533 143.13 271.648 143.128C270.708 143.128 269.764 143.128 268.82 143.103C267.876 143.078 266.936 143.078 265.992 143.045C266.936 142.954 267.88 142.884 268.82 142.813C269.76 142.743 270.708 142.673 271.648 142.619C273.536 142.508 275.419 142.408 277.303 142.334H277.534V142.71C277.559 145.773 277.559 148.836 277.571 151.895C277.584 154.954 277.571 158.017 277.571 161.084C277.571 164.151 277.534 167.21 277.501 170.277C277.501 171.81 277.464 173.348 277.439 174.881C277.415 176.415 277.378 177.94 277.34 179.478Z" fill="#A6A6A6"/>
<path d="M249.857 82.5059C249.898 83.9774 249.923 85.4448 249.948 86.9122C249.973 88.3796 250.001 89.8512 250.018 91.3186C250.054 94.2479 250.08 97.1785 250.096 100.111C250.096 103.041 250.096 105.968 250.121 108.894C250.146 111.821 250.121 114.747 250.092 117.674L249.861 117.261C251.378 117.381 252.895 117.509 254.396 117.674L256.667 117.918C257.426 118.005 258.184 118.087 258.943 118.195C258.184 118.195 257.426 118.195 256.667 118.195H254.396C252.879 118.195 251.362 118.133 249.861 118.079H249.639V117.666C249.619 114.731 249.608 111.798 249.606 108.865C249.606 105.935 249.606 103 249.626 100.073C249.647 97.1469 249.668 94.212 249.705 91.2855C249.705 89.8222 249.742 88.3631 249.771 86.8998C249.799 85.4365 249.816 83.9691 249.857 82.5059Z" fill="#A6A6A6"/>
<path d="M261.296 115.106C261.259 113.481 261.234 111.857 261.206 110.232C261.177 108.608 261.152 106.979 261.136 105.355C261.1 102.1 261.072 98.85 261.053 95.6038C261.032 92.3507 261.032 89.1058 261.024 85.8569C261.016 82.6079 261.024 79.3589 261.024 76.1182L261.259 76.5605C259.375 76.1472 257.496 75.7338 255.612 75.2833C254.672 75.0642 253.732 74.8286 252.792 74.5888C251.852 74.3491 250.908 74.1217 249.968 73.8613C250.908 73.9853 251.848 74.1383 252.792 74.2747C253.736 74.4111 254.672 74.5723 255.612 74.7376C257.497 75.0601 259.379 75.4004 261.259 75.7586L261.49 75.8041V76.2174C261.515 79.4623 261.515 82.703 261.523 85.9478C261.531 89.1926 261.523 92.4333 261.523 95.6699C261.523 98.9065 261.486 102.151 261.449 105.392C261.449 107.012 261.412 108.629 261.383 110.249C261.354 111.869 261.333 113.506 261.296 115.106Z" fill="#A6A6A6"/>
<path d="M265.823 85.2988C265.864 86.6918 265.889 88.0807 265.918 89.4696C265.947 90.8584 265.971 92.2514 265.988 93.6403C266.029 96.4125 266.057 99.1862 266.07 101.961C266.095 104.735 266.095 107.504 266.099 110.274C266.103 113.043 266.099 115.813 266.074 118.582L265.844 118.189C267.361 118.305 268.878 118.433 270.378 118.582L272.649 118.822C273.408 118.905 274.166 118.983 274.925 119.086C274.166 119.086 273.408 119.086 272.649 119.086L270.378 119.066C268.861 119.045 267.344 119 265.844 118.942H265.621V118.557C265.596 115.78 265.592 113.006 265.584 110.228C265.576 107.45 265.584 104.681 265.584 101.907C265.584 99.1338 265.621 96.3602 265.658 93.5907C265.675 92.2129 265.697 90.835 265.724 89.4572C265.761 88.06 265.786 86.6753 265.823 85.2988Z" fill="#A6A6A6"/>
<path d="M277.278 116.196C277.237 114.658 277.213 113.125 277.184 111.591C277.155 110.058 277.13 108.52 277.114 106.986C277.072 103.914 277.043 100.844 277.027 97.7768C277.002 94.7056 277.002 91.6385 276.99 88.5715C276.978 85.5044 276.99 82.4373 276.99 79.3743L277.221 79.7877C275.341 79.3826 273.46 78.9582 271.577 78.5146C270.637 78.2996 269.693 78.0681 268.754 77.8325C267.814 77.5969 266.874 77.3654 265.93 77.1133C266.874 77.2414 267.814 77.3902 268.754 77.5266C269.693 77.663 270.633 77.8243 271.577 77.9896C273.457 78.3175 275.338 78.662 277.221 79.023L277.452 79.0684V79.4446C277.476 82.5117 277.476 85.5705 277.485 88.6335C277.493 91.6964 277.485 94.7552 277.485 97.814C277.485 100.873 277.452 103.932 277.419 106.991C277.402 108.52 277.38 110.049 277.353 111.579C277.34 113.133 277.316 114.666 277.278 116.196Z" fill="#A6A6A6"/>
<path d="M249.853 56.791C249.931 58.3328 249.98 59.8622 250.017 61.3916C250.055 62.9211 250.079 64.4463 250.096 65.9716L249.853 65.488C250.611 65.6409 251.37 65.8104 252.124 65.984C252.878 66.1576 253.637 66.3519 254.395 66.5627C255.154 66.7735 255.908 66.9761 256.667 67.2241C257.425 67.4721 258.18 67.7118 258.938 68.0094C258.18 67.9557 257.425 67.8606 256.667 67.7449C255.908 67.6292 255.154 67.5052 254.395 67.3605C253.637 67.2158 252.882 67.0546 252.124 66.8893C251.365 66.7239 250.611 66.5379 249.853 66.3395L249.609 66.2775V65.8641C249.609 64.343 249.646 62.8301 249.684 61.3172C249.721 59.8044 249.774 58.2915 249.853 56.791Z" fill="#A6A6A6"/>
<path d="M261.276 67.7167C261.235 66.8652 261.21 66.0137 261.185 65.1663C261.161 64.3189 261.132 63.4674 261.115 62.6242C261.074 60.9294 261.047 59.236 261.033 57.5441L261.272 58.0111C260.332 57.7962 259.388 57.5358 258.448 57.296C257.508 57.0563 256.568 56.7835 255.629 56.4941C254.689 56.2048 253.749 55.9196 252.809 55.6054C252.339 55.4525 251.865 55.283 251.395 55.1094C250.925 54.9358 250.455 54.7704 249.985 54.5762C250.455 54.6382 250.925 54.7208 251.395 54.8035C251.865 54.8862 252.339 54.9647 252.809 55.0639C253.749 55.2541 254.689 55.4773 255.629 55.6922C256.568 55.9072 257.508 56.1635 258.448 56.4073C259.388 56.6512 260.328 56.9199 261.272 57.2092L261.511 57.2795V57.6929C261.511 59.3711 261.486 61.0479 261.437 62.7234C261.42 63.5501 261.398 64.3864 261.371 65.2324C261.338 66.0467 261.313 66.8817 261.276 67.7167Z" fill="#A6A6A6"/>
<path d="M265.81 60.957C265.889 62.4162 265.938 63.8505 265.975 65.3138C266.012 66.7771 266.041 68.2073 266.058 69.6499L265.815 69.1869C266.573 69.344 267.327 69.5093 268.086 69.6871C268.844 69.8648 269.599 70.055 270.357 70.2616C271.116 70.4683 271.87 70.675 272.625 70.9147C273.379 71.1545 274.142 71.3984 274.896 71.6877C274.142 71.6257 273.383 71.5265 272.629 71.4108C271.874 71.295 271.112 71.1627 270.357 70.9974C269.603 70.8321 268.844 70.6874 268.086 70.522C267.327 70.3567 266.573 70.1707 265.815 69.9764L265.567 69.9144V69.5011C265.567 68.0626 265.604 66.6282 265.641 65.198C265.679 63.7678 265.732 62.3748 265.81 60.957Z" fill="#A6A6A6"/>
<path d="M277.233 71.4397C277.192 70.613 277.167 69.8317 277.142 69.0298C277.118 68.2279 277.089 67.426 277.068 66.6282C277.031 65.0244 277.002 63.4289 276.99 61.8333L277.225 62.2756C276.285 62.0566 275.345 61.8003 274.405 61.5564C273.465 61.3125 272.521 61.0438 271.581 60.7586C270.641 60.4734 269.702 60.1882 268.762 59.8782C268.292 59.7252 267.822 59.5558 267.352 59.3863C266.882 59.2168 266.412 59.0515 265.942 58.8613C266.412 58.9275 266.882 59.0143 267.352 59.0969C267.822 59.1796 268.292 59.2664 268.762 59.3656C269.702 59.5599 270.641 59.779 271.581 59.9981C272.521 60.2171 273.461 60.4734 274.405 60.7173C275.349 60.9612 276.285 61.2298 277.225 61.5151L277.464 61.5895V61.9615C277.464 63.5433 277.44 65.125 277.394 66.7068C277.394 67.4963 277.357 68.2858 277.328 69.0753C277.299 69.8648 277.274 70.6543 277.233 71.4397Z" fill="#A6A6A6"/>
<path d="M272.484 123.58L272.497 138.254L277.282 138.192L277.27 123.77L272.484 123.58Z" fill="white"/>
<path d="M273.626 126.83V130.145L277.275 129.732L277.27 126.933L273.626 126.83Z" fill="#EBEBEB"/>
<path d="M273.626 125.17V128.485L279.971 128.626L279.966 125.389L273.626 125.17Z" fill="white"/>
<path d="M313.777 38V198.985H307.816V44.2499H241.155V198.985H235.203V38H313.777Z" fill="#263238"/>
<path d="M275.395 196.079C276.219 196.319 300.512 195.041 301.365 194.425C301.472 194.355 301.406 192.156 301.262 189.139L301.777 171.166L286.426 171.79L285.787 187.365C285.787 187.365 282.398 189.089 279.604 190.59C278.379 191.204 277.194 191.895 276.054 192.656C275.168 193.425 274.558 195.843 275.395 196.079Z" fill="#FFBF9D"/>
<path d="M275.395 196.079C276.219 196.319 300.512 195.041 301.365 194.425C301.472 194.355 301.406 192.156 301.262 189.139C295.309 190.701 279.414 193.475 278.874 192.226C278.672 191.735 279.031 191.143 279.583 190.594C278.359 191.209 277.173 191.899 276.034 192.66C275.168 193.425 274.558 195.843 275.395 196.079Z" fill="#225A4B"/>
<path d="M305.858 105.688C305.858 105.688 302 152.173 301.934 152.74C301.934 152.814 302.676 186.564 302.676 186.564L285.651 187.251C285.651 187.251 286.183 157.737 286.624 151.123C287.184 142.691 290.334 106.258 290.334 106.258L305.858 105.688Z" fill="#37474F"/>
<path d="M286.64 183.504C291.022 183.153 301.179 183.041 301.76 183.041C301.909 183.041 301.835 183.169 301.793 183.173C300.404 183.363 290.737 183.686 286.628 183.682C286.582 183.682 286.595 183.504 286.64 183.504Z" fill="#263238"/>
<path d="M301.934 152.735C301.934 152.735 301.934 152.872 301.934 153.116L293.619 106.142L305.858 105.688C305.858 105.688 302 152.169 301.934 152.735Z" fill="#263238"/>
<path d="M307.816 170.962L307.775 170.825L307.816 170.809V170.962Z" fill="#FFBF9D"/>
<path d="M307.886 191.459C307.862 191.521 307.837 191.579 307.816 191.641V197.428C307.263 197.699 306.693 197.933 306.11 198.131C305.244 198.238 304.873 195.77 305.397 194.712C306.139 193.603 306.947 192.54 307.816 191.529L307.886 191.459Z" fill="#FFBF9D"/>
<path d="M307.816 191.633C307.581 192.261 307.515 192.836 307.816 193.187V197.437C307.263 197.707 306.693 197.942 306.11 198.139C305.244 198.247 304.873 195.779 305.397 194.721C306.139 193.612 306.947 192.549 307.816 191.538L307.886 191.451C307.862 191.521 307.837 191.579 307.816 191.633Z" fill="#225A4B"/>
<path d="M307.816 105.613V175.321C305.73 167.79 303.117 158.031 301.946 152.409C301.699 151.214 301.534 150.21 301.419 149.449C300.491 142.356 299.312 127.831 298.636 117.282C298.636 117.282 296.624 116.042 295.182 115.001C294.727 114.691 294.302 114.339 293.912 113.951L293.879 113.913C293.248 113.165 292.543 110.569 291.377 107.821C291.323 107.697 291.269 107.568 291.212 107.44C291.154 107.312 291.109 107.205 291.051 107.085C290.993 106.965 290.89 106.729 290.804 106.556C290.762 106.457 290.713 106.361 290.668 106.266L292.436 106.2L293.619 106.155L305.858 105.7L306.6 105.671L307.816 105.613Z" fill="#37474F"/>
<path d="M293.438 113.731C294.49 114.195 295.489 114.77 296.419 115.447C297.408 116.104 298.311 116.869 299.263 117.575C299.3 117.6 299.263 117.662 299.226 117.637C298.224 117.013 297.165 116.468 296.192 115.827C295.201 115.24 294.264 114.565 293.393 113.81C293.36 113.777 293.397 113.715 293.438 113.731Z" fill="#263238"/>
<path d="M293.228 107.578C293.364 108.26 293.537 108.93 293.694 109.604C293.85 110.277 293.945 110.885 294.106 111.513C294.25 112.119 294.565 112.669 295.013 113.101C295.264 113.332 295.54 113.514 295.808 113.741C295.953 113.853 296.109 113.96 296.258 114.076C296.258 113.985 296.221 113.894 296.204 113.803C296.155 113.543 296.109 113.287 296.064 113.026C295.961 112.456 295.862 111.881 295.767 111.307C295.577 110.182 295.404 109.041 295.157 107.925C295.16 107.918 295.164 107.912 295.171 107.907C295.177 107.903 295.184 107.9 295.192 107.9C295.2 107.9 295.207 107.903 295.214 107.907C295.22 107.912 295.225 107.918 295.227 107.925C295.52 109.029 295.845 110.12 296.105 111.232C296.229 111.778 296.69 114.481 296.715 114.671C296.74 114.862 296.756 115.085 296.765 115.267C296.79 115.468 296.79 115.672 296.765 115.874C296.761 115.883 296.754 115.891 296.746 115.896C296.738 115.901 296.729 115.904 296.719 115.904C296.71 115.904 296.7 115.901 296.692 115.896C296.684 115.891 296.678 115.883 296.674 115.874C296.589 115.687 296.528 115.49 296.493 115.287C296.443 115.093 296.398 114.899 296.361 114.704C296.361 114.63 296.336 114.56 296.324 114.485C296.056 114.328 295.804 114.117 295.557 113.94C295.31 113.762 295.009 113.564 294.732 113.353C294.259 112.961 293.914 112.435 293.743 111.844C293.573 111.209 293.459 110.56 293.401 109.905C293.306 109.137 293.236 108.364 293.116 107.599C293.154 107.553 293.22 107.533 293.228 107.578Z" fill="#263238"/>
<path d="M307.824 84.4345V89.2831L307.128 89.217C307.087 89.1054 307.041 88.9855 306.996 88.8574L306.876 88.5019C306.823 88.3366 306.769 88.1588 306.716 87.9728C306.678 87.8571 306.646 87.7413 306.617 87.6173C306.588 87.4933 306.522 87.2701 306.481 87.0882C306.452 86.9725 306.423 86.8526 306.398 86.7327C306.373 86.6129 306.32 86.3855 306.287 86.2036C306.262 86.0879 306.242 85.968 306.225 85.8482C306.209 85.7283 306.163 85.5009 306.138 85.3191L306.089 84.9636C306.089 84.79 306.048 84.6164 306.031 84.4345C306.031 84.3188 306.031 84.1989 306.002 84.079C305.974 83.9591 305.978 83.7277 305.974 83.5499C305.969 83.3722 305.974 83.3143 305.974 83.1944C305.974 83.2275 305.945 83.3556 305.908 83.5499C305.871 83.7442 305.85 83.8723 305.809 84.079C305.809 84.1906 305.767 84.3105 305.747 84.4345C305.726 84.5585 305.689 84.7776 305.656 84.9636C305.656 85.0752 305.619 85.1951 305.598 85.3191C305.578 85.4431 305.541 85.6663 305.512 85.8482L305.462 86.2036C305.434 86.3773 305.409 86.555 305.384 86.7327L305.335 87.0882L305.273 87.6173C305.273 87.7372 305.244 87.8571 305.232 87.9728C305.232 88.1547 305.199 88.3324 305.186 88.5019C305.174 88.6714 305.166 88.7416 305.162 88.8574C305.162 88.907 305.162 88.9566 305.162 89.0062L304.935 88.9814L304.704 88.9566L304.481 88.9318H304.382L303.801 88.8656H303.764C303.739 88.7499 303.719 88.6342 303.694 88.5143C303.669 88.3944 303.636 88.1671 303.607 87.9852L303.558 87.6297C303.537 87.4602 303.517 87.2825 303.504 87.1006C303.504 86.9849 303.484 86.865 303.475 86.7451C303.467 86.6253 303.475 86.4351 303.475 86.2739C303.473 86.2547 303.473 86.2353 303.475 86.216C303.473 86.194 303.473 86.1719 303.475 86.1499V86.216C303.475 86.307 303.422 86.493 303.372 86.7451C303.372 86.8526 303.335 86.9683 303.311 87.1006C303.286 87.2329 303.249 87.4396 303.216 87.6297C303.216 87.7455 303.179 87.8612 303.162 87.9852C303.146 88.1092 303.104 88.3365 303.076 88.5143L303.039 88.7747L300.734 88.5143L298.949 88.3076L298.467 88.2497L296.257 87.9852L293.306 87.6297L292.576 87.5429C292.609 87.3941 292.638 87.2453 292.663 87.1006C292.687 86.9559 292.704 86.865 292.725 86.7451C292.745 86.6253 292.774 86.3897 292.791 86.216C292.807 86.0424 292.819 85.9763 292.828 85.8606C292.828 85.6787 292.856 85.5009 292.861 85.3315C292.861 85.2488 292.861 85.1661 292.861 85.0876V84.976C292.865 84.95 292.865 84.9235 292.861 84.8974C292.863 84.8907 292.863 84.8835 292.861 84.8768V84.8065C292.861 84.6412 292.861 84.4882 292.861 84.3394C292.819 82.8885 292.539 82.0494 292.543 82.3057C292.566 83.4301 292.39 84.5496 292.024 85.6125C291.811 86.2283 291.519 86.8134 291.154 87.3528H290.964L288.363 87.0345C287.803 86.9725 290.165 85.3811 290.21 83.6326C290.255 81.8841 289.237 80.0364 290.297 77.5315C290.585 76.8461 290.931 76.1865 291.331 75.5598C292.032 74.4561 292.696 73.6666 293.166 72.2199V72.1827C293.213 72.0112 293.244 71.8353 293.256 71.6577C293.384 70.4177 293.256 67.9375 293.85 65.6724C293.908 65.4367 293.978 65.2053 294.052 64.9779C294.173 64.6111 294.324 64.2545 294.501 63.9115C294.798 63.2866 295.225 62.7327 295.754 62.2871C296.282 61.8414 296.899 61.5144 297.564 61.328H297.593C298.726 60.9829 299.936 60.9766 301.073 61.3099C302.21 61.6432 303.225 62.3016 303.995 63.2046C307.049 64.4819 306.303 68.9916 305.982 71.4717C305.948 71.7463 305.948 72.0239 305.982 72.2984C306.093 73.3855 306.724 74.2205 307.449 75.1423V75.163L307.808 75.6259V84.3973C307.808 84.3973 307.82 84.4304 307.824 84.4345Z" fill="#263238"/>
<path d="M307.816 74.8662V75.5606L307.672 75.4077L307.458 75.1803V75.1597C306.942 74.634 306.505 74.0368 306.159 73.3864C305.775 72.6205 305.631 71.7557 305.747 70.9062C305.756 71.3817 305.838 71.8529 305.99 72.3034C306.098 72.6287 306.244 72.9396 306.427 73.2293C306.819 73.832 307.286 74.3821 307.816 74.8662Z" fill="#263238"/>
<path d="M294.447 63.9043C294.011 64.8265 293.688 65.798 293.483 66.7978C293.256 67.7981 293.071 68.8108 292.918 69.8153L292.663 71.3199C292.587 71.8048 292.464 72.2811 292.296 72.7418C291.911 73.6493 291.367 74.4798 290.688 75.193C290.345 75.5839 290.03 75.9982 289.744 76.4331C289.459 76.8848 289.225 77.3673 289.047 77.8715C288.884 78.3736 288.76 78.8877 288.676 79.4092C288.59 79.9337 288.568 80.4667 288.61 80.9965C288.652 81.5256 288.751 82.034 288.825 82.5259C288.902 83.0193 288.933 83.5189 288.915 84.0181C288.882 84.5157 288.731 84.9982 288.475 85.4258C288.219 85.8534 287.866 86.2139 287.444 86.4776C287.919 86.2518 288.331 85.9118 288.643 85.4877C288.955 85.0636 289.158 84.5687 289.233 84.047C289.286 83.5262 289.286 83.0012 289.233 82.4804C289.196 81.9596 289.117 81.4594 289.109 80.9675C289.103 79.9799 289.276 78.9995 289.62 78.0741C289.793 77.6205 290.011 77.1857 290.272 76.7761C290.547 76.3619 290.85 75.967 291.179 75.5939C291.519 75.1981 291.839 74.7842 292.135 74.3539C292.44 73.9124 292.687 73.433 292.869 72.9278C293.036 72.4253 293.153 71.9075 293.219 71.3819C293.297 70.8693 293.355 70.365 293.413 69.8566C293.536 68.8439 293.64 67.8312 293.788 66.8226C293.908 65.8299 294.129 64.852 294.447 63.9043Z" fill="#263238"/>
<path d="M299.91 80.716C298.925 86.3376 297.127 95.5182 293.636 99.9783C291.723 102.43 287.774 105.823 282.609 106.952V94.8527C282.963 94.6626 286.916 93.1538 288.343 91.8394C289.534 90.7399 291.505 86.0276 296.435 79.9348C298.636 77.2108 300.392 77.9589 299.91 80.716Z" fill="#FFBF9D"/>
<path d="M290.128 88.6648L297.931 92.3064C297.931 92.3064 299.527 86.0689 300.104 81.5923C300.701 76.9379 298.455 76.6031 295.19 80.9433C293.335 83.4024 291.643 85.9818 290.128 88.6648Z" fill="#225A4B"/>
<path d="M298.162 90.302C297.098 89.6861 293.627 88.2972 293.079 88.0616C292.778 87.9335 291.562 87.4912 291.265 87.3672C291.228 87.3672 291.208 87.4127 291.265 87.4292C291.83 87.6689 292.378 87.9707 292.943 88.2146C293.508 88.4584 296.971 90.0044 298.162 90.3475C298.17 90.3599 298.187 90.3144 298.162 90.302Z" fill="#263238"/>
<path d="M307.824 84.4305V107.888H305.685C301.653 107.888 297.148 107.864 293.928 107.831H293.289H293.199C292.514 107.831 291.904 107.831 291.385 107.806H290.206H289.554L289.608 107.446L289.658 107.091L289.736 106.562L289.785 106.206L289.864 105.677L289.913 105.321L289.991 104.792L290.041 104.437L290.119 103.908L290.173 103.552L290.202 103.341L290.247 103.023L290.301 102.668L290.375 102.139L290.428 101.783L290.503 101.258L290.556 100.899L290.63 100.374L290.684 100.014L290.762 99.489L290.812 99.1294L290.89 98.6045L290.94 98.2448L291.018 97.7199L291.067 97.3603L291.146 96.8353L291.199 96.4757L291.273 95.9507L291.311 95.6944C291.302 95.6833 291.295 95.6707 291.29 95.6572C291.29 95.6572 291.29 95.6242 291.261 95.6035C291.251 95.5878 291.243 95.5712 291.236 95.5539L291.187 95.4671C291.137 95.3679 291.071 95.2356 290.997 95.0785L290.836 94.7189C290.771 94.5577 290.7 94.3841 290.63 94.194C290.589 94.0782 290.544 93.9584 290.507 93.8344C290.47 93.7103 290.395 93.4913 290.346 93.3094C290.313 93.1937 290.284 93.0738 290.255 92.9498C290.226 92.8258 290.181 92.6026 290.152 92.4248C290.152 92.3297 290.119 92.2305 290.103 92.1313C290.103 92.1107 290.103 92.0859 290.103 92.0652C290.103 91.8916 290.066 91.718 290.057 91.5402C290.049 91.3625 290.057 91.3046 290.057 91.1848C290.057 91.0649 290.057 90.8293 290.086 90.6557C290.115 90.482 290.115 90.42 290.136 90.3002C290.136 90.2464 290.136 90.1886 290.165 90.1348C290.19 90.012 290.222 89.8906 290.259 89.7711C290.292 89.6595 290.334 89.5396 290.379 89.4156C290.424 89.2916 290.437 89.2544 290.474 89.1717C290.508 89.0803 290.546 88.9906 290.589 88.903C290.639 88.7873 290.692 88.6674 290.75 88.5476C290.808 88.4277 290.915 88.2003 291.005 88.0185L291.191 87.663L291.29 87.4852C291.29 87.4852 291.29 87.448 291.319 87.4274L291.484 87.1339C291.546 87.0181 291.616 86.8983 291.686 86.7784C291.756 86.6585 291.888 86.427 291.995 86.2493L292.209 85.8938L292.539 85.3647C292.568 85.3193 292.597 85.2697 292.63 85.2242C292.663 85.1787 292.72 85.0836 292.766 85.0092L292.828 84.91L293.104 84.4967L293.339 84.1412C293.454 83.9635 293.574 83.7857 293.693 83.6121L293.932 83.2566L294.295 82.7275L294.419 82.5498L294.493 82.4423L294.542 82.372C294.666 82.1902 294.79 82.0166 294.913 81.8471L295.169 81.4875L295.548 80.9625L295.812 80.6029C295.952 80.4169 296.08 80.2391 296.204 80.0779L296.476 79.7183C296.632 79.5116 296.768 79.338 296.888 79.1934C297.008 79.0487 297.098 78.9288 297.164 78.8585L297.205 78.8131L297.416 78.6105L297.469 78.5651C297.557 78.4833 297.65 78.406 297.745 78.3336C297.853 78.2509 297.96 78.1682 298.071 78.098C298.133 78.0528 298.198 78.0114 298.265 77.974C298.864 77.5878 299.546 77.3477 300.254 77.2731C300.963 77.1984 301.679 77.2912 302.346 77.5441C302.579 77.6337 302.805 77.7415 303.022 77.8665C303.151 77.9338 303.276 78.0083 303.397 78.0897C303.467 78.1313 303.534 78.1769 303.599 78.2261C303.782 78.3548 303.958 78.4928 304.127 78.6395L304.25 78.7511L304.296 78.7924L304.419 78.9081C304.489 78.9743 304.56 79.0404 304.626 79.1107C304.691 79.1809 304.782 79.2678 304.856 79.3504L305.108 79.6356C305.123 79.6528 305.136 79.6707 305.149 79.6894L305.388 79.987C305.512 80.1523 305.64 80.3259 305.759 80.5119C305.842 80.6277 305.92 80.7476 305.994 80.8716C306.101 81.041 306.208 81.2147 306.316 81.3965C306.382 81.5164 306.452 81.6363 306.522 81.7561L306.802 82.2811L306.979 82.6366C307.066 82.8102 307.152 82.9838 307.239 83.1657C307.293 83.2814 307.35 83.4013 307.404 83.5212C307.458 83.641 307.565 83.8684 307.643 84.0503C307.692 84.1577 307.742 84.2735 307.791 84.3851C307.791 84.3851 307.82 84.4264 307.824 84.4305Z" fill="#225A4B"/>
<path opacity="0.1" d="M289.649 107.071L289.6 107.426H307.816V107.071H289.649ZM289.777 106.186L289.728 106.542H307.816V106.186H289.777ZM289.905 105.301L289.855 105.657H307.816V105.301H289.905ZM290.033 104.417L289.983 104.772H307.816V104.413L290.033 104.417ZM290.164 103.532L290.111 103.888H307.816V103.532H290.164ZM290.292 102.648L290.239 103.003H307.816V102.648H290.292ZM290.42 101.763L290.366 102.119H307.816V101.763H290.42ZM290.548 100.879L290.494 101.238H307.808V100.879H290.548ZM290.676 99.994L290.622 100.354H307.816V99.994H290.676ZM290.803 99.1094L290.754 99.4691H307.816V99.1094H290.803ZM290.931 98.2249L290.882 98.5845H307.816V98.2125L290.931 98.2249ZM291.059 97.3403L291.01 97.6999H307.816V97.3403H291.059ZM291.191 96.4557L291.137 96.8153H307.816V96.4557H291.191ZM291.245 95.5711C291.245 95.5711 291.245 95.6083 291.273 95.6249C291.278 95.6383 291.285 95.6509 291.294 95.6621L291.257 95.9184H307.808V95.5587L291.245 95.5711ZM296.434 94.6866H290.919C290.96 94.8091 291.008 94.9291 291.063 95.0462H296.29L296.434 94.6866ZM290.82 94.6866L290.981 95.0462H307.816V94.6866H290.82ZM290.49 93.802C290.527 93.926 290.573 94.0459 290.614 94.1616H307.816V93.802H290.49ZM290.239 92.9174C290.268 93.0414 290.296 93.1613 290.329 93.277H307.816V92.9174H290.239ZM290.082 92.0328C290.08 92.041 290.08 92.0495 290.082 92.0576C290.082 92.1679 290.099 92.2795 290.131 92.3924H307.812V92.0328H290.082ZM305.269 91.5079C305.227 91.3963 305.19 91.2805 305.145 91.1524H298.224C298.195 91.2805 298.166 91.4004 298.137 91.5079H305.269ZM290.016 91.1524C290.016 91.2723 290.016 91.388 290.016 91.5079H307.795V91.1524H290.016ZM305.429 90.6233C305.388 90.5034 305.347 90.3877 305.31 90.2678H304.844L304.959 90.6233H305.429ZM290.094 90.2678C290.094 90.3877 290.057 90.5034 290.045 90.6233H307.804V90.2678H290.094ZM290.338 89.3832C290.292 89.5072 290.251 89.6271 290.218 89.7387H307.804V89.3832H290.338ZM290.713 88.4987C290.655 88.6185 290.601 88.7384 290.552 88.8541H307.804V88.4987H290.713ZM291.154 87.6141L290.968 87.9696H307.804V87.6141H291.154ZM304.221 88.4987H294.147L295.004 88.8541H304.329L304.259 88.5979L304.221 88.4987ZM291.648 86.7295C291.578 86.8494 291.508 86.9692 291.447 87.085H307.804V86.7295H291.648ZM292.172 85.8449L291.958 86.2004H307.804V85.8449H292.172ZM303.681 86.7295C303.727 86.8452 303.772 86.961 303.822 87.0767H303.846C303.813 86.9568 303.784 86.8411 303.756 86.7212L303.681 86.7295ZM292.729 84.9603C292.683 85.0347 292.634 85.105 292.593 85.1753C292.551 85.2456 292.531 85.2704 292.502 85.3158H307.804V84.9603H292.729ZM307.804 84.4147C307.754 84.3031 307.705 84.1874 307.655 84.0799H293.314L293.079 84.4354H307.824C307.824 84.4354 307.82 84.4188 307.816 84.4147H307.804ZM307.251 83.1747H293.895L293.656 83.5301H307.416C307.375 83.4268 307.317 83.3069 307.264 83.1912L307.251 83.1747ZM306.814 82.2901H294.513L294.464 82.3603L294.39 82.4678L294.266 82.6456H307.004L306.814 82.2901ZM293.932 83.1747L293.767 83.4433L293.71 83.5301H299.394C299.419 83.4103 299.44 83.2904 299.46 83.1747H293.932ZM306.328 81.4055H295.144L294.889 81.7651H306.546C306.468 81.6783 306.406 81.5419 306.34 81.422L306.328 81.4055ZM305.771 80.5209H295.787L295.523 80.8805H306.019C305.945 80.7676 305.866 80.6532 305.784 80.5375L305.771 80.5209ZM305.396 79.9877L305.157 79.6901C305.144 79.6714 305.131 79.6535 305.116 79.6363H296.459L296.162 80.0249H305.396H305.409L305.396 79.9877ZM304.428 78.9088L304.3 78.7931L304.254 78.7518H297.156C297.09 78.822 296.999 78.9336 296.88 79.0866H304.667C304.58 79.0576 304.51 78.9915 304.44 78.9254L304.428 78.9088ZM297.49 79.6363C297.524 79.7614 297.572 79.8821 297.634 79.996H302.816C302.837 79.8743 302.866 79.7542 302.902 79.6363H297.49ZM303.397 78.0904C303.276 78.009 303.151 77.9345 303.022 77.8672H298.257C298.19 77.9046 298.125 77.946 298.063 77.9912C297.951 78.0615 297.844 78.1441 297.737 78.2268H303.611C303.546 78.1832 303.479 78.1432 303.409 78.1069L303.397 78.0904Z" fill="black"/>
<path d="M302.247 78.3717C302.107 78.7437 300.483 80.2359 298.784 79.7233C297.96 79.4795 298.059 77.4581 298.059 77.4581L298.038 77.2184L297.733 73.8868L301.855 71.9357L302.445 71.6836C302.445 71.6836 302.47 72.6012 302.486 73.7504V73.9116C302.486 73.9777 302.486 74.0397 302.486 74.0976C302.486 74.2712 302.486 74.4448 302.486 74.6184C302.486 74.792 302.486 74.8788 302.486 75.0318C302.486 75.1847 302.486 75.3046 302.486 75.4451C302.472 76.4249 302.392 77.4026 302.247 78.3717Z" fill="#FFBF9D"/>
<path d="M302.478 73.7638C302.034 74.6311 301.406 75.391 300.64 75.9907C299.873 76.5903 298.985 77.0152 298.038 77.236L297.733 73.9043L301.855 71.9533L302.445 71.7012C302.445 71.7012 302.461 72.6188 302.478 73.7638Z" fill="#FF9A6C"/>
<path d="M293.504 68.9892C293.038 74.8505 296.488 75.7888 297.746 75.888C298.892 75.979 302.795 76.1402 303.863 70.3615C304.931 64.5828 302.358 62.5078 299.741 62.1688C297.123 61.8299 293.97 63.1319 293.504 68.9892Z" fill="#FFBF9D"/>
<path d="M294.489 67.7454C294.625 67.7454 294.753 67.6958 294.901 67.6669C295.053 67.661 295.198 67.6042 295.314 67.5056C295.342 67.4689 295.357 67.4238 295.357 67.3775C295.357 67.3312 295.342 67.2861 295.314 67.2494C295.248 67.1853 295.166 67.14 295.077 67.1182C294.988 67.0964 294.895 67.0989 294.807 67.1254C294.62 67.1494 294.449 67.244 294.328 67.3899C294.305 67.4219 294.29 67.4596 294.286 67.4992C294.282 67.5388 294.288 67.5788 294.305 67.6151C294.321 67.6514 294.347 67.6826 294.379 67.7055C294.412 67.7284 294.45 67.7422 294.489 67.7454Z" fill="#263238"/>
<path d="M298.319 67.9509C298.182 67.9302 298.059 67.893 297.906 67.86C297.763 67.8507 297.628 67.7923 297.523 67.6946C297.495 67.6578 297.48 67.6128 297.48 67.5665C297.48 67.5202 297.495 67.4751 297.523 67.4383C297.59 67.3757 297.673 67.332 297.763 67.3117C297.853 67.2914 297.946 67.2952 298.034 67.3226C298.221 67.3505 298.39 67.4479 298.508 67.5954C298.533 67.6294 298.548 67.6697 298.551 67.7118C298.554 67.7539 298.545 67.796 298.525 67.8332C298.505 67.8704 298.476 67.9012 298.439 67.9221C298.402 67.9429 298.361 67.9529 298.319 67.9509Z" fill="#263238"/>
<path d="M297.399 69.4258C297.399 69.4258 297.432 69.4258 297.428 69.463C297.403 69.8763 297.428 70.3228 297.799 70.4674C297.799 70.4674 297.799 70.4922 297.799 70.4881C297.358 70.4137 297.317 69.7978 297.399 69.4258Z" fill="#263238"/>
<path d="M297.775 69.0239C298.418 68.995 298.426 70.2846 297.828 70.3136C297.231 70.3425 297.235 69.0446 297.775 69.0239Z" fill="#263238"/>
<path d="M298.026 69.0863C298.141 69.1565 298.253 69.2847 298.389 69.2971C298.525 69.3095 298.661 69.1772 298.764 69.0449H298.784C298.784 69.2929 298.698 69.5451 298.434 69.5864C298.17 69.6277 298.022 69.4004 297.956 69.1524C297.943 69.1235 297.981 69.0573 298.026 69.0863Z" fill="#263238"/>
<path d="M295.247 69.2168C295.247 69.2168 295.218 69.2375 295.218 69.254C295.218 69.6674 295.189 70.1138 294.831 70.2502V70.275C295.272 70.2047 295.338 69.5929 295.247 69.2168Z" fill="#263238"/>
<path d="M294.885 68.8035C294.242 68.7663 294.213 70.0436 294.806 70.0932C295.4 70.1428 295.425 68.8366 294.885 68.8035Z" fill="#263238"/>
<path d="M294.617 68.8656C294.514 68.9318 294.407 69.0558 294.287 69.0599C294.168 69.0641 294.044 68.9235 293.957 68.7871C293.957 69.0351 294.019 69.2914 294.254 69.3451C294.489 69.3989 294.633 69.1881 294.699 68.9318C294.691 68.9277 294.658 68.8656 294.617 68.8656Z" fill="#263238"/>
<path d="M297.716 72.5862C297.634 72.6937 297.56 72.8342 297.42 72.8673C297.272 72.884 297.122 72.8714 296.979 72.8301C296.954 72.8301 296.979 72.8301 296.979 72.8301C297.046 72.8999 297.131 72.9499 297.225 72.9747C297.319 72.9994 297.417 72.998 297.51 72.9707C297.592 72.9384 297.661 72.8809 297.708 72.8066C297.754 72.7322 297.776 72.6449 297.77 72.5573C297.762 72.5532 297.729 72.549 297.716 72.5862Z" fill="#263238"/>
<path d="M295.833 71.0151C295.833 71.0151 295.746 71.6144 295.746 71.8955C295.746 71.9203 295.812 71.9327 295.907 71.941C296.148 71.9876 296.396 71.9663 296.626 71.8795C296.855 71.7926 297.056 71.6436 297.205 71.4491C297.226 71.4202 297.205 71.3912 297.164 71.4078C296.801 71.6561 296.366 71.7768 295.928 71.7509C295.928 71.6723 296.109 70.734 296.064 70.7299C295.846 70.7499 295.631 70.7971 295.425 70.8704C295.565 69.6303 295.907 68.3903 296.031 67.1502C296.031 67.1047 295.969 67.0923 295.956 67.1502C295.55 68.442 295.274 69.7714 295.132 71.1184C295.14 71.2714 295.717 71.0647 295.833 71.0151Z" fill="#263238"/>
<path d="M295.928 71.862C296.093 72.1 296.315 72.292 296.575 72.42C296.717 72.4879 296.878 72.5068 297.032 72.4737C297.366 72.4076 297.391 72.1017 297.346 71.8372C297.32 71.6951 297.279 71.5564 297.222 71.4238C296.848 71.7049 296.395 71.8584 295.928 71.862Z" fill="#263238"/>
<path d="M296.575 72.4189C296.717 72.4868 296.878 72.5057 297.032 72.4726C297.366 72.4065 297.391 72.1006 297.345 71.8361C297.17 71.8329 297 71.8886 296.86 71.9942C296.72 72.0999 296.62 72.2494 296.575 72.4189Z" fill="#FF9A6C"/>
<path d="M303.694 69.9423C303.059 69.9051 301.41 68.1525 301.361 65.0854C301.361 65.0854 301.596 67.8383 301.802 68.2434C302.008 68.6485 300.878 67.2555 300.804 64.7836C300.027 65.3405 299.175 65.7831 298.273 66.0981C297.107 66.4246 296.393 66.4122 296.307 66.3296C296.22 66.2469 297.956 65.7054 298.405 65.1681C298.405 65.1681 295.305 66.6107 293.871 66.7223C293.706 66.7223 293.508 63.3245 295.717 61.8778C297.927 60.431 301.431 61.9935 302.371 62.907C302.371 62.907 303.476 63.0641 304.675 64.7051C305.875 66.3461 304.378 69.9836 303.694 69.9423Z" fill="#263238"/>
<path d="M302.453 70.7862C302.453 70.7862 303.628 68.8848 304.485 69.294C305.343 69.7033 304.527 72.4107 303.574 72.8323C303.456 72.8941 303.326 72.9312 303.193 72.9415C303.059 72.9518 302.926 72.935 302.799 72.8922C302.672 72.8493 302.556 72.7813 302.456 72.6922C302.356 72.6031 302.275 72.4947 302.218 72.3735L302.453 70.7862Z" fill="#FFBF9D"/>
<path d="M304.234 70.0645C304.234 70.0645 304.234 70.0645 304.234 70.0934C303.928 70.2672 303.662 70.5046 303.454 70.7898C303.247 71.0749 303.102 71.4012 303.03 71.7468C303.066 71.6736 303.117 71.6092 303.18 71.5582C303.243 71.5073 303.317 71.471 303.396 71.452C303.475 71.433 303.557 71.4318 303.636 71.4485C303.716 71.4652 303.79 71.4993 303.855 71.5484V71.5897C303.733 71.557 303.604 71.5633 303.486 71.6078C303.367 71.6522 303.266 71.7326 303.195 71.8377C303.081 72.0149 302.984 72.2033 302.907 72.3999C302.878 72.4619 302.767 72.4371 302.787 72.3668C302.697 71.4657 303.303 70.205 304.234 70.0645Z" fill="#FF9A6C"/>
<path d="M302.758 72.7377C302.766 72.8174 302.796 72.8934 302.845 72.9563C302.895 73.0192 302.961 73.0664 303.037 73.092C303.113 73.1177 303.194 73.1208 303.271 73.1008C303.349 73.0809 303.419 73.0389 303.473 72.9799C303.527 72.9209 303.562 72.8474 303.576 72.7684C303.589 72.6894 303.579 72.6083 303.547 72.5349C303.515 72.4615 303.462 72.399 303.395 72.355C303.329 72.311 303.25 72.2874 303.171 72.2871C303.113 72.2869 303.056 72.2987 303.004 72.3217C302.951 72.3448 302.904 72.3786 302.865 72.421C302.826 72.4634 302.797 72.5135 302.778 72.568C302.76 72.6226 302.753 72.6803 302.758 72.7377Z" fill="white"/>
<path d="M307.825 84.4335V97.4666L307.779 97.3426L307.594 96.8176C307.548 96.6977 307.507 96.5779 307.466 96.458L307.281 95.933L307.153 95.5734L306.967 95.0485C306.926 94.9286 306.885 94.8087 306.839 94.6888C306.794 94.569 306.72 94.3375 306.658 94.1639C306.596 93.9903 306.576 93.9241 306.53 93.8043C306.485 93.6844 306.411 93.4529 306.349 93.2793L306.225 92.9197L306.114 92.5849V92.5518L306.064 92.4113L305.941 92.0516C305.879 91.8739 305.821 91.7003 305.764 91.5267C305.764 91.4853 305.735 91.444 305.722 91.4068C305.721 91.3862 305.721 91.3654 305.722 91.3448C305.702 91.2869 305.681 91.2291 305.665 91.1712C305.603 90.9935 305.545 90.8157 305.487 90.6421C305.43 90.4685 305.405 90.4065 305.368 90.2866C305.331 90.1667 305.248 89.9311 305.191 89.7575C305.133 89.5839 305.112 89.5178 305.075 89.402C305.038 89.2863 304.984 89.1292 304.943 88.9887C304.943 88.9473 304.914 88.906 304.902 88.8647C304.865 88.7448 304.824 88.6249 304.787 88.5092C304.729 88.3315 304.671 88.1537 304.618 87.9801L304.506 87.6246C304.449 87.4469 304.391 87.2691 304.341 87.0955C304.292 86.9219 304.263 86.8558 304.23 86.74C304.172 86.5582 304.119 86.3846 304.069 86.211C304.02 86.0373 303.995 85.9712 303.962 85.8555C303.908 85.6736 303.855 85.5 303.805 85.3264C303.756 85.1528 303.735 85.0866 303.702 84.9709C303.649 84.789 303.599 84.6113 303.554 84.4418C303.509 84.2723 303.488 84.202 303.455 84.0863C303.422 83.9706 303.377 83.7887 303.34 83.644C303.338 83.6151 303.338 83.5861 303.34 83.5572C303.307 83.4332 303.278 83.3175 303.253 83.2017C303.208 83.0199 303.171 82.8421 303.138 82.6726C303.105 82.5032 303.092 82.4329 303.072 82.3171C303.039 82.1353 303.014 81.9575 302.993 81.7922C302.973 81.6269 302.964 81.5483 302.956 81.4326C302.956 81.2466 302.932 81.073 302.932 80.9076C302.932 80.7423 302.932 80.6596 302.932 80.548C302.941 80.3721 302.96 80.1968 302.989 80.023C303.007 79.9008 303.036 79.7805 303.076 79.6634C303.129 79.4729 303.219 79.2946 303.34 79.1385C303.417 79.0362 303.516 78.9519 303.629 78.8913C303.742 78.8307 303.867 78.7951 303.995 78.7871C304.098 78.7874 304.201 78.8013 304.3 78.8284C304.861 78.9607 305.557 79.4485 306.361 80.3124C306.839 80.8415 307.33 81.4119 307.821 82.0237V84.4335C307.821 84.4335 307.821 84.4294 307.825 84.4335Z" fill="#FFBF9D"/>
<path d="M307.824 84.4328V91.7574L307.223 92.0344L306.439 92.394L306.109 92.5428L305.697 92.7205C305.697 92.7205 305.652 92.6048 305.574 92.3857C305.537 92.2865 305.495 92.1666 305.446 92.0261C305.396 91.8856 305.33 91.6995 305.264 91.5011C305.223 91.3895 305.186 91.2738 305.141 91.1456L304.968 90.6166L304.852 90.2611C304.803 90.0916 304.745 89.918 304.687 89.732C304.65 89.6162 304.617 89.5005 304.58 89.3765L304.44 88.9218C304.435 88.8965 304.428 88.8716 304.419 88.8474C304.386 88.7317 304.349 88.6159 304.312 88.4919C304.275 88.3679 304.213 88.1447 304.164 87.9628C304.131 87.8471 304.098 87.7272 304.061 87.6073C304.024 87.4875 303.966 87.256 303.916 87.0782C303.867 86.9005 303.855 86.8426 303.826 86.7228C303.797 86.6029 303.731 86.3714 303.686 86.1937C303.657 86.0779 303.624 85.9581 303.595 85.8382C303.566 85.7183 303.508 85.4868 303.463 85.3091C303.418 85.1313 303.405 85.0735 303.381 84.9536C303.356 84.8337 303.335 84.7759 303.315 84.6849C303.294 84.594 303.273 84.5113 303.257 84.4245C303.24 84.3377 303.199 84.1889 303.174 84.069L303.125 83.8458C303.1 83.7425 303.08 83.6391 303.059 83.5399C303.038 83.4407 303.01 83.3002 302.989 83.1845C302.956 83.0026 302.923 82.8248 302.898 82.6554C302.874 82.4859 302.861 82.4156 302.845 82.2999C302.824 82.118 302.803 81.9444 302.787 81.7749L302.762 81.4153C302.762 81.2293 302.762 81.0557 302.762 80.8903C302.762 80.725 302.762 80.6423 302.762 80.5307C302.773 80.3547 302.794 80.1794 302.824 80.0058C302.845 79.8841 302.874 79.764 302.911 79.6461C302.96 79.4594 303.039 79.282 303.146 79.1212C303.239 78.9702 303.369 78.8462 303.525 78.7616C303.711 78.66 303.925 78.6209 304.135 78.65C304.815 78.7244 305.722 79.332 306.798 80.5183C307.128 80.8862 307.466 81.2748 307.808 81.6798V84.408C307.808 84.408 307.82 84.4286 307.824 84.4328Z" fill="#225A4B"/>
<path d="M306.056 92.5321C305.947 92.5795 305.832 92.6129 305.714 92.6313C305.664 92.3172 305.26 90.9779 305.157 90.639C304.951 89.928 304.745 89.2253 304.527 88.5143C304.114 87.0965 303.702 85.6746 303.29 84.2609C303.29 84.232 303.241 84.2609 303.245 84.2609C303.426 85.2654 303.657 86.2574 303.908 87.2412C303.838 87.0717 303.768 86.8981 303.702 86.7245C303.57 86.3814 303.447 86.0383 303.29 85.6994C303.29 85.6939 303.288 85.6886 303.284 85.6848C303.28 85.6809 303.275 85.6787 303.269 85.6787C303.264 85.6787 303.259 85.6809 303.255 85.6848C303.251 85.6886 303.249 85.6939 303.249 85.6994C303.34 86.0612 303.46 86.4151 303.607 86.7576C303.719 87.0221 303.846 87.2825 303.97 87.5429C304.061 87.886 304.152 88.2291 304.246 88.5722C304.44 89.2873 304.659 89.9983 304.865 90.701C304.972 91.0399 305.083 91.3747 305.194 91.7095C305.319 92.072 305.476 92.422 305.664 92.7553C305.807 92.7043 305.945 92.6406 306.077 92.5652C306.134 92.5693 306.101 92.5156 306.056 92.5321Z" fill="#263238"/>
<path d="M307.816 90.2441V90.4797L307.503 90.6244L307.4 90.6699C307.017 90.8435 306.625 90.9923 306.237 91.1535C306.056 91.2279 305.875 91.3065 305.697 91.3891C305.66 91.3891 305.627 91.3519 305.664 91.3313H305.685L306.023 91.1576L307.045 90.6286C307.194 90.5542 307.317 90.488 307.392 90.4549L307.771 90.2731L307.816 90.2441Z" fill="#263238"/>
<path d="M297.445 78.373C297.445 78.373 297.473 78.373 297.469 78.373C297.354 79.117 297.395 79.9065 298.001 80.4397C298.607 80.973 299.51 80.82 300.207 80.6754C300.933 80.5285 301.618 80.2237 302.214 79.7825C302.738 79.3692 303.175 78.5714 302.709 77.9059C302.709 77.8728 302.709 77.8563 302.734 77.8811C302.915 78.0743 303.032 78.3194 303.068 78.5824C303.105 78.8454 303.058 79.1132 302.936 79.3485C302.597 79.9138 302.081 80.3501 301.468 80.5886C300.821 80.8941 300.121 81.071 299.407 81.1094C299.091 81.1546 298.769 81.117 298.472 81.0004C298.175 80.8838 297.914 80.692 297.713 80.4439C297.51 80.1436 297.38 79.7999 297.333 79.4403C297.287 79.0807 297.325 78.7152 297.445 78.373Z" fill="#263238"/>
<path d="M307.887 187.322C307.862 187.384 307.837 187.442 307.816 187.504V187.409L307.887 187.322Z" fill="#A6A6A6"/>
<path d="M123.295 207.209C122.351 207.515 95.5602 207.168 94.5502 206.502C94.1586 206.259 93.9854 202.34 93.9071 197.599C93.9071 197.549 93.9071 197.5 93.9071 197.45C93.9071 196.475 93.8783 195.47 93.8741 194.449C93.8741 194.309 93.8741 194.168 93.8741 194.036L95.1768 180.102L113.096 180.279L111.328 194.085V194.635L111.221 197.491V197.785C111.221 197.785 121.415 202.518 122.45 203.365C123.484 204.213 124.235 206.924 123.295 207.209Z" fill="#FFBF9D"/>
<path d="M123.295 207.209C122.351 207.515 95.5602 207.167 94.5502 206.502C94.1586 206.258 93.9854 202.339 93.9071 197.598C93.9071 197.549 93.9071 197.499 93.9071 197.449C93.9071 196.474 93.8783 195.469 93.8741 194.449C93.8741 194.308 93.8741 194.167 93.8741 194.035L111.328 194.085V194.635L111.221 197.491V197.784C111.221 197.784 121.415 202.517 122.45 203.365C123.484 204.212 124.235 206.924 123.295 207.209Z" fill="#EBEBEB"/>
<path d="M123.295 207.212C122.813 207.369 115.533 207.353 108.418 207.212C106.987 207.183 105.565 207.15 104.209 207.113C99.1343 206.972 94.9419 206.766 94.5503 206.509C94.1587 206.253 93.9897 202.459 93.9114 197.804C93.9114 197.738 93.9114 197.672 93.9114 197.606C93.9114 197.54 93.9114 197.503 93.9114 197.457H93.932L111.2 197.486V197.784C111.2 197.784 121.399 202.512 122.429 203.36C123.46 204.207 124.235 206.927 123.295 207.212Z" fill="#225A4B"/>
<path d="M123.002 206.164C118.489 205.995 100.26 205.751 95.7954 205.912C95.7583 205.912 95.7583 205.941 95.7954 205.941C100.264 206.21 118.493 206.317 123.002 206.239C123.097 206.239 123.097 206.168 123.002 206.164Z" fill="#263238"/>
<path d="M113.134 197.561C111.361 197.205 109.18 197.449 107.808 198.702C107.754 198.751 107.808 198.826 107.882 198.809C109.587 198.28 111.343 197.936 113.121 197.784C113.151 197.786 113.18 197.776 113.202 197.756C113.224 197.736 113.237 197.708 113.239 197.679C113.24 197.649 113.23 197.62 113.211 197.598C113.191 197.576 113.163 197.563 113.134 197.561Z" fill="#263238"/>
<path d="M114.37 198.352C112.598 197.992 110.421 198.24 109.048 199.493C108.995 199.538 109.048 199.617 109.123 199.596C110.831 199.069 112.59 198.727 114.37 198.575C114.4 198.575 114.428 198.563 114.449 198.542C114.47 198.521 114.481 198.493 114.481 198.463C114.481 198.434 114.47 198.405 114.449 198.384C114.428 198.364 114.4 198.352 114.37 198.352Z" fill="#263238"/>
<path d="M115.66 199.141C113.888 198.786 111.711 199.029 110.338 200.282C110.285 200.331 110.338 200.406 110.413 200.389C112.118 199.861 113.874 199.519 115.652 199.368C115.679 199.364 115.703 199.351 115.721 199.331C115.739 199.311 115.749 199.285 115.75 199.258C115.751 199.231 115.743 199.205 115.726 199.183C115.71 199.162 115.687 199.147 115.66 199.141Z" fill="#263238"/>
<path d="M108.418 207.21C106.987 207.181 105.565 207.148 104.209 207.111C99.1343 206.97 94.9419 206.764 94.5503 206.508C94.1587 206.251 93.9897 202.457 93.9114 197.802C93.9114 197.736 93.9114 197.67 93.9114 197.604C93.9114 197.538 93.9114 197.501 93.9114 197.455H93.932C96.2899 199.117 104.625 204.681 108.418 207.21Z" fill="#263238"/>
<path d="M112.264 197.543H92.9673C92.9673 197.543 96.8505 152.363 96.7021 151.566C96.5083 150.553 89.3067 122.28 87.9258 116.935C85.8646 108.924 84.2157 102.703 84.2157 102.703H100.569C100.569 102.703 102.473 108.759 104.877 116.641C108.793 129.455 114.02 147.085 114.539 151.363C115.388 158.291 112.264 197.543 112.264 197.543Z" fill="#455A64"/>
<path d="M111.514 194.243C108.566 194.181 109.415 194.156 106.468 194.128C105.025 194.128 95.5438 194.032 94.1958 194.256C94.1882 194.256 94.1809 194.259 94.1754 194.264C94.17 194.27 94.167 194.277 94.167 194.285C94.167 194.292 94.17 194.3 94.1754 194.305C94.1809 194.31 94.1882 194.314 94.1958 194.314C95.5438 194.541 105.025 194.458 106.468 194.442C109.415 194.413 108.566 194.388 111.514 194.33C111.567 194.326 111.567 194.243 111.514 194.243Z" fill="#263238"/>
<path d="M100.437 148.8C99.802 146.006 98.858 143.266 98.0335 140.533C96.3626 134.959 94.6807 129.384 92.9879 123.809C92.1442 121.023 91.2963 118.237 90.4444 115.451C90.0102 114.046 89.576 112.642 89.1418 111.239C88.7295 109.862 88.2225 108.503 87.835 107.105C87.6784 106.539 87.5918 106.849 87.7938 107.564C88.206 109.011 88.6182 110.458 89.0305 111.892C89.8549 114.744 90.6917 117.594 91.5409 120.44C93.2118 126.111 94.8992 131.776 96.6031 137.433C97.4523 140.274 98.3028 143.113 99.1548 145.948C99.5864 147.303 99.9347 148.684 100.198 150.082C100.42 151.534 100.472 153.007 100.354 154.472C100.169 157.431 99.8267 160.387 99.5546 163.342C99.2826 166.298 99.0064 169.261 98.7302 172.221C98.1805 178.113 97.6419 184.003 97.1143 189.892C97.0442 190.636 96.9823 191.384 96.9246 192.132C96.904 192.38 97.2833 192.364 97.308 192.132C97.9428 186.308 98.4293 180.463 98.9775 174.631C99.5258 168.798 100.062 163.02 100.602 157.216C100.738 155.761 100.894 154.298 100.894 152.835C100.893 151.477 100.74 150.124 100.437 148.8Z" fill="#263238"/>
<path d="M98.8334 102.703C97.8358 110.478 96.4466 136.598 96.1374 148.829C94.2907 141.422 89.1749 121.354 88.033 116.935L84.3683 102.815C84.3699 102.79 84.3699 102.765 84.3683 102.74C84.3675 102.732 84.3675 102.724 84.3683 102.716L98.8334 102.703Z" fill="#263238"/>
<path d="M103.145 207.209C102.205 207.515 75.4147 207.168 74.4007 206.502C74.0132 206.259 73.8359 202.34 73.7576 197.599V197.45C73.7576 196.475 73.7246 195.47 73.7246 194.449C73.7246 194.309 73.7246 194.168 73.7246 194.036L75.0231 180.102L92.9468 180.279L91.1783 194.085V194.635L91.0711 197.491V197.785C91.0711 197.785 101.27 202.518 102.304 203.365C103.339 204.213 104.085 206.924 103.145 207.209Z" fill="#FFBF9D"/>
<path d="M103.145 207.209C102.205 207.515 75.4147 207.167 74.4007 206.502C74.0132 206.258 73.8359 202.339 73.7576 197.598V197.449C73.7576 196.474 73.7246 195.469 73.7246 194.449C73.7246 194.308 73.7246 194.167 73.7246 194.035L91.1783 194.085V194.635L91.0711 197.491V197.784C91.0711 197.784 101.27 202.517 102.304 203.365C103.339 204.212 104.085 206.924 103.145 207.209Z" fill="#EBEBEB"/>
<path d="M103.149 207.212C102.663 207.369 95.383 207.352 88.2679 207.212C86.8375 207.183 85.4153 207.15 84.0591 207.113C78.9846 206.968 74.7963 206.761 74.4047 206.513C74.0131 206.265 73.8441 202.463 73.7657 197.808C73.7657 197.742 73.7657 197.676 73.7657 197.61C73.7657 197.544 73.7657 197.506 73.7657 197.461L91.034 197.49V197.787C91.034 197.787 101.228 202.516 102.263 203.364C103.298 204.211 104.085 206.927 103.149 207.212Z" fill="#225A4B"/>
<path d="M102.857 206.164C98.3221 205.995 80.114 205.751 75.6496 205.912C75.6125 205.912 75.6125 205.941 75.6496 205.941C80.1223 206.21 98.351 206.317 102.857 206.239C102.951 206.239 102.951 206.168 102.857 206.164Z" fill="#263238"/>
<path d="M92.9675 197.561C91.1949 197.205 89.0183 197.449 87.6456 198.702C87.592 198.751 87.6456 198.826 87.7198 198.809C89.4245 198.28 91.1811 197.936 92.9592 197.784C92.9738 197.785 92.9884 197.782 93.0021 197.777C93.0158 197.772 93.0284 197.764 93.0391 197.754C93.0499 197.744 93.0585 197.732 93.0646 197.719C93.0707 197.706 93.0741 197.691 93.0746 197.677C93.0752 197.662 93.0728 197.647 93.0678 197.634C93.0627 197.62 93.0549 197.607 93.045 197.597C93.035 197.586 93.023 197.577 93.0097 197.571C92.9964 197.565 92.9821 197.561 92.9675 197.561Z" fill="#263238"/>
<path d="M94.2415 198.352C92.4689 197.992 90.2923 198.24 88.9155 199.493C88.8619 199.538 88.9155 199.617 88.9897 199.596C90.6964 199.07 92.4542 198.728 94.2332 198.575C94.2479 198.576 94.2624 198.573 94.2762 198.568C94.2899 198.563 94.3024 198.555 94.3132 198.545C94.3239 198.535 94.3325 198.523 94.3386 198.51C94.3447 198.497 94.3481 198.482 94.3487 198.468C94.3492 198.453 94.3469 198.438 94.3418 198.424C94.3367 198.411 94.3289 198.398 94.319 198.387C94.309 198.377 94.2971 198.368 94.2838 198.362C94.2705 198.356 94.2561 198.352 94.2415 198.352Z" fill="#263238"/>
<path d="M95.5149 199.141C93.7423 198.786 91.5658 199.029 90.1889 200.282C90.1354 200.331 90.1889 200.406 90.2631 200.389C91.9681 199.862 93.7247 199.52 95.5026 199.368C95.5293 199.365 95.5541 199.352 95.5725 199.332C95.5909 199.313 95.6017 199.287 95.6032 199.26C95.6047 199.233 95.5967 199.206 95.5805 199.184C95.5644 199.163 95.5412 199.147 95.5149 199.141Z" fill="#263238"/>
<path d="M100.058 102.703C100.058 102.703 99.6786 110.557 97.8895 116.757C97.7452 117.27 97.5886 117.778 97.4195 118.262C97.4195 118.262 97.671 118.063 94.8225 119.812C94.8225 119.812 95.9232 151.012 95.9685 152.88C96.1293 159.845 91.0795 197.832 91.0795 197.832L71.7872 197.911C71.7872 197.911 78.6797 154.844 78.6549 152.285C78.6178 148.18 76.1816 130.348 76.936 117.129C77.2597 112.105 78.5932 107.198 80.8562 102.703H100.058Z" fill="#455A64"/>
<path d="M90.5272 194.389C87.5798 194.339 88.4248 194.31 85.4774 194.294C84.0346 194.294 74.5575 194.244 73.2095 194.475C73.2019 194.475 73.1945 194.478 73.1891 194.484C73.1837 194.489 73.1807 194.497 73.1807 194.504C73.1807 194.512 73.1837 194.519 73.1891 194.525C73.1945 194.53 73.2019 194.533 73.2095 194.533C74.5575 194.752 84.0346 194.628 85.4774 194.608C88.4248 194.566 87.5798 194.546 90.5272 194.471C90.5381 194.471 90.5486 194.467 90.5564 194.459C90.5641 194.451 90.5684 194.441 90.5684 194.43C90.5684 194.419 90.5641 194.408 90.5564 194.401C90.5486 194.393 90.5381 194.389 90.5272 194.389Z" fill="#263238"/>
<path d="M82.1135 103.872C79.6731 108.576 78.762 113.929 78.5642 119.167C78.3498 124.867 79.03 130.55 79.6277 136.209C80.2584 142.157 80.8026 148.118 80.3491 154.099C79.8957 160.08 78.8239 166.14 77.9582 172.134C77.0925 178.127 76.1856 184.121 75.4436 190.131C75.3488 190.892 75.254 191.652 75.1674 192.413C75.1674 192.454 75.221 192.471 75.2251 192.413C76.2846 186.49 77.1544 180.533 78.0571 174.585C78.9599 168.637 79.9699 162.734 80.58 156.774C81.1901 150.813 80.9345 144.898 80.3368 138.954C79.7638 133.229 79.0094 127.508 78.9888 121.746C78.9888 116.372 79.5123 110.904 81.4044 105.852C81.6559 105.183 81.928 104.513 82.2289 103.852C82.2495 103.777 82.1629 103.773 82.1135 103.872Z" fill="#263238"/>
<path d="M98.3306 117.796C96.4114 118.598 94.5658 119.566 92.815 120.69C92.8002 120.697 92.7891 120.711 92.7841 120.726C92.779 120.742 92.7805 120.76 92.7882 120.774C92.7958 120.789 92.809 120.8 92.8249 120.805C92.8407 120.81 92.8579 120.809 92.8727 120.801C94.7318 119.896 96.6322 119.024 98.4419 118.015C98.4666 117.998 98.4843 117.973 98.4916 117.944C98.499 117.914 98.4956 117.884 98.4819 117.857C98.4683 117.83 98.4455 117.809 98.4176 117.798C98.3898 117.787 98.3588 117.786 98.3306 117.796Z" fill="#263238"/>
<path d="M98.4377 111.145C98.3099 111.831 98.145 112.513 97.9966 113.211C97.8482 113.91 97.7534 114.505 97.5844 115.142C97.4455 115.755 97.1352 116.315 96.6898 116.758C96.4384 116.989 96.1622 117.2 95.8942 117.411C95.75 117.527 95.5933 117.638 95.4449 117.754C95.4449 117.663 95.4779 117.572 95.4944 117.477C95.5438 117.217 95.5851 116.956 95.6304 116.696C95.7252 116.117 95.82 115.539 95.9066 114.956C96.0797 113.815 96.2405 112.662 96.4796 111.533C96.4796 111.488 96.4178 111.471 96.4095 111.533C96.1251 112.653 95.8118 113.757 95.5645 114.89C95.4449 115.444 95.0121 118.196 94.9915 118.37C94.9709 118.544 94.9544 118.783 94.9502 118.969C94.9214 119.172 94.9214 119.378 94.9502 119.581C94.9502 119.631 95.0203 119.623 95.0409 119.581C95.124 119.391 95.1822 119.191 95.2141 118.986C95.2635 118.792 95.3089 118.593 95.3419 118.395C95.3419 118.325 95.3666 118.25 95.3748 118.176C95.6428 118.015 95.8942 117.796 96.1457 117.614C96.3972 117.432 96.6898 117.225 96.9454 117.01C97.4181 116.609 97.7598 116.075 97.9265 115.477C98.0913 114.833 98.1989 114.176 98.2481 113.513C98.3346 112.736 98.3965 111.955 98.5036 111.182C98.516 111.116 98.4459 111.095 98.4377 111.145Z" fill="#263238"/>
<path d="M97.1434 80.4384C97.3907 83.6543 99.2911 91.227 103.537 97.9481C105.186 100.54 111.782 103.962 117.182 106.178C119.176 107.033 121.23 107.739 123.328 108.29C123.542 108.341 123.758 108.379 123.975 108.406C126.552 108.716 128.328 104.81 128.613 101.887C128.613 101.809 128.613 101.726 128.613 101.648V101.519C128.679 100.325 128.477 99.3494 127.957 98.9691C127.773 98.8397 127.582 98.7211 127.384 98.6136C125.832 97.8113 124.24 97.0871 122.615 96.4435C122.141 96.2451 121.642 96.0301 121.139 95.84C116.394 93.9261 110.949 91.8718 110.421 91.3758C109.597 90.6111 104.489 84.6836 101.546 79.5745C99.3859 75.8502 96.7312 75.0937 97.1434 80.4384Z" fill="#FFBF9D"/>
<path d="M117.182 106.178C119.176 107.033 121.23 107.739 123.328 108.29C125.935 108.948 128.608 109.311 131.296 109.373C132.945 109.373 137.686 108.882 137.785 107.613C137.884 106.344 136.486 106.372 136.486 106.372C136.486 106.372 138.457 105.864 138.44 104.579C138.44 103.524 136.968 103.405 136.441 103.392C136.429 103.386 136.415 103.382 136.402 103.382C136.388 103.382 136.375 103.386 136.363 103.392H136.251C136.251 103.392 138.238 102.723 138.131 101.441C138.036 100.296 136.292 100.552 135.926 100.614C136.231 100.519 137.653 99.9985 137.162 99.085C136.523 97.845 133.234 99.2214 131.391 99.1222C131.304 99.1222 130.847 99.0644 130.191 98.9858C128.839 97.9566 127.157 97.0017 126.411 96.824C125.149 96.6073 123.871 96.4898 122.59 96.4726C122.116 96.2742 121.617 96.0593 121.114 95.8691C120.096 96.9935 117.041 100.871 117.182 106.178Z" fill="#FFBF9D"/>
<path d="M123.027 98.0566L122.64 103.616V103.637V103.761L122.343 107.977C122.662 108.104 122.99 108.209 123.324 108.291C125.933 108.949 128.607 109.313 131.296 109.374C132.945 109.374 137.686 108.882 137.785 107.613C137.884 106.344 136.486 106.373 136.486 106.373C136.486 106.373 138.457 105.865 138.44 104.579C138.44 103.525 136.969 103.405 136.441 103.393H136.251C136.251 103.393 138.238 102.723 138.131 101.442C138.036 100.297 136.293 100.553 135.926 100.615H135.876H135.913C136.218 100.52 137.641 99.9994 137.15 99.0859C136.511 97.8458 133.221 99.2223 131.379 99.1231C131.292 99.1231 130.835 99.0652 130.179 98.9867L127.388 98.6436L123.027 98.0566Z" fill="#FFBF9D"/>
<path d="M129.623 101.227C130.382 101.452 131.158 101.614 131.944 101.711C133.336 101.853 134.734 101.496 135.889 100.702C135.955 100.665 135.963 100.619 135.942 100.595C135.927 100.588 135.911 100.584 135.895 100.584C135.878 100.584 135.862 100.588 135.847 100.595C134.692 101.128 133.438 101.41 132.166 101.421C131.323 101.398 130.483 101.304 129.656 101.14C129.577 101.14 129.553 101.215 129.623 101.227Z" fill="#FF9A6C"/>
<path d="M129.713 104.003C132.335 104.495 133.885 104.665 136.379 103.507C136.457 103.474 136.478 103.404 136.441 103.375C136.429 103.369 136.415 103.365 136.401 103.365C136.388 103.365 136.374 103.369 136.362 103.375C133.765 104.181 132.43 104.202 129.742 103.937C129.688 103.929 129.676 104.003 129.713 104.003Z" fill="#FF9A6C"/>
<path d="M136.268 106.408C133.687 107.012 132.224 107.107 129.643 106.503C129.631 106.502 129.62 106.505 129.61 106.512C129.6 106.518 129.593 106.528 129.59 106.54C129.587 106.552 129.588 106.564 129.593 106.575C129.599 106.585 129.608 106.594 129.619 106.598C132.187 107.471 134.017 107.367 136.276 106.491C136.433 106.429 136.429 106.371 136.268 106.408Z" fill="#FF9A6C"/>
<path d="M123.736 103.53C123.875 103.515 124.013 103.489 124.148 103.451L124.26 103.418C126.378 102.732 127.145 99.5618 127.145 99.5618C127.861 99.7325 128.591 99.839 129.326 99.8801C130.385 99.9379 131.461 99.8511 132.092 99.4337C132.26 99.3308 132.402 99.1891 132.504 99.0203C132.558 98.929 132.599 98.8301 132.624 98.7268C132.624 98.7268 132.624 98.7268 132.624 98.6979C132.723 98.1109 131.519 97.4206 130.076 96.8667C128.489 96.2591 126.609 95.8168 125.843 95.8581C124.571 96.0083 123.313 96.2557 122.079 96.598C121.555 96.7345 121.209 96.8337 121.209 96.8337C121.209 96.8337 121.226 103.815 123.736 103.53Z" fill="#FFBF9D"/>
<path d="M132.376 99.1113C130.975 100.31 128.831 99.6528 127.195 99.3965C127.071 99.3759 127.013 99.4668 127.017 99.566C126.539 101.087 125.422 103.096 123.818 103.596C123.809 103.596 123.799 103.6 123.792 103.607C123.785 103.614 123.781 103.624 123.781 103.633C123.781 103.643 123.785 103.653 123.792 103.66C123.799 103.667 123.809 103.671 123.818 103.671C125.612 103.369 126.869 101.484 127.285 99.7851C128.959 100.079 131.136 100.641 132.372 99.1237L132.376 99.1113Z" fill="#FF9A6C"/>
<path d="M98.9695 90.2406L109.209 89.0873C109.209 89.0873 102.865 79.6711 100.223 77.4307C97.2464 74.9093 96.6116 76.9843 96.8878 80.6921C97.164 84.3999 98.9695 90.2406 98.9695 90.2406Z" fill="#225A4B"/>
<path opacity="0.1" d="M98.9695 90.2406L109.209 89.0873C109.209 89.0873 102.865 79.6711 100.223 77.4307C97.2464 74.9093 96.6116 76.9843 96.8878 80.6921C97.164 84.3999 98.9695 90.2406 98.9695 90.2406Z" fill="black"/>
<path d="M107.243 87.2559C105.92 87.2559 101.946 87.7767 101.286 87.8594C100.94 87.9007 99.5632 88.1322 99.2252 88.1735C99.184 88.1735 99.1964 88.2438 99.2252 88.2396C99.8848 88.1652 100.557 88.157 101.22 88.0867C101.884 88.0164 105.945 87.6196 107.243 87.3096C107.248 87.3074 107.253 87.3037 107.256 87.299C107.259 87.2942 107.261 87.2885 107.261 87.2827C107.261 87.2769 107.259 87.2713 107.256 87.2665C107.253 87.2617 107.248 87.258 107.243 87.2559Z" fill="#263238"/>
<path d="M104.477 89.6208L98.9904 90.2367C98.9904 90.2367 97.1889 84.396 96.9292 80.6882C96.7272 77.9972 97.0076 76.162 98.3226 76.3356L104.477 89.6208Z" fill="#263238"/>
<path d="M77.538 110.279C77.5957 110.358 104.106 113.077 104.391 112.813C104.803 112.441 102.263 81.3153 99.7488 77.2645C99.2129 76.3964 94.9134 75.1977 93.0048 76.5452C86.875 80.8524 77.3319 109.99 77.538 110.279Z" fill="#225A4B"/>
<path opacity="0.1" d="M97.4596 86.763L92.4261 86.2637L92.3454 87.0822L97.3788 87.5816L97.4596 86.763Z" fill="black"/>
<path d="M115.232 91.64C115.096 91.8301 111.934 97.7411 111.802 98.4107C111.67 99.0804 107.268 115.321 107.519 115.805C107.771 116.288 114.68 119.021 114.985 119.021C115.29 119.021 129 115.958 129.738 115.441C130.476 114.924 130.744 102.259 130.468 100.974C130.192 99.688 129.363 97.3319 129.363 97.3319L129.874 96.6209C129.874 96.6209 128.464 90.6521 128.196 90.8588C127.929 91.0654 115.529 91.2225 115.232 91.64Z" fill="#B98F05"/>
<path opacity="0.1" d="M114.98 119.021C114.679 119.021 107.779 116.285 107.519 115.801C107.259 115.318 111.691 99.0812 111.802 98.4116C111.913 97.742 115.1 91.831 115.232 91.6367C115.821 92.8768 116.304 98.3331 116.378 99.0399C116.452 99.7467 115.116 117.562 114.98 119.021Z" fill="black"/>
<path opacity="0.1" d="M129.363 97.3174C128.316 97.4828 127.261 97.582 126.205 97.6853C125.15 97.7887 124.091 97.8755 123.035 97.9457C121.98 98.016 120.921 98.0821 119.861 98.1359C118.802 98.1896 117.742 98.2186 116.683 98.2558C116.628 98.2454 116.576 98.222 116.531 98.1875C116.487 98.153 116.451 98.1084 116.427 98.0573C116.385 97.9817 116.352 97.9012 116.328 97.8176C116.278 97.6609 116.239 97.5007 116.213 97.3381C116.155 97.02 116.119 96.6982 116.106 96.375C116.168 96.6933 116.234 97.0074 116.32 97.3133C116.36 97.4671 116.411 97.6177 116.473 97.7639C116.526 97.8961 116.638 98.0532 116.687 98.0491C117.742 97.9581 118.798 97.8465 119.853 97.768C120.908 97.6895 121.968 97.6151 123.027 97.5572C124.087 97.4993 125.142 97.4415 126.201 97.4084C127.261 97.3753 128.304 97.3422 129.363 97.3174Z" fill="black"/>
<path d="M125.962 99.7065L123.996 99.7272L122.722 95.8251L124.688 95.8086L125.962 99.7065Z" fill="white"/>
<g opacity="0.1">
<path d="M115.038 93.0195C114.795 94.8052 114.51 96.5826 114.214 98.3559C113.917 100.129 113.599 101.903 113.29 103.676C112.981 105.449 112.631 107.21 112.276 108.975L111.74 111.62C111.542 112.501 111.365 113.381 111.159 114.258C111.274 113.365 111.419 112.476 111.547 111.587L111.959 108.921C112.251 107.144 112.577 105.375 112.882 103.601C113.187 101.828 113.542 100.067 113.896 98.3022C114.251 96.5372 114.634 94.7722 115.038 93.0195Z" fill="black"/>
<path d="M108.096 115.53C109.069 114.993 110.075 114.521 111.089 114.079L111.213 114.025L111.307 114.133C111.86 114.761 112.404 115.398 112.932 116.055C113.459 116.712 113.962 117.382 114.436 118.076C113.818 117.502 113.233 116.898 112.668 116.282C112.103 115.666 111.555 115.042 111.019 114.381L111.237 114.435C110.207 114.844 109.164 115.22 108.096 115.53Z" fill="black"/>
</g>
<path d="M90.4861 79.7308C88.0127 86.423 83.3752 103.16 86.776 105.297C92.3988 108.806 103.842 109.873 107.301 109.844C108.793 109.844 110.553 98.3442 109.012 97.9267C107.161 97.4265 95.2803 97.0586 95.0453 96.1079C94.9134 95.5664 95.3092 90.1143 94.6331 84.0959C93.8581 77.106 91.3312 77.4409 90.4861 79.7308Z" fill="#FFBF9D"/>
<path d="M103.933 98.7792C103.933 98.7792 107.713 96.2577 110.265 94.7242C111.687 93.8685 114.255 92.6202 115.587 92.4714C117.578 92.2523 126.049 92.5954 126.008 94.658C125.975 96.5223 118.732 95.2987 118.732 95.2987C118.732 95.2987 126.152 95.8857 125.694 98.1261C125.237 100.366 117.24 97.8905 117.24 97.8905C117.24 97.8905 124.845 98.6634 124.012 100.9C123.382 102.586 116.015 100.759 116.015 100.759C116.015 100.759 122.545 101.47 121.972 103.239C121.341 105.19 114.432 103.93 114.432 103.93C112.223 108.166 109.543 109.531 107.371 109.836C106.856 109.898 103.933 98.7792 103.933 98.7792Z" fill="#FFBF9D"/>
<path d="M116.18 94.9316C117.054 94.9688 117.94 95.0019 118.806 95.1176C119.672 95.2334 120.537 95.3781 121.391 95.5723C122.51 95.8044 123.599 96.1664 124.635 96.6512C122.73 95.9278 119.634 95.469 118.769 95.3533C117.903 95.2375 117.042 95.0804 116.176 94.9647C116.155 94.9647 116.159 94.9316 116.18 94.9316Z" fill="#FF9A6C"/>
<path d="M115.71 98.0645C116.823 98.1595 117.932 98.2133 119.041 98.3621C120.15 98.5109 121.18 98.7382 122.273 98.9614C122.355 98.9614 122.318 99.0152 122.235 99.0028C121.135 98.825 120.104 98.7465 119.004 98.5894C117.903 98.4323 116.806 98.2174 115.706 98.0934C115.689 98.0893 115.693 98.0645 115.71 98.0645Z" fill="#FF9A6C"/>
<path d="M114.824 100.693C116.534 100.793 118.229 101.07 119.882 101.52C119.964 101.541 119.915 101.586 119.828 101.57C118.15 101.256 116.839 100.999 114.824 100.743C114.782 100.735 114.782 100.693 114.824 100.693Z" fill="#FF9A6C"/>
<path d="M113.76 92.9282C112.111 93.3085 106.418 96.8881 105.792 97.4462C105.338 97.3966 103.384 97.2808 103.166 97.3139C103.158 97.3166 103.15 97.3219 103.145 97.3289C103.14 97.336 103.137 97.3445 103.137 97.3532C103.137 97.3619 103.14 97.3704 103.145 97.3774C103.15 97.3845 103.158 97.3897 103.166 97.3924C103.372 97.471 105.314 97.752 105.771 97.8058C105.849 97.8058 112.437 93.6722 113.863 92.9902C113.913 92.953 113.818 92.9158 113.76 92.9282Z" fill="#FF9A6C"/>
<path d="M95.7662 91.0588L85.7408 93.4439C85.7408 93.4439 88.5399 82.4321 90.2753 79.427C92.2293 76.0458 93.5278 77.7736 94.513 81.3657C95.4983 84.9577 95.7662 91.0588 95.7662 91.0588Z" fill="#225A4B"/>
<path opacity="0.1" d="M95.7662 91.0588L85.7408 93.4439C85.7408 93.4439 88.5399 82.4321 90.2753 79.427C92.2293 76.0458 93.5278 77.7736 94.513 81.3657C95.4983 84.9577 95.7662 91.0588 95.7662 91.0588Z" fill="black"/>
<path d="M94.9956 89.3223C93.6806 89.4545 89.7809 90.4053 89.1379 90.5623C88.7957 90.6409 87.4519 91.017 87.1138 91.0956C87.0685 91.0956 87.1138 91.17 87.1344 91.1617C87.7858 91.0129 88.4494 90.9343 89.1008 90.7938C89.7521 90.6533 93.7589 89.8224 94.9956 89.376C95.001 89.3739 95.0056 89.3701 95.0088 89.3654C95.012 89.3606 95.0138 89.3549 95.0138 89.3491C95.0138 89.3433 95.012 89.3377 95.0088 89.3329C95.0056 89.3281 95.001 89.3244 94.9956 89.3223Z" fill="#263238"/>
<path d="M88.6063 83.6776C88.6063 83.6321 88.5486 83.6197 88.5362 83.6776C88.1941 84.5787 87.8725 85.4922 87.5675 86.4098C87.6134 85.9053 87.7045 85.4058 87.8396 84.9176C87.8396 84.9176 87.8148 84.8887 87.8066 84.9176C87.6298 85.4766 87.5246 86.0558 87.4933 86.6413C87.2831 87.2779 87.0811 87.9227 86.8832 88.5634C86.3803 90.2168 85.8568 91.8372 85.4487 93.503C85.4444 93.5231 85.4454 93.544 85.4515 93.5636C85.4576 93.5832 85.4686 93.6009 85.4835 93.615C85.4984 93.6291 85.5167 93.6392 85.5366 93.6442C85.5564 93.6492 85.5773 93.6489 85.5971 93.6435C85.9433 93.5485 86.2814 93.4451 86.6235 93.3252C86.6565 93.3252 86.6524 93.255 86.6235 93.2591C86.3267 93.2922 86.0381 93.3376 85.7455 93.3873C86.2731 91.8206 86.7183 90.2251 87.2006 88.6419C87.6829 87.0588 88.1735 85.3351 88.6063 83.6776Z" fill="#263238"/>
<path d="M95.581 86.6413C95.581 86.0957 95.6016 85.5501 95.581 84.9879C95.581 84.9879 95.581 84.9879 95.5604 84.9879C95.5412 85.3875 95.5247 85.7885 95.5109 86.1908C95.4079 85.3971 95.2925 84.6035 95.1399 83.8223C95.1935 85.0334 95.3172 86.2404 95.4038 87.4474C95.4903 88.6544 95.5893 89.8159 95.6965 91.0022C95.4738 91.0932 95.2554 91.1758 95.0286 91.2585C95.0199 91.2612 95.0126 91.2674 95.0083 91.2755C95.0041 91.2836 95.0032 91.2931 95.006 91.3019C95.0087 91.3107 95.0148 91.318 95.0229 91.3223C95.031 91.3265 95.0405 91.3274 95.0493 91.3246C95.3048 91.2792 95.5604 91.2296 95.8201 91.1924C95.8497 91.1903 95.8774 91.1774 95.898 91.156C95.9186 91.1346 95.9305 91.1063 95.9314 91.0766C95.8696 89.601 95.7583 88.1087 95.581 86.6413Z" fill="#263238"/>
<path d="M97.737 80.8514C96.7971 80.901 94.2413 78.9293 93.3921 76.9907C93.3344 76.8543 94.3031 71.8238 94.3897 70.7904C94.3897 70.5837 100.614 72.8985 100.614 72.8985C100.142 74.1377 99.8225 75.43 99.6621 76.7468C99.6481 76.8843 99.6481 77.0228 99.6621 77.1602C99.6641 77.1836 99.6641 77.2071 99.6621 77.2305C99.7322 78.0406 99.118 80.7646 97.737 80.8514Z" fill="#FFBF9D"/>
<path d="M94.7979 70.8594C94.9009 72.4219 95.5069 76.8282 99.0149 77.2168C99.2325 77.2417 99.4517 77.2486 99.6704 77.2374C99.6726 77.2141 99.6726 77.1905 99.6704 77.1672C99.6604 77.0296 99.6604 76.8914 99.6704 76.7538C99.831 75.4357 100.151 74.1421 100.623 72.9013C100.623 72.9013 96.1829 71.2438 94.7979 70.8594Z" fill="#FF9A6C"/>
<path d="M95.0658 62.1985C93.9074 64.2653 93.6848 70.9327 94.9504 72.706C96.7807 75.2729 100.47 76.2856 102.824 73.9212C105.104 71.6271 105.24 62.9384 103.764 61.2561C101.591 58.7801 96.7724 59.1397 95.0658 62.1985Z" fill="#FFBF9D"/>
<path d="M100.354 67.418C100.354 67.418 100.321 67.418 100.321 67.4593C100.321 67.9057 100.239 68.4224 99.8267 68.5547V68.5795C100.313 68.5299 100.412 67.8437 100.354 67.418Z" fill="#263238"/>
<path d="M99.9629 66.9351C99.2456 66.8524 99.1385 68.2991 99.798 68.3735C100.458 68.4479 100.565 67.0053 99.9629 66.9351Z" fill="#263238"/>
<path d="M102.923 67.6973C102.923 67.6973 102.956 67.6973 102.952 67.7386C102.906 68.185 102.923 68.7059 103.314 68.8836C103.314 68.8836 103.314 68.9125 103.314 68.9084C102.828 68.8009 102.803 68.1106 102.923 67.6973Z" fill="#263238"/>
<path d="M103.356 67.2559C104.077 67.2559 104.023 68.7067 103.356 68.7026C102.688 68.6985 102.75 67.2559 103.356 67.2559Z" fill="#263238"/>
<path d="M99.4436 66.234C99.6374 66.1923 99.8287 66.1398 100.017 66.0769C100.227 66.0524 100.423 65.9578 100.573 65.8082C100.611 65.7526 100.63 65.686 100.626 65.6187C100.622 65.5514 100.596 65.4873 100.553 65.4362C100.45 65.3487 100.326 65.29 100.194 65.266C100.061 65.2421 99.9247 65.2537 99.7981 65.2998C99.5281 65.3481 99.2857 65.4955 99.118 65.7131C99.0789 65.7666 99.0567 65.8305 99.0543 65.8967C99.0519 65.9629 99.0694 66.0283 99.1045 66.0844C99.1395 66.1405 99.1906 66.1848 99.2511 66.2115C99.3116 66.2381 99.3787 66.246 99.4436 66.234Z" fill="#263238"/>
<path d="M103.97 66.5734C103.779 66.5206 103.592 66.4571 103.409 66.3833C103.201 66.3415 103.013 66.2326 102.873 66.0733C102.839 66.0154 102.826 65.9481 102.834 65.8816C102.842 65.8152 102.872 65.7533 102.918 65.7054C103.027 65.6238 103.155 65.5728 103.29 65.5576C103.425 65.5423 103.561 65.5634 103.685 65.6186C103.951 65.6939 104.18 65.8645 104.328 66.0981C104.358 66.1533 104.372 66.2161 104.368 66.279C104.363 66.3418 104.34 66.402 104.302 66.4522C104.265 66.5025 104.213 66.5407 104.154 66.5622C104.095 66.5837 104.031 66.5876 103.97 66.5734Z" fill="#263238"/>
<path d="M99.6082 71.5464C99.7072 71.658 99.802 71.8109 99.9627 71.8357C100.13 71.8462 100.297 71.8208 100.453 71.7613C100.453 71.7613 100.482 71.7613 100.453 71.7861C100.383 71.8691 100.291 71.9314 100.188 71.9664C100.085 72.0013 99.9743 72.0076 99.8679 71.9845C99.7804 71.9539 99.7035 71.8986 99.6465 71.8253C99.5894 71.752 99.5547 71.6638 99.5464 71.5712C99.5588 71.534 99.5959 71.5298 99.6082 71.5464Z" fill="#263238"/>
<path d="M100.181 70.2395C100.281 70.4253 100.417 70.5885 100.583 70.7187C100.748 70.8489 100.938 70.9433 101.142 70.996C101.321 71.044 101.505 71.0676 101.69 71.0663H101.793H101.892C101.917 71.0631 101.939 71.0521 101.957 71.035C101.975 71.0179 101.987 70.9955 101.991 70.9712V70.9216V70.8802C102.028 70.5372 102.036 70.0122 102.036 70.0122C102.156 70.0825 102.774 70.4256 102.778 70.2395C102.859 68.6827 102.78 67.1218 102.543 65.581C102.543 65.5314 102.461 65.5397 102.461 65.581C102.379 67.0195 102.552 68.4745 102.49 69.9089C102.269 69.7869 102.034 69.6952 101.789 69.636C101.74 69.636 101.789 70.6529 101.764 70.8058C101.481 70.8126 101.199 70.7619 100.935 70.6568C100.672 70.5517 100.432 70.3943 100.231 70.1941C100.194 70.1734 100.157 70.2023 100.181 70.2395Z" fill="#263238"/>
<path d="M101.501 70.8748C101.292 71.106 101.028 71.2797 100.734 71.3791C100.573 71.4299 100.4 71.4299 100.239 71.3791C99.8887 71.2593 99.9052 70.9286 99.9918 70.6516C100.041 70.5073 100.106 70.3687 100.186 70.2383C100.546 70.5846 101.006 70.8075 101.501 70.8748Z" fill="#263238"/>
<path d="M100.734 71.3818C100.573 71.4326 100.4 71.4326 100.239 71.3818C99.8887 71.2619 99.9052 70.9312 99.9918 70.6543C100.18 70.672 100.356 70.7539 100.491 70.8863C100.626 71.0187 100.712 71.1936 100.734 71.3818Z" fill="#FF9A6C"/>
<path d="M94.2495 68.2758C95.4862 68.1229 96.6734 64.2828 96.6734 64.2828C96.6734 64.2828 96.4054 65.9362 96.7229 65.9362C97.0403 65.9362 98.6686 63.8694 99.0684 62.2739C99.8937 63.0276 100.814 63.6696 101.806 64.1836C103.22 64.8615 104.716 64.9731 104.691 64.7168C104.691 63.9273 104.551 61.9639 104.052 61.3645C103.376 60.6047 102.508 60.0415 101.54 59.7338C100.571 59.4262 99.5384 59.3855 98.549 59.616C95.985 60.1699 95.111 61.6291 94.5628 62.7823C94.0145 63.9356 93.8002 68.3295 94.2495 68.2758Z" fill="#263238"/>
<path d="M104.728 62.984C104.127 62.7401 100.631 62.3226 98.9572 62.7649C97.2836 63.2072 94.1795 65.0467 94.0105 65.1417C93.8415 65.2368 94.0105 59.3796 98.8006 59.0241C104.065 58.6397 104.728 62.984 104.728 62.984Z" fill="#225A4B"/>
<path d="M94.3322 64.9451C94.3322 64.9451 98.0133 61.3366 99.8601 60.6628C101.707 59.989 105.631 60.0345 107.824 61.4358C109.552 62.527 104.691 64.2342 104.691 64.2342C104.678 64.0329 104.618 63.8375 104.516 63.6632C104.414 63.489 104.274 63.3406 104.106 63.2297C103.018 62.6014 100.779 62.6262 99.4685 62.8618C97.8196 63.1553 94.3322 64.9451 94.3322 64.9451Z" fill="#225A4B"/>
<path opacity="0.2" d="M94.3322 64.9451C94.3322 64.9451 98.0133 61.3366 99.8601 60.6628C101.707 59.989 105.631 60.0345 107.824 61.4358C109.552 62.527 104.691 64.2342 104.691 64.2342C104.678 64.0329 104.618 63.8375 104.516 63.6632C104.414 63.489 104.274 63.3406 104.106 63.2297C103.018 62.6014 100.779 62.6262 99.4685 62.8618C97.8196 63.1553 94.3322 64.9451 94.3322 64.9451Z" fill="black"/>
<path d="M99.1427 70.0452C98.7777 69.9579 98.4445 69.7696 98.1808 69.502C97.9171 69.2343 97.7335 68.8979 97.6508 68.5309C97.5681 68.1639 97.5896 67.781 97.713 67.4256C97.8363 67.0703 98.0565 66.7567 98.3485 66.5204C98.6406 66.2842 98.9928 66.1348 99.3653 66.0891C99.7377 66.0434 100.116 66.1033 100.456 66.262C100.796 66.4207 101.085 66.6719 101.29 66.9869C101.495 67.302 101.608 67.6684 101.616 68.0446C101.623 68.3103 101.578 68.5749 101.482 68.8229C101.387 69.0709 101.244 69.2976 101.06 69.4897C100.877 69.6819 100.658 69.8358 100.415 69.9424C100.172 70.0491 99.9107 70.1066 99.6456 70.1114C99.4758 70.1113 99.3068 70.0891 99.1427 70.0452ZM99.996 66.3829C99.861 66.3507 99.7226 66.3355 99.5838 66.3375C99.1404 66.3419 98.7155 66.5159 98.3958 66.8239C98.076 67.132 97.8857 67.5508 97.8636 67.9949C97.8415 68.4389 97.9894 68.8747 98.277 69.2131C98.5645 69.5515 98.9701 69.767 99.4109 69.8156C99.8516 69.8642 100.294 69.7423 100.648 69.4746C101.002 69.207 101.241 68.8139 101.316 68.3756C101.391 67.9374 101.296 67.4871 101.05 67.1167C100.805 66.7463 100.428 66.4839 99.996 66.3829Z" fill="#225A4B"/>
<path d="M103.726 70.539C102.98 70.3654 102.49 69.4354 102.597 68.3937C102.643 67.8916 102.847 67.417 103.178 67.0379C103.307 66.8622 103.48 66.7238 103.68 66.6366C103.879 66.5494 104.098 66.5165 104.314 66.5412C104.53 66.5659 104.736 66.6474 104.911 66.7775C105.086 66.9075 105.223 67.0815 105.309 67.2818C105.544 67.7253 105.636 68.2306 105.573 68.7286C105.445 69.8322 104.679 70.6548 103.858 70.5638C103.814 70.5596 103.77 70.5513 103.726 70.539ZM104.382 66.8437C104.348 66.8393 104.313 66.8393 104.279 66.8437C104.106 66.8338 103.934 66.8662 103.776 66.9383C103.619 67.0103 103.482 67.1197 103.376 67.257C103.086 67.5953 102.907 68.0156 102.865 68.4599C102.758 69.4147 103.211 70.258 103.887 70.3324C104.563 70.4068 105.194 69.6917 105.305 68.7368C105.364 68.2946 105.284 67.845 105.074 67.4513C105.01 67.3059 104.914 67.1763 104.795 67.0714C104.675 66.9665 104.534 66.8888 104.382 66.8437Z" fill="#225A4B"/>
<path d="M101.517 68.2666L101.369 68.0434C101.699 67.8202 102.441 67.5597 102.865 68.1384L102.651 68.2997C102.267 67.7788 101.546 68.2459 101.517 68.2666Z" fill="#225A4B"/>
<path d="M92.5552 67.7699L92.3326 67.6211C92.4027 67.5177 93.0334 66.6001 93.6394 66.5711C94.2454 66.5422 97.7617 67.2862 97.8977 67.3193L97.8441 67.5839C96.83 67.3689 94.0929 66.8191 93.6518 66.8398C93.2107 66.8605 92.7243 67.5177 92.5552 67.7699Z" fill="#225A4B"/>
<path d="M95.2967 67.7224C95.2967 67.7224 94.2538 65.3539 93.2108 65.6887C92.1679 66.0235 92.6667 69.2518 93.6931 69.8842C93.819 69.9739 93.9617 70.0371 94.1126 70.0701C94.2634 70.1031 94.4194 70.1052 94.5711 70.0763C94.7228 70.0473 94.8671 69.9879 94.9953 69.9016C95.1236 69.8154 95.2331 69.704 95.3173 69.5742L95.2967 67.7224Z" fill="#FFBF9D"/>
<path d="M93.3799 66.6113V66.6403C94.093 67.1074 94.3569 67.9093 94.497 68.707C94.4667 68.6208 94.4182 68.5422 94.3548 68.4765C94.2915 68.4108 94.2148 68.3595 94.1299 68.3262C94.045 68.2928 93.954 68.2782 93.863 68.2833C93.772 68.2884 93.6831 68.3131 93.6025 68.3557C93.5777 68.3557 93.6025 68.4012 93.6025 68.4012C93.7497 68.3857 93.8979 68.4174 94.026 68.4917C94.1541 68.5659 94.2555 68.6789 94.3156 68.8145C94.4211 69.0338 94.5026 69.2639 94.5589 69.5007C94.5836 69.5792 94.7155 69.5668 94.7031 69.5007C94.9175 68.4549 94.4187 66.9213 93.3799 66.6113Z" fill="#FF9A6C"/>
<path d="M202.665 178.611C215.482 178.611 222.902 187.536 222.902 198.039C222.902 208.542 216.026 217.264 203.527 217.264C189.697 217.264 183.093 206.236 183.093 197.944C183.093 189.652 189.697 178.611 202.665 178.611Z" fill="#37474F"/>
<path d="M200.695 178.611C212.877 178.611 219.934 187.536 219.934 198.039C219.934 208.542 213.396 217.264 201.516 217.264C188.37 217.264 182.091 206.236 182.091 197.944C182.091 189.652 188.37 178.611 200.695 178.611Z" fill="#263238"/>
<path d="M200.819 186.15C208.239 186.15 212.542 191.59 212.542 197.989C212.542 204.388 208.56 209.699 201.317 209.699C193.308 209.699 189.482 202.978 189.482 197.923C189.482 192.867 193.308 186.15 200.819 186.15Z" fill="#C7C7C7"/>
<path d="M109.807 210.236C125.612 210.236 130.876 201.907 130.876 191.874C130.876 181.842 123.53 173.307 109.176 173.307C118.546 173.307 123.971 181.834 123.971 191.874C123.971 201.915 118.942 210.236 109.807 210.236Z" fill="#37474F"/>
<path d="M109.176 173.318C118.546 173.318 123.971 181.85 123.971 191.882C123.971 201.914 118.946 210.235 109.807 210.235C99.6951 210.235 94.8679 199.694 94.8679 191.77C94.8679 183.846 99.6951 173.318 109.176 173.318Z" fill="#263238"/>
<path d="M101.777 191.783C101.777 199.442 99.8354 209.557 108.838 210.214H109.156H109.424H109.807C118.942 210.214 123.971 201.885 123.971 191.853C123.971 181.821 118.546 173.285 109.176 173.285H108.674H108.443C108.298 173.285 108.15 173.306 108.006 173.318C99.8766 174.228 101.777 184.194 101.777 191.783Z" fill="#263238"/>
<path d="M108.509 180.533C113.715 180.533 116.733 185.733 116.733 191.847C116.733 197.96 113.938 203.036 108.859 203.036C103.236 203.036 100.553 196.613 100.553 191.785C100.553 186.957 103.24 180.533 108.509 180.533Z" fill="#C7C7C7"/>
<path d="M181.935 134.733H176.893L173.439 129.648H179.346L181.935 134.733Z" fill="#225A4B"/>
<path d="M173.439 129.648L175.463 132.625L176.893 134.733H181.935L180.57 132.054L179.342 129.648H173.439Z" fill="#225A4B"/>
<path opacity="0.1" d="M173.439 129.648L175.463 132.625L180.57 132.054L179.342 129.648H173.439Z" fill="black"/>
<path d="M194.186 172.674L189.276 173.807L184.775 169.624L190.529 168.301L194.186 172.674Z" fill="#225A4B"/>
<path d="M184.775 169.624L187.409 172.071L189.272 173.807L194.19 172.674L192.261 170.372L190.529 168.301L184.775 169.624Z" fill="#225A4B"/>
<path opacity="0.1" d="M184.775 169.624L187.409 172.071L192.261 170.372L190.529 168.301L184.775 169.624Z" fill="black"/>
<path d="M121.527 187.682L122.937 190.811C122.937 190.811 161.055 193.734 164.675 193.192C167.703 189.616 170.254 185.66 172.264 181.424H155.02C152.453 181.452 149.914 180.886 147.6 179.77L145.374 179.398L141.363 181.407L136.981 187.666L124.8 187.442L121.527 187.682Z" fill="#455A64"/>
<path d="M141.355 181.424C141.355 181.424 151.117 187.442 170.145 185.4C170.85 184.193 171.567 182.866 172.264 181.424H155.02C152.453 181.452 149.914 180.886 147.6 179.77L145.374 179.398L141.355 181.424Z" fill="#37474F"/>
<path d="M221.789 181.092L217.015 183.605C217.015 183.605 203.201 181.092 194.343 182.993C185.484 184.895 183.093 189.64 183.093 189.64H178.62C178.62 189.64 182.462 175.954 188.984 170.969C195.505 165.984 205.976 167.116 211.767 170.246C217.559 173.375 221.789 181.092 221.789 181.092Z" fill="#225A4B"/>
<path opacity="0.1" d="M216.516 182.657C215.593 181.689 214.592 180.799 213.523 179.995C212.464 179.171 211.345 178.426 210.176 177.767C207.907 176.507 205.42 175.689 202.847 175.358C197.809 174.738 192.541 176.209 188.831 180.09C186.745 182.289 185.261 184.985 183.851 187.713C183.851 187.754 183.888 187.787 183.909 187.746C185.103 185.351 186.612 183.126 188.394 181.132C190.111 179.252 192.249 177.807 194.631 176.916C199.384 175.167 204.545 175.837 209.096 177.949C210.402 178.546 211.662 179.237 212.868 180.016C214.105 180.843 215.275 181.765 216.434 182.703C216.441 182.71 216.451 182.715 216.461 182.716C216.472 182.717 216.482 182.715 216.491 182.71C216.501 182.705 216.508 182.697 216.512 182.688C216.517 182.678 216.518 182.668 216.516 182.657Z" fill="black"/>
<path d="M150.601 155.06V153.369L107.486 154.762V158.565C107.486 158.565 94.9957 172.392 93.759 186.764L136.993 187.682L141.375 181.423L145.386 179.415L147.612 179.787V178.819L145.906 176.806L145.832 170.846C145.181 169.934 144.718 168.902 144.469 167.809C144.221 166.716 144.192 165.584 144.385 164.48C144.846 161.297 150.601 155.06 150.601 155.06Z" fill="#225A4B"/>
<path d="M132.945 185.667C132.496 186.494 125.938 187.68 113.505 188.015C102.313 188.316 93.9528 188.068 93.285 187.345C92.6172 186.622 94.2867 173.828 101.863 166.901C109.44 159.973 120.187 158.977 127.261 163.11C133.481 166.735 138.123 175.949 132.945 185.667Z" fill="#225A4B"/>
<path opacity="0.1" d="M135.056 173.557C134.391 170.528 132.858 167.759 130.645 165.592C128.425 163.362 125.654 161.766 122.615 160.966C119.227 160.118 115.678 160.157 112.309 161.078C110.623 161.521 108.992 162.155 107.449 162.967C105.82 163.846 104.284 164.889 102.865 166.079C102.486 166.394 102.102 166.708 101.727 167.03C101.694 167.055 101.727 167.1 101.777 167.076C103.204 165.817 104.748 164.7 106.389 163.74C107.887 162.882 109.476 162.196 111.126 161.694C114.398 160.668 117.872 160.472 121.238 161.123C124.28 161.736 127.099 163.165 129.396 165.257C131.609 167.255 133.237 169.82 134.104 172.677C135.134 176.157 134.796 179.989 133.77 183.424C133.634 183.887 133.489 184.341 133.333 184.796C133.333 184.846 133.39 184.862 133.407 184.817C134.796 181.25 135.831 177.405 135.056 173.557Z" fill="black"/>
<path opacity="0.1" d="M141.355 181.424L145.366 179.415L147.592 179.787V178.82L145.885 176.811L145.811 170.855C145.159 169.944 144.696 168.911 144.447 167.818C144.199 166.725 144.17 165.593 144.364 164.489C144.847 161.302 150.601 155.064 150.601 155.064H148.932C148.932 155.064 139.863 159.756 137.802 163.629C135.74 167.502 135.118 176.584 141.355 181.424Z" fill="black"/>
<path d="M105.091 189.336C97.5804 189.336 93.6065 189.105 91.5907 188.303L92.5265 185.943C94.8844 186.881 102.267 186.865 114.148 186.728C122.924 186.625 129.4 185.794 133.44 184.248L134.343 186.621C129.973 188.274 123.378 189.15 114.177 189.258C110.685 189.307 107.676 189.336 105.091 189.336Z" fill="#DBDBDB"/>
<path d="M164.101 131.995C164.027 132.165 154.072 134.004 154.072 134.004C154.072 134.004 152.423 132.888 153.441 131.474L163.425 129.312C163.81 129.628 164.083 130.059 164.205 130.542C164.327 131.025 164.29 131.534 164.101 131.995Z" fill="#263238"/>
<path d="M184.998 119.091V130.934C184.998 130.934 178.62 130.376 176.922 130.318C175.224 130.26 167.676 131.239 167.676 131.239L167.09 128.586C167.09 128.586 172.907 126.548 175.38 124.956C177.854 123.365 180.702 120.323 182.232 119.649C183.098 119.252 184.045 119.061 184.998 119.091Z" fill="#225A4B"/>
<path d="M167.7 128.25C168.08 128.641 168.366 129.113 168.537 129.63C168.708 130.148 168.761 130.698 168.69 131.239C168.69 131.239 163.937 132.111 163.879 132.111C163.917 131.548 163.778 130.987 163.483 130.506C163.187 130.026 162.749 129.651 162.23 129.432L167.7 128.25Z" fill="#DBDBDB"/>
<path d="M185.059 130.934C186.785 130.934 188.184 128.284 188.184 125.015C188.184 121.746 186.785 119.096 185.059 119.096C183.334 119.096 181.935 121.746 181.935 125.015C181.935 128.284 183.334 130.934 185.059 130.934Z" fill="#DBDBDB"/>
<path d="M182.577 125.015C182.577 127.909 183.777 130.294 185.253 130.294C186.729 130.294 187.928 127.929 187.928 125.015C187.928 122.101 186.729 119.732 185.253 119.732C183.777 119.732 182.577 122.097 182.577 125.015Z" fill="white"/>
<path d="M150.601 153.369C150.601 153.369 150.679 146.148 150.399 145.867C150.119 145.586 107.21 145.735 105.928 145.867C104.646 145.999 104.757 154.411 104.868 154.803C104.98 155.196 149.488 153.464 150.601 153.369Z" fill="#37474F"/>
<path d="M154.41 145.943C154.282 145.831 148.841 145.807 148.544 145.807C148.247 145.807 148.354 153.503 148.544 153.491C148.733 153.478 154.447 153.445 154.632 153.276C154.818 153.106 154.69 146.187 154.41 145.943Z" fill="#455A64"/>
<path d="M124.346 145.527C124.202 145.644 124.105 145.808 124.07 145.99C124.027 146.17 123.997 146.352 123.98 146.536C123.934 146.904 123.922 147.276 123.905 147.648C123.905 148.392 123.905 149.14 123.905 149.888C123.905 150.636 123.905 151.385 123.951 152.129C123.964 152.497 124.007 152.863 124.078 153.224C124.11 153.403 124.168 153.576 124.252 153.737C124.29 153.819 124.348 153.89 124.419 153.946C124.491 154.001 124.575 154.038 124.664 154.055C124.565 154.058 124.467 154.037 124.379 153.992C124.291 153.947 124.216 153.881 124.161 153.799C124.043 153.642 123.949 153.467 123.885 153.282C123.76 152.918 123.673 152.543 123.625 152.162C123.53 151.408 123.485 150.648 123.489 149.888C123.481 149.132 123.518 148.375 123.6 147.623C123.639 147.243 123.706 146.866 123.798 146.495C123.847 146.308 123.911 146.126 123.988 145.949C124.048 145.767 124.177 145.616 124.346 145.527Z" fill="#455A64"/>
<path d="M102.259 145.793H143.478V120.099H102.259V145.793Z" fill="#37474F"/>
<path d="M102.259 145.793H132.039V120.099H102.259V145.793Z" fill="#263238"/>
<path d="M153.528 100.398H140.691L130.641 120.099H143.478L153.528 100.398Z" fill="#37474F"/>
<path d="M142.08 100.398H140.691L130.641 120.099H132.03L142.08 100.398Z" fill="#263238"/>
<path d="M108.129 120.098H105.577V145.804H108.129V120.098Z" fill="#225A4B"/>
<path d="M126.882 120.098H124.33V145.804H126.882V120.098Z" fill="#225A4B"/>
<path d="M109.333 128.449V125.527C109.333 125.454 109.362 125.385 109.413 125.334C109.464 125.283 109.533 125.254 109.605 125.254H111.221C111.288 125.262 111.35 125.295 111.394 125.345C111.439 125.396 111.464 125.461 111.464 125.529C111.464 125.596 111.439 125.662 111.394 125.712C111.35 125.763 111.288 125.795 111.221 125.804H109.881V126.709H111.031C111.103 126.711 111.171 126.74 111.221 126.791C111.272 126.842 111.301 126.91 111.303 126.982C111.304 127.018 111.297 127.054 111.284 127.088C111.271 127.122 111.251 127.153 111.225 127.179C111.2 127.205 111.17 127.226 111.137 127.24C111.103 127.255 111.068 127.262 111.031 127.263H109.881V128.449C109.88 128.522 109.851 128.591 109.799 128.642C109.747 128.693 109.678 128.722 109.605 128.722C109.569 128.722 109.534 128.715 109.501 128.701C109.468 128.687 109.438 128.667 109.413 128.642C109.387 128.617 109.367 128.587 109.354 128.554C109.34 128.52 109.333 128.485 109.333 128.449Z" fill="white"/>
<path d="M114.956 125.683C115.276 126.022 115.455 126.471 115.455 126.938C115.455 127.405 115.276 127.854 114.956 128.192C114.806 128.358 114.623 128.49 114.42 128.581C114.216 128.672 113.996 128.72 113.773 128.722C113.546 128.72 113.321 128.673 113.113 128.582C112.904 128.491 112.716 128.359 112.561 128.192C112.248 127.85 112.074 127.402 112.074 126.938C112.074 126.473 112.248 126.026 112.561 125.683C112.716 125.516 112.903 125.383 113.112 125.292C113.32 125.201 113.545 125.154 113.773 125.154C113.996 125.155 114.216 125.203 114.42 125.294C114.624 125.385 114.806 125.518 114.956 125.683ZM114.89 126.923C114.891 126.602 114.772 126.293 114.556 126.055C114.456 125.945 114.334 125.856 114.197 125.795C114.061 125.735 113.914 125.703 113.765 125.703C113.615 125.703 113.468 125.735 113.332 125.795C113.195 125.856 113.073 125.945 112.973 126.055C112.755 126.291 112.634 126.602 112.635 126.923C112.633 127.243 112.754 127.551 112.973 127.783C113.072 127.896 113.193 127.987 113.33 128.049C113.466 128.111 113.615 128.144 113.765 128.144C113.914 128.144 114.063 128.111 114.199 128.049C114.336 127.987 114.457 127.896 114.556 127.783C114.77 127.555 114.889 127.253 114.89 126.94V126.923Z" fill="white"/>
<path d="M119.111 125.683C119.431 126.022 119.61 126.471 119.61 126.938C119.61 127.405 119.431 127.854 119.111 128.192C118.961 128.358 118.778 128.49 118.575 128.581C118.371 128.672 118.151 128.72 117.928 128.722C117.701 128.72 117.476 128.673 117.268 128.582C117.059 128.491 116.871 128.359 116.716 128.192C116.403 127.85 116.229 127.402 116.229 126.938C116.229 126.473 116.403 126.026 116.716 125.683C116.871 125.516 117.058 125.383 117.267 125.292C117.475 125.201 117.7 125.154 117.928 125.154C118.151 125.155 118.371 125.203 118.575 125.294C118.779 125.385 118.961 125.518 119.111 125.683ZM119.045 126.923C119.046 126.602 118.927 126.293 118.711 126.055C118.611 125.945 118.489 125.856 118.353 125.795C118.216 125.735 118.069 125.703 117.92 125.703C117.77 125.703 117.623 125.735 117.487 125.795C117.35 125.856 117.228 125.945 117.128 126.055C116.91 126.291 116.789 126.602 116.79 126.923C116.788 127.243 116.909 127.551 117.128 127.783C117.227 127.896 117.348 127.987 117.485 128.049C117.621 128.111 117.77 128.144 117.92 128.144C118.07 128.144 118.218 128.111 118.354 128.049C118.491 127.987 118.612 127.896 118.711 127.783C118.925 127.555 119.044 127.253 119.045 126.94V126.923Z" fill="white"/>
<path d="M120.438 128.449V125.527C120.438 125.491 120.444 125.455 120.458 125.422C120.471 125.388 120.491 125.358 120.517 125.333C120.542 125.307 120.572 125.287 120.606 125.274C120.639 125.26 120.675 125.253 120.71 125.254H121.292C121.736 125.276 122.154 125.468 122.461 125.791C122.768 126.113 122.939 126.542 122.939 126.988C122.939 127.434 122.768 127.862 122.461 128.185C122.154 128.508 121.736 128.7 121.292 128.722H120.71C120.638 128.722 120.569 128.693 120.518 128.642C120.467 128.591 120.438 128.522 120.438 128.449ZM120.987 128.172H121.292C121.593 128.154 121.876 128.022 122.083 127.802C122.29 127.582 122.405 127.29 122.405 126.988C122.405 126.685 122.29 126.394 122.083 126.174C121.876 125.954 121.593 125.822 121.292 125.804H120.987V128.172Z" fill="white"/>
<path d="M115.459 130.91H114.906V132.77C114.91 132.798 114.909 132.826 114.901 132.853C114.893 132.879 114.88 132.904 114.861 132.925C114.843 132.946 114.821 132.963 114.795 132.975C114.77 132.987 114.743 132.993 114.715 132.993C114.687 132.993 114.659 132.987 114.634 132.975C114.609 132.963 114.586 132.946 114.568 132.925C114.55 132.904 114.536 132.879 114.529 132.853C114.521 132.826 114.519 132.798 114.523 132.77V130.91H113.958C113.907 130.909 113.859 130.888 113.822 130.852C113.786 130.816 113.766 130.767 113.765 130.716C113.765 130.664 113.785 130.615 113.821 130.578C113.858 130.542 113.907 130.521 113.958 130.521H115.442C115.493 130.523 115.541 130.544 115.577 130.58C115.612 130.616 115.632 130.665 115.632 130.716C115.632 130.764 115.615 130.81 115.583 130.846C115.551 130.882 115.507 130.905 115.459 130.91Z" fill="white"/>
<path d="M117.948 130.825C118.175 131.062 118.301 131.378 118.299 131.706C118.303 132.034 118.177 132.351 117.948 132.586C117.844 132.702 117.717 132.796 117.575 132.86C117.433 132.925 117.28 132.96 117.124 132.962C116.964 132.961 116.805 132.927 116.659 132.862C116.512 132.798 116.38 132.704 116.271 132.586C116.045 132.349 115.922 132.033 115.928 131.706C115.926 131.379 116.048 131.064 116.271 130.825C116.38 130.708 116.512 130.614 116.659 130.55C116.805 130.486 116.964 130.453 117.124 130.453C117.28 130.454 117.433 130.487 117.576 130.551C117.718 130.616 117.845 130.709 117.948 130.825ZM117.903 131.706C117.904 131.481 117.82 131.263 117.668 131.098C117.599 131.021 117.514 130.959 117.42 130.916C117.325 130.874 117.223 130.851 117.12 130.85C117.014 130.85 116.909 130.871 116.811 130.914C116.714 130.957 116.627 131.019 116.555 131.098C116.404 131.264 116.32 131.481 116.32 131.706C116.32 131.93 116.404 132.147 116.555 132.313C116.627 132.392 116.714 132.454 116.811 132.497C116.909 132.54 117.014 132.562 117.12 132.561C117.223 132.56 117.325 132.537 117.42 132.495C117.514 132.452 117.599 132.39 117.668 132.313C117.823 132.146 117.907 131.925 117.903 131.697V131.706Z" fill="white"/>
<path d="M109.341 137.39C109.538 136.47 110.038 135.644 110.761 135.044C111.483 134.444 112.386 134.106 113.323 134.083C114.05 134.065 114.757 134.324 115.302 134.806C115.349 134.856 115.386 134.915 115.41 134.979C115.434 135.043 115.444 135.112 115.441 135.18C115.437 135.249 115.42 135.316 115.39 135.377C115.359 135.439 115.317 135.493 115.265 135.538C115.177 135.647 115.05 135.718 114.911 135.735C114.772 135.753 114.632 135.716 114.519 135.633C114.135 135.299 113.642 135.12 113.134 135.129C112.48 135.138 111.85 135.376 111.353 135.802C110.855 136.209 110.515 136.778 110.393 137.41C110.337 137.69 110.345 137.979 110.417 138.255C110.488 138.532 110.621 138.788 110.805 139.006C110.996 139.226 111.235 139.402 111.502 139.519C111.769 139.636 112.059 139.692 112.351 139.684C112.817 139.677 113.273 139.552 113.678 139.32L113.905 138.055H112.586C112.521 138.057 112.457 138.044 112.398 138.017C112.34 137.99 112.289 137.95 112.248 137.899C112.208 137.848 112.181 137.789 112.168 137.726C112.155 137.662 112.157 137.597 112.173 137.534C112.2 137.389 112.275 137.258 112.387 137.162C112.499 137.067 112.641 137.013 112.788 137.009H114.618C114.685 137.003 114.752 137.013 114.815 137.038C114.877 137.064 114.932 137.104 114.975 137.156C115.018 137.208 115.048 137.269 115.062 137.335C115.076 137.401 115.073 137.47 115.055 137.534L114.692 139.601C114.681 139.649 114.666 139.696 114.647 139.742L114.618 139.8C114.569 139.888 114.499 139.963 114.416 140.019C113.762 140.476 112.987 140.728 112.19 140.742C111.765 140.768 111.339 140.695 110.947 140.528C110.554 140.361 110.206 140.105 109.93 139.78C109.654 139.455 109.457 139.069 109.354 138.654C109.252 138.24 109.248 137.807 109.341 137.39Z" fill="white"/>
<path d="M117.256 139.745C117.012 139.414 116.842 139.034 116.755 138.632C116.668 138.229 116.668 137.813 116.753 137.41C116.925 136.504 117.391 135.681 118.08 135.07C118.737 134.455 119.597 134.103 120.496 134.082C120.892 134.075 121.285 134.161 121.643 134.333C122 134.504 122.314 134.757 122.557 135.07C122.796 135.405 122.962 135.786 123.047 136.189C123.131 136.591 123.131 137.007 123.048 137.41C122.885 138.316 122.42 139.14 121.729 139.745C121.072 140.361 120.212 140.713 119.313 140.733C118.917 140.743 118.524 140.658 118.166 140.486C117.809 140.315 117.497 140.061 117.256 139.745ZM117.804 137.41C117.746 137.69 117.746 137.979 117.805 138.258C117.864 138.538 117.98 138.802 118.146 139.034C118.308 139.242 118.515 139.409 118.752 139.522C118.989 139.635 119.248 139.692 119.511 139.687C120.102 139.668 120.667 139.436 121.102 139.034C121.576 138.608 121.896 138.037 122.013 137.41C122.072 137.132 122.073 136.844 122.014 136.565C121.955 136.287 121.838 136.024 121.671 135.794C121.51 135.585 121.303 135.417 121.066 135.303C120.829 135.189 120.569 135.132 120.306 135.136C119.714 135.153 119.147 135.387 118.715 135.794C118.247 136.219 117.932 136.787 117.817 137.41H117.804Z" fill="white"/>
<path d="M112.256 131.625H109.333V132.018H112.256V131.625Z" fill="white"/>
<path d="M123.019 131.625H120.096V132.018H123.019V131.625Z" fill="white"/>
<path d="M186.065 134.732C187.104 136.258 191.263 157 192.079 158.041C192.896 159.083 194.458 159.158 194.458 159.158L197.228 166.007C197.228 166.007 190.397 168.169 186.605 171.294C181.683 175.336 177.153 188.741 177.153 188.741C176.411 189.262 167.201 193.061 164.674 193.21C164.674 193.21 176.419 180.28 177.375 162.386C177.746 155.45 173.496 145.69 173.216 140.854C172.919 135.679 174.477 134.749 177.227 134.749L186.065 134.732Z" fill="#225A4B"/>
<path d="M164.11 194.697L162.271 192.953C172.577 182.016 176.378 164.783 176.077 160.079C175.92 157.665 175.149 154.97 174.329 152.118C173.455 149.071 172.466 145.62 172.045 141.871C171.633 138.39 172.045 136.142 173.228 134.798C174.411 133.455 176.035 133.459 177.115 133.459H186.922V136.001H177.111C176.167 136.001 175.524 136.034 175.116 136.493C174.708 136.952 174.176 138.146 174.564 141.59C174.976 145.124 175.879 148.323 176.765 151.415C177.622 154.404 178.435 157.231 178.604 159.914C178.925 164.923 174.968 183.206 164.11 194.697Z" fill="#DBDBDB"/>
<path d="M192.129 163.716C192.706 165.845 194.524 167.205 196.194 166.75C197.863 166.295 198.741 164.2 198.16 162.071C197.579 159.942 195.765 158.578 194.095 159.033C192.426 159.487 191.548 161.583 192.129 163.716Z" fill="#DBDBDB"/>
<path d="M192.747 163.547C193.267 165.448 194.837 166.672 196.264 166.283C197.69 165.895 198.424 164.039 197.912 162.15C197.401 160.261 195.822 159.025 194.4 159.413C192.978 159.802 192.232 161.645 192.747 163.547Z" fill="white"/>
<path opacity="0.1" d="M184.836 163.368C184.379 161.227 183.884 159.09 183.455 156.94C183.027 154.791 182.631 152.637 182.297 150.475C181.971 148.462 181.621 146.429 181.493 144.391C181.365 142.262 181.493 140.113 182.524 138.19C182.526 138.187 182.527 138.182 182.528 138.178C182.528 138.174 182.528 138.169 182.527 138.165C182.526 138.161 182.524 138.157 182.521 138.154C182.519 138.15 182.515 138.147 182.511 138.145C182.508 138.143 182.503 138.141 182.499 138.141C182.495 138.14 182.49 138.141 182.486 138.142C182.482 138.143 182.478 138.145 182.475 138.148C182.471 138.15 182.468 138.154 182.466 138.157C181.407 139.707 181.06 141.568 181.003 143.415C181.008 145.454 181.187 147.488 181.539 149.496C182.14 153.901 182.966 158.274 184.012 162.595C184.61 165.038 185.381 167.439 186.205 169.812C186.208 169.82 186.213 169.826 186.221 169.829C186.228 169.833 186.237 169.833 186.244 169.831C186.252 169.828 186.258 169.822 186.262 169.815C186.265 169.808 186.265 169.799 186.263 169.791C185.771 167.658 185.295 165.517 184.836 163.368Z" fill="black"/>
</svg>
