<svg width="275" height="393" viewBox="0 0 275 393" fill="none" xmlns="http://www.w3.org/2000/svg">
<path d="M275 0V273C275 339.274 221.274 393 155 393H140C73.7258 393 20 339.274 20 273V0H275Z" fill="#DEE9E4"/>
<path d="M258.415 242.389C258.244 241.857 257.674 241.587 257.159 241.351C251.648 238.764 248.265 232.931 247.109 226.977C246.238 222.478 246.449 217.877 246.927 213.301C248.954 203.927 249.421 193.955 236.552 189.908C236.552 189.908 226.076 186.581 220.151 192.724C216.942 196.051 210.591 210.27 205.307 222.412L203.684 229.024L211.358 255.84C216.233 255.895 221.059 254.87 225.489 252.839C229.919 250.809 233.841 247.823 236.974 244.097H238.375C240.154 246.869 244.363 248.348 246.898 250.669C248.121 251.778 249.825 252.75 251.345 252.147C252.623 251.63 253.275 250.129 253.223 248.754C253.171 247.379 252.564 246.093 251.967 244.851C253.717 245.249 255.552 245.025 257.155 244.219C257.907 243.849 258.648 243.147 258.415 242.389Z" fill="#263238"/>
<path d="M230.971 233.881L243.422 203.243C243.657 202.597 243.64 201.887 243.374 201.253C243.109 200.619 242.614 200.108 241.988 199.821L234.295 192.525L233.128 192.998C227.74 190.861 221.481 193.064 218.535 199.651C216.405 204.4 214.311 209.261 213.648 213.123C212.314 220.885 217.665 223.757 217.665 223.757C217.665 223.757 217.294 224.833 216.419 227.527L212.065 226.988L213.251 233.293L219.425 241.547C219.425 241.547 228.136 241.547 228.044 241.244C227.951 240.94 232.679 236.505 232.679 236.505L230.971 233.881Z" fill="#FFBF9D"/>
<path d="M229.274 208.488C229.187 208.735 229.2 209.005 229.31 209.242C229.42 209.479 229.619 209.663 229.863 209.756C229.981 209.806 230.107 209.832 230.235 209.833C230.363 209.834 230.49 209.809 230.608 209.76C230.726 209.711 230.833 209.639 230.923 209.548C231.012 209.457 231.083 209.35 231.131 209.231C231.217 208.986 231.204 208.716 231.094 208.48C230.984 208.244 230.786 208.06 230.541 207.967C230.424 207.917 230.298 207.891 230.17 207.89C230.043 207.889 229.916 207.914 229.798 207.962C229.68 208.011 229.573 208.082 229.483 208.173C229.393 208.263 229.322 208.37 229.274 208.488Z" fill="#263238"/>
<path d="M219.71 205.004C219.623 205.249 219.635 205.519 219.746 205.756C219.856 205.992 220.055 206.176 220.299 206.268C220.417 206.318 220.543 206.344 220.671 206.345C220.798 206.346 220.925 206.321 221.043 206.273C221.161 206.224 221.268 206.153 221.358 206.062C221.448 205.972 221.519 205.865 221.567 205.747C221.654 205.501 221.642 205.231 221.531 204.994C221.421 204.758 221.222 204.574 220.978 204.482C220.86 204.431 220.734 204.404 220.606 204.403C220.478 204.402 220.351 204.426 220.233 204.475C220.115 204.523 220.007 204.595 219.918 204.686C219.828 204.777 219.757 204.885 219.71 205.004Z" fill="#263238"/>
<path d="M218.85 201.948C218.925 202.11 219.825 201.822 220.844 202.169C221.863 202.517 222.441 203.278 222.593 203.193C222.667 203.156 222.623 202.894 222.374 202.546C222.038 202.091 221.568 201.751 221.029 201.574C220.498 201.394 219.924 201.385 219.388 201.548C218.999 201.685 218.81 201.87 218.85 201.948Z" fill="#263238"/>
<path d="M228.967 206.063C229.059 206.218 229.926 205.841 230.975 206.081C232.024 206.321 232.676 207.024 232.828 206.92C232.898 206.876 232.828 206.621 232.546 206.299C232.164 205.88 231.66 205.591 231.105 205.471C230.559 205.344 229.986 205.394 229.471 205.615C229.085 205.789 228.922 205.992 228.967 206.063Z" fill="#263238"/>
<path d="M222.586 211.95C222.608 211.894 222.011 211.58 221.029 211.092C220.777 210.978 220.547 210.841 220.562 210.649C220.633 210.374 220.785 210.126 221 209.939L222.445 208.217C224.472 205.759 226.035 203.704 225.935 203.622C225.835 203.541 224.109 205.47 222.082 207.928L220.666 209.669C220.394 209.927 220.223 210.273 220.184 210.645C220.191 210.749 220.22 210.851 220.272 210.942C220.323 211.033 220.395 211.111 220.481 211.17C220.612 211.257 220.754 211.328 220.903 211.381C221.919 211.787 222.56 212.009 222.586 211.95Z" fill="#263238"/>
<path d="M217.783 223.77C221.249 225.001 224.99 225.248 228.589 224.483C228.589 224.483 224.361 228.748 217.19 225.555L217.783 223.77Z" fill="#FF9A6C"/>
<path d="M222.182 214.567C222.459 214.389 222.778 214.284 223.107 214.263C223.436 214.242 223.766 214.304 224.064 214.445C224.282 214.542 224.479 214.681 224.642 214.855C224.805 215.029 224.931 215.234 225.013 215.458C225.092 215.673 225.103 215.908 225.044 216.13C224.984 216.352 224.856 216.55 224.679 216.696C224.453 216.824 224.194 216.882 223.935 216.862C223.676 216.841 223.429 216.744 223.227 216.582C222.802 216.249 222.448 215.836 222.185 215.366C222.099 215.243 222.036 215.107 221.996 214.963C221.981 214.895 221.985 214.825 222.008 214.759C222.031 214.694 222.072 214.636 222.126 214.593" fill="#FF9A6C"/>
<path d="M225.35 213.675C225.187 213.609 224.809 214.714 223.593 215.18C222.378 215.645 221.24 215.12 221.177 215.272C221.14 215.339 221.37 215.575 221.863 215.76C222.507 215.994 223.213 215.994 223.857 215.76C224.474 215.532 224.977 215.071 225.257 214.477C225.457 214.012 225.428 213.694 225.35 213.675Z" fill="#263238"/>
<path d="M229.556 201.794C229.593 202.1 230.668 202.204 231.872 202.636C233.076 203.069 233.992 203.627 234.214 203.409C234.318 203.302 234.214 202.995 233.866 202.629C233.406 202.169 232.847 201.819 232.233 201.606C231.618 201.392 230.962 201.32 230.316 201.394C229.823 201.476 229.541 201.646 229.556 201.794Z" fill="#263238"/>
<path d="M220.696 197.714C220.796 198.006 221.581 198.006 222.434 198.279C223.286 198.553 223.942 198.963 224.19 198.778C224.301 198.682 224.268 198.408 224.027 198.091C223.697 197.685 223.253 197.386 222.752 197.233C222.251 197.081 221.716 197.08 221.214 197.233C220.851 197.37 220.655 197.562 220.696 197.714Z" fill="#263238"/>
<path d="M238.316 215.886C238.316 215.886 232.554 215.453 234.666 201.685C235.385 196.976 232.761 191.894 232.761 191.894L234.584 192.049C234.584 192.049 243.567 198.883 243.685 199.072C243.804 199.26 244.167 205.296 244.167 205.296L238.316 215.886Z" fill="#263238"/>
<path d="M237.237 214.936C237.426 214.389 238.504 213.306 239.09 213.406C240.62 213.672 243.199 214.674 241.973 218.363C240.298 223.408 235.566 220.688 235.607 220.54C235.647 220.392 236.589 216.814 237.237 214.936Z" fill="#FFBF9D"/>
<path d="M237.771 219.117C237.797 219.117 237.837 219.21 237.963 219.324C238.144 219.483 238.379 219.566 238.619 219.557C239.216 219.557 239.95 218.84 240.276 217.942C240.434 217.513 240.492 217.055 240.446 216.6C240.452 216.427 240.415 216.256 240.338 216.101C240.262 215.946 240.149 215.811 240.009 215.709C239.917 215.649 239.806 215.622 239.697 215.634C239.587 215.646 239.485 215.696 239.409 215.776C239.294 215.894 239.294 216.005 239.264 216.005C239.234 216.005 239.183 215.887 239.294 215.691C239.363 215.575 239.47 215.486 239.598 215.44C239.772 215.383 239.962 215.395 240.128 215.473C240.321 215.583 240.483 215.741 240.599 215.931C240.714 216.121 240.779 216.337 240.787 216.56C240.856 217.068 240.8 217.586 240.624 218.068C240.253 219.073 239.416 219.849 238.616 219.82C238.467 219.814 238.322 219.776 238.19 219.706C238.059 219.637 237.944 219.54 237.856 219.42C237.737 219.243 237.749 219.121 237.771 219.117Z" fill="#FF9A6C"/>
<path d="M235.796 212.094C235.56 211.961 235.332 211.814 235.114 211.654C234.535 211.194 234.071 210.607 233.758 209.939C233.538 209.482 233.373 209 233.265 208.505C233.15 207.933 233.091 207.351 233.091 206.768C233.13 205.426 233.254 204.087 233.461 202.761C233.624 201.334 233.728 199.97 233.743 198.728C233.765 197.626 233.705 196.524 233.561 195.432C233.465 194.695 233.316 193.966 233.117 193.251C233.05 192.999 232.98 192.807 232.935 192.674C232.92 192.606 232.895 192.54 232.861 192.478C232.861 192.478 232.861 192.548 232.909 192.685C232.957 192.822 233.006 193.011 233.065 193.266C233.242 193.984 233.374 194.712 233.461 195.446C233.592 196.534 233.642 197.63 233.613 198.725C233.591 199.963 233.484 201.312 233.321 202.742C233.118 204.075 233.002 205.42 232.972 206.768C232.976 207.359 233.039 207.948 233.161 208.527C233.276 209.031 233.45 209.52 233.68 209.983C234.006 210.659 234.491 211.247 235.092 211.698C235.307 211.862 235.544 211.995 235.796 212.094Z" fill="#263238"/>
<path d="M247.161 214.566C247.169 214.486 247.169 214.406 247.161 214.326C247.142 214.138 247.124 213.908 247.102 213.631C247.05 213.029 246.935 212.153 246.761 211.096C246.587 210.038 246.32 208.771 245.971 207.399C245.623 206.028 245.149 204.513 244.578 202.964C244.007 201.415 243.359 199.981 242.725 198.695C242.092 197.409 241.465 196.289 240.899 195.368C240.332 194.448 239.854 193.713 239.498 193.225L239.09 192.659C239.046 192.591 238.994 192.529 238.935 192.474C238.964 192.55 239.002 192.622 239.049 192.689L239.42 193.276C239.75 193.779 240.209 194.522 240.75 195.453C241.291 196.385 241.899 197.516 242.525 198.78C243.151 200.044 243.767 201.5 244.341 203.038C244.915 204.576 245.371 206.073 245.745 207.444C246.12 208.815 246.39 210.072 246.583 211.14C246.776 212.208 246.92 213.062 246.998 213.657C247.042 213.934 247.076 214.16 247.102 214.345C247.11 214.421 247.13 214.496 247.161 214.566Z" fill="#455A64"/>
<path d="M226.728 237.935C226.728 237.935 237.271 239.21 238.464 239.753C238.464 239.753 242.599 242.622 245.178 246.939C250.737 256.253 261.661 274.19 258.941 282.47C257.54 286.735 253.809 296.197 233.969 285.242L236.708 274.523L224.109 254.786L226.728 237.935Z" fill="#455A64"/>
<path d="M232.453 234.443L231.127 235.182C223.986 239.086 216.675 235.075 215.934 227.154L210.216 224.053L205.451 220.335L190.429 239.843L173.791 274.018L207.308 293.404L223.849 275.153L238.186 256.65L243.563 244.264L232.453 234.443Z" fill="#455A64"/>
<path d="M209.505 290.99C209.505 290.99 209.505 290.957 209.575 290.898L209.798 290.635L210.668 289.649C211.435 288.787 212.521 287.56 213.892 286.045L218.709 280.719L221.552 277.573L223.056 275.914L223.823 275.063L224.564 274.184C228.64 269.46 232.238 265.121 234.717 261.879L237.649 258.035C237.997 257.581 238.271 257.233 238.46 257L238.675 256.734C238.727 256.675 238.753 256.646 238.757 256.649C238.76 256.653 238.738 256.683 238.694 256.745L238.49 257.023L237.712 258.08C237.03 258.996 236.059 260.334 234.829 261.964C232.372 265.228 228.777 269.586 224.709 274.309L223.968 275.189L223.197 276.039L221.692 277.699L218.843 280.833C217.023 282.829 215.389 284.625 214.026 286.137L210.757 289.7L209.861 290.661L209.623 290.909L209.505 290.99Z" fill="#263238"/>
<path d="M233.969 285.238C233.964 285.208 233.964 285.177 233.969 285.146C233.969 285.076 234.002 284.995 234.028 284.887C234.085 284.641 234.163 284.312 234.262 283.9C234.48 283.028 234.792 281.79 235.17 280.271C235.959 277.199 237.022 272.982 238.231 268.321L238.256 268.221L238.282 268.122L238.379 268.155C240.676 268.894 242.788 269.785 244.7 270.602C246.612 271.419 248.317 272.202 249.747 272.853L253.131 274.401L254.05 274.826L254.287 274.937L254.365 274.982C254.365 274.982 254.335 274.982 254.279 274.956L254.035 274.86C253.82 274.775 253.501 274.645 253.097 274.472C252.289 274.128 251.126 273.614 249.692 272.993C248.258 272.372 246.542 271.596 244.63 270.775C242.718 269.955 240.606 269.079 238.331 268.351L238.453 268.281L238.427 268.38C237.211 273.034 236.111 277.251 235.311 280.319L234.343 283.93L234.073 284.91C234.04 285.013 234.017 285.094 233.995 285.165L233.969 285.238Z" fill="#263238"/>
<path d="M213.047 253.605C213.399 253.852 223.126 257.84 224.631 258.946C226.135 260.051 234.347 266.523 234.347 266.523C234.347 266.523 238.153 268.663 238.127 268.692L234.973 281.433L227.751 272.54C227.751 272.54 220.31 269.713 219.339 269.014C218.914 268.77 218.556 268.425 218.297 268.008C218.038 267.592 217.887 267.119 217.857 266.63C217.857 266.63 216.527 266.26 216.66 264.475C216.66 264.475 215.512 262.158 216.683 261.034L218.02 259.74C218.02 259.74 210.39 255.128 210.302 255.031C210.213 254.935 209.212 254 209.594 253.183C209.975 252.366 213.047 253.605 213.047 253.605Z" fill="#FFBF9D"/>
<path d="M172.39 192.478L178.115 218.325L205.443 220.321L201.367 233.598L194.823 240.111C194.823 240.111 166.494 238.957 163.415 232.131C160.336 225.304 161.225 194.644 161.225 194.644L172.39 192.478Z" fill="#455A64"/>
<g opacity="0.3">
<path d="M209.504 223.121C209.504 223.121 209.601 268.868 209.504 276.471C209.408 284.074 207.844 292.815 207.844 292.815V221.557L209.504 223.121Z" fill="black"/>
</g>
<path d="M195.565 236.324C195.557 236.44 195.538 236.555 195.509 236.667C195.454 236.919 195.387 237.237 195.298 237.632C195.109 238.471 194.842 239.684 194.527 241.184C193.901 244.185 193.13 248.351 192.522 252.99C191.915 257.628 191.592 261.86 191.433 264.921C191.351 266.451 191.296 267.693 191.266 268.551C191.266 268.953 191.233 269.29 191.222 269.537C191.223 269.653 191.211 269.768 191.185 269.881C191.168 269.766 191.16 269.65 191.163 269.534C191.163 269.279 191.163 268.953 191.163 268.547C191.163 267.689 191.163 266.447 191.237 264.91C191.348 261.842 191.641 257.606 192.245 252.953C192.849 248.299 193.656 244.134 194.338 241.125C194.679 239.647 194.976 238.419 195.198 237.592C195.305 237.222 195.394 236.886 195.461 236.638C195.484 236.53 195.519 236.424 195.565 236.324Z" fill="#263238"/>
<path d="M208.582 190.879H49.1655V293.99H208.582V190.879Z" fill="white"/>
<path d="M208.578 293.991C208.578 293.37 208.549 253.828 208.504 190.868L208.578 190.942L49.1762 190.964L49.2726 190.868C49.2726 227.5 49.2726 262.377 49.2726 293.991L49.1837 293.902L208.597 293.991L49.1837 294.079H49.0947V293.991C49.0947 262.388 49.0947 227.512 49.0947 190.868V190.772H49.2022L208.604 190.79H208.682V190.868C208.623 253.828 208.582 293.37 208.578 293.991Z" fill="#263238"/>
<path d="M170.078 205.322L97.4044 204.878L90.0896 189.694H178.849L170.078 205.322Z" fill="#7F9C94"/>
<path d="M170.085 205.325L97.4047 204.881L90.0862 189.687H178.864L170.085 205.325ZM97.4084 204.863L170.085 205.325L178.845 189.716H90.1047L97.4084 204.863Z" fill="#263238"/>
<g opacity="0.3">
<path d="M173.076 189.782C169.982 188.961 166.139 189.527 163.049 188.706C162.599 188.533 162.103 188.519 161.644 188.666C161.122 188.902 160.903 189.519 160.814 190.089C160.73 190.879 160.813 191.679 161.057 192.436C161.302 193.193 161.702 193.89 162.233 194.483C163.311 195.665 164.717 196.5 166.272 196.882C167.506 197.207 168.866 197.289 170.034 196.79C172.083 195.91 173.394 191.985 173.076 189.782Z" fill="black"/>
</g>
<path d="M160.351 194.399C160.351 194.399 158.65 191.997 158.468 190.943C158.287 189.89 158.987 186.102 158.987 186.102C158.987 186.102 160.529 184.971 161.044 185.54C161.337 185.214 161.658 184.915 162.003 184.645C162.822 183.95 163.226 183.466 164.827 184.091C164.827 184.091 166.157 182.927 166.847 183.085C167.309 183.197 167.763 183.339 168.207 183.511C168.207 183.511 170.871 183.64 171.338 184.531C171.612 184.944 172.008 185.262 172.472 185.44C172.874 185.624 173.234 185.886 173.532 186.212C173.83 186.538 174.059 186.92 174.206 187.336C174.451 188.097 174.559 188.896 174.524 189.694L171.745 189.779C171.745 189.779 171.438 195.756 170.711 196.192C169.985 196.628 169.744 196.429 169.744 196.429C169.744 196.429 168.54 197.5 167.643 196.547C167.643 196.547 165.45 196.916 164.797 196.177C164.145 195.438 162.122 188.552 162.122 188.552L161.892 191.853C161.892 191.853 163.082 194.111 162.359 194.547C161.637 194.983 160.351 194.399 160.351 194.399Z" fill="#FFBF9D"/>
<path d="M168.747 188.788C168.862 188.788 169.051 190.466 169.437 192.518C169.822 194.569 170.252 196.214 170.144 196.243C170.037 196.273 169.429 194.669 169.033 192.592C168.636 190.514 168.644 188.792 168.747 188.788Z" fill="#FF9A6C"/>
<path d="M164.156 187.263C164.26 187.234 164.916 189.193 165.613 191.64C166.309 194.086 166.791 196.097 166.687 196.127C166.584 196.156 165.928 194.197 165.227 191.75C164.527 189.304 164.056 187.293 164.156 187.263Z" fill="#FF9A6C"/>
<path d="M141.327 220.161C141.305 220.139 141.286 220.116 141.267 220.091L141.112 219.884L140.522 219.075C140.004 218.354 139.277 217.334 138.381 216.081L136.898 214.007L136.079 212.85L135.653 212.244C135.579 212.144 135.509 212.041 135.435 211.937C135.377 211.835 135.299 211.746 135.205 211.675C135.111 211.618 135 211.595 134.891 211.609C134.782 211.623 134.681 211.674 134.605 211.753C134.531 211.851 134.472 211.959 134.43 212.074C134.375 212.193 134.316 212.314 134.26 212.444L133.567 213.922L132.085 217.057L130.603 220.195L130.251 220.934C130.188 221.052 130.139 221.176 130.102 221.304C130.086 221.417 130.111 221.532 130.173 221.629C130.231 221.725 130.324 221.797 130.432 221.828C130.555 221.852 130.68 221.852 130.803 221.828L131.581 221.762L137.032 221.307L140.711 221.015C140.811 221.013 140.911 221.001 141.008 220.978C141.087 220.95 141.16 220.905 141.219 220.845C141.318 220.747 141.375 220.615 141.378 220.476C141.377 220.362 141.348 220.25 141.293 220.15C141.293 220.15 141.315 220.169 141.349 220.221C141.39 220.3 141.413 220.387 141.415 220.476C141.419 220.624 141.364 220.769 141.264 220.878C141.198 220.949 141.117 221.004 141.026 221.037C140.925 221.065 140.82 221.081 140.715 221.085L137.047 221.455L131.629 221.958L130.851 222.028H130.651C130.575 222.032 130.498 222.023 130.425 222.002C130.272 221.955 130.141 221.854 130.056 221.718C129.972 221.582 129.939 221.421 129.965 221.263C130.002 221.123 130.055 220.987 130.125 220.86L130.477 220.121C130.947 219.108 131.436 218.058 131.94 216.983C132.444 215.907 132.933 214.861 133.404 213.848C133.645 213.342 133.875 212.847 134.104 212.37C134.16 212.248 134.219 212.13 134.275 212L134.36 211.819C134.39 211.75 134.433 211.688 134.486 211.634C134.59 211.524 134.73 211.454 134.881 211.435C135.031 211.416 135.184 211.45 135.312 211.531C135.426 211.613 135.521 211.719 135.59 211.841L135.805 212.148L136.231 212.758L137.039 213.919L138.492 216.007L140.582 219.038L141.141 219.866L141.286 220.084C141.315 220.132 141.33 220.158 141.327 220.161Z" fill="#263238"/>
<path d="M54.2083 244.137L77.0123 281.328C77.3542 281.885 77.8937 282.294 78.5238 282.474C79.1539 282.653 79.8285 282.59 80.414 282.296L96.2256 274.368C96.8187 274.076 97.2776 273.569 97.5083 272.951C97.7391 272.332 97.7243 271.649 97.4669 271.041L80.9365 231.053L54.2083 244.137Z" fill="#455A64"/>
<g opacity="0.3">
<path d="M88.0183 248.202C80.1777 252.631 72.1012 256.631 63.8247 260.185L70.5614 271.425C70.5614 271.425 85.8468 266.62 92.6688 259.445L88.0183 248.202Z" fill="black"/>
</g>
<g opacity="0.3">
<path d="M81.8301 233.211C81.8301 233.211 76.7832 239.816 65.9592 244.529C58.096 247.955 55.8023 246.794 55.8023 246.794L54.8203 245.109L81.2002 231.688L81.8301 233.211Z" fill="black"/>
</g>
<path d="M80.9664 228.368L82.9414 230.719C82.9414 230.719 81.2109 234.755 68.8084 240.887C57.7177 246.372 53.9862 245.711 53.9862 245.711L52.7522 245.419L52.2075 242.521L80.9664 228.368Z" fill="#E0E0E0"/>
<path d="M80.9663 228.368L80.818 228.449L80.3919 228.668L78.7503 229.492L72.6732 232.515L52.2482 242.606L52.3 242.502C52.4742 243.423 52.6706 244.406 52.8448 245.4L52.7744 245.322C53.1746 245.415 53.6229 245.529 54.0454 245.618C54.5015 245.651 54.9598 245.636 55.4127 245.574C55.6388 245.548 55.8648 245.518 56.0908 245.478C56.3169 245.437 56.5392 245.404 56.7615 245.356C57.6546 245.178 58.5217 244.938 59.3554 244.679C61.0136 244.163 62.6437 243.561 64.2394 242.876C67.1279 241.646 69.9493 240.266 72.6917 238.74C74.9378 237.517 77.086 236.123 79.1172 234.57C79.9182 233.956 80.677 233.29 81.3887 232.574C81.9666 232.021 82.4653 231.39 82.8709 230.7V230.741L81.4257 228.993L81.0552 228.531C80.97 228.427 80.9292 228.368 80.9292 228.368C80.9292 228.368 80.9737 228.413 81.0589 228.512L81.4295 228.956L82.9117 230.693V230.712V230.734C82.5096 231.438 82.0106 232.082 81.4295 232.648C80.7193 233.372 79.9603 234.046 79.1579 234.666C77.1322 236.238 74.9849 237.647 72.7362 238.88C70.0147 240.413 67.2116 241.798 64.3394 243.027C62.7401 243.728 61.1049 244.345 59.4407 244.875C58.5759 245.146 57.6978 245.371 56.8097 245.552C56.5874 245.603 56.3613 245.644 56.1316 245.677C55.9019 245.711 55.6758 245.751 55.4424 245.773C54.9759 245.838 54.504 245.854 54.0343 245.821C53.5748 245.725 53.1523 245.618 52.741 245.522H52.678V245.459C52.4927 244.469 52.3075 243.482 52.1333 242.565V242.491L52.1963 242.462L72.6992 232.412L78.7837 229.455L80.4215 228.664L80.844 228.464L80.9663 228.368Z" fill="#263238"/>
<path d="M52.3112 242.75C52.9634 244.04 59.7742 241.722 67.8115 237.875C73.2958 235.247 80.6587 230.175 80.944 228.327C81.1664 226.897 73.3513 229.218 65.4437 233.199C57.536 237.18 51.6553 241.46 52.3112 242.75Z" fill="white"/>
<path d="M52.3115 242.749C52.2839 242.698 52.2651 242.643 52.256 242.586C52.2462 242.416 52.282 242.246 52.3597 242.095C52.6802 241.533 53.098 241.032 53.5937 240.616C55.3851 239.057 57.3207 237.671 59.3743 236.477C62.3853 234.654 65.5022 233.011 68.7086 231.557C70.5207 230.74 72.4513 229.945 74.493 229.225C75.5158 228.855 76.5644 228.526 77.6464 228.245C78.1912 228.105 78.7581 227.979 79.3065 227.876C79.592 227.83 79.8807 227.806 80.1699 227.805C80.2427 227.8 80.3158 227.8 80.3886 227.805C80.4648 227.809 80.5405 227.82 80.6146 227.839C80.6933 227.857 80.7693 227.886 80.8406 227.924C80.9229 227.971 80.9859 228.045 81.0185 228.134C81.0462 228.218 81.0462 228.309 81.0185 228.393C81.0034 228.469 80.9798 228.544 80.9481 228.615C80.8903 228.751 80.8196 228.881 80.7369 229.003C80.5741 229.242 80.3946 229.469 80.1996 229.683C79.8151 230.097 79.4068 230.488 78.9767 230.855C78.1282 231.594 77.2463 232.252 76.3829 232.88C74.619 234.133 72.844 235.238 71.1173 236.207C69.3905 237.175 67.6896 238.018 66.0814 238.75C64.4732 239.482 62.9613 240.139 61.5717 240.701C59.3875 241.634 57.126 242.377 54.8128 242.919C54.1825 243.078 53.5288 243.125 52.8822 243.056C52.7128 243.033 52.5534 242.962 52.4227 242.852C52.3803 242.813 52.3463 242.765 52.3227 242.712C52.3227 242.712 52.356 242.764 52.4338 242.838C52.5668 242.937 52.7244 242.998 52.8896 243.015C53.5308 243.069 54.1765 243.011 54.798 242.845C57.0943 242.285 59.3401 241.535 61.5124 240.605C62.8983 240.036 64.4065 239.378 66.0073 238.635C67.6081 237.892 69.3052 237.075 71.0246 236.081C72.744 235.087 74.5078 233.989 76.2643 232.755C77.1425 232.126 78.017 231.465 78.8582 230.736C79.2829 230.376 79.6851 229.989 80.0625 229.58C80.25 229.373 80.4233 229.155 80.5813 228.925C80.658 228.808 80.7237 228.685 80.7776 228.556C80.8329 228.45 80.8548 228.33 80.8406 228.212C80.8184 228.127 80.6998 228.068 80.5738 228.042C80.5097 228.025 80.4438 228.015 80.3774 228.012C80.3084 228.007 80.239 228.007 80.1699 228.012C79.8906 228.014 79.6118 228.037 79.3362 228.083C78.7841 228.168 78.2245 228.293 77.6983 228.43C76.6237 228.711 75.5787 229.047 74.5597 229.402C72.5254 230.115 70.5948 230.91 68.7865 231.72C65.5815 233.162 62.4636 234.79 59.4484 236.595C57.3954 237.773 55.4532 239.134 53.6455 240.661C53.1509 241.069 52.7299 241.559 52.4005 242.109C52.32 242.254 52.2791 242.417 52.2819 242.583C52.2893 242.693 52.3189 242.745 52.3115 242.749Z" fill="#263238"/>
<path d="M73.5404 229.019L74.6521 230.338C74.6521 230.338 73.7405 232.748 66.6999 236.056C59.6594 239.364 58.3735 238.766 58.3735 238.766L58.0475 238.629L57.373 236.973L73.5404 229.019Z" fill="#E0E0E0"/>
<path d="M73.5405 229.019C73.5154 229.039 73.488 229.056 73.4589 229.071L73.2181 229.196L72.2917 229.666L68.8752 231.381C65.9737 232.818 61.9532 234.811 57.425 237.062L57.4694 236.94L58.1439 238.592L58.092 238.54L58.3254 238.64C58.3944 238.676 58.4701 238.697 58.5478 238.703C59.0479 238.712 59.547 238.652 60.03 238.522C60.5228 238.407 61.0046 238.259 61.4752 238.108C62.4201 237.793 63.3279 237.435 64.195 237.073C65.9292 236.333 67.53 235.594 68.9493 234.825C70.2118 234.159 71.4154 233.388 72.5474 232.519C72.9912 232.179 73.4109 231.808 73.8036 231.41C74.1192 231.096 74.3876 230.737 74.6003 230.346V230.383L73.7961 229.396L73.5886 229.133C73.5621 229.104 73.5385 229.072 73.5182 229.037C73.5459 229.06 73.5707 229.086 73.5923 229.115L73.811 229.359L74.6595 230.335V230.353C74.4529 230.761 74.1841 231.136 73.8628 231.462C73.4749 231.878 73.0562 232.265 72.6104 232.619C71.482 233.506 70.2781 234.292 69.0123 234.97C67.5967 235.749 65.9922 236.504 64.2506 237.246C63.3798 237.616 62.472 237.986 61.5196 238.289C61.0453 238.444 60.5599 238.596 60.0596 238.71C59.5506 238.85 59.0236 238.913 58.4959 238.899C58.3988 238.89 58.3043 238.862 58.218 238.817L57.9882 238.721H57.9512V238.688C57.7214 238.119 57.4917 237.557 57.2768 237.032L57.2434 236.951L57.3249 236.91L68.864 231.273L72.288 229.621L73.2107 229.181L73.4478 229.074L73.5405 229.019Z" fill="#263238"/>
<path d="M57.4358 237.111C57.8063 237.851 61.7046 236.612 66.1513 234.372C70.5979 232.133 73.8959 229.719 73.529 228.98C73.1622 228.241 69.2602 229.479 64.8173 231.719C60.3743 233.958 57.0652 236.372 57.4358 237.111Z" fill="white"/>
<path d="M57.4362 237.114C57.4362 237.114 57.3435 236.981 57.4584 236.744C57.6355 236.424 57.869 236.139 58.1476 235.901C59.1539 235.019 60.2421 234.235 61.3974 233.558C63.0918 232.529 64.8451 231.6 66.6482 230.775C67.6635 230.309 68.7455 229.847 69.898 229.44C70.4822 229.228 71.0771 229.047 71.6803 228.897C71.9911 228.818 72.3068 228.76 72.6253 228.723C72.7904 228.707 72.9567 228.707 73.1218 228.723C73.2207 228.707 73.3222 228.722 73.4118 228.767C73.5014 228.812 73.5742 228.884 73.6197 228.973C73.6652 229.062 73.6809 229.164 73.6647 229.262C73.6485 229.361 73.6011 229.452 73.5294 229.522C73.4408 229.662 73.3404 229.794 73.2293 229.917C73.0083 230.15 72.7732 230.368 72.5252 230.572C72.0513 230.967 71.5565 231.337 71.043 231.68C70.0314 232.364 69.0161 232.956 68.0378 233.499C66.3011 234.454 64.5108 235.31 62.6758 236.06C61.4438 236.586 60.1646 236.994 58.8554 237.28C58.4982 237.362 58.1293 237.379 57.766 237.332C57.5029 237.28 57.4436 237.121 57.451 237.125C57.4907 237.173 57.5398 237.212 57.5952 237.241C57.6506 237.269 57.7112 237.286 57.7734 237.291C58.1314 237.324 58.4923 237.295 58.8406 237.206C60.1372 236.886 61.4032 236.453 62.624 235.912C64.4456 235.146 66.2244 234.283 67.9526 233.325C68.9234 232.782 69.935 232.187 70.9392 231.507C71.4395 231.167 71.9397 230.808 72.4215 230.398C72.662 230.199 72.8897 229.986 73.1033 229.758C73.2068 229.644 73.2998 229.52 73.3812 229.389C73.4217 229.337 73.4503 229.277 73.465 229.213C73.4798 229.15 73.4802 229.083 73.4664 229.019C73.4225 228.972 73.3691 228.934 73.3098 228.909C73.2504 228.883 73.1864 228.871 73.1218 228.871C72.9689 228.858 72.8152 228.858 72.6623 228.871C72.3527 228.907 72.0457 228.962 71.7433 229.038C71.1393 229.185 70.5502 229.374 69.9795 229.574C68.8345 229.976 67.7562 230.431 66.7408 230.893C64.9402 231.709 63.1861 232.623 61.4864 233.632C60.3311 234.294 59.2373 235.057 58.2181 235.912C57.9386 236.14 57.6993 236.412 57.5103 236.718C57.4698 236.775 57.4422 236.839 57.4294 236.908C57.4166 236.976 57.4189 237.046 57.4362 237.114Z" fill="#263238"/>
<path d="M63.9839 233.347L54.72 216.267L56.8544 215.058L66.1664 232.249C65.2956 232.678 64.9028 233.217 63.9839 233.347Z" fill="white"/>
<path d="M63.984 233.347C64.1878 233.302 64.3874 233.239 64.5805 233.159C64.8114 233.048 65.0321 232.917 65.2401 232.767C65.5278 232.558 65.8313 232.371 66.148 232.209V232.268C64.4323 229.163 60.8861 222.658 56.8211 215.162L56.7878 215.103L56.9212 215.14L54.7868 216.352L54.8238 216.223L61.3678 228.369C62.1868 229.899 62.8501 231.137 63.3058 232.002L63.8283 232.993L63.9617 233.255C63.9914 233.314 64.0062 233.344 64.0025 233.347C63.9829 233.324 63.9667 233.298 63.9543 233.27L63.8098 233.026C63.6838 232.793 63.5022 232.471 63.2725 232.065C62.8019 231.207 62.1275 229.988 61.29 228.472C59.6114 225.393 57.2806 221.124 54.6534 216.316L54.6089 216.231L54.6904 216.186L56.8248 214.974L56.91 214.926L56.9582 215.011L56.9916 215.07C61.0677 222.577 64.562 229.093 66.2258 232.227L66.248 232.268L66.2073 232.287C65.8907 232.443 65.5861 232.622 65.2957 232.823C65.0827 232.968 64.8555 233.092 64.6176 233.192C64.4707 233.252 64.3179 233.297 64.1618 233.325C64.1036 233.34 64.0439 233.347 63.984 233.347Z" fill="#263238"/>
<path d="M56.243 215.495L65.5032 232.63L64.6806 233.014L55.3167 215.994L56.243 215.495Z" fill="#455A64"/>
<path d="M63.0869 233.579C63.0869 233.523 64.1171 233.209 65.3102 232.607C66.5034 232.004 67.3779 231.361 67.415 231.405C67.2621 231.592 67.0793 231.752 66.874 231.879C66.4049 232.218 65.9092 232.52 65.3918 232.78C64.8755 233.039 64.3389 233.256 63.7873 233.427C63.5626 233.512 63.3266 233.563 63.0869 233.579Z" fill="#263238"/>
<path d="M81.9448 232.092C81.5365 231.793 81.1765 231.434 80.8776 231.027C80.528 230.664 80.2175 230.265 79.9512 229.837C80.3589 230.137 80.7198 230.496 81.0221 230.901C81.3693 231.266 81.6784 231.665 81.9448 232.092Z" fill="#263238"/>
<path d="M80.0402 233.952C79.6267 233.636 79.2533 233.271 78.9285 232.865C78.5585 232.502 78.2349 232.095 77.9651 231.653C78.3788 231.967 78.7521 232.331 79.0768 232.736C79.4478 233.099 79.7715 233.508 80.0402 233.952Z" fill="#263238"/>
<path d="M77.8464 235.756C77.4385 235.407 77.074 235.011 76.7607 234.576C76.3965 234.182 76.0828 233.744 75.8269 233.272C76.2343 233.622 76.5988 234.019 76.9126 234.454C77.2734 234.851 77.5868 235.287 77.8464 235.756Z" fill="#263238"/>
<path d="M75.1005 237.561C74.7116 237.184 74.3684 236.762 74.0778 236.305C73.7367 235.883 73.4469 235.423 73.2144 234.933C73.9472 235.73 74.5806 236.613 75.1005 237.561Z" fill="#263238"/>
<path d="M72.1174 239.259C71.551 238.347 71.0969 237.37 70.7649 236.35C71.0736 236.791 71.3298 237.266 71.5282 237.765C71.7837 238.238 71.9815 238.739 72.1174 239.259Z" fill="#263238"/>
<path d="M69.583 240.458C69.2938 240.034 69.0585 239.576 68.8826 239.094C68.6491 238.636 68.4724 238.15 68.3564 237.649C68.8835 238.53 69.2956 239.474 69.583 240.458Z" fill="#263238"/>
<path d="M66.9037 241.718C66.414 240.816 66.0867 239.835 65.9365 238.82C66.1629 239.278 66.3429 239.757 66.4738 240.25C66.6647 240.724 66.8086 241.216 66.9037 241.718Z" fill="#263238"/>
<path d="M63.6799 243.107C63.4794 242.611 63.3388 242.094 63.2612 241.565C63.1221 241.05 63.0462 240.52 63.0352 239.987C63.3727 240.998 63.5891 242.045 63.6799 243.107Z" fill="#263238"/>
<path d="M60.7265 244.35C60.3686 243.334 60.1323 242.28 60.0225 241.208C60.3803 242.224 60.6167 243.279 60.7265 244.35Z" fill="#263238"/>
<path d="M57.0362 245.413C56.8717 244.935 56.7671 244.439 56.7249 243.935C56.6198 243.433 56.5775 242.921 56.5989 242.408C56.7657 242.886 56.8715 243.383 56.9139 243.887C57.0213 244.388 57.0625 244.901 57.0362 245.413Z" fill="#263238"/>
<path d="M54.0603 245.767C53.8113 244.89 53.6866 243.981 53.6898 243.069C53.9388 243.947 54.0635 244.855 54.0603 245.767Z" fill="#263238"/>
<path d="M84.2087 223.522L89.9931 273.822C90.0793 274.576 90.4465 275.27 91.0218 275.765C91.5972 276.261 92.3385 276.523 93.0984 276.499L113.642 275.863C114.407 275.838 115.135 275.526 115.68 274.989C116.224 274.451 116.544 273.728 116.577 272.965L118.774 222.775L84.2087 223.522Z" fill="#7F9C94"/>
<path d="M84.2087 223.523L84.8239 223.501L86.6433 223.453L93.5986 223.287L118.774 222.699H118.856V222.78C118.274 236.179 117.555 252.764 116.777 270.682C116.745 271.392 116.714 272.101 116.684 272.808C116.684 273.541 116.429 274.252 115.962 274.818C115.501 275.391 114.853 275.782 114.131 275.924C113.781 275.972 113.428 275.996 113.075 275.998L112.03 276.027L103.826 276.282L95.9109 276.522L93.9803 276.582C93.6579 276.582 93.3429 276.607 93.0206 276.607C92.6934 276.613 92.3676 276.563 92.0571 276.46C91.4351 276.263 90.8915 275.875 90.5045 275.351C90.1273 274.833 89.9096 274.216 89.8782 273.577C88.7666 263.763 87.755 254.929 86.9138 247.511C86.0726 240.093 85.3982 234.105 84.9313 229.958C84.6979 227.892 84.52 226.288 84.3977 225.198C84.3384 224.658 84.294 224.244 84.2606 223.963C84.2273 223.682 84.2199 223.545 84.2199 223.545C84.2199 223.545 84.2421 223.693 84.2754 223.974C84.3088 224.255 84.3607 224.676 84.4274 225.22L84.9906 230.003C85.476 234.15 86.1764 240.145 87.0435 247.552C87.9106 254.959 88.9222 263.767 90.0598 273.554C90.0889 274.163 90.2949 274.75 90.6527 275.244C91.0174 275.738 91.5299 276.104 92.1164 276.29C92.6982 276.5 93.3355 276.411 93.9692 276.404L95.8998 276.345L103.819 276.097L112.019 275.839L113.064 275.809C113.409 275.81 113.753 275.787 114.094 275.739C114.768 275.612 115.377 275.254 115.813 274.726C116.255 274.193 116.495 273.522 116.492 272.83C116.521 272.124 116.551 271.414 116.584 270.705C117.373 252.786 118.107 236.201 118.7 222.806L118.782 222.887L93.6542 223.379L86.6803 223.508L84.8461 223.538L84.2087 223.523Z" fill="#263238"/>
<g opacity="0.3">
<path d="M117.837 244.29C107.406 245.128 96.9371 245.4 86.4766 245.107L88.0625 260.232C88.0625 260.232 106.516 262.627 117.218 258.383L117.837 244.29Z" fill="black"/>
</g>
<g opacity="0.3">
<path d="M118.656 225.498C118.656 225.498 110.1 229.992 96.389 229.674C86.4284 229.445 84.583 227.109 84.583 227.109L84.3718 224.851L118.741 223.587L118.656 225.498Z" fill="black"/>
</g>
<path d="M120.123 219.977L121.05 223.411C121.05 223.411 117.248 226.823 101.18 227.233C86.8064 227.602 83.2158 225.082 83.2158 225.082L82.0559 224.18L82.9045 220.853L120.123 219.977Z" fill="#E0E0E0"/>
<path d="M120.123 219.973H119.93L119.374 219.991L117.24 220.058L109.362 220.272L82.9079 220.934L82.9968 220.864C82.7263 221.917 82.441 223.041 82.152 224.19L82.1186 224.09C82.4892 224.386 82.9116 224.723 83.3155 225.026C83.7809 225.281 84.2714 225.488 84.7792 225.643C85.0312 225.732 85.2832 225.806 85.5388 225.876C85.7945 225.946 86.0502 226.012 86.3096 226.072C87.3271 226.312 88.3561 226.5 89.3926 226.637C91.3925 226.902 93.4049 227.062 95.4216 227.118C99.0669 227.233 102.716 227.156 106.353 226.885C109.318 226.691 112.264 226.27 115.165 225.624C116.309 225.367 117.436 225.035 118.537 224.63C119.419 224.33 120.256 223.909 121.023 223.381V223.418C120.734 222.309 120.512 221.455 120.356 220.867C120.286 220.583 120.227 220.361 120.186 220.202C120.145 220.043 120.134 219.973 120.134 219.973L120.201 220.187L120.386 220.842C120.553 221.429 120.79 222.29 121.101 223.399V223.436H121.083C120.313 223.981 119.471 224.415 118.581 224.726C117.479 225.142 116.35 225.481 115.202 225.743C112.298 226.407 109.347 226.842 106.375 227.044C102.731 227.326 99.0747 227.411 95.4216 227.299C93.3988 227.248 91.3801 227.09 89.3741 226.826C88.344 226.681 87.3064 226.511 86.2725 226.26C86.0095 226.201 85.7538 226.134 85.4944 226.061C85.235 225.987 84.9793 225.913 84.7236 225.828C84.2036 225.665 83.701 225.453 83.2229 225.192C82.7856 224.867 82.3928 224.541 82.0037 224.242L81.9556 224.205V224.142C82.2483 223.004 82.5336 221.88 82.8041 220.816L82.8227 220.745H82.8931L109.41 220.158L117.273 220.003L119.389 219.966H120.13L120.123 219.973Z" fill="#263238"/>
<path d="M82.8899 221.138C82.9455 222.816 91.2534 223.699 101.607 223.566C108.673 223.474 118.912 221.718 120.135 219.914C121.068 218.517 111.701 217.15 101.421 217.49C91.1422 217.83 82.8343 219.46 82.8899 221.138Z" fill="white"/>
<path d="M82.89 221.138C82.8878 221.07 82.8966 221.003 82.9159 220.938C82.9946 220.752 83.1227 220.591 83.2865 220.472C83.9002 220.036 84.5864 219.71 85.3134 219.511C87.1662 218.905 89.9602 218.369 93.4323 217.978C97.4924 217.528 101.576 217.319 105.661 217.353C107.969 217.379 110.393 217.479 112.894 217.723C114.146 217.844 115.417 218 116.696 218.229C117.343 218.342 117.983 218.488 118.615 218.665C118.937 218.757 119.251 218.872 119.556 219.009C119.714 219.079 119.863 219.165 120.001 219.268C120.085 219.321 120.155 219.393 120.204 219.48C120.253 219.566 120.28 219.663 120.283 219.763C120.271 219.864 120.227 219.959 120.157 220.033C120.105 220.104 120.044 220.169 119.975 220.225C119.848 220.34 119.71 220.443 119.564 220.532C119.277 220.704 118.977 220.855 118.667 220.983C118.063 221.232 117.444 221.445 116.814 221.622C115.562 221.992 114.309 222.25 113.075 222.483C110.694 222.921 108.292 223.239 105.879 223.437C104.731 223.533 103.604 223.599 102.511 223.633C101.418 223.666 100.354 223.662 99.3278 223.662C97.2749 223.662 95.3629 223.603 93.6213 223.518C90.1343 223.344 87.3218 223.027 85.4135 222.568C84.6725 222.43 83.9622 222.161 83.3161 221.774C83.1532 221.667 83.0245 221.515 82.9456 221.337C82.9257 221.29 82.9132 221.24 82.9085 221.19C82.9085 221.156 82.9085 221.141 82.9085 221.141C82.9246 221.205 82.9444 221.268 82.9678 221.33C83.0564 221.5 83.1912 221.643 83.3569 221.74C84.0066 222.103 84.7133 222.353 85.4468 222.479C87.3478 222.908 90.164 223.219 93.6472 223.363C95.3888 223.44 97.2972 223.485 99.3464 223.481C100.373 223.481 101.436 223.481 102.526 223.444C103.615 223.407 104.749 223.341 105.883 223.245C108.18 223.045 110.582 222.738 113.046 222.28C114.276 222.047 115.525 221.777 116.751 221.419C117.382 221.247 118 221.036 118.604 220.787C118.903 220.662 119.193 220.516 119.471 220.35C119.604 220.268 119.728 220.172 119.842 220.066C119.901 220.017 119.954 219.959 119.997 219.896C120.047 219.852 120.078 219.791 120.086 219.726C120.086 219.615 120.001 219.493 119.879 219.401C119.752 219.307 119.616 219.227 119.471 219.164C119.175 219.031 118.869 218.92 118.556 218.831C117.93 218.65 117.292 218.517 116.659 218.399C115.388 218.17 114.12 218.029 112.872 217.893C110.378 217.649 107.958 217.545 105.653 217.523C101.569 217.481 97.4864 217.675 93.4249 218.103C89.9602 218.473 87.1736 218.994 85.3134 219.582C84.59 219.772 83.9045 220.085 83.2865 220.506C83.1263 220.617 82.9985 220.769 82.9159 220.946C82.8937 221.068 82.8974 221.138 82.89 221.138Z" fill="#263238"/>
<path d="M111.982 217.038L112.505 218.971C112.505 218.971 110.37 221.063 101.336 221.114C92.3021 221.166 91.2386 219.906 91.2386 219.906L90.9607 219.603L91.0644 217.529L111.982 217.038Z" fill="#E0E0E0"/>
<path d="M111.982 217.033H111.871H111.556L110.355 217.078L105.908 217.211L91.0529 217.599L91.1566 217.521C91.127 218.179 91.0936 218.881 91.0566 219.591L91.0343 219.521L91.2307 219.739C91.2856 219.812 91.3549 219.874 91.4345 219.92C91.9628 220.179 92.5256 220.361 93.1057 220.46C93.6801 220.582 94.2619 220.659 94.8325 220.729C95.9813 220.859 97.1115 220.922 98.2046 220.966C100.395 221.036 102.455 221.036 104.315 220.918C105.973 220.831 107.62 220.603 109.24 220.238C109.878 220.092 110.505 219.899 111.115 219.661C111.603 219.482 112.062 219.233 112.478 218.922V218.959L112.108 217.529C112.067 217.37 112.037 217.248 112.015 217.159C112.003 217.115 111.993 217.071 111.986 217.026C112.006 217.063 112.02 217.103 112.026 217.144C112.056 217.237 112.089 217.355 112.137 217.514L112.545 218.952V218.974C112.126 219.299 111.66 219.56 111.163 219.746C110.552 219.996 109.923 220.197 109.281 220.349C107.658 220.741 106.004 220.988 104.337 221.088C102.485 221.217 100.406 221.228 98.2083 221.162C97.0966 221.121 95.985 221.058 94.8214 220.929C94.2471 220.859 93.6616 220.781 93.0761 220.659C92.4743 220.557 91.8911 220.367 91.3456 220.094C91.2508 220.037 91.1668 219.965 91.0973 219.879L90.9009 219.661L90.875 219.632V219.591C90.9121 218.881 90.9454 218.179 90.9788 217.521V217.432H91.0677L105.983 217.118L110.4 217.041H111.585H111.889C111.92 217.034 111.951 217.032 111.982 217.033Z" fill="#263238"/>
<path d="M91.0529 217.689C91.0862 218.632 95.796 219.245 101.573 219.053C107.35 218.861 112.015 217.944 111.982 217.002C111.949 216.059 107.242 215.449 101.462 215.638C95.6811 215.826 91.0232 216.747 91.0529 217.689Z" fill="white"/>
<path d="M91.0531 217.688C91.0458 217.651 91.0458 217.613 91.0531 217.577C91.0931 217.471 91.1609 217.378 91.2495 217.307C91.5954 217.059 91.9815 216.873 92.3908 216.756C93.8828 216.322 95.4126 216.028 96.9598 215.88C99.2495 215.625 101.552 215.502 103.856 215.511C105.153 215.511 106.52 215.559 107.932 215.692C108.636 215.758 109.351 215.847 110.074 215.988C110.439 216.058 110.799 216.152 111.152 216.268C111.335 216.329 111.511 216.407 111.678 216.501C111.787 216.532 111.883 216.597 111.952 216.686C112.022 216.774 112.061 216.883 112.065 216.996C112.069 217.108 112.036 217.219 111.973 217.312C111.909 217.405 111.818 217.476 111.712 217.514C111.55 217.616 111.38 217.705 111.204 217.78C110.859 217.92 110.505 218.036 110.144 218.128C109.446 218.311 108.738 218.457 108.025 218.567C106.628 218.789 105.268 218.937 103.971 219.015C101.673 219.175 99.3682 219.203 97.0673 219.1C95.5133 219.055 93.9672 218.862 92.4501 218.523C92.0338 218.435 91.6361 218.275 91.2755 218.05C91.1821 217.986 91.1079 217.898 91.0606 217.795C91.0477 217.759 91.0415 217.722 91.042 217.684C91.0602 217.754 91.0923 217.819 91.1362 217.876C91.1801 217.933 91.235 217.981 91.2977 218.017C91.6605 218.227 92.0564 218.375 92.4687 218.453C93.9891 218.762 95.5344 218.934 97.0858 218.967C99.3801 219.051 101.677 219.009 103.967 218.841C105.26 218.745 106.616 218.608 108.006 218.383C108.713 218.272 109.415 218.127 110.107 217.946C110.459 217.857 110.804 217.743 111.141 217.606C111.306 217.537 111.464 217.454 111.615 217.359C111.76 217.263 111.886 217.13 111.886 216.989C111.886 216.849 111.741 216.738 111.589 216.653C111.433 216.567 111.269 216.496 111.1 216.438C110.756 216.324 110.404 216.233 110.048 216.165C109.345 216.031 108.637 215.932 107.925 215.869C106.52 215.736 105.16 215.688 103.848 215.677C101.552 215.661 99.2558 215.77 96.9709 216.002C95.4291 216.137 93.9026 216.409 92.4094 216.815C92.0038 216.92 91.6191 217.092 91.2718 217.326C91.2126 217.368 91.1627 217.422 91.1251 217.484C91.0875 217.546 91.0631 217.616 91.0531 217.688Z" fill="#263238"/>
<path d="M99.7943 216.932L98.4121 194.422L101.254 194.189L102.644 216.836C101.532 216.847 100.824 217.239 99.7943 216.932Z" fill="white"/>
<path d="M99.7943 216.932C100.032 216.983 100.274 217.014 100.517 217.025C100.814 217.023 101.111 216.993 101.402 216.936C101.812 216.854 102.227 216.804 102.644 216.784L102.599 216.829C102.318 212.722 101.773 204.151 101.173 194.26V194.182L101.28 194.275L98.4343 194.508L98.5233 194.404C98.8938 200.736 99.2273 206.35 99.4682 210.394C99.5793 212.408 99.6683 214.035 99.7313 215.166C99.7609 215.72 99.7832 216.156 99.798 216.463C99.798 216.603 99.798 216.714 99.798 216.803C99.8016 216.842 99.8016 216.882 99.798 216.921V216.814C99.798 216.729 99.798 216.622 99.7683 216.485C99.7461 216.182 99.7164 215.746 99.6757 215.21C99.6016 214.079 99.4904 212.464 99.3533 210.457C99.0976 206.391 98.7382 200.765 98.3306 194.419V194.323H98.4232L101.265 194.09H101.365V194.19V194.268C101.966 204.158 102.477 212.748 102.685 216.844V216.888H102.644C102.234 216.899 101.825 216.94 101.421 217.01C101.125 217.062 100.825 217.086 100.524 217.08C100.341 217.07 100.158 217.043 99.9795 216.999C99.8499 216.954 99.7943 216.932 99.7943 216.932Z" fill="#263238"/>
<path d="M100.395 194.353L101.747 216.918H100.691L99.1755 194.427L100.395 194.353Z" fill="#455A64"/>
<path d="M98.7383 216.737C98.7383 216.678 100.002 216.866 101.555 216.815C103.107 216.763 104.349 216.504 104.36 216.563C104.104 216.672 103.835 216.747 103.559 216.785C102.899 216.911 102.23 216.986 101.558 217.007C100.888 217.028 100.218 216.996 99.5535 216.911C99.2747 216.893 99.0001 216.834 98.7383 216.737Z" fill="#263238"/>
<path d="M119.319 224.37C119.05 223.849 118.852 223.295 118.73 222.722C118.544 222.168 118.409 221.599 118.326 221.021C118.592 221.544 118.79 222.098 118.915 222.67C119.098 223.224 119.233 223.793 119.319 224.37Z" fill="#263238"/>
<path d="M116.402 225.396C116.135 224.857 115.926 224.291 115.78 223.707C115.571 223.143 115.424 222.558 115.343 221.962C115.609 222.502 115.818 223.068 115.965 223.652C116.171 224.216 116.318 224.801 116.402 225.396Z" fill="#263238"/>
<path d="M113.212 226.231C112.968 225.659 112.784 225.063 112.664 224.453C112.477 223.86 112.353 223.25 112.293 222.631C112.537 223.203 112.72 223.799 112.842 224.409C113.029 225.002 113.153 225.612 113.212 226.231Z" fill="#263238"/>
<path d="M109.436 226.794C109.226 226.202 109.077 225.59 108.992 224.968C108.843 224.362 108.758 223.743 108.74 223.12C108.948 223.712 109.096 224.324 109.181 224.946C109.328 225.551 109.413 226.171 109.436 226.794Z" fill="#263238"/>
<path d="M105.464 227.133C105.37 226.522 105.337 225.903 105.368 225.285C105.338 224.668 105.37 224.049 105.464 223.437C105.56 224.048 105.593 224.668 105.56 225.285C105.591 225.903 105.558 226.522 105.464 227.133Z" fill="#263238"/>
<path d="M102.206 227.151C102.123 226.561 102.104 225.963 102.151 225.369C102.136 224.774 102.183 224.18 102.292 223.595C102.373 224.185 102.39 224.783 102.344 225.377C102.361 225.971 102.315 226.566 102.206 227.151Z" fill="#263238"/>
<path d="M98.7642 227.168C98.7078 226.575 98.7289 225.978 98.8272 225.39C98.8633 224.796 98.978 224.21 99.1681 223.646C99.168 224.238 99.1184 224.829 99.0199 225.413C98.9836 226.004 98.8981 226.591 98.7642 227.168Z" fill="#263238"/>
<path d="M94.688 227.063C94.7344 226.446 94.8449 225.835 95.0178 225.24C95.1282 224.631 95.3021 224.036 95.5366 223.463C95.4896 224.08 95.379 224.69 95.2068 225.285C95.0963 225.894 94.9224 226.49 94.688 227.063Z" fill="#263238"/>
<path d="M90.9714 226.927C91.0101 226.303 91.1119 225.684 91.2753 225.079C91.3764 224.463 91.5415 223.858 91.7681 223.276C91.7299 223.9 91.628 224.52 91.4643 225.124C91.3647 225.741 91.1995 226.345 90.9714 226.927Z" fill="#263238"/>
<path d="M86.5618 226.253C86.6355 225.665 86.7747 225.086 86.9768 224.527C87.1179 223.951 87.3204 223.391 87.5808 222.857C87.5038 223.445 87.3634 224.024 87.1621 224.583C87.0208 225.159 86.8196 225.719 86.5618 226.253Z" fill="#263238"/>
<path d="M83.2527 225.171C83.3127 224.644 83.4371 224.127 83.6232 223.63C83.7467 223.117 83.9308 222.621 84.1717 222.152C84.1115 222.68 83.987 223.199 83.8011 223.697C83.6791 224.209 83.4949 224.704 83.2527 225.171Z" fill="#263238"/>
<path d="M108.521 260.029C108.521 260.029 109.833 244.816 109.977 243.311L112.597 242.642L114.268 243.884L111.793 263.356L108.143 263.577L108.521 260.029Z" fill="#FFBF9D"/>
<path d="M108.521 260.03C108.521 260.03 108.521 260.052 108.521 260.089V260.266C108.521 260.433 108.488 260.662 108.462 260.958C108.399 261.571 108.314 262.455 108.206 263.571L108.154 263.515L111.801 263.275L111.738 263.338C112.279 259.002 113.027 253.052 113.85 246.483C113.965 245.6 114.072 244.732 114.183 243.874L114.22 243.963L112.553 242.721H112.634L110.011 243.386L110.078 243.305C109.644 248.158 109.266 252.335 108.999 255.306C108.862 256.785 108.751 257.953 108.673 258.773C108.632 259.169 108.599 259.475 108.577 259.697C108.577 259.793 108.555 259.875 108.547 259.934C108.551 259.961 108.551 259.988 108.547 260.015C108.547 260.015 108.547 259.989 108.547 259.934C108.547 259.878 108.547 259.793 108.547 259.694C108.566 259.472 108.588 259.161 108.614 258.766C108.681 257.945 108.773 256.77 108.888 255.299C109.14 252.32 109.492 248.143 109.9 243.29V243.223H109.963L112.582 242.551H112.627L112.664 242.58L114.332 243.822L114.376 243.856V243.911C114.269 244.765 114.157 245.637 114.046 246.52C113.201 253.085 112.434 259.032 111.875 263.364V263.423H111.819L108.169 263.63H108.11V263.575C108.24 262.466 108.34 261.575 108.41 260.961C108.447 260.669 108.477 260.444 108.499 260.278L108.525 260.1C108.514 260.048 108.517 260.03 108.521 260.03Z" fill="#263238"/>
<path d="M110.993 244.554L109.44 262.998L107.369 263.275L109.24 242.868L110.993 244.554Z" fill="#FFBF9D"/>
<path d="M118.319 243.71C118.319 243.71 115.847 253.712 115.376 255.823C114.906 257.933 114.098 263.699 114.098 263.699L116.777 264.069L121.324 244.712L119.512 243.647L118.319 243.71Z" fill="#FFBF9D"/>
<path d="M118.318 243.714C118.343 243.711 118.368 243.711 118.392 243.714L118.615 243.695L119.512 243.636L121.335 244.686L121.364 244.704V244.737C120.486 248.593 118.808 255.826 116.866 264.091L116.847 264.176H116.758L114.079 263.806H113.987V263.713C114.409 260.86 114.791 258.169 115.298 255.756C115.888 253.364 116.41 251.224 116.858 249.435C117.307 247.646 117.659 246.238 117.907 245.24C118.033 244.76 118.129 244.386 118.196 244.131C118.231 244.013 118.257 243.917 118.274 243.843C118.282 243.812 118.292 243.781 118.304 243.751C118.302 243.787 118.296 243.823 118.285 243.858L118.222 244.157C118.159 244.431 118.07 244.815 117.959 245.303L116.966 249.517C116.54 251.302 116.032 253.427 115.465 255.8C114.969 258.199 114.594 260.897 114.179 263.747L114.098 263.64L116.773 264.009L116.669 264.083C118.615 255.819 120.33 248.593 121.261 244.752L121.283 244.808L119.482 243.725L118.596 243.754H118.285L118.318 243.714Z" fill="#263238"/>
<path d="M104.278 252.956L102.889 240.504C102.889 240.504 104.371 239.491 105.164 239.502C105.7 239.523 106.233 239.6 106.754 239.731L108.347 260.134L105.471 260.685L104.278 252.956Z" fill="#FFBF9D"/>
<path d="M104.278 252.955C104.278 252.955 104.278 252.999 104.308 253.088L104.378 253.491C104.441 253.861 104.527 254.371 104.638 255.029C104.853 256.378 105.16 258.303 105.542 260.673L105.457 260.613L108.332 260.055L108.265 260.14C107.969 256.378 107.61 251.861 107.224 247.001C107.028 244.461 106.854 242.018 106.661 239.738L106.731 239.819C106.389 239.732 106.041 239.667 105.69 239.627C105.516 239.608 105.345 239.593 105.175 239.59C105.011 239.594 104.849 239.623 104.693 239.675C104.073 239.9 103.483 240.202 102.937 240.573L102.974 240.495C103.374 244.21 103.715 247.318 103.945 249.514C104.052 250.597 104.141 251.454 104.204 252.053C104.23 252.338 104.249 252.56 104.263 252.722C104.263 252.792 104.263 252.848 104.263 252.896V252.955C104.263 252.955 104.263 252.937 104.263 252.896C104.263 252.855 104.263 252.796 104.237 252.726C104.215 252.563 104.186 252.356 104.149 252.057C104.078 251.462 103.974 250.608 103.845 249.525C103.593 247.333 103.233 244.225 102.807 240.514V240.462L102.848 240.436C103.404 240.05 104.008 239.737 104.645 239.505C104.82 239.449 105.002 239.418 105.186 239.412C105.36 239.412 105.557 239.412 105.716 239.449C106.077 239.49 106.434 239.555 106.787 239.642H106.85V239.708C107.028 241.989 107.22 244.432 107.421 246.971C107.791 251.831 108.143 256.348 108.432 260.115V260.185H108.362L105.483 260.769H105.412V260.695C105.042 258.322 104.771 256.389 104.571 255.04C104.475 254.378 104.401 253.861 104.349 253.495C104.33 253.325 104.312 253.192 104.297 253.092C104.286 253.047 104.28 253.001 104.278 252.955Z" fill="#263238"/>
<path d="M107.354 239.49L105.694 256.123L106.946 259.749L108.488 259.878C108.488 259.878 110.674 242.506 110.34 240.03L107.354 239.49Z" fill="#FFBF9D"/>
<path d="M107.354 239.49C107.417 239.493 107.481 239.502 107.543 239.516L108.113 239.605L110.337 239.974H110.374V240.008C110.432 241.166 110.404 242.327 110.292 243.482C110.203 244.831 110.066 246.358 109.903 248.028C109.577 251.355 109.136 255.273 108.625 259.438L108.569 259.878V259.971H108.477L106.935 259.841H106.872L106.85 259.782C106.42 258.529 106.001 257.313 105.601 256.156V256.134V256.116C106.098 251.311 106.531 247.152 106.839 244.173C106.994 242.695 107.12 241.538 107.209 240.717C107.254 240.329 107.287 240.022 107.313 239.801L107.343 239.568V239.494C107.346 239.523 107.346 239.553 107.343 239.583C107.343 239.645 107.343 239.727 107.324 239.827C107.324 240.056 107.28 240.366 107.243 240.769C107.169 241.593 107.057 242.772 106.92 244.247C106.635 247.204 106.238 251.355 105.779 256.134V256.093L107.031 259.719L106.95 259.656L108.491 259.786L108.388 259.867L108.443 259.427C108.955 255.265 109.407 251.362 109.751 248.025C109.922 246.358 110.066 244.835 110.17 243.486C110.29 242.34 110.33 241.188 110.289 240.037L110.329 240.078L108.132 239.653L107.554 239.538L107.354 239.49Z" fill="#263238"/>
<path d="M115.395 239.907L110.593 262.975L114.028 263.422L118.793 242.117L117.937 240.336L115.395 239.907Z" fill="#FFBF9D"/>
<path d="M115.394 239.907L115.558 239.925L116.043 239.999L117.944 240.295V240.314L118.811 242.091V242.11C117.785 246.752 116.054 254.555 114.086 263.426L114.068 263.511H113.979L113.664 263.47L110.548 263.063H110.444L110.466 262.964C111.837 256.455 113.06 250.681 113.931 246.527C114.368 244.472 114.724 242.831 114.972 241.663C115.094 241.101 115.187 240.665 115.257 240.358C115.287 240.217 115.313 240.107 115.331 240.022C115.339 239.985 115.349 239.95 115.361 239.914C115.359 239.956 115.353 239.997 115.343 240.036C115.324 240.125 115.306 240.24 115.276 240.387C115.213 240.702 115.128 241.145 115.013 241.718C114.779 242.879 114.442 244.546 114.023 246.612C113.171 250.759 111.985 256.51 110.651 263.001L110.57 262.886L113.69 263.293L114.005 263.333L113.897 263.407C115.898 254.536 117.659 246.752 118.715 242.114V242.147C118.396 241.478 118.114 240.879 117.87 240.362L117.899 240.384L116.047 240.044L115.554 239.951L115.394 239.907Z" fill="#263238"/>
<path d="M110.329 259.81L111.441 247.336C111.441 247.336 113.104 246.634 113.868 246.8C114.39 246.927 114.898 247.108 115.383 247.34L112.893 267.668L109.966 267.639L110.329 259.81Z" fill="#FFBF9D"/>
<path d="M110.329 259.81C110.333 259.857 110.333 259.904 110.329 259.951C110.329 260.054 110.329 260.187 110.329 260.357C110.329 260.727 110.296 261.248 110.274 261.917C110.218 263.281 110.136 265.244 110.04 267.628L109.97 267.554L112.897 267.572L112.816 267.642C113.271 263.898 113.816 259.396 114.405 254.562C114.716 252.034 115.017 249.598 115.295 247.328L115.346 247.421C115.028 247.269 114.7 247.138 114.364 247.029C114.198 246.977 114.031 246.929 113.864 246.892C113.702 246.868 113.537 246.868 113.375 246.892C112.723 246.991 112.085 247.171 111.478 247.428L111.53 247.358C111.181 251.076 110.892 254.192 110.689 256.388C110.581 257.471 110.5 258.328 110.44 258.927C110.407 259.212 110.385 259.433 110.366 259.596C110.366 259.666 110.366 259.722 110.344 259.77C110.346 259.788 110.346 259.807 110.344 259.825C110.344 259.825 110.344 259.807 110.344 259.77C110.344 259.733 110.344 259.666 110.344 259.596C110.344 259.433 110.37 259.208 110.388 258.923C110.437 258.324 110.507 257.467 110.592 256.38C110.781 254.181 111.048 251.065 111.363 247.343V247.291L111.411 247.273C112.033 247.004 112.687 246.816 113.357 246.715C113.538 246.693 113.722 246.7 113.901 246.733C114.075 246.77 114.25 246.818 114.42 246.87C114.764 246.982 115.101 247.117 115.428 247.273L115.487 247.299V247.365C115.213 249.635 114.917 252.071 114.605 254.599C114.009 259.433 113.453 263.932 112.99 267.679V267.75H112.919L109.988 267.713H109.914V267.642C110.04 265.244 110.144 263.292 110.214 261.928C110.251 261.263 110.285 260.742 110.303 260.372C110.303 260.202 110.325 260.069 110.333 259.969C110.325 259.917 110.323 259.863 110.329 259.81Z" fill="#263238"/>
<path d="M115.032 247.311C115.054 247.311 114.98 247.544 114.709 247.81C114.347 248.149 113.865 248.331 113.368 248.317C113.098 248.3 112.833 248.231 112.59 248.113C112.367 248.01 112.182 247.906 112.023 247.829C111.844 247.756 111.669 247.674 111.5 247.581C111.7 247.569 111.9 247.611 112.078 247.703C112.485 247.913 112.923 248.055 113.375 248.124C113.826 248.135 114.267 247.987 114.62 247.707C114.895 247.489 115.006 247.293 115.032 247.311Z" fill="#263238"/>
<path d="M122.787 240.811L114.946 264.703C114.946 264.703 117.451 266.293 117.462 266.023C117.473 265.753 126.044 242.101 126.044 242.101L124.225 240.745L122.787 240.811Z" fill="#FFBF9D"/>
<path d="M122.787 240.807H122.872L123.143 240.789L124.225 240.733L126.055 242.075L126.081 242.093V242.127C124.466 246.647 121.323 255.433 117.71 265.549C117.662 265.69 117.618 265.823 117.581 265.948L117.562 265.993V266.019C117.561 266.035 117.561 266.051 117.562 266.067C117.553 266.094 117.535 266.118 117.511 266.135C117.487 266.151 117.458 266.16 117.429 266.159C117.403 266.163 117.377 266.163 117.351 266.159C117.274 266.14 117.2 266.114 117.129 266.081C116.854 265.959 116.602 265.819 116.35 265.679C115.85 265.394 115.368 265.098 114.905 264.806L114.842 264.766L114.865 264.695C117.088 257.95 119.067 251.973 120.49 247.671C121.201 245.538 121.772 243.823 122.172 242.629L122.631 241.28C122.683 241.132 122.72 241.018 122.754 240.933C122.764 240.893 122.779 240.854 122.798 240.818C122.798 240.818 122.798 240.866 122.765 240.948L122.654 241.317C122.55 241.642 122.405 242.104 122.216 242.696C121.846 243.897 121.271 245.623 120.582 247.771C119.185 252.066 117.247 258.031 115.046 264.773L115.009 264.662C115.469 264.954 115.95 265.246 116.447 265.531C116.695 265.667 116.947 265.808 117.188 265.922C117.248 265.951 117.31 265.975 117.373 265.993H117.403C117.403 265.993 117.403 266.033 117.403 266.037V266.059H117.347V266.03L117.366 265.974C117.41 265.819 117.458 265.675 117.507 265.538C121.094 255.407 124.329 246.625 125.97 242.145L125.989 242.201L124.177 240.833H124.199L123.128 240.855H122.854C122.83 240.842 122.807 240.826 122.787 240.807Z" fill="#263238"/>
<path d="M126.652 250.723L117.073 264.466L120.027 266.484L128.89 253.392L129.046 252.187L126.652 250.723Z" fill="#FFBF9D"/>
<path d="M126.652 250.723C126.707 250.746 126.761 250.773 126.812 250.805L127.275 251.078L129.072 252.146L129.098 252.165V252.194C129.053 252.564 129.005 252.96 128.95 253.399L120.104 266.536L120.053 266.617L119.971 266.561L119.767 266.421L117.021 264.543L116.94 264.488L116.996 264.41L123.88 254.608L125.915 251.74C126.145 251.415 126.33 251.16 126.463 250.975L126.604 250.783L126.652 250.723C126.652 250.723 126.652 250.753 126.608 250.801L126.471 251.008L125.93 251.806L123.929 254.723L117.151 264.517L117.129 264.384L119.875 266.262L120.079 266.402L119.945 266.428L128.838 253.359V253.385L129.002 252.183L129.024 252.231L127.278 251.123L126.819 250.823C126.708 250.764 126.656 250.727 126.652 250.723Z" fill="#263238"/>
<path d="M125.967 243.764C125.837 243.957 117.218 264.895 117.218 264.895L121.235 263.609L128.664 245.635L127.868 244.238L125.967 243.764Z" fill="#FFBF9D"/>
<path d="M125.967 243.764C126.008 243.767 126.049 243.774 126.089 243.787L126.46 243.868L127.886 244.201L128.694 245.594V245.616C127.167 249.338 124.459 255.94 121.309 263.609L121.29 263.653H121.25L119.319 264.337L117.24 264.999L117.044 265.062L117.122 264.873C119.578 258.959 121.768 253.674 123.347 249.863L125.237 245.394C125.459 244.877 125.637 244.474 125.759 244.189C125.818 244.053 125.874 243.946 125.907 243.879C125.941 243.812 125.959 243.775 125.959 243.779C125.959 243.783 125.907 243.927 125.796 244.204C125.685 244.481 125.511 244.899 125.303 245.42C124.866 246.488 124.24 248.008 123.469 249.915L117.307 264.943L117.188 264.818L119.267 264.152L121.205 263.535L121.146 263.591L128.62 245.631V245.675C128.32 245.143 128.057 244.67 127.834 244.271L127.857 244.289L126.456 243.92L126.085 243.82L125.967 243.764Z" fill="#263238"/>
<path d="M131.733 249.905C131.584 249.99 122.639 261.204 122.639 261.204L125.418 264.017L134.467 251.794L131.733 249.905Z" fill="#FFBF9D"/>
<path d="M131.732 249.905C131.798 249.936 131.86 249.973 131.918 250.016L132.459 250.386L134.512 251.749L134.556 251.779L134.523 251.827C132.566 254.51 129.272 258.99 125.529 264.043L125.507 264.076L125.44 264.165L125.363 264.087L122.583 261.271L122.524 261.212L122.576 261.145C125.17 257.904 127.445 255.08 129.079 253.073C129.898 252.071 130.562 251.269 131.014 250.726C131.24 250.452 131.421 250.245 131.543 250.105C131.604 250.032 131.671 249.965 131.744 249.905L122.724 261.263V261.138L125.507 263.95H125.359L125.381 263.917C129.124 258.865 132.444 254.407 134.441 251.749V251.827L132.448 250.419L131.918 250.049L131.732 249.905Z" fill="#263238"/>
<path d="M116.651 259.253L121.913 247.884C121.913 247.884 123.714 247.784 124.377 248.198C124.828 248.491 125.246 248.831 125.622 249.214L116.414 267.495L113.665 266.483L116.651 259.253Z" fill="#FFBF9D"/>
<path d="M116.651 259.253C116.642 259.297 116.628 259.341 116.61 259.382L116.462 259.752L115.884 261.201C115.373 262.469 114.635 264.276 113.731 266.501L113.69 266.405L116.44 267.411L116.34 267.451L122.269 255.668C123.417 253.395 124.522 251.203 125.556 249.163V249.266C125.308 249.015 125.043 248.781 124.763 248.568C124.624 248.462 124.483 248.362 124.34 248.268C124.197 248.189 124.044 248.129 123.884 248.091C123.237 247.962 122.576 247.918 121.917 247.958L121.991 247.906L118.141 256.126C117.674 257.109 117.303 257.886 117.029 258.429C116.903 258.688 116.803 258.887 116.733 259.035C116.699 259.098 116.677 259.15 116.655 259.19C116.633 259.231 116.625 259.242 116.621 259.242L116.64 259.187L116.707 259.024L116.981 258.41C117.229 257.86 117.581 257.076 118.033 256.085C118.952 254.078 120.257 251.232 121.817 247.836L121.839 247.788H121.913C122.589 247.745 123.268 247.789 123.933 247.917C124.11 247.961 124.28 248.028 124.44 248.117C124.592 248.213 124.737 248.316 124.877 248.423C125.166 248.643 125.438 248.883 125.693 249.14L125.737 249.185L125.707 249.244L122.428 255.757L116.484 267.532L116.451 267.599L116.384 267.573L113.642 266.549L113.572 266.523L113.598 266.457L115.821 261.182L116.432 259.748C116.503 259.593 116.555 259.467 116.599 259.379C116.614 259.336 116.631 259.294 116.651 259.253Z" fill="#263238"/>
<path d="M125.314 249.064C125.314 249.064 125.185 249.267 124.84 249.433C124.615 249.533 124.372 249.586 124.126 249.59C123.879 249.595 123.635 249.55 123.406 249.459C123.157 249.354 122.931 249.199 122.743 249.005C122.569 248.835 122.428 248.672 122.305 248.546C122.065 248.288 121.879 248.177 121.894 248.14C121.909 248.103 122.124 248.203 122.398 248.447C122.709 248.782 123.073 249.064 123.476 249.282C123.898 249.443 124.364 249.452 124.792 249.308C125.122 249.186 125.292 249.042 125.314 249.064Z" fill="#263238"/>
<g opacity="0.3">
<path d="M103.952 250.049L105.942 251.927L111.167 253.564C111.167 253.564 112.619 261.67 117.17 262.564L116.555 264.856L102.14 261.019C102.14 261.019 104.104 249.909 103.952 250.049Z" fill="black"/>
</g>
<path d="M103.715 249.985C103.678 250.354 99.4387 275.433 99.4387 275.433L100.428 277.684L121.724 281.894L130.725 258.608L123.97 256.967C123.97 256.967 121.631 263.99 115.847 262.326C110.063 260.663 109.685 253.796 109.685 253.796L104.804 252.483L103.715 249.985Z" fill="#455A64"/>
<path d="M101.362 271.945C109.996 270.367 117.941 269.476 126.664 268.53L128.887 263.396L102.374 266.542L101.362 271.945Z" fill="#FAFAFA"/>
<path d="M102.359 266.541L101.143 265.325L100.232 270.721L101.362 271.945L102.359 266.541Z" fill="#FAFAFA"/>
<path d="M100.421 277.683C100.369 277.683 101.302 272.024 102.51 265.068C103.718 258.112 104.734 252.471 104.793 252.482C104.852 252.494 103.907 258.141 102.699 265.101C101.491 272.061 100.48 277.694 100.421 277.683Z" fill="#263238"/>
<path d="M114.102 244.02C113.939 244.152 113.753 244.252 113.553 244.316C113.091 244.532 112.577 244.614 112.071 244.552C111.573 244.42 111.116 244.166 110.741 243.813C110.571 243.696 110.412 243.564 110.266 243.418C110.47 243.472 110.659 243.569 110.822 243.702C111.202 244.002 111.638 244.223 112.104 244.353C112.585 244.405 113.071 244.344 113.524 244.175C113.709 244.1 113.903 244.048 114.102 244.02Z" fill="#263238"/>
<path d="M118.859 242.109C118.66 242.151 118.458 242.182 118.255 242.201C118.028 242.245 117.794 242.245 117.566 242.201C117.292 242.108 117.051 241.937 116.873 241.709C116.368 241.227 115.909 240.699 115.502 240.131C116.048 240.565 116.553 241.049 117.01 241.576C117.167 241.779 117.376 241.936 117.614 242.031C117.82 242.081 118.033 242.097 118.244 242.079C118.449 242.039 118.66 242.049 118.859 242.109Z" fill="#263238"/>
<path d="M125.752 242.289C125.752 242.312 125.582 242.419 125.256 242.478C124.822 242.546 124.378 242.478 123.985 242.286C123.59 242.091 123.268 241.779 123.062 241.391C122.962 241.24 122.909 241.062 122.91 240.881C122.94 240.881 123.006 241.062 123.18 241.321C123.401 241.66 123.708 241.933 124.07 242.112C124.433 242.292 124.837 242.371 125.241 242.341C125.41 242.313 125.581 242.296 125.752 242.289Z" fill="#263238"/>
<path d="M127.619 245.983C127.248 245.789 126.921 245.521 126.656 245.196C126.392 244.872 126.196 244.497 126.082 244.095C126.133 244.069 126.382 244.56 126.804 245.074C127.227 245.588 127.653 245.939 127.619 245.983Z" fill="#263238"/>
<path d="M128.624 252.979C128.624 252.979 128.624 253.031 128.535 253.068C128.424 253.111 128.301 253.111 128.19 253.068C128.03 253.006 127.891 252.901 127.786 252.765C127.671 252.625 127.557 252.473 127.416 252.31C127.094 251.936 126.822 251.521 126.608 251.076C126.975 251.402 127.297 251.775 127.568 252.185C127.82 252.503 128.001 252.839 128.22 252.924C128.345 252.985 128.487 253.005 128.624 252.979Z" fill="#263238"/>
<path d="M120.609 244.836C120.243 244.972 119.846 244.995 119.467 244.902C119.079 244.876 118.708 244.731 118.404 244.488C118.426 244.437 118.893 244.622 119.515 244.714C120.138 244.806 120.601 244.78 120.609 244.836Z" fill="#263238"/>
<path d="M106.405 239.765C106.427 239.765 106.405 240.009 106.19 240.32C105.902 240.724 105.465 240.998 104.975 241.081C104.707 241.12 104.433 241.105 104.171 241.037C103.934 240.981 103.73 240.915 103.559 240.87C103.215 240.771 102.996 240.76 102.996 240.734C103.19 240.676 103.396 240.676 103.589 240.734C104.028 240.858 104.485 240.91 104.942 240.889C105.386 240.81 105.788 240.579 106.079 240.235C106.305 239.969 106.376 239.754 106.405 239.765Z" fill="#263238"/>
<path d="M73.8999 262.615C72.7309 262.077 71.4771 261.746 70.1944 261.636C67.6524 261.444 64.2655 262.131 64.2988 267.136C64.3507 275.145 73.911 281.118 86.4247 283.399C98.9384 285.679 105.905 281.92 108.176 278.376C110.2 275.219 110.529 268.817 104.026 268.396C96.741 267.949 96.9856 272.964 73.8999 262.615Z" fill="#FFBF9D"/>
<path d="M73.8999 262.615C73.8999 262.615 73.9925 262.648 74.1667 262.722L74.9448 263.047L77.9093 264.322L80.0808 265.187C80.87 265.509 81.7334 265.856 82.6746 266.185C83.6159 266.514 84.6052 266.924 85.6873 267.235L87.3511 267.767L89.1223 268.24C91.5457 268.835 94.2916 269.379 97.2264 269.031C98.7086 268.876 100.191 268.48 101.755 268.351C102.151 268.351 102.548 268.285 102.948 268.296C103.348 268.307 103.756 268.296 104.159 268.333C104.99 268.39 105.805 268.584 106.572 268.909C107.359 269.256 108.041 269.804 108.547 270.499C109.045 271.22 109.362 272.05 109.47 272.92C109.68 274.71 109.318 276.521 108.436 278.094C107.97 278.89 107.377 279.604 106.679 280.208L106.42 280.441L106.146 280.656L105.608 281.095L105.015 281.465C104.823 281.602 104.621 281.725 104.411 281.835C102.725 282.72 100.913 283.343 99.0384 283.683L98.3306 283.823C98.0972 283.868 97.8563 283.886 97.6192 283.923C97.1449 283.971 96.6742 284.063 96.1999 284.082L94.7844 284.174H93.3726C92.9057 284.174 92.4388 284.156 91.9756 284.134C91.5124 284.112 91.0492 284.097 90.5897 284.049C89.6744 283.941 88.7629 283.882 87.8698 283.716C84.4221 283.21 81.0375 282.343 77.7722 281.129C74.801 280.078 72.0128 278.57 69.5088 276.66C67.1928 274.812 65.4327 272.539 64.6916 270.118C64.3357 268.969 64.1877 267.766 64.2543 266.566C64.2695 265.487 64.5781 264.433 65.1473 263.517C65.6799 262.737 66.4647 262.162 67.3707 261.89C68.1228 261.662 68.9084 261.562 69.6941 261.595C70.7771 261.629 71.8477 261.835 72.866 262.204C73.2217 262.327 73.5694 262.471 73.9073 262.637L73.6405 262.533C73.4663 262.463 73.2032 262.36 72.8549 262.241C71.8366 261.891 70.7708 261.698 69.6941 261.668C68.9177 261.642 68.1424 261.746 67.4003 261.975C66.518 262.249 65.7549 262.813 65.2363 263.576C64.6825 264.479 64.3853 265.515 64.3766 266.573C64.3148 267.758 64.4654 268.945 64.8213 270.077C65.5624 272.461 67.3114 274.72 69.6163 276.534C72.1079 278.445 74.8835 279.955 77.8426 281.01C81.099 282.21 84.4721 283.067 87.9069 283.568C88.7925 283.731 89.7041 283.79 90.6157 283.893C91.0714 283.945 91.5309 283.949 91.9941 283.978C92.4573 284.008 92.9168 284.034 93.3837 284.019H94.7844L96.1925 283.927C96.6631 283.927 97.13 283.82 97.6006 283.768C97.8341 283.735 98.0749 283.716 98.3084 283.668L99.0088 283.531C100.861 283.187 102.65 282.563 104.315 281.683C104.521 281.578 104.72 281.46 104.912 281.332L105.493 280.962L106.042 280.548L106.312 280.341L106.564 280.112C107.584 279.244 108.37 278.135 108.85 276.887C109.331 275.638 109.49 274.29 109.314 272.964C109.211 272.123 108.906 271.319 108.425 270.621C107.936 269.953 107.281 269.425 106.524 269.09C105.015 268.425 103.344 268.432 101.795 268.54C100.246 268.647 98.7494 269.053 97.2708 269.209C95.8473 269.365 94.4099 269.346 92.9909 269.153C92.3091 269.053 91.6384 268.979 90.9973 268.824C90.3563 268.669 89.7189 268.573 89.1149 268.392L87.3399 267.908L85.6761 267.368C84.5941 267.039 83.601 266.629 82.6635 266.303C81.726 265.978 80.8626 265.616 80.0696 265.291L77.9056 264.407L74.9411 263.103L74.1741 262.759L73.8999 262.615Z" fill="#263238"/>
<path d="M60.6451 271.012C60.1642 270.628 59.7696 270.147 59.4872 269.6C59.2048 269.054 59.0408 268.454 59.0058 267.84C58.9709 267.226 59.0658 266.612 59.2844 266.037C59.503 265.462 59.8403 264.94 60.2746 264.503C61.3486 263.506 62.7686 262.963 64.2358 262.988C65.6835 263.024 67.1135 263.314 68.4602 263.845C68.4602 263.845 81.8928 270.188 88.8407 271.001C95.7887 271.814 101.002 270.303 102.922 269.951C104.841 269.6 109.529 269.367 110.581 272.169C111.634 274.971 110.174 277.617 107.776 279.236C105.379 280.855 93.1577 283.89 78.3651 279.691C66.2739 276.264 60.6451 271.012 60.6451 271.012Z" fill="#A2675F"/>
<path d="M102.092 274.462C101.947 274.462 101.802 274.451 101.658 274.429C100.739 274.285 100.047 273.708 99.4351 273.202C98.9237 272.773 98.4383 272.37 97.9084 272.274C97.1266 272.13 96.378 272.644 95.5146 273.202C94.6512 273.76 93.7767 274.351 92.6947 274.425C91.0346 274.536 89.7673 273.413 88.6519 272.418C87.6626 271.539 86.7325 270.703 85.6578 270.733C85.0251 270.807 84.4124 271.001 83.8532 271.306C82.9491 271.716 81.9263 272.178 80.811 271.886C79.4844 271.542 78.7989 270.356 78.1948 269.299C77.6872 268.412 77.2018 267.576 76.4421 267.362C75.9048 267.207 75.2712 267.392 74.5893 267.584C73.8482 267.802 72.9885 268.046 72.1103 267.85C71.0876 267.621 70.3687 266.881 69.7313 266.231L69.6906 266.19C69.1903 265.677 68.6049 265.126 67.9712 265.081C67.831 265.076 67.6914 265.102 67.563 265.159C67.4346 265.215 67.3207 265.3 67.2301 265.407C67.1907 265.446 67.1618 265.494 67.1463 265.547C67.1307 265.6 67.129 265.656 67.1412 265.71C67.184 265.88 67.1605 266.06 67.0754 266.213C66.9903 266.366 66.8499 266.482 66.6827 266.536C66.5155 266.59 66.334 266.579 66.1748 266.504C66.0157 266.43 65.8909 266.298 65.8257 266.135C65.7428 265.864 65.7296 265.576 65.7872 265.298C65.8448 265.02 65.9714 264.762 66.1555 264.545C66.3891 264.26 66.6883 264.035 67.0276 263.89C67.3669 263.745 67.7363 263.683 68.1046 263.71C69.1496 263.814 69.9574 264.509 70.68 265.244L70.717 265.285C71.2469 265.824 71.7916 266.394 72.4142 266.519C72.9478 266.641 73.5592 266.464 74.204 266.279C74.9932 266.05 75.89 265.791 76.7978 266.054C78.0985 266.423 78.7729 267.591 79.3695 268.641C79.8846 269.532 80.37 270.371 81.1371 270.57C81.7818 270.74 82.4636 270.43 83.2566 270.068C83.9821 269.68 84.7788 269.444 85.5986 269.373C87.2105 269.321 88.4518 270.433 89.545 271.406C90.5492 272.3 91.5015 273.15 92.5761 273.069C93.3172 273.017 93.9916 272.559 94.7291 272.071C95.7036 271.424 96.8079 270.692 98.1345 270.936C99.0201 271.099 99.6982 271.675 100.295 272.156C100.817 272.592 101.31 272.999 101.851 273.084C102.592 273.198 103.359 272.688 104.16 272.148C105.071 271.535 106.105 270.844 107.339 270.958C107.521 270.976 107.689 271.065 107.806 271.206C107.922 271.347 107.977 271.529 107.96 271.71C107.942 271.892 107.853 272.06 107.711 272.176C107.57 272.292 107.388 272.347 107.206 272.33C106.465 272.256 105.723 272.758 104.93 273.287C104.137 273.815 103.185 274.462 102.092 274.462Z" fill="#7F9C94"/>
<path d="M78.0722 267.501C77.805 267.14 77.4531 266.85 77.0473 266.657C76.6415 266.463 76.1944 266.372 75.7451 266.392C75.7451 266.366 75.8896 266.303 76.1453 266.285C76.4836 266.266 76.8212 266.332 77.1273 266.477C77.4353 266.62 77.7018 266.839 77.9017 267.113C78.05 267.338 78.0944 267.49 78.0722 267.501Z" fill="white"/>
<path d="M86.2137 269.639C86.2137 269.698 85.6542 269.639 84.9946 269.783C84.335 269.927 83.8421 270.182 83.8125 270.153C84.1437 269.884 84.5347 269.699 84.9526 269.613C85.3704 269.527 85.803 269.542 86.2137 269.657V269.639Z" fill="white"/>
<path d="M87.533 270.219C87.5107 270.267 87.3662 270.241 87.2106 270.163C87.0549 270.085 86.9475 269.981 86.9697 269.933C86.9919 269.885 87.1402 269.911 87.2958 269.989C87.4514 270.067 87.5589 270.17 87.533 270.219Z" fill="white"/>
<path d="M98.2749 271.551C97.7836 271.486 97.2869 271.471 96.7926 271.506C96.3107 271.604 95.8392 271.748 95.3845 271.935C95.7586 271.574 96.2478 271.356 96.7667 271.318C97.2811 271.212 97.8167 271.294 98.2749 271.551Z" fill="white"/>
<path d="M107.413 271.193C107.413 271.249 106.828 271.275 106.149 271.482C105.471 271.689 104.971 271.984 104.938 271.936C105.254 271.617 105.655 271.395 106.094 271.297C106.514 271.135 106.973 271.099 107.413 271.193Z" fill="white"/>
<path d="M69.4642 264.554C69.0164 264.28 68.4992 264.139 67.9738 264.149C67.4485 264.159 66.9369 264.319 66.4998 264.61C66.4998 264.591 66.5998 264.443 66.8703 264.284C67.2042 264.076 67.5884 263.963 67.982 263.955C68.3711 263.952 68.7544 264.05 69.0936 264.24C69.3604 264.392 69.479 264.536 69.4642 264.554Z" fill="white"/>
<path d="M70.7021 265.711C70.6651 265.752 70.4501 265.604 70.2241 265.382C69.9981 265.16 69.8536 264.953 69.8758 264.913C69.898 264.872 70.1278 265.023 70.3575 265.245C70.5872 265.467 70.7392 265.674 70.7021 265.711Z" fill="white"/>
<path d="M69.7532 268.834C68.3008 268.25 66.7597 267.915 65.1953 267.843C62.3532 267.732 58.8106 268.557 58.8477 273.362C58.907 281.371 69.768 287.348 83.9899 289.625C98.2119 291.902 106.131 288.146 108.71 284.602C111.011 281.441 111.385 275.04 103.993 274.622C95.7291 274.167 96.0071 279.198 69.7532 268.834Z" fill="#FFBF9D"/>
<path d="M69.7533 268.833L70.0497 268.937L70.9168 269.258L74.2518 270.515L76.6789 271.369C77.5646 271.683 78.5317 272.03 79.5767 272.352L81.196 272.873L82.0483 273.143L82.9339 273.39L84.7867 273.912C85.4204 274.085 86.0799 274.226 86.7507 274.388C87.0842 274.466 87.4251 274.551 87.7697 274.625L88.8221 274.817L89.9004 275.017C90.2709 275.069 90.6415 275.109 91.012 275.157C92.563 275.365 94.1311 275.415 95.6922 275.305C97.3078 275.202 98.9568 274.847 100.684 274.651C101.113 274.592 101.551 274.57 101.992 274.547C102.214 274.547 102.433 274.518 102.655 274.521H103.322C104.233 274.509 105.143 274.615 106.027 274.836C106.943 275.056 107.798 275.479 108.528 276.074C109.267 276.702 109.8 277.536 110.059 278.469C110.577 280.354 110.148 282.439 109.125 284.157C108.857 284.585 108.552 284.988 108.213 285.362L107.661 285.902C107.48 286.083 107.268 286.227 107.076 286.394L106.779 286.634C106.675 286.711 106.568 286.778 106.464 286.852L105.827 287.281L105.156 287.65C104.93 287.776 104.708 287.905 104.471 288.02C102.576 288.909 100.569 289.538 98.5047 289.89C96.4468 290.258 94.3589 290.434 92.2682 290.415C91.2381 290.445 90.2191 290.36 89.2074 290.323C88.6998 290.293 88.1995 290.234 87.6993 290.193C87.199 290.153 86.6988 290.116 86.2171 290.034C82.4132 289.569 78.6582 288.767 74.9966 287.639C71.6677 286.649 68.489 285.213 65.5474 283.37C64.219 282.522 62.9963 281.519 61.9049 280.384C61.3939 279.846 60.9291 279.266 60.5153 278.65C60.1145 278.063 59.7755 277.436 59.5037 276.78C59.2431 276.153 59.0505 275.5 58.9293 274.832C58.8217 274.197 58.7832 273.553 58.8144 272.91C58.8144 272.755 58.8144 272.599 58.8404 272.444L58.9071 271.99C58.9553 271.695 59.0234 271.403 59.1109 271.117C59.2855 270.569 59.5621 270.059 59.9261 269.613C60.0045 269.5 60.0966 269.397 60.2003 269.306C60.3004 269.214 60.3967 269.114 60.4968 269.029C60.7033 268.865 60.9226 268.718 61.1526 268.589C61.5846 268.348 62.0469 268.165 62.5274 268.046C63.3668 267.847 64.2297 267.765 65.0917 267.802C66.2823 267.845 67.4616 268.048 68.5971 268.408C68.9943 268.527 69.384 268.669 69.7644 268.833L69.4642 268.73C69.2678 268.663 68.9751 268.56 68.586 268.445C67.45 268.104 66.2739 267.912 65.0879 267.876C64.234 267.848 63.3802 267.935 62.5496 268.135C62.0773 268.253 61.6235 268.436 61.2008 268.678C60.9761 268.803 60.7628 268.948 60.5635 269.11C60.4634 269.195 60.3745 269.288 60.2781 269.38C60.1766 269.469 60.0858 269.57 60.0076 269.68C59.656 270.119 59.3896 270.621 59.2221 271.158C59.1353 271.44 59.0696 271.728 59.0257 272.019C59.0034 272.167 58.9812 272.315 58.9627 272.466C58.9441 272.618 58.9627 272.77 58.9367 272.925C58.9088 273.558 58.9485 274.192 59.0553 274.817C59.1771 275.475 59.3697 276.118 59.6297 276.735C59.8997 277.384 60.2362 278.004 60.6339 278.584C61.0472 279.191 61.5095 279.763 62.016 280.295C63.1009 281.419 64.3148 282.411 65.6327 283.252C68.5664 285.078 71.7336 286.501 75.0485 287.484C78.7014 288.604 82.4462 289.4 86.2393 289.864C86.7284 289.942 87.2287 289.964 87.7215 290.019C88.2143 290.075 88.722 290.119 89.226 290.149C90.2339 290.182 91.2529 290.267 92.2756 290.238C94.3551 290.256 96.4317 290.081 98.4788 289.716C100.53 289.37 102.524 288.749 104.408 287.868C104.64 287.763 104.866 287.646 105.086 287.517L105.749 287.148L106.375 286.722C106.479 286.652 106.587 286.586 106.687 286.512L106.979 286.275C107.168 286.113 107.379 285.968 107.554 285.791L108.084 285.27C108.405 284.89 108.693 284.483 108.943 284.054C109.94 282.38 110.359 280.336 109.859 278.51C109.609 277.608 109.092 276.803 108.376 276.2C107.667 275.621 106.836 275.211 105.945 274.998C105.078 274.777 104.184 274.671 103.289 274.684H102.625C102.403 274.684 102.184 274.703 101.966 274.714C101.528 274.732 101.095 274.754 100.669 274.813C98.9531 275.002 97.3004 275.357 95.6699 275.457C94.0987 275.565 92.5205 275.512 90.9602 275.298C90.5896 275.25 90.2191 275.205 89.8485 275.154L88.7665 274.95L87.7104 274.754C87.3658 274.68 87.0249 274.592 86.6877 274.514C86.017 274.348 85.3574 274.204 84.7237 274.03L82.8709 273.501L81.9853 273.25L81.133 272.976L79.5137 272.448C78.465 272.123 77.5053 271.768 76.6197 271.45L74.1962 270.578L70.8612 269.288L69.9978 268.948L69.7533 268.833Z" fill="#263238"/>
<path d="M76.4789 283.753C76.1084 284.208 75.7378 284.696 75.7934 285.306C75.8003 285.505 75.8791 285.695 76.0152 285.841C76.1514 285.987 76.3358 286.079 76.5345 286.101C77.0681 286.138 77.4127 285.576 77.5795 285.08C77.6233 284.946 77.6507 284.807 77.661 284.666C77.7944 282.844 76.9125 283.38 76.4789 283.753Z" fill="white"/>
<path d="M81.6077 280.13C81.2371 280.58 80.8666 281.072 80.9185 281.678C80.9261 281.877 81.0051 282.067 81.1411 282.213C81.2771 282.359 81.4611 282.451 81.6596 282.473C82.1932 282.514 82.5378 281.952 82.7008 281.453C82.7459 281.32 82.7745 281.182 82.7861 281.042C82.9232 279.22 82.0412 279.753 81.6077 280.13Z" fill="white"/>
<path d="M68.1157 279.619C67.7452 280.07 67.3746 280.561 67.4265 281.168C67.4334 281.367 67.5122 281.557 67.6483 281.703C67.7845 281.849 67.9689 281.941 68.1676 281.962C68.7012 282.003 69.0458 281.441 69.2126 280.942C69.2561 280.809 69.2834 280.671 69.2941 280.532C69.4275 278.724 68.553 279.249 68.1157 279.619Z" fill="white"/>
<path d="M93.5617 285.161C93.3653 285.708 93.1689 286.292 93.4135 286.85C93.4834 287.035 93.6171 287.188 93.7903 287.283C93.9635 287.378 94.1649 287.408 94.3584 287.368C94.8772 287.231 95.0217 286.588 95.0143 286.063C95.0145 285.923 94.9958 285.784 94.9587 285.649C94.4918 283.879 93.847 284.67 93.5617 285.161Z" fill="white"/>
<path d="M83.4457 285.162C83.2493 285.709 83.0492 286.293 83.2974 286.851C83.3674 287.035 83.501 287.189 83.6742 287.283C83.8474 287.378 84.0489 287.408 84.2424 287.368C84.7611 287.232 84.9057 286.588 84.8982 286.064C84.8982 285.924 84.8795 285.785 84.8427 285.65C84.3906 283.868 83.7458 284.659 83.4457 285.162Z" fill="white"/>
<path d="M88.3295 283.413C88.1331 283.96 87.9367 284.544 88.1813 285.102C88.252 285.286 88.3863 285.44 88.5601 285.535C88.7339 285.629 88.9359 285.659 89.1299 285.619C89.6487 285.482 89.7895 284.839 89.7858 284.314C89.7824 284.175 89.7637 284.036 89.7302 283.9C89.2744 282.126 88.6148 282.917 88.3295 283.413Z" fill="white"/>
<path d="M73.7402 280.405C73.2881 280.774 72.8101 281.144 72.7249 281.761C72.6876 281.955 72.7208 282.155 72.8186 282.327C72.9165 282.498 73.0724 282.629 73.2585 282.696C73.7698 282.855 74.2293 282.382 74.5036 281.935C74.5736 281.818 74.6308 281.694 74.674 281.565C75.241 279.806 74.2627 280.131 73.7402 280.405Z" fill="white"/>
<path d="M69.2938 269.638C69.1357 269.606 68.9807 269.56 68.8306 269.501C68.5379 269.401 68.1155 269.261 67.5856 269.109C66.2226 268.676 64.7757 268.573 63.3649 268.81C62.5972 268.959 61.8728 269.279 61.2453 269.745C60.7403 270.132 60.3256 270.624 60.0299 271.186C59.7713 271.717 59.6214 272.294 59.589 272.883C59.589 272.883 59.589 272.838 59.589 272.757C59.5784 272.634 59.5784 272.51 59.589 272.388C59.623 271.946 59.7386 271.515 59.9299 271.116C60.2188 270.522 60.6395 270.001 61.1601 269.593C61.8025 269.101 62.551 268.764 63.3464 268.61C64.1363 268.455 64.9463 268.432 65.7439 268.54C66.3904 268.626 67.0278 268.769 67.6486 268.969C68.1747 269.135 68.5935 269.301 68.8788 269.419C69.0244 269.478 69.1635 269.551 69.2938 269.638Z" fill="white"/>
<path d="M79.2208 273.338C79.1002 273.327 78.9817 273.3 78.8688 273.256C78.6465 273.194 78.3241 273.094 77.9276 272.964C77.1346 272.709 76.0452 272.344 74.8557 271.896C73.6662 271.449 72.6064 271.002 71.8542 270.643C71.4836 270.466 71.1724 270.318 70.9686 270.207C70.7647 270.096 70.6536 270.03 70.661 270.015C70.6684 270 71.1427 270.2 71.9098 270.521C72.6768 270.843 73.7366 271.261 74.9224 271.719L77.9721 272.828L78.8947 273.175C79.0109 273.213 79.1208 273.268 79.2208 273.338Z" fill="white"/>
<path d="M82.0816 274.382C81.8023 274.356 81.5293 274.283 81.2738 274.168C81.0009 274.111 80.7384 274.013 80.4956 273.876C80.7792 273.829 81.0706 273.866 81.3331 273.983C81.6153 274.043 81.8748 274.181 82.0816 274.382Z" fill="white"/>
<path d="M108.814 278.315C108.814 278.315 108.654 278.056 108.302 277.646C107.792 277.074 107.17 276.613 106.475 276.289C105.443 275.809 104.323 275.545 103.185 275.513C101.789 275.501 100.395 275.625 99.0234 275.883C97.6386 276.134 96.2385 276.293 94.8324 276.359C93.6846 276.399 92.5354 276.357 91.3937 276.234C90.6244 276.15 89.86 276.027 89.1036 275.864C88.8368 275.809 88.6293 275.753 88.4885 275.716C88.4167 275.703 88.3469 275.681 88.281 275.65C88.3548 275.65 88.4283 275.66 88.4996 275.679L89.1185 275.79C89.6558 275.886 90.4339 276.012 91.4048 276.104C92.5428 276.211 93.6868 276.239 94.8287 276.189C96.2249 276.113 97.6148 275.949 98.9901 275.698C100.375 275.435 101.783 275.311 103.192 275.328C104.349 275.372 105.485 275.654 106.527 276.156C107.23 276.498 107.852 276.985 108.35 277.587C108.487 277.752 108.611 277.927 108.721 278.111C108.762 278.174 108.793 278.242 108.814 278.315Z" fill="white"/>
<path d="M48.2611 169.384L54.4568 173.324L61.0304 170.056L64.1061 176.71L71.4097 177.504L70.387 184.763L76.101 189.369L71.3097 194.924L73.6182 201.88L66.574 203.969L64.7471 211.065L57.6917 209.025L52.3076 214.011L47.4755 208.489L40.246 209.779L39.1751 202.527L32.3902 199.714L35.4213 193.039L31.2415 187.011L37.4075 183.03L37.1555 175.704L44.5037 175.682L48.2611 169.384Z" fill="#7F9C94"/>
<path d="M52.3035 214.023L47.4863 208.508L40.2531 209.798L39.1859 202.554L32.3973 199.737L35.4247 193.066L31.2263 187.011L37.3887 183.031L37.1404 175.705L44.4811 175.679L48.2422 169.396L54.4713 173.313L61.0487 170.042L64.1206 176.695L71.4279 177.49L70.4052 184.76L76.1192 189.37L71.3279 194.914L73.6402 201.877L66.5996 203.966L64.7728 211.066L57.7322 209.026L52.3035 214.023ZM47.4863 208.479L52.3035 213.993L57.6877 209.022L64.7283 211.059L66.5551 203.966L73.5957 201.877L71.2908 194.925L76.0747 189.381L70.3644 184.779L71.3835 177.531L64.1057 176.721L61.0375 170.068L54.4713 173.336L48.2645 169.399L44.507 175.683L37.17 175.709L37.4183 183.027L31.2523 187.015L35.4321 193.036L32.4084 199.689L39.1859 202.506L40.2531 209.761L47.4863 208.479Z" fill="#263238"/>
<path d="M149.404 245.727L160.988 243.724L160.866 249.087L139.989 252.702L140.096 248.433L150.953 236.431C153.636 233.419 154.329 231.8 154.014 229.992C153.699 228.185 152.106 227.205 149.43 227.671C148.301 227.882 147.233 228.342 146.304 229.015C145.374 229.689 144.607 230.561 144.057 231.567L139.24 229.205C140.919 225.797 144.706 223.077 149.471 222.253C155.304 221.244 159.665 223.687 160.41 227.967C160.977 231.231 159.958 234.25 155.763 238.811L149.404 245.727Z" fill="#7F9C94"/>
<path d="M177.144 235.376L184.907 244.923L178.408 246.05L173.791 240.166L168.814 247.706L161.811 248.937L170.519 236.255L163.107 226.937L169.492 225.829L173.92 231.458L178.738 224.224L185.511 223.053L177.144 235.376Z" fill="#7F9C94"/>
<path d="M198.618 214.216L197.877 242.676L191.496 243.785L192.089 220.614L186.575 221.567L186.712 216.282L198.618 214.216Z" fill="#7F9C94"/>
<g opacity="0.3">
<path d="M149.404 245.727L160.988 243.723L160.866 249.086L139.989 252.701L140.096 248.432L150.953 236.431C153.636 233.418 154.329 231.8 154.014 229.992C153.699 228.185 152.106 227.205 149.43 227.671C148.301 227.882 147.233 228.341 146.304 229.015C145.374 229.689 144.607 230.56 144.057 231.567L139.24 229.205C140.919 225.797 144.706 223.077 149.471 222.252C155.304 221.243 159.665 223.687 160.41 227.967C160.977 231.23 159.958 234.25 155.763 238.811L149.404 245.727Z" fill="black"/>
<path d="M177.144 235.375L184.907 244.923L178.408 246.05L173.791 240.166L168.814 247.706L161.811 248.937L170.519 236.255L163.107 226.937L169.492 225.828L173.92 231.458L178.738 224.224L185.511 223.052L177.144 235.375Z" fill="black"/>
<path d="M198.618 214.216L197.877 242.676L191.496 243.785L192.089 220.614L186.575 221.567L186.712 216.282L198.618 214.216Z" fill="black"/>
</g>
<path d="M147.774 245.999L159.339 243.996L159.221 249.359L138.34 252.974L138.451 248.705L149.334 236.707C152.013 233.691 152.706 232.072 152.391 230.264C152.076 228.457 150.487 227.481 147.807 227.943C146.68 228.154 145.613 228.612 144.685 229.284C143.756 229.955 142.989 230.824 142.438 231.828L137.621 229.466C139.299 226.058 143.087 223.338 147.852 222.514C153.681 221.505 158.042 223.948 158.787 228.232C159.358 231.492 158.339 234.515 154.144 239.072L147.774 245.999Z" fill="#7F9C94"/>
<path d="M175.514 235.653L183.262 245.196L176.755 246.324L172.168 240.436L167.191 247.976L160.177 249.192L168.888 236.511L161.477 227.193L167.858 226.084L172.286 231.713L177.104 224.48L183.881 223.308L175.514 235.653Z" fill="#7F9C94"/>
<path d="M196.987 214.49L196.246 242.951L189.865 244.06L190.458 220.889L184.944 221.842L185.078 216.557L196.987 214.49Z" fill="#7F9C94"/>
<path d="M197.136 278.878C197.136 278.93 186.931 280.929 174.321 283.347C161.711 285.764 151.48 287.679 151.469 287.627C151.458 287.575 161.67 285.576 174.284 283.158C186.898 280.741 197.11 278.837 197.136 278.878Z" fill="#263238"/>
<path d="M200.222 212.587C200.222 212.639 192.811 213.847 183.658 215.285C174.506 216.723 167.069 217.843 167.061 217.791C167.054 217.739 174.472 216.531 183.629 215.093C192.785 213.655 200.215 212.535 200.222 212.587Z" fill="#263238"/>
<path d="M195.498 210.579C195.498 210.631 191.826 211.196 187.283 211.839C182.74 212.483 179.053 212.948 179.045 212.911C179.038 212.874 182.714 212.294 187.257 211.651C191.8 211.008 195.49 210.524 195.498 210.579Z" fill="#263238"/>
<path d="M140.459 278.702C139.867 275.287 141.816 272.023 145.718 271.35C147.385 271.058 148.819 271.35 149.69 272.223L149.034 273.039C148.241 272.352 147.181 272.108 145.799 272.345C142.627 272.895 141.045 275.63 141.538 278.454C141.908 280.491 143.457 281.629 146.003 281.186C146.613 281.106 147.202 280.906 147.733 280.596C148.264 280.286 148.728 279.873 149.097 279.382L149.864 279.999C149.123 281.108 147.722 281.899 146.084 282.184C142.987 282.72 140.908 281.274 140.459 278.702Z" fill="#7F9C94"/>
<path d="M150.946 276.888C150.353 273.473 152.302 270.21 156.134 269.544C159.217 269.012 161.281 270.461 161.729 273.03C162.322 276.449 160.358 279.712 156.516 280.378C153.444 280.91 151.394 279.461 150.946 276.888ZM160.644 273.266C160.292 271.244 158.728 270.106 156.197 270.542C153.099 271.082 151.517 273.817 152.01 276.641C152.38 278.677 153.929 279.816 156.456 279.38C159.558 278.84 161.14 276.105 160.644 273.266Z" fill="#7F9C94"/>
<path d="M175.273 266.329L174.995 277.089L173.939 277.274L174.158 268.739L169.97 276.597L169.448 276.69L165.435 270.114L165.224 278.782L164.167 278.966L164.442 268.203L165.335 268.048L169.689 275.256L174.302 266.496L175.273 266.329Z" fill="#7F9C94"/>
<path d="M187.131 271.666C187.502 273.773 185.964 275.189 183.236 275.662L178.397 276.497L178.671 265.737L183.118 264.965C185.115 264.618 186.453 265.168 186.705 266.625C186.83 267.261 186.739 267.92 186.445 268.499C186.151 269.077 185.671 269.54 185.082 269.814C185.59 269.823 186.078 270.016 186.455 270.357C186.832 270.697 187.072 271.162 187.131 271.666ZM186.045 271.869C185.841 270.694 184.934 270.409 183.336 270.683L179.631 271.33L179.538 275.37L183.188 274.738C185.237 274.375 186.29 273.37 186.019 271.869H186.045ZM179.746 266.484L179.642 270.391L182.977 269.814C184.763 269.508 185.897 268.513 185.634 267.013C185.456 265.989 184.522 265.66 183.092 265.904L179.746 266.484Z" fill="#7F9C94"/>
<path d="M188.902 270.315C188.306 266.9 190.255 263.636 194.09 262.971C197.173 262.439 199.233 263.888 199.682 266.456C200.278 269.875 198.314 273.139 194.468 273.804C191.396 274.337 189.354 272.888 188.902 270.315ZM198.618 266.678C198.248 264.656 196.703 263.522 194.172 263.954C191.074 264.494 189.495 267.229 189.988 270.053C190.34 272.089 191.904 273.228 194.435 272.792C197.507 272.271 199.093 269.532 198.618 266.678Z" fill="#7F9C94"/>
<path d="M139.037 269.126L139.811 266.75C141.135 267.378 142.622 267.578 144.065 267.323C145.618 267.053 146.503 266.343 146.348 265.456C146.007 263.504 140.13 265.6 139.455 261.716C139.018 259.21 140.938 257.206 144.324 256.622C145.794 256.319 147.319 256.428 148.73 256.936L148.041 259.287C146.944 258.823 145.733 258.694 144.562 258.918C142.92 259.202 142.068 259.993 142.22 260.865C142.549 262.869 148.445 260.773 149.097 264.517C149.534 267.042 147.585 269.049 144.18 269.64C142.19 269.98 140.2 269.714 139.037 269.126Z" fill="#7F9C94"/>
<path d="M151.153 264.034C151.083 263.594 151.054 263.149 151.068 262.704L151.242 255.64L154.084 255.149L153.903 262.171C153.895 262.522 153.92 262.872 153.977 263.217C154.236 264.696 155.196 265.269 156.715 265.006C158.427 264.707 159.257 263.594 159.331 261.233L159.517 254.21L162.303 253.744L162.133 260.933C162.025 264.666 160.28 266.869 156.83 267.464C153.747 267.978 151.613 266.681 151.153 264.034Z" fill="#7F9C94"/>
<path d="M175.492 255.352C176.029 258.453 174.08 260.781 170.43 261.413L167.706 261.875L167.628 265.353L164.782 265.845L165.105 253.234L170.044 252.376C173.101 251.855 175.077 252.968 175.492 255.352ZM172.668 256.091C172.464 254.908 171.53 254.494 170.096 254.742L167.873 255.111L167.754 259.491L170.144 259.077C172.019 258.771 172.95 257.71 172.679 256.091H172.668Z" fill="#7F9C94"/>
<path d="M180.461 252.91L180.398 255.649L186.071 254.666L186.016 256.935L180.324 257.922L180.257 260.839L186.927 259.685L186.849 262.029L177.385 263.67L177.708 251.055L186.946 249.454L186.868 251.801L180.461 252.91Z" fill="#7F9C94"/>
<path d="M197.166 256.37L199.948 259.763L196.962 260.281L194.449 257.198L192.041 257.616L191.948 261.134L189.102 261.626L189.425 249.011L194.401 248.15C197.44 247.625 199.426 248.715 199.841 251.107C200.245 253.413 199.23 255.313 197.166 256.37ZM197.028 251.872C196.821 250.689 195.887 250.275 194.435 250.526L192.211 250.915L192.093 255.294L194.501 254.877C196.361 254.552 197.31 253.491 197.028 251.872Z" fill="#7F9C94"/>
<path d="M108.421 200.107L108.617 199.737C109.048 200.112 109.602 200.314 110.174 200.306C111.056 200.306 111.441 199.937 111.441 199.475C111.441 198.185 108.536 198.976 108.536 197.235C108.536 196.544 109.077 195.945 110.274 195.945C110.798 195.936 111.314 196.081 111.756 196.363L111.589 196.758C111.203 196.508 110.753 196.372 110.292 196.366C109.433 196.366 109.047 196.736 109.047 197.22C109.047 198.514 111.952 197.734 111.952 199.438C111.952 200.133 111.4 200.724 110.192 200.724C109.545 200.75 108.911 200.53 108.421 200.107Z" fill="#263238"/>
<path d="M116.725 197.583C116.725 198.585 115.984 199.191 114.798 199.191H113.531V200.67H113.02V195.972H114.787C115.984 195.972 116.725 196.574 116.725 197.583ZM116.225 197.583C116.225 196.844 115.728 196.401 114.783 196.401H113.531V198.755H114.783C115.717 198.755 116.214 198.323 116.214 197.583H116.225Z" fill="#263238"/>
<path d="M121.131 200.248V200.677H117.796V195.972H121.031V196.401H118.296V198.075H120.735V198.5H118.296V200.248H121.131Z" fill="#263238"/>
<path d="M121.861 198.323C121.856 198.001 121.918 197.682 122.041 197.385C122.164 197.087 122.348 196.818 122.579 196.594C122.811 196.37 123.086 196.196 123.387 196.082C123.689 195.968 124.011 195.917 124.333 195.931C124.653 195.919 124.971 195.973 125.269 196.091C125.566 196.209 125.836 196.387 126.06 196.615L125.741 196.933C125.561 196.748 125.344 196.603 125.104 196.507C124.864 196.411 124.606 196.366 124.348 196.375C124.084 196.363 123.82 196.405 123.573 196.498C123.326 196.591 123.1 196.733 122.91 196.915C122.719 197.097 122.567 197.316 122.463 197.558C122.36 197.801 122.306 198.061 122.306 198.325C122.306 198.588 122.36 198.849 122.463 199.091C122.567 199.333 122.719 199.552 122.91 199.734C123.1 199.917 123.326 200.058 123.573 200.151C123.82 200.244 124.084 200.286 124.348 200.274C124.607 200.283 124.864 200.236 125.104 200.139C125.344 200.042 125.561 199.895 125.741 199.709L126.06 200.027C125.835 200.256 125.565 200.436 125.266 200.555C124.967 200.674 124.647 200.73 124.325 200.718C124.004 200.732 123.682 200.679 123.381 200.565C123.08 200.45 122.806 200.275 122.575 200.051C122.344 199.827 122.162 199.558 122.039 199.26C121.917 198.963 121.856 198.644 121.861 198.323Z" fill="#263238"/>
<path d="M127.127 195.972H127.623V200.677H127.127V195.972Z" fill="#263238"/>
<path d="M132.122 199.411H129.491L128.924 200.667H128.405L130.562 195.962H131.055L133.211 200.667H132.685L132.122 199.411ZM131.937 199.008L130.806 196.491L129.672 199.019L131.937 199.008Z" fill="#263238"/>
<path d="M133.997 195.972H134.512V200.248H137.154V200.677H134.015L133.997 195.972Z" fill="#263238"/>
<path d="M139.262 198.324C139.239 197.818 139.369 197.317 139.634 196.885C139.899 196.453 140.288 196.11 140.75 195.901C141.212 195.691 141.727 195.625 142.227 195.709C142.728 195.794 143.191 196.027 143.558 196.377C143.925 196.727 144.179 197.178 144.286 197.673C144.393 198.168 144.35 198.684 144.161 199.154C143.971 199.624 143.646 200.026 143.225 200.31C142.804 200.594 142.308 200.745 141.8 200.745C141.472 200.762 141.143 200.712 140.835 200.598C140.527 200.484 140.245 200.308 140.007 200.081C139.769 199.854 139.581 199.581 139.453 199.279C139.324 198.977 139.26 198.652 139.262 198.324ZM143.46 198.324C143.46 197.996 143.363 197.676 143.181 197.404C142.998 197.131 142.739 196.919 142.436 196.794C142.132 196.669 141.799 196.636 141.476 196.7C141.154 196.764 140.859 196.921 140.627 197.153C140.394 197.384 140.236 197.679 140.172 198.001C140.108 198.322 140.141 198.655 140.267 198.957C140.392 199.26 140.605 199.519 140.878 199.701C141.151 199.882 141.472 199.98 141.8 199.98C142.02 199.987 142.239 199.949 142.444 199.868C142.649 199.788 142.835 199.666 142.99 199.511C143.146 199.355 143.268 199.17 143.349 198.966C143.43 198.762 143.468 198.543 143.46 198.324Z" fill="#263238"/>
<path d="M146.151 196.704V198.134H148.43V198.873H146.151V200.673H145.276V195.972H148.719V196.711L146.151 196.704Z" fill="#263238"/>
<path d="M150.446 196.704V198.134H152.725V198.873H150.446V200.673H149.571V195.972H153.014V196.711L150.446 196.704Z" fill="#263238"/>
<path d="M157.405 199.945V200.685H153.866V195.972H157.308V196.711H154.74V197.931H157.019V198.652H154.74V199.949L157.405 199.945Z" fill="#263238"/>
<path d="M161.47 200.677L160.506 199.298C160.446 199.302 160.385 199.302 160.325 199.298H159.257V200.67H158.383V195.972H160.325C161.562 195.972 162.333 196.604 162.333 197.646C162.345 197.967 162.254 198.284 162.074 198.55C161.893 198.816 161.632 199.017 161.329 199.125L162.414 200.67L161.47 200.677ZM160.284 196.711H159.257V198.585H160.284C161.051 198.585 161.447 198.238 161.447 197.646C161.447 197.055 161.051 196.711 160.284 196.711Z" fill="#263238"/>
<path d="M59.1966 181.001C59.1539 180.821 59.1843 180.632 59.2813 180.475C59.3782 180.318 59.5337 180.206 59.7136 180.163C59.8934 180.121 60.0829 180.151 60.2403 180.248C60.3977 180.345 60.5101 180.5 60.5529 180.679L60.9012 182.157C60.9439 182.337 60.9135 182.526 60.8166 182.683C60.7196 182.84 60.5641 182.952 60.3843 182.995C60.2952 183.016 60.2029 183.019 60.1125 183.005C60.0221 182.99 59.9355 182.958 59.8575 182.91C59.7001 182.814 59.5877 182.658 59.545 182.479L59.1966 181.001ZM60.0007 182.394C60.0489 182.59 60.149 182.653 60.2972 182.619C60.4454 182.586 60.5084 182.483 60.4602 182.283L60.0897 180.753C60.0415 180.557 59.934 180.494 59.7932 180.527C59.6524 180.561 59.582 180.664 59.6302 180.864L60.0007 182.394ZM61.483 179.74L61.898 179.64L61.1976 184.523L60.7715 184.623L61.483 179.74ZM61.8091 182.106C61.7868 182.016 61.7825 181.924 61.7965 181.833C61.8105 181.742 61.8424 181.654 61.8905 181.576C61.9386 181.497 62.0018 181.429 62.0765 181.375C62.1512 181.321 62.2359 181.283 62.3257 181.262C62.4155 181.24 62.5086 181.237 62.5996 181.253C62.6906 181.268 62.7777 181.301 62.8558 181.35C62.9339 181.399 63.0015 181.463 63.0546 181.538C63.1077 181.613 63.1454 181.698 63.1653 181.788L63.5136 183.266C63.5359 183.356 63.5401 183.448 63.5262 183.539C63.5122 183.63 63.4802 183.718 63.4322 183.796C63.3841 183.875 63.3209 183.943 63.2462 183.997C63.1714 184.051 63.0867 184.089 62.9969 184.111C62.9071 184.132 62.814 184.135 62.723 184.119C62.632 184.104 62.545 184.071 62.4669 184.022C62.3888 183.973 62.3212 183.909 62.2681 183.834C62.2149 183.759 62.1773 183.674 62.1574 183.584L61.8091 182.106ZM62.6243 183.514C62.6724 183.714 62.7762 183.776 62.9207 183.743C63.0652 183.71 63.1319 183.603 63.0838 183.407L62.7132 181.877C62.6687 181.677 62.5576 181.618 62.4168 181.651C62.276 181.684 62.2055 181.788 62.2537 181.984L62.6243 183.514Z" fill="#263238"/>
<path d="M46.8756 185.786C46.531 184.337 45.9307 184.067 45.1228 184.259C44.315 184.452 43.9111 184.999 44.1853 186.155L44.4299 187.19L42.0324 187.76L41.8249 186.884C41.2135 184.296 42.1547 182.533 44.6448 181.942C47.135 181.35 48.7765 182.518 49.3879 185.095L49.488 185.509C49.8956 187.235 49.5992 188.466 48.4986 189.242C49.8993 189.493 50.6923 190.569 51.0925 192.199L51.3964 193.463C52.0078 196.05 51.0666 197.817 48.5764 198.404C46.0863 198.992 44.4447 197.828 43.8333 195.252L43.5146 193.917L45.9121 193.352L46.2827 194.83C46.5569 195.98 47.1683 196.309 47.9761 196.105C48.7839 195.902 49.1953 195.407 48.858 193.98L48.5542 192.716C48.1836 191.219 47.5611 190.787 46.4087 191.06L45.5564 191.264L45.008 188.961L46.0011 188.728C46.946 188.502 47.424 187.955 47.1127 186.665L46.8756 185.786Z" fill="#263238"/>
<path d="M50.8884 184.739C50.2732 182.152 51.2848 180.37 53.775 179.779C56.2651 179.187 57.9734 180.34 58.5922 182.917L60.5784 191.277C61.1935 193.865 60.1819 195.646 57.6918 196.238C55.2016 196.829 53.4897 195.676 52.8745 193.1L50.8884 184.739ZM55.4536 192.671C55.7278 193.82 56.3355 194.149 57.1433 193.946C57.9512 193.743 58.3551 193.207 58.0808 192.05L56.0131 183.357C55.7389 182.207 55.1275 181.878 54.3197 182.081C53.5119 182.285 53.1117 182.821 53.3859 183.977L55.4536 192.671Z" fill="#263238"/>
<path d="M48.1023 202.703C47.7614 201.272 48.6248 199.949 50.1478 199.59C51.6708 199.232 53.0344 200.015 53.379 201.438C53.7237 202.861 52.8454 204.192 51.3299 204.551C49.8143 204.909 48.4395 204.129 48.1023 202.703ZM52.2488 201.719C52.1716 201.425 52.0092 201.161 51.7819 200.958C51.5546 200.756 51.2726 200.625 50.9711 200.582C50.6696 200.539 50.362 200.585 50.0868 200.715C49.8115 200.845 49.5809 201.054 49.4237 201.314C49.2666 201.574 49.1898 201.875 49.2031 202.179C49.2164 202.482 49.3191 202.775 49.4984 203.021C49.6777 203.266 49.9257 203.454 50.2112 203.56C50.4968 203.665 50.8072 203.685 51.1038 203.615C51.3076 203.573 51.5003 203.489 51.6701 203.368C51.8398 203.248 51.9828 203.094 52.0902 202.916C52.1977 202.738 52.2672 202.54 52.2945 202.334C52.3218 202.128 52.3062 201.919 52.2488 201.719Z" fill="#263238"/>
<path d="M54.976 199.482L55.2762 200.749L57.4995 200.225L57.7108 201.115L55.4874 201.644L55.9024 203.396L54.7908 203.662L53.6458 198.857L57.292 197.996L57.5032 198.89L54.976 199.482Z" fill="#263238"/>
<path d="M59.3784 198.436L59.6785 199.707L61.9019 199.178L62.1131 200.069L59.8898 200.598L60.3048 202.35L59.1931 202.616L58.0481 197.811L61.6944 196.95L61.9056 197.844L59.3784 198.436Z" fill="#263238"/>
</svg>
