<svg width="60" height="8" viewBox="0 0 60 8" fill="none" xmlns="http://www.w3.org/2000/svg">
<path d="M36.6827 5.16565C36.6738 5.15674 36.6738 5.15674 36.6738 5.15674L36.6827 5.16565Z" fill="black"/>
<path d="M45.4317 2.46485C45.0305 4.12805 43.4342 5.4235 41.7125 5.44857C40.7095 5.46529 39.7066 5.45693 38.7037 5.45693H38.4613C38.2607 6.06705 38.0601 6.66881 37.8595 7.27057H36.0459C36.0626 7.20371 36.071 7.15356 36.0877 7.10341C36.2465 6.60195 37.007 4.52922 37.3414 3.57643C37.7007 3.57643 38.5699 3.58479 38.6034 3.58479C39.8487 3.58479 41.094 3.58479 42.3309 3.58479C42.9243 3.58479 43.4091 3.19198 43.5345 2.63201C43.618 2.26426 43.4175 1.9801 43.0497 1.93831C42.9494 1.92995 42.8575 1.92995 42.7572 1.92995C41.1859 1.92995 39.6147 1.92995 38.0518 1.92995H37.7843C38.4111 1.2864 39.0046 0.676287 39.6147 0.0494537H39.7985C40.9603 0.0494537 42.1304 0.0410939 43.2921 0.0578095C43.5846 0.0578095 43.8771 0.0828838 44.1613 0.158104C45.206 0.425553 45.7075 1.34491 45.4317 2.46485Z" fill="#8B4B9F"/>
<path d="M49.5863 0.0334306C49.8204 0.100293 50.0209 0.284163 50.1463 0.48475C50.2967 0.735483 50.3553 1.01129 50.4305 1.29546C50.5141 1.60469 50.5809 1.92229 50.6645 2.23988C50.8149 2.86672 50.9737 3.49355 51.1325 4.12038C51.3833 5.12332 51.634 6.12625 51.8764 7.12918C51.8847 7.16261 51.8931 7.2044 51.9014 7.26291H44.9728C45.5579 6.62772 46.1179 6.0176 46.6862 5.39912H49.1517C48.9261 4.53827 48.7088 3.69414 48.4748 2.80821C47.0874 4.31261 45.7167 5.79194 44.346 7.27126H42.0811C42.1563 7.18768 42.2064 7.12082 42.2649 7.06232C44.0869 5.07317 45.9173 3.09238 47.7309 1.10322C47.9733 0.835776 48.2324 0.585044 48.5249 0.3761C48.784 0.192229 49.0849 0 49.4192 0C49.4693 0.00835778 49.5278 0.016715 49.5863 0.0334306Z" fill="#8B4B9F"/>
<path d="M51.0645 0.0581055H53.4046C53.8142 1.02761 54.2237 1.98875 54.6499 2.98333C55.6696 1.99711 56.6642 1.02761 57.6671 0.0581055H59.9488C59.9655 0.074821 59.9822 0.0998954 59.9989 0.116611C59.9404 0.1584 59.8652 0.191831 59.815 0.241978C58.2271 1.74638 56.6391 3.25078 55.0595 4.75518C54.9759 4.83875 54.9007 4.9474 54.8672 5.05605C54.6165 5.79154 54.3825 6.52702 54.1401 7.26251H52.3098C52.3348 7.17893 52.3516 7.11207 52.3766 7.03685C52.5939 6.37658 52.8029 5.71632 53.0285 5.05605C53.0787 4.91397 53.0703 4.79696 53.0118 4.66324C52.385 3.19227 51.7665 1.7213 51.1397 0.241978C51.1146 0.200189 51.0979 0.141683 51.0645 0.0581055Z" fill="#8B4B9F"/>
<path d="M30.9483 4.95719C31.0068 5.19121 31.3829 6.53681 31.5752 7.21379C31.5585 7.2305 31.5334 7.24722 31.5167 7.26393H24.5797C25.1648 6.62874 25.7164 6.01862 26.2847 5.40015H28.7586C28.5329 4.53094 28.3073 3.6868 28.0733 2.80088C26.6775 4.30528 25.3068 5.79296 23.9445 7.26393H21.6963C21.7381 7.20543 21.7631 7.16364 21.7966 7.13021C23.7356 5.01569 25.6746 2.89282 27.622 0.786656C27.8058 0.586069 28.0148 0.418914 28.2404 0.285189C28.6082 0.0678872 29.0762 -0.124342 29.469 0.159823C29.7783 0.377125 29.912 0.753224 29.9872 1.10425C30.0875 1.56393 30.2129 2.01525 30.3215 2.47493C30.5388 3.30235 30.7478 4.12977 30.9483 4.95719Z" fill="#500B75"/>
<path d="M8.83392 7.33057C8.47453 7.22192 8.25723 6.97119 8.05664 6.66195C7.38802 5.60887 6.69432 4.56415 6.01735 3.51943C5.97556 3.46092 5.93377 3.40242 5.87526 3.31884C5.44066 4.65608 5.00605 5.9599 4.57981 7.27207H2.75781C2.77453 7.21356 2.78289 7.15506 2.7996 7.10491C3.45987 5.08233 4.12013 3.05139 4.79711 1.02881C4.87233 0.794792 5.01441 0.560776 5.18157 0.385263C5.6496 -0.116204 6.35166 -0.0409847 6.72776 0.535702C7.44652 1.63057 8.15694 2.72544 8.86735 3.82031C8.90078 3.87881 8.94257 3.93732 9.00107 4.02089C9.44403 2.67529 9.87028 1.37148 10.3049 0.0593076H12.1269C12.1102 0.134528 12.0934 0.20139 12.0684 0.268252C11.4081 2.28248 10.7478 4.2967 10.0876 6.30257C10.0709 6.36107 10.0458 6.42793 10.0207 6.48644C9.87028 6.87925 9.6279 7.18849 9.21837 7.33057H8.83392Z" fill="#500B75"/>
<path d="M0 7.21328C0.183871 6.67838 0.367742 6.15184 0.543255 5.61694C1.13666 3.82002 1.7217 2.0231 2.30675 0.22618C2.32346 0.176033 2.34018 0.125887 2.36525 0.0673828H4.1956C3.40161 2.48278 2.61598 4.88146 1.83035 7.29686H0C0 7.26343 0 7.23836 0 7.21328Z" fill="#500B75"/>
<path d="M20.2181 0.0507813C19.5912 0.702688 19.0062 1.31281 18.4211 1.93128C17.9447 1.93128 17.4767 1.93128 17.0087 1.93128C16.0893 1.93128 15.17 1.93128 14.2506 1.93128C13.9247 1.93128 13.7826 2.09843 13.8076 2.44946C13.8996 2.46618 14.0082 2.49961 14.1169 2.49961C15.0613 2.49961 16.0057 2.49125 16.9502 2.50797C17.2594 2.51632 17.577 2.5414 17.8695 2.63333C18.722 2.89242 19.1065 3.6697 18.8892 4.61412C18.5381 6.1436 17.1508 7.26354 15.5461 7.28026C13.7742 7.29697 12.0024 7.28861 10.2305 7.28861C10.1971 7.28861 10.172 7.28026 10.0801 7.28026C10.6902 6.64507 11.2752 6.03495 11.8603 5.42483C12.1612 5.42483 12.4704 5.42483 12.7713 5.42483C13.8578 5.42483 14.9443 5.43319 16.0308 5.41647C16.2732 5.41647 16.5156 5.3329 16.7412 5.24932C16.8582 5.20753 16.9669 5.09052 17.0337 4.97351C17.1758 4.74785 17.1006 4.54726 16.8582 4.45533C16.7078 4.40518 16.5406 4.38011 16.3818 4.38011C15.404 4.37175 14.4261 4.38011 13.4483 4.37175C13.2059 4.37175 12.9635 4.34668 12.7378 4.28817C11.8937 4.07923 11.4675 3.37717 11.6597 2.52468C11.9522 1.19579 13.1808 0.134358 14.5515 0.0758536C15.3538 0.0424225 16.1645 0.059137 16.9752 0.059137C17.9615 0.059137 18.956 0.059137 19.9423 0.059137C20.0175 0.0507792 20.0927 0.0507813 20.2181 0.0507813Z" fill="#500B75"/>
<path d="M21.3449 7.27233H19.5062C20.0912 5.48377 20.6679 3.72028 21.253 1.93171H18.8125C19.431 1.27981 20.016 0.678046 20.6011 0.0595703H26.6604C26.0503 0.694761 25.4569 1.30488 24.8635 1.92336H23.0917C22.515 3.71192 21.9299 5.48377 21.3449 7.27233Z" fill="#500B75"/>
<path d="M35.7464 3.61039C35.6962 3.64382 35.6461 3.67725 35.5959 3.71904C34.3088 4.84734 32.8462 6.1428 31.5508 7.27945C30.9657 7.27945 30.1717 7.27945 29.6201 7.27945L33.7906 3.58531C33.7405 3.49338 33.6987 3.42652 33.6653 3.35965C33.0301 2.24807 32.3949 1.13649 31.7681 0.0249023H33.7238C33.7489 0.0917645 33.7739 0.158628 33.8074 0.217133C34.4091 1.27021 35.0192 2.33165 35.621 3.38473C35.6544 3.44323 35.6879 3.50174 35.7464 3.61039Z" fill="#FD6E66"/>
<path d="M38.5131 3.56079L34.4261 7.21314L34.3592 7.27164C33.7742 7.28 33.0053 7.27164 32.4453 7.22985C33.8243 6.01797 35.2034 4.79774 36.5824 3.5775C35.8971 2.38234 35.2201 1.19554 34.5431 0.0170898H36.4988C36.5239 0.0672365 36.5406 0.125743 36.574 0.17589C37.1925 1.2624 37.7859 2.29041 38.396 3.37692C38.4295 3.42706 38.396 3.38528 38.5131 3.56079Z" fill="#FB6518"/>
</svg>
