<svg width="20" height="20" viewBox="0 0 20 20" fill="none" xmlns="http://www.w3.org/2000/svg">
<path d="M9.9987 1.66602C6.33203 1.66602 3.33203 4.66602 3.33203 8.33268C3.33203 12.8327 9.16536 17.916 9.41536 18.166C9.58203 18.2493 9.83203 18.3327 9.9987 18.3327C10.1654 18.3327 10.4154 18.2493 10.582 18.166C10.832 17.916 16.6654 12.8327 16.6654 8.33268C16.6654 4.66602 13.6654 1.66602 9.9987 1.66602ZM9.9987 16.416C8.2487 14.7493 4.9987 11.166 4.9987 8.33268C4.9987 5.58268 7.2487 3.33268 9.9987 3.33268C12.7487 3.33268 14.9987 5.58268 14.9987 8.33268C14.9987 11.0827 11.7487 14.7493 9.9987 16.416ZM9.9987 4.99935C8.16536 4.99935 6.66536 6.49935 6.66536 8.33268C6.66536 10.166 8.16536 11.666 9.9987 11.666C11.832 11.666 13.332 10.166 13.332 8.33268C13.332 6.49935 11.832 4.99935 9.9987 4.99935ZM9.9987 9.99935C9.08203 9.99935 8.33203 9.24935 8.33203 8.33268C8.33203 7.41602 9.08203 6.66602 9.9987 6.66602C10.9154 6.66602 11.6654 7.41602 11.6654 8.33268C11.6654 9.24935 10.9154 9.99935 9.9987 9.99935Z" fill="black"/>
</svg>
