<svg width="17" height="20" viewBox="0 0 17 20" fill="none" xmlns="http://www.w3.org/2000/svg">
<path d="M1.87993 0.600342H10.3396C10.8382 0.600342 11.3164 0.798405 11.6689 1.15096C12.0215 1.50352 12.2195 1.98168 12.2195 2.48027V3.42024C12.2195 3.66953 12.1205 3.90861 11.9442 4.08489C11.768 4.26117 11.5289 4.3602 11.2796 4.3602C11.0303 4.3602 10.7912 4.26117 10.6149 4.08489C10.4386 3.90861 10.3396 3.66953 10.3396 3.42024V2.48027H1.87993V17.5197H10.3396V16.5797C10.3396 16.3304 10.4386 16.0914 10.6149 15.9151C10.7912 15.7388 11.0303 15.6398 11.2796 15.6398C11.5289 15.6398 11.768 15.7388 11.9442 15.9151C12.1205 16.0914 12.2195 16.3304 12.2195 16.5797V17.5197C12.2195 18.0183 12.0215 18.4965 11.6689 18.849C11.3164 19.2016 10.8382 19.3996 10.3396 19.3996H1.87993C1.38134 19.3996 0.903174 19.2016 0.550618 18.849C0.198063 18.4965 0 18.0183 0 17.5197V2.48027C0 1.98168 0.198063 1.50352 0.550618 1.15096C0.903174 0.798405 1.38134 0.600342 1.87993 0.600342Z" fill="#BC0101"/>
<path d="M12.0272 14.0371C12.3938 14.4037 12.986 14.4037 13.3526 14.0371L16.7252 10.6645C16.9014 10.4883 17.0004 10.2492 17.0004 9.99999C17.0004 9.75074 16.9014 9.5117 16.7252 9.33543L13.3526 5.96284C13.1739 5.80135 12.94 5.71468 12.6992 5.72076C12.4585 5.72684 12.2292 5.82519 12.0589 5.99549C11.8886 6.16579 11.7903 6.39502 11.7842 6.63579C11.7781 6.87655 11.8648 7.11045 12.0263 7.28913L13.7897 9.06002H5.64016C5.39087 9.06002 5.15178 9.15905 4.9755 9.33533C4.79923 9.51161 4.7002 9.75069 4.7002 9.99999C4.7002 10.2493 4.79923 10.4884 4.9755 10.6646C5.15178 10.8409 5.39087 10.94 5.64016 10.94H13.7897L12.0263 12.7108C11.851 12.8871 11.7528 13.1256 11.7529 13.3742C11.7531 13.6227 11.8517 13.8611 12.0272 14.0371Z" fill="#BC0101"/>
</svg>
