<svg width="38" height="26" viewBox="0 0 38 26" fill="none" xmlns="http://www.w3.org/2000/svg">
<path d="M5.52861 25.7865V23.6119C5.52861 22.7789 5.01998 22.2408 4.15752 22.2408C3.7226 22.2408 3.25083 22.3808 2.92648 22.86C2.67585 22.4619 2.30727 22.2408 1.76916 22.2408C1.40795 22.2408 1.04675 22.3514 0.759263 22.7494V22.3145H0V25.7865H0.759263V23.8699C0.759263 23.2507 1.08361 22.9632 1.59224 22.9632C2.10087 22.9632 2.3515 23.2875 2.3515 23.8699V25.7865H3.09602V23.8699C3.09602 23.2507 3.45723 22.9632 3.929 22.9632C4.43763 22.9632 4.68826 23.2875 4.68826 23.8699V25.7865H5.52861ZM16.7849 22.3071H15.5538V21.2604H14.7946V22.3071H14.109V22.9927H14.7946V24.5849C14.7946 25.381 15.1189 25.8528 15.9887 25.8528C16.3131 25.8528 16.6743 25.7422 16.9323 25.6022L16.7112 24.9461C16.49 25.0862 16.2394 25.1304 16.0551 25.1304C15.6939 25.1304 15.5465 24.9093 15.5465 24.5554V23.0001H16.7775L16.7849 22.3071ZM23.2275 22.2334C22.7926 22.2334 22.5051 22.4546 22.3209 22.742V22.3071H21.5616V25.7791H22.3209V23.8257C22.3209 23.2507 22.5715 22.919 23.0433 22.919C23.1833 22.919 23.3676 22.9558 23.515 22.9927L23.7362 22.2703C23.5887 22.2334 23.375 22.2334 23.2275 22.2334ZM13.4898 22.5946C13.1286 22.344 12.62 22.2334 12.0745 22.2334C11.2047 22.2334 10.6297 22.6683 10.6297 23.3539C10.6297 23.9289 11.0646 24.2606 11.8239 24.3638L12.1851 24.4006C12.5831 24.4743 12.8043 24.5849 12.8043 24.7618C12.8043 25.0125 12.5168 25.1968 12.0081 25.1968C11.4995 25.1968 11.1015 25.0125 10.8508 24.8355L10.4896 25.4105C10.8877 25.698 11.4332 25.8454 11.9713 25.8454C12.9812 25.8454 13.5635 25.3737 13.5635 24.725C13.5635 24.1058 13.0918 23.7814 12.3693 23.6782L12.0081 23.6414C11.6838 23.6045 11.4332 23.5308 11.4332 23.317C11.4332 23.0664 11.6838 22.919 12.0892 22.919C12.5242 22.919 12.9591 23.1033 13.1802 23.2065L13.4898 22.5946ZM33.6877 22.2334C33.2528 22.2334 32.9653 22.4546 32.781 22.742V22.3071H32.0217V25.7791H32.781V23.8257C32.781 23.2507 33.0316 22.919 33.5034 22.919C33.6435 22.919 33.8277 22.9558 33.9752 22.9927L34.1963 22.2776C34.0489 22.2334 33.8351 22.2334 33.6877 22.2334ZM23.9868 24.0468C23.9868 25.0936 24.7092 25.8528 25.8371 25.8528C26.3457 25.8528 26.7069 25.7422 27.0681 25.4548L26.7069 24.8355C26.4194 25.0567 26.1319 25.1599 25.8002 25.1599C25.181 25.1599 24.7534 24.725 24.7534 24.0394C24.7534 23.3834 25.1884 22.9484 25.8002 22.919C26.1245 22.919 26.4194 23.0295 26.7069 23.2433L27.0681 22.6241C26.7069 22.3366 26.3457 22.226 25.8371 22.226C24.7166 22.2334 23.9868 23.0001 23.9868 24.0468ZM31.0118 24.0468V22.3071H30.2526V22.742C30.0019 22.4177 29.6334 22.2334 29.1616 22.2334C28.1812 22.2334 27.4219 22.9927 27.4219 24.0394C27.4219 25.0862 28.1812 25.8454 29.1616 25.8454C29.6702 25.8454 30.0314 25.6612 30.2526 25.3368V25.7717H31.0118V24.0468ZM28.2254 24.0468C28.2254 23.4276 28.6235 22.9263 29.2722 22.9263C29.8914 22.9263 30.3189 23.3981 30.3189 24.0468C30.3189 24.666 29.884 25.1673 29.2722 25.1673C28.6235 25.1304 28.2254 24.6586 28.2254 24.0468ZM19.1364 22.2334C18.1265 22.2334 17.3967 22.9558 17.3967 24.0394C17.3967 25.1304 18.1191 25.8454 19.1732 25.8454C19.6819 25.8454 20.1831 25.7054 20.5886 25.3737L20.2274 24.8282C19.9399 25.0493 19.5713 25.1894 19.2175 25.1894C18.7457 25.1894 18.2739 24.9682 18.1707 24.3564H20.736C20.736 24.2458 20.736 24.1721 20.736 24.0689C20.7655 22.9632 20.1168 22.2334 19.1364 22.2334ZM19.1364 22.8895C19.6081 22.8895 19.9325 23.177 20.0062 23.7225H18.2002C18.2739 23.2507 18.5983 22.8895 19.1364 22.8895ZM38 24.0468V20.936H37.2407V22.742C36.9901 22.4177 36.6215 22.2334 36.1498 22.2334C35.1693 22.2334 34.4101 22.9927 34.4101 24.0394C34.4101 25.0862 35.1693 25.8454 36.1498 25.8454C36.6584 25.8454 37.0196 25.6612 37.2407 25.3368V25.7717H38V24.0468ZM35.2062 24.0468C35.2062 23.4276 35.6043 22.9263 36.253 22.9263C36.8722 22.9263 37.2997 23.3981 37.2997 24.0468C37.2997 24.666 36.8648 25.1673 36.253 25.1673C35.6043 25.1304 35.2062 24.6586 35.2062 24.0468ZM9.7967 24.0468V22.3071H9.03744V22.742C8.78681 22.4177 8.41823 22.2334 7.94646 22.2334C6.96605 22.2334 6.20679 22.9927 6.20679 24.0394C6.20679 25.0862 6.96605 25.8454 7.94646 25.8454C8.45509 25.8454 8.81629 25.6612 9.03744 25.3368V25.7717H9.7967V24.0468ZM6.9808 24.0468C6.9808 23.4276 7.37885 22.9263 8.02754 22.9263C8.64675 22.9263 9.0743 23.3981 9.0743 24.0468C9.0743 24.666 8.63938 25.1673 8.02754 25.1673C7.37148 25.1304 6.9808 24.6586 6.9808 24.0468Z" fill="black"/>
<path d="M23.2368 1.9043H15.4629V15.8692H23.2368V1.9043Z" fill="#EB662B"/>
<path d="M15.98 8.8845C15.98 6.04528 17.3117 3.52767 19.3619 1.89951C17.8544 0.713574 15.9549 0 13.8845 0C8.97491 0 5 3.97491 5 8.8845C5 13.7941 8.97491 17.769 13.8845 17.769C15.9549 17.769 17.8594 17.0554 19.3619 15.8695C17.3117 14.2614 15.98 11.7237 15.98 8.8845Z" fill="#D72E2B"/>
<path d="M33.7242 8.8845C33.7242 13.7941 29.7493 17.769 24.8397 17.769C22.7694 17.769 20.8648 17.0554 19.3623 15.8695C21.4327 14.2413 22.7442 11.7237 22.7442 8.8845C22.7442 6.04528 21.4126 3.52767 19.3623 1.89951C20.8648 0.713574 22.7643 0 24.8397 0C29.7493 0 33.7242 4.00004 33.7242 8.8845Z" fill="#E9A140"/>
</svg>
