<svg width="27" height="18" viewBox="0 0 27 18" fill="none" xmlns="http://www.w3.org/2000/svg">
<path d="M1.1416 16.2178H8.75C8.78741 16.2178 8.82312 16.2324 8.84961 16.2588C8.87604 16.2852 8.89152 16.321 8.8916 16.3584C8.8916 16.3959 8.87611 16.4325 8.84961 16.459C8.82314 16.4853 8.78732 16.5 8.75 16.5H1.1416C1.10412 16.5 1.06751 16.4855 1.04102 16.459C1.01452 16.4325 1 16.3959 1 16.3584C1.00008 16.3211 1.01471 16.2852 1.04102 16.2588C1.06751 16.2323 1.10412 16.2178 1.1416 16.2178ZM1.1416 8.6084H17.8809C17.9182 8.60851 17.9541 8.62399 17.9805 8.65039C18.0068 8.67687 18.0215 8.71263 18.0215 8.75C18.0215 8.78737 18.0068 8.82313 17.9805 8.84961C17.9541 8.87601 17.9182 8.89149 17.8809 8.8916H1.1416C1.10412 8.8916 1.06751 8.87611 1.04102 8.84961C1.01473 8.82314 1 8.78732 1 8.75C1 8.71268 1.01473 8.67686 1.04102 8.65039C1.06752 8.62389 1.10413 8.6084 1.1416 8.6084ZM1.1416 1H25.4893C25.5266 1.00003 25.5624 1.01472 25.5889 1.04102C25.6154 1.06751 25.6309 1.10412 25.6309 1.1416C25.6308 1.17897 25.6153 1.21478 25.5889 1.24121C25.5624 1.26763 25.5266 1.28219 25.4893 1.28223H1.1416C1.10412 1.28223 1.06751 1.26771 1.04102 1.24121C1.01471 1.2148 1.00008 1.17888 1 1.1416C1 1.10412 1.01452 1.06751 1.04102 1.04102C1.06751 1.01452 1.10412 1 1.1416 1Z" fill="black" stroke="black" stroke-width="2"/>
</svg>
