<svg width="17" height="20" viewBox="0 0 17 20" fill="none" xmlns="http://www.w3.org/2000/svg">
<path fill-rule="evenodd" clip-rule="evenodd" d="M10.9341 10.3416C10.7935 9.94379 10.5331 9.59941 10.1886 9.35585C9.8441 9.11228 9.43258 8.98153 9.0107 8.9816V8.47168H7.99085V8.9816C7.4499 8.9816 6.9311 9.1965 6.54858 9.57901C6.16607 9.96152 5.95117 10.4803 5.95117 11.0213C5.95117 11.5622 6.16607 12.081 6.54858 12.4636C6.9311 12.8461 7.4499 13.061 7.99085 13.061V15.1006C7.54722 15.1006 7.16937 14.8176 7.02863 14.4209C7.00775 14.356 6.97407 14.296 6.92957 14.2443C6.88508 14.1926 6.83067 14.1504 6.76957 14.1202C6.70848 14.0899 6.64193 14.0722 6.57388 14.0681C6.50582 14.064 6.43763 14.0736 6.37334 14.0963C6.30906 14.119 6.24998 14.1544 6.1996 14.2003C6.14922 14.2463 6.10857 14.3019 6.08005 14.3638C6.05153 14.4257 6.03572 14.4927 6.03355 14.5609C6.03138 14.629 6.04291 14.6969 6.06743 14.7605C6.20803 15.1583 6.4685 15.5027 6.81298 15.7462C7.15745 15.9898 7.56897 16.1206 7.99085 16.1205V16.6304H9.0107V16.1205C9.55165 16.1205 10.0705 15.9056 10.453 15.5231C10.8355 15.1406 11.0504 14.6218 11.0504 14.0808C11.0504 13.5399 10.8355 13.021 10.453 12.6385C10.0705 12.256 9.55165 12.0411 9.0107 12.0411V10.0014C9.22161 10.0014 9.42735 10.0667 9.59958 10.1885C9.77181 10.3102 9.90207 10.4823 9.97241 10.6812C10.0174 10.8087 10.1113 10.9131 10.2333 10.9714C10.2937 11.0003 10.3593 11.017 10.4261 11.0206C10.493 11.0242 10.5599 11.0145 10.6231 10.9922C10.6862 10.9699 10.7443 10.9354 10.7942 10.8906C10.844 10.8459 10.8845 10.7917 10.9133 10.7313C10.9422 10.6709 10.9589 10.6054 10.9625 10.5385C10.9661 10.4716 10.9564 10.4047 10.9341 10.3416ZM7.99085 10.0014C7.72038 10.0014 7.46098 10.1089 7.26972 10.3001C7.07846 10.4914 6.97101 10.7508 6.97101 11.0213C6.97101 11.2918 7.07846 11.5512 7.26972 11.7424C7.46098 11.9337 7.72038 12.0411 7.99085 12.0411V10.0014ZM9.0107 15.1006C9.28117 15.1006 9.54058 14.9932 9.73183 14.8019C9.92309 14.6107 10.0305 14.3513 10.0305 14.0808C10.0305 13.8103 9.92309 13.5509 9.73183 13.3597C9.54058 13.1684 9.28117 13.061 9.0107 13.061V15.1006Z" fill="#225A4B"/>
<path fill-rule="evenodd" clip-rule="evenodd" d="M2.97021 2.15877C4.22156 1.54635 6.2745 0.822266 8.52121 0.822266C10.721 0.822266 12.7199 1.51627 13.9646 2.12052L14.035 2.15469C14.4103 2.3403 14.7132 2.51571 14.9263 2.65798L13.0427 5.41155C17.3852 9.85092 20.7394 19.1779 8.52121 19.1779C-3.697 19.1779 -0.432996 10.0202 3.94722 5.41155L2.07581 2.65798C2.22012 2.56365 2.40318 2.45401 2.62143 2.33775C2.72953 2.27962 2.84579 2.21962 2.97021 2.15877ZM11.8321 5.37535L13.34 3.17096C11.9377 3.27192 10.2692 3.60133 8.66297 4.06638C7.51565 4.39783 6.24085 4.34735 5.06038 4.12961C4.76289 4.07453 4.46746 4.00888 4.17465 3.93278L5.1537 5.37433C7.25202 6.12136 9.73329 6.12136 11.8321 5.37535ZM4.56474 6.24272C7.02001 7.19117 9.97092 7.19118 12.4262 6.2417C13.4508 7.32229 14.3081 8.54998 14.9697 9.88407C15.6591 11.2904 16.0344 12.6963 15.9732 13.9079C15.914 15.0771 15.4541 16.076 14.4037 16.8185C13.3089 17.592 11.4675 18.158 8.5207 18.158C5.57081 18.158 3.72082 17.6017 2.61582 16.8368C1.55773 16.1041 1.0932 15.1184 1.02742 13.965C0.958578 12.7666 1.32572 11.3679 2.01258 9.95189C2.66783 8.60162 3.58212 7.30183 4.56474 6.24272ZM3.97833 2.81912C4.38626 2.94048 4.81256 3.04603 5.24497 3.12609C6.3413 3.32802 7.44069 3.35759 8.37894 3.0858C9.47229 2.76716 10.5844 2.51664 11.7087 2.33571C10.7705 2.05321 9.67312 1.84211 8.5207 1.84211C6.76403 1.84211 5.12565 2.33214 3.97833 2.81912Z" fill="#225A4B"/>
</svg>
