<svg width="121" height="21" viewBox="0 0 121 21" fill="none" xmlns="http://www.w3.org/2000/svg">
<path d="M4.98723 0.199123C4.43419 0.27813 3.32811 0.613903 3.1701 0.752163C3.08122 0.831168 2.8442 0.969428 2.63681 1.06818C1.97514 1.37433 1.26409 2.11501 0.770304 3.03345C0.108633 4.22841 0 4.99871 0 8.3762C0 11.1809 0.158011 12.7906 0.474033 13.2647C0.562915 13.4029 0.71105 13.6696 0.799931 13.8572C1.03695 14.3411 2.1529 15.4571 2.61706 15.6743C2.83432 15.7731 3.12072 15.941 3.25898 16.0299C3.78239 16.3854 4.5527 16.5335 6.18219 16.5928C7.45615 16.6323 7.87093 16.6125 8.25608 16.494C8.52273 16.415 8.898 16.3163 9.09552 16.2866C9.29303 16.2471 9.53005 16.1385 9.61893 16.0397C9.70781 15.941 9.9152 15.8323 10.0633 15.8027C10.3991 15.7336 11.2188 15.0028 11.6039 14.43C11.762 14.193 11.9891 13.8868 12.0977 13.7486C12.5224 13.2252 12.6903 12.1191 12.6903 9.92668C12.6903 8.25769 12.6705 7.91204 12.5421 7.83304C12.3347 7.70465 6.55746 7.70465 6.31057 7.83304C6.14268 7.93179 6.12293 8.0503 6.12293 9.11688V10.2921L6.49821 10.3908C6.69572 10.4501 7.38702 10.4995 8.01906 10.4995C9.36216 10.4995 9.38191 10.5093 9.38191 11.4377C9.38191 12.0895 9.21402 12.5042 8.69061 13.0968C8.35484 13.4819 8.23633 13.5412 7.5154 13.6992C6.82411 13.8572 6.61672 13.8671 5.95504 13.7683C5.53039 13.7091 5.08598 13.5807 4.9576 13.4819C4.81934 13.3931 4.61195 13.2449 4.48357 13.156C4.13792 12.9289 3.84165 12.5042 3.73301 12.0993C3.60463 11.6154 3.54537 6.21342 3.65401 5.25548C3.75276 4.44567 3.97991 4.00127 4.50332 3.55686C4.96747 3.17171 5.16499 3.10258 6.08343 3.03345C7.23888 2.94457 7.90056 3.12233 8.41409 3.65562C8.74987 4.00127 9.28315 4.96908 9.28315 5.23573C9.28315 5.30486 9.33253 5.47274 9.40166 5.611L9.51029 5.8579H10.9126C12.6014 5.8579 12.6804 5.81839 12.6705 5.06784C12.6606 4.60368 12.4631 3.77413 12.236 3.24084C12.1076 2.95444 11.4459 2.06563 11.2879 1.97675C11.2089 1.92737 11.0114 1.74961 10.8336 1.57185C10.6559 1.40396 10.2905 1.14719 10.0238 1.02868C9.74731 0.900298 9.46092 0.732411 9.38191 0.673157C9.05601 0.406513 7.46603 0.129993 6.35995 0.13987C5.76741 0.149746 5.15511 0.179373 4.98723 0.199123Z" fill="black"/>
<path d="M68.389 0.217548C68.1718 0.266928 67.7471 0.355808 67.4508 0.415062C67.1546 0.474318 66.799 0.612576 66.6608 0.711333C66.5225 0.81009 66.3052 0.928598 66.167 0.968102C65.4263 1.20512 64.5375 2.17294 63.9351 3.43703L63.4512 4.42459V8.37487V12.3252L63.7771 12.9769C63.945 13.3325 64.0931 13.6584 64.0931 13.6979C64.0931 13.7374 64.1918 13.9053 64.3104 14.083C65.1399 15.2681 66.3843 16.1075 67.7965 16.4334C69.3963 16.7988 72.1319 16.6013 72.9516 16.0582C73.1096 15.9594 73.4059 15.7915 73.6133 15.6829C74.0083 15.4854 74.7885 14.7546 75.2724 14.1324C75.6378 13.6584 75.9242 12.8486 76.0032 12.019C76.0921 11.0018 76.0723 10.9919 74.3638 10.9919C73.0602 10.9919 72.9812 11.0018 72.843 11.2092C72.7541 11.3277 72.6849 11.5153 72.6849 11.624C72.6849 11.9499 72.2899 12.651 71.8554 13.1053C71.49 13.4707 71.332 13.5596 70.7296 13.6979C69.8605 13.8954 69.6827 13.8954 68.8532 13.6979C68.0434 13.5102 67.5595 13.1251 67.2039 12.3647L66.957 11.8314V8.38475V4.94801L67.2138 4.38509C67.5693 3.60491 68.0236 3.26914 69.0211 3.05187C69.7815 2.88399 69.8605 2.88399 70.6308 3.05187C71.2925 3.19013 71.4999 3.28889 71.727 3.52591C72.2307 4.06907 72.5961 4.69124 72.6751 5.13564C72.7244 5.38254 72.8133 5.62943 72.8726 5.68868C72.9516 5.76769 73.4552 5.80719 74.3737 5.80719C75.6477 5.80719 75.776 5.78744 75.9143 5.60968C76.2303 5.1949 75.8748 3.41727 75.3218 2.66672C75.2032 2.49883 74.8576 2.12356 74.5613 1.81741C73.9688 1.21499 72.7442 0.543446 71.8455 0.326181C71.2431 0.178045 68.9322 0.108915 68.389 0.217548Z" fill="black"/>
<path d="M103.962 0.405684C103.804 0.573569 103.794 1.26487 103.794 8.36549C103.794 13.5404 103.823 16.2068 103.892 16.3352C103.991 16.5031 104.12 16.5228 105.522 16.5228C106.924 16.5228 107.053 16.5031 107.151 16.3352C107.221 16.2068 107.25 13.5305 107.25 8.34574C107.25 0.919219 107.24 0.543942 107.072 0.395807C106.924 0.257547 106.658 0.227921 105.502 0.227921C104.287 0.227921 104.1 0.247671 103.962 0.405684Z" fill="black"/>
<path d="M20.581 4.67237C19.9885 4.79088 19.2182 5.20566 19.0206 5.50193C18.8528 5.77845 18.5861 5.8377 18.5269 5.63031C18.4972 5.57106 18.4577 5.3933 18.4281 5.24516C18.3491 4.86989 17.9442 4.77113 16.532 4.77113C15.4259 4.77113 15.3074 4.79088 15.2086 4.95877C15.1494 5.08715 15.1099 7.05241 15.1099 10.6669C15.1099 15.1505 15.1395 16.2269 15.2481 16.3751C15.3666 16.5331 15.5148 16.5528 16.6505 16.5331C17.3911 16.5232 18.0331 16.464 18.1713 16.3948L18.4182 16.2763L18.438 13.0173C18.4577 11.22 18.4874 9.6201 18.517 9.46208C18.5466 9.27445 18.754 8.97818 19.0404 8.69178C19.4848 8.25725 19.544 8.22762 20.2946 8.11899C20.7291 8.05974 21.2822 8.03011 21.5389 8.05974C21.7858 8.08936 22.0426 8.07949 22.1117 8.03011C22.1907 7.99061 22.2994 7.62521 22.3685 7.23018C22.4376 6.82527 22.566 6.32161 22.6549 6.10435C22.7339 5.88708 22.803 5.56118 22.8129 5.38342C22.8129 5.08715 22.7635 5.03777 22.3981 4.86989C21.8747 4.64275 21.1143 4.55386 20.581 4.67237Z" fill="black"/>
<path d="M27.1875 4.87967C26.7925 4.97842 26.3184 5.16606 26.1308 5.29445C25.9431 5.41295 25.5777 5.64009 25.3309 5.78823C25.084 5.94624 24.8173 6.19313 24.7383 6.35114C24.6593 6.49928 24.5309 6.64742 24.4618 6.67704C24.2445 6.75605 23.9384 7.81275 24.0668 8.02014C24.205 8.2374 24.8469 8.38554 26.0419 8.47442C27.2566 8.5633 27.4541 8.5238 27.6714 8.14852C27.9282 7.71399 28.3923 7.53623 29.3404 7.52635C30.3773 7.51648 30.6045 7.60536 31.0489 8.18802C31.4439 8.70156 31.5427 9.3336 31.2464 9.45211C31.1575 9.48174 30.2884 9.51137 29.3009 9.51137C27.7405 9.51137 27.4442 9.54099 27.0788 9.70888C26.8517 9.80764 26.4962 9.92615 26.2987 9.96565C26.0913 10.0052 25.716 10.1434 25.4592 10.2718C24.9951 10.5088 24.1951 11.21 24.1951 11.3976C24.1951 11.447 24.0964 11.6248 23.9779 11.7828C23.7902 12.0395 23.7705 12.1877 23.7804 13.2049C23.7902 14.2023 23.8199 14.3998 24.0371 14.8245C24.1754 15.0911 24.4519 15.4467 24.6593 15.6244C24.8667 15.7923 25.1037 15.9997 25.1926 16.0787C25.4691 16.3453 26.3875 16.533 27.6516 16.5824C28.7083 16.6317 28.9947 16.612 29.6169 16.4342C30.0218 16.3256 30.4465 16.1478 30.5551 16.0392C31.0193 15.6145 31.4044 15.5948 31.4044 15.9997C31.4044 16.0688 31.4933 16.217 31.6019 16.3256C31.7797 16.5034 31.9278 16.5231 33.1129 16.5231C34.2684 16.5231 34.456 16.5034 34.5943 16.3453C34.7424 16.1775 34.7621 15.7331 34.7621 11.9605V7.75349L34.5251 7.23996C34.2289 6.59804 33.5178 5.83761 32.9648 5.55121C32.7277 5.4327 32.471 5.28457 32.392 5.20556C32.3031 5.13643 31.8488 4.9883 31.3748 4.86979C30.2094 4.60315 28.2146 4.60315 27.1875 4.87967ZM31.2365 11.4075C31.3649 11.4766 31.4044 11.6248 31.4044 12.0988C31.4044 12.7802 31.1575 13.2444 30.565 13.7085C29.8243 14.2715 28.1257 14.2616 27.4541 13.6888C27.1974 13.4715 27.1579 13.3826 27.1579 12.9284C27.1579 12.4938 27.1974 12.3753 27.4344 12.1482C27.7603 11.8322 28.3627 11.4964 28.7873 11.3877C29.1922 11.289 31.0193 11.2989 31.2365 11.4075Z" fill="black"/>
<path d="M40.6977 4.87874C40.352 4.9775 39.9965 5.12563 39.9076 5.20464C39.8187 5.28364 39.5817 5.41203 39.3743 5.50091C38.9003 5.69842 37.8831 6.74525 37.5572 7.38717C37.0042 8.45374 36.698 10.7449 36.9745 11.7028C37.0535 11.9892 37.1523 12.4435 37.1918 12.7102C37.2807 13.3126 37.6757 14.2113 38.0115 14.5668C38.1497 14.7149 38.4065 14.9816 38.5645 15.1593C38.7324 15.3371 39.0879 15.5939 39.3546 15.7321C39.6311 15.8704 39.9274 16.0383 40.0163 16.1074C40.3718 16.3938 41.5766 16.6209 42.7518 16.6209C44.0357 16.6209 44.964 16.4234 45.7639 15.9889C46.2676 15.7223 47.1268 15.0606 47.1959 14.9026C47.2156 14.8532 47.3341 14.7149 47.4527 14.6063C47.7292 14.3495 48.0551 13.6977 48.1439 13.2533C48.2427 12.7299 48.0649 12.404 47.6304 12.2855C47.1169 12.1571 45.2109 12.0584 45.0726 12.1473C45.0134 12.1868 44.8948 12.3546 44.806 12.5225C44.727 12.6805 44.4603 13.0064 44.2233 13.2237C43.6801 13.7471 43.0777 13.8952 42.1593 13.7372C41.5964 13.6484 41.4779 13.5792 41.0927 13.1743C40.8557 12.9274 40.6285 12.6312 40.589 12.5127C40.5397 12.404 40.4804 11.7522 40.4409 11.0807C40.3421 9.47094 40.4705 8.83889 41.0038 8.20685C41.4384 7.68344 41.8235 7.51555 42.6432 7.50568C43.769 7.4958 44.4307 7.88095 44.8455 8.78952C45.0924 9.3228 45.2701 9.37218 46.4947 9.21417C48.2427 8.98703 48.1439 9.02653 48.1736 8.48337C48.223 7.7822 47.7785 6.92301 46.9885 6.20208C46.6527 5.88606 46.2182 5.57004 46.0404 5.49103C45.8528 5.41203 45.5861 5.26389 45.438 5.16514C44.7665 4.68123 41.9618 4.51334 40.6977 4.87874Z" fill="black"/>
<path d="M53.8227 4.86887C52.7462 5.15526 52.0451 5.60954 51.2846 6.46873C50.6427 7.2094 50.1983 8.07847 50.0699 8.83889C49.8724 10.103 50.0205 12.7003 50.3168 13.0657C50.3859 13.1447 50.5736 13.4903 50.7316 13.8261C51.1365 14.6359 51.7784 15.3667 52.3907 15.6926C52.6573 15.8408 52.9536 16.0185 53.0425 16.0975C53.3585 16.3642 54.7609 16.6209 55.9262 16.6209C57.0915 16.6111 58.4248 16.374 58.7408 16.1074C58.8297 16.0284 59.1654 15.8408 59.4716 15.6828C60.1234 15.3667 60.7357 14.7347 60.7357 14.389C60.7357 14.2508 60.6172 14.0434 60.4196 13.8854C60.2518 13.7274 59.9061 13.4212 59.6592 13.1842C59.4222 12.9571 59.1556 12.7694 59.0667 12.7694C58.9877 12.7694 58.721 12.9373 58.4741 13.1447C57.9705 13.5694 57.5261 13.7076 56.3805 13.8064C55.3435 13.9051 54.6424 13.6977 54.0399 13.1249C53.6449 12.7497 53.5955 12.6509 53.5857 12.2658L53.5758 11.8312L57.3384 11.8016C60.9529 11.7819 61.1109 11.772 61.2788 11.5843C61.4467 11.3967 61.4467 11.3177 61.2986 9.99435C61.1801 8.90802 61.1011 8.53275 60.9431 8.31548C60.8344 8.16735 60.7159 7.92045 60.6764 7.77232C60.5875 7.39704 60.1629 6.64649 59.8962 6.38972C59.7777 6.28109 59.6395 6.12308 59.5901 6.04407C59.3827 5.71817 58.2569 5.07625 57.5359 4.87874C56.5582 4.6121 54.7707 4.60222 53.8227 4.86887ZM56.5385 7.61431C57.0619 7.77232 57.1705 7.85133 57.4569 8.27598C57.8223 8.83889 57.8125 8.81914 57.6446 9.05616C57.5359 9.20429 57.3088 9.23392 55.7978 9.25367C54.8498 9.26355 53.9708 9.23392 53.8523 9.19442C53.4968 9.07591 53.6054 8.47349 54.0794 7.84145C54.1486 7.76244 55.3732 7.44642 55.6497 7.44642C55.8176 7.44642 56.2126 7.51555 56.5385 7.61431Z" fill="black"/>
<path d="M94.3228 4.82033C94.145 4.89934 93.8882 4.96847 93.7697 4.96847C93.6413 4.96847 93.4142 5.0771 93.2562 5.20548C93.108 5.33387 92.8809 5.47213 92.7525 5.51163C92.397 5.62026 91.3205 6.76584 91.0737 7.29913C90.9551 7.56577 90.7576 7.9608 90.6391 8.16819C90.2243 8.95825 90.2046 12.0197 90.6095 12.9382C90.7083 13.1455 90.8959 13.5504 91.0243 13.8368C91.5971 15.0614 92.8315 16.049 94.2536 16.4144C95.6955 16.7897 98.4903 16.5823 99.0828 16.0589C99.2014 15.9601 99.4087 15.812 99.547 15.7527C100.209 15.4367 100.594 15.0516 101.196 14.1232C101.591 13.5208 101.69 12.9875 101.483 12.5925C101.315 12.2666 101.285 12.2567 99.4779 12.1283C98.5101 12.0592 98.3224 12.1382 98.0755 12.7011C97.8089 13.3134 97.5126 13.5307 96.7226 13.6986C95.3103 13.9949 94.4511 13.5307 94.0265 12.237C93.829 11.6444 93.8092 11.4173 93.8388 10.3606C93.8882 9.04713 94.0561 8.51384 94.5795 8.01018C95.6066 7.02261 97.8385 7.42752 98.115 8.64223C98.1545 8.79036 98.3125 9.00763 98.4804 9.12613C98.7372 9.31377 98.8557 9.33352 99.3297 9.27427C99.6458 9.23477 100.228 9.16564 100.633 9.13601C101.038 9.09651 101.433 9.02738 101.502 8.98787C101.651 8.88912 101.66 8.16819 101.502 7.72379C101.236 6.92385 99.8729 5.47213 99.389 5.46225C99.3297 5.46225 99.1717 5.37337 99.0335 5.27461C98.9051 5.16598 98.4212 4.98822 97.9669 4.87959C96.9497 4.62282 94.856 4.59319 94.3228 4.82033Z" fill="black"/>
<path d="M113.521 4.82149C113.304 4.90049 113.037 4.96962 112.919 4.96962C112.81 4.96962 112.612 5.07826 112.484 5.21652C112.356 5.35478 112.198 5.46341 112.138 5.46341C111.98 5.46341 111.2 6.05595 110.855 6.4411C110.539 6.79663 110.282 7.24103 109.867 8.17922C109.64 8.69276 109.59 8.93965 109.551 10.0556C109.521 10.7963 109.541 11.5468 109.6 11.8332C109.748 12.4949 110.163 13.6701 110.43 14.1244C110.706 14.6083 111.684 15.5761 112.109 15.7934C112.287 15.8823 112.504 16.0106 112.583 16.0798C113.136 16.5439 115.763 16.7711 117.165 16.4847C117.59 16.3958 118.054 16.2575 118.202 16.1785C118.34 16.0995 118.656 15.9415 118.893 15.823C119.446 15.5564 120.385 14.6478 120.385 14.3812C120.385 14.154 119.101 12.9393 118.725 12.8307C118.548 12.7714 118.4 12.8406 118.024 13.1566C117.521 13.5812 116.681 13.8577 115.891 13.8577C115.18 13.8577 114.183 13.5911 113.807 13.2948C113.225 12.8307 112.879 11.9814 113.235 11.8431C113.323 11.8135 115.022 11.7839 117.007 11.7839C119.002 11.7839 120.691 11.7443 120.76 11.695C121.036 11.5172 121.076 10.8852 120.869 9.69021C120.641 8.30761 120.671 8.39649 120.078 7.32991C119.397 6.1152 118.38 5.22639 117.274 4.89062C116.553 4.67335 114.044 4.62397 113.521 4.82149ZM116.345 7.67556C116.701 7.8237 117.145 8.30761 117.264 8.68288C117.294 8.79152 117.264 8.9594 117.185 9.06804C117.066 9.23592 116.898 9.25567 115.387 9.26555C114.469 9.27543 113.62 9.2458 113.501 9.19642C113.323 9.13717 113.274 9.04829 113.274 8.78164C113.274 8.30761 113.748 7.7842 114.351 7.58668C114.884 7.4188 115.822 7.4583 116.345 7.67556Z" fill="black"/>
<path d="M77.8006 4.87933C77.7018 4.92871 77.6228 5.08672 77.6228 5.22498C77.6228 5.52125 77.9586 6.58782 78.1857 6.99273C78.2746 7.15074 78.403 7.50626 78.4721 7.78278C78.6696 8.56296 78.8968 9.23451 79.1042 9.61966C79.2029 9.8073 79.351 10.2122 79.4399 10.5085C79.6572 11.3084 79.8942 11.98 80.0917 12.4244C80.1905 12.6416 80.4077 13.2539 80.5756 13.7872C80.7435 14.3106 80.9608 14.913 81.0694 15.1204C81.5731 16.108 81.4743 17.0758 80.8127 17.6585C80.388 18.0338 80.2892 18.0634 79.114 18.1918C78.5017 18.2609 78.245 18.33 78.1462 18.4584C78.0573 18.5769 78.0178 18.9818 78.0178 19.6929C78.0178 20.5521 78.0475 20.7693 78.1857 20.878C78.5017 21.1446 81.4151 20.9372 81.7607 20.6311C81.8496 20.5521 82.0767 20.4237 82.2644 20.3348C83.0149 19.9793 83.1828 19.841 83.5976 19.1892C84.1111 18.3893 84.6345 17.303 84.6345 17.0363C84.6345 16.9277 84.7432 16.6413 84.8716 16.3944C85.0098 16.1475 85.1481 15.7722 85.1876 15.5648C85.2172 15.3574 85.3061 15.0908 85.3851 14.9723C85.4542 14.8538 85.5629 14.5476 85.6221 14.2909C85.6814 14.0341 85.8196 13.7181 85.9184 13.5798C86.027 13.4514 86.1159 13.244 86.1159 13.1255C86.1258 13.0169 86.1949 12.7404 86.2739 12.5231C86.3529 12.3058 86.4813 11.8911 86.5504 11.6146C86.6196 11.3282 86.7282 11.0418 86.7874 10.9726C86.9356 10.7949 87.4491 9.34314 87.538 8.86911C87.5775 8.65184 87.696 8.36545 87.8046 8.21731C87.9034 8.06918 87.9923 7.90129 87.9923 7.84204C87.9923 7.66427 88.5749 5.91628 88.733 5.63976C88.9305 5.28423 88.9206 4.99784 88.6935 4.86945C88.5848 4.82007 87.8639 4.77069 87.0738 4.77069C85.3851 4.77069 85.2863 4.82007 85.1283 5.62988C85.079 5.91628 84.9703 6.2718 84.8913 6.41994C84.7629 6.69646 84.4469 7.82228 84.1901 8.96786C84.1111 9.29376 83.9828 9.69867 83.8939 9.87643C83.805 10.0443 83.6964 10.4492 83.647 10.7554C83.5976 11.0714 83.4988 11.3578 83.4297 11.3973C83.2421 11.5158 82.9162 11.259 82.8372 10.9331C82.7977 10.7751 82.689 10.3801 82.61 10.0542C82.5211 9.72829 82.3928 9.18513 82.3138 8.84936C82.2446 8.51358 82.1162 8.13831 82.0274 8.00992C81.9484 7.88154 81.82 7.51614 81.7311 7.19024C81.6521 6.86434 81.5435 6.41994 81.4842 6.20267C81.4348 5.98541 81.3558 5.63976 81.3262 5.44224C81.2373 4.85958 80.9608 4.77069 79.3313 4.77069C78.5807 4.77069 77.8894 4.82007 77.8006 4.87933Z" fill="black"/>
</svg>
