<svg width="23" height="22" viewBox="0 0 23 22" fill="none" xmlns="http://www.w3.org/2000/svg">
<path d="M1.22098 -0.000488281C1.03002 -0.000488281 0.846886 0.0753686 0.71186 0.210395C0.576834 0.345421 0.500977 0.528556 0.500977 0.719512C0.500977 0.910468 0.576834 1.0936 0.71186 1.22863C0.846886 1.36365 1.03002 1.43951 1.22098 1.43951H2.81938L3.39682 3.75359L5.55394 15.252C5.58482 15.417 5.67239 15.566 5.80149 15.6733C5.93059 15.7806 6.09312 15.8394 6.26098 15.8395H7.70098C6.93715 15.8395 6.20461 16.1429 5.66451 16.683C5.1244 17.2232 4.82098 17.9557 4.82098 18.7195C4.82098 19.4833 5.1244 20.2159 5.66451 20.756C6.20461 21.2961 6.93715 21.5995 7.70098 21.5995C8.4648 21.5995 9.19734 21.2961 9.73744 20.756C10.2775 20.2159 10.581 19.4833 10.581 18.7195C10.581 17.9557 10.2775 17.2232 9.73744 16.683C9.19734 16.1429 8.4648 15.8395 7.70098 15.8395H17.781C17.0172 15.8395 16.2846 16.1429 15.7445 16.683C15.2044 17.2232 14.901 17.9557 14.901 18.7195C14.901 19.4833 15.2044 20.2159 15.7445 20.756C16.2846 21.2961 17.0172 21.5995 17.781 21.5995C18.5448 21.5995 19.2773 21.2961 19.8174 20.756C20.3575 20.2159 20.661 19.4833 20.661 18.7195C20.661 17.9557 20.3575 17.2232 19.8174 16.683C19.2773 16.1429 18.5448 15.8395 17.781 15.8395H19.221C19.3888 15.8394 19.5514 15.7806 19.6805 15.6733C19.8096 15.566 19.8971 15.417 19.928 15.252L22.088 3.73199C22.1075 3.62808 22.1038 3.52115 22.0773 3.41882C22.0507 3.31648 22.002 3.22124 21.9345 3.13987C21.867 3.0585 21.7824 2.99298 21.6868 2.94799C21.5911 2.90299 21.4867 2.87961 21.381 2.87951H4.66258L4.07938 0.545272C4.04051 0.389441 3.95066 0.251078 3.82411 0.152187C3.69756 0.0532967 3.54158 -0.000443913 3.38098 -0.000488281H1.22098ZM6.85858 14.3995L4.96786 4.31951H20.5141L18.6234 14.3995H6.85858ZM9.14098 18.7195C9.14098 19.1014 8.98926 19.4677 8.71921 19.7377C8.44916 20.0078 8.08289 20.1595 7.70098 20.1595C7.31907 20.1595 6.9528 20.0078 6.68274 19.7377C6.41269 19.4677 6.26098 19.1014 6.26098 18.7195C6.26098 18.3376 6.41269 17.9713 6.68274 17.7013C6.9528 17.4312 7.31907 17.2795 7.70098 17.2795C8.08289 17.2795 8.44916 17.4312 8.71921 17.7013C8.98926 17.9713 9.14098 18.3376 9.14098 18.7195ZM19.221 18.7195C19.221 19.1014 19.0693 19.4677 18.7992 19.7377C18.5292 20.0078 18.1629 20.1595 17.781 20.1595C17.3991 20.1595 17.0328 20.0078 16.7627 19.7377C16.4927 19.4677 16.341 19.1014 16.341 18.7195C16.341 18.3376 16.4927 17.9713 16.7627 17.7013C17.0328 17.4312 17.3991 17.2795 17.781 17.2795C18.1629 17.2795 18.5292 17.4312 18.7992 17.7013C19.0693 17.9713 19.221 18.3376 19.221 18.7195Z" fill="#225A4B"/>
</svg>
