<svg width="55" height="14" viewBox="0 0 55 14" fill="none" xmlns="http://www.w3.org/2000/svg">
<path fill-rule="evenodd" clip-rule="evenodd" d="M42.6971 5.82238C42.5345 6.91167 41.7054 6.91167 40.9006 6.91167H40.4454L40.7624 4.88754C40.7787 4.76561 40.8844 4.67619 41.0144 4.67619H41.2258C41.7704 4.67619 42.2907 4.67619 42.5508 4.98509C42.7053 5.16393 42.754 5.44032 42.6971 5.82238ZM42.3476 2.98535H39.3236C39.1204 2.98535 38.9415 3.1398 38.909 3.34303L37.6896 11.0981C37.6653 11.2526 37.7872 11.3908 37.9416 11.3908H39.4943C39.6406 11.3908 39.7625 11.2851 39.7869 11.1388L40.1365 8.94393C40.169 8.74071 40.3478 8.58626 40.5511 8.58626H41.5103C43.5019 8.58626 44.6481 7.6189 44.9489 5.70858C45.0871 4.87129 44.957 4.21284 44.5668 3.75761C44.1197 3.25361 43.3556 2.98535 42.3476 2.98535Z" fill="#498DBD"/>
<path fill-rule="evenodd" clip-rule="evenodd" d="M21.1317 5.82238C20.9691 6.91167 20.14 6.91167 19.3352 6.91167H18.88L19.197 4.88754C19.2132 4.76561 19.3189 4.67619 19.449 4.67619H19.6603C20.205 4.67619 20.7252 4.67619 20.9854 4.98509C21.148 5.16393 21.1967 5.44032 21.1317 5.82238ZM20.7821 2.98535H17.7581C17.5549 2.98535 17.3761 3.1398 17.3436 3.34303L16.1242 11.0981C16.0998 11.2526 16.2218 11.3908 16.3762 11.3908H17.8232C18.0264 11.3908 18.2052 11.2363 18.2378 11.0331L18.5711 8.94393C18.6036 8.74071 18.7824 8.58626 18.9856 8.58626H19.9449C21.9365 8.58626 23.0827 7.6189 23.3834 5.70858C23.5216 4.87129 23.3916 4.21284 23.0014 3.75761C22.5543 3.25361 21.7983 2.98535 20.7821 2.98535Z" fill="#2A3466"/>
<path fill-rule="evenodd" clip-rule="evenodd" d="M27.8051 8.60057C27.6669 9.42973 27.0084 9.98251 26.1711 9.98251C25.7484 9.98251 25.4151 9.84431 25.1956 9.59231C24.9843 9.34031 24.903 8.97451 24.968 8.57619C25.0981 7.75515 25.7647 7.18612 26.5938 7.18612C27.0084 7.18612 27.3417 7.32431 27.5612 7.58444C27.7807 7.83644 27.8701 8.20225 27.8051 8.60057ZM29.8211 5.7798H28.3741C28.2521 5.7798 28.1465 5.86922 28.1221 5.99115L28.0571 6.3976L27.9595 6.25128C27.6425 5.79605 26.9434 5.6416 26.2524 5.6416C24.651 5.6416 23.2853 6.85283 23.0171 8.55179C22.8789 9.39721 23.074 10.2101 23.5536 10.7792C23.9925 11.2994 24.6266 11.5189 25.3745 11.5189C26.667 11.5189 27.3823 10.6897 27.3823 10.6897L27.3173 11.0881C27.2929 11.2425 27.4149 11.3807 27.5693 11.3807H28.87C29.0732 11.3807 29.252 11.2344 29.2845 11.023L30.0649 6.06431C30.0974 5.91799 29.9755 5.7798 29.8211 5.7798Z" fill="#2A3466"/>
<path fill-rule="evenodd" clip-rule="evenodd" d="M49.3715 8.60057C49.2333 9.42973 48.5748 9.98251 47.7375 9.98251C47.3148 9.98251 46.9815 9.84431 46.762 9.59231C46.5507 9.34031 46.4694 8.97451 46.5344 8.57619C46.6645 7.75515 47.3311 7.18612 48.1602 7.18612C48.5748 7.18612 48.9081 7.32431 49.1276 7.58444C49.3471 7.83644 49.4284 8.20225 49.3715 8.60057ZM51.3875 5.7798H49.9405C49.8186 5.7798 49.7129 5.86922 49.6885 5.99115L49.6235 6.3976L49.5259 6.25128C49.2089 5.79605 48.5098 5.6416 47.8188 5.6416C46.2174 5.6416 44.8517 6.85283 44.5835 8.55179C44.4453 9.39721 44.6404 10.2101 45.12 10.7792C45.5589 11.2994 46.193 11.5189 46.9409 11.5189C48.2334 11.5189 48.9487 10.6897 48.9487 10.6897L48.8837 11.0881C48.8593 11.2425 48.9813 11.3807 49.1357 11.3807H50.4364C50.6396 11.3807 50.8184 11.2344 50.8509 11.023L51.6313 6.06431C51.6557 5.91799 51.5419 5.7798 51.3875 5.7798Z" fill="#498DBD"/>
<path fill-rule="evenodd" clip-rule="evenodd" d="M37.535 5.78076H36.0799C35.9417 5.78076 35.8117 5.84579 35.7304 5.96773L33.7225 8.9267L32.869 6.08966C32.8121 5.91083 32.6495 5.78889 32.4706 5.78889H31.0399C30.8692 5.78889 30.7473 5.9596 30.8042 6.12218L32.4056 10.8289L30.8936 12.9506C30.7717 13.1213 30.8936 13.3489 31.0968 13.3489H32.5519C32.6901 13.3489 32.8202 13.2839 32.8934 13.1701L37.7301 6.18721C37.8521 6.0165 37.7383 5.78076 37.535 5.78076Z" fill="#2A3466"/>
<path fill-rule="evenodd" clip-rule="evenodd" d="M53.0955 3.20386L51.8518 11.0972C51.8274 11.2516 51.9493 11.3898 52.1038 11.3898H53.3556C53.5588 11.3898 53.7377 11.2353 53.7702 11.0321L54.9977 3.27702C55.0221 3.12257 54.9001 2.98438 54.7457 2.98438H53.3475C53.2174 2.98438 53.1117 3.08192 53.0955 3.20386Z" fill="#498DBD"/>
<path fill-rule="evenodd" clip-rule="evenodd" d="M5.72569 12.7951L6.13214 10.2182L6.15653 10.0719C6.17278 9.94994 6.23782 9.83613 6.33537 9.75484C6.43291 9.67355 6.55485 9.62477 6.67679 9.62477H7.00195C7.53846 9.62477 8.03433 9.56787 8.4733 9.45407C8.93666 9.33213 9.35124 9.14516 9.70891 8.89316C10.0828 8.6249 10.3918 8.28348 10.6356 7.87703C10.8958 7.44619 11.0827 6.92594 11.1965 6.32439C11.3022 5.796 11.3185 5.33265 11.2534 4.92619C11.1884 4.50349 11.0177 4.13768 10.7657 3.84503C10.6112 3.6662 10.4161 3.51987 10.1804 3.38981H10.1723V3.38168C10.2536 2.85329 10.2536 2.42245 10.1641 2.04039C10.0747 1.66645 9.89588 1.32503 9.61137 0.999873C9.02608 0.333292 7.9693 0 6.4573 0H2.31149C2.1733 0 2.03511 0.0487752 1.92943 0.138195C1.82375 0.227614 1.75059 0.349548 1.73433 0.487742L0.010979 11.4375C-0.00527902 11.5351 0.0272371 11.6408 0.0922694 11.7139C0.157302 11.7871 0.25485 11.8359 0.352398 11.8359H2.9293V11.8521L2.75046 12.9739C2.7342 13.0634 2.75859 13.1528 2.8155 13.2178C2.8724 13.2828 2.95369 13.3235 3.04311 13.3235H5.20543C5.32737 13.3235 5.44117 13.2828 5.53872 13.2015C5.62814 13.1203 5.69317 13.0146 5.70943 12.8926L5.72569 12.7951Z" fill="#2A3466"/>
<path fill-rule="evenodd" clip-rule="evenodd" d="M4.25563 3.40606C4.28002 3.23535 4.39383 3.08903 4.54015 3.01587C4.60518 2.98336 4.68647 2.9671 4.76776 2.9671H8.01937C8.40144 2.9671 8.76724 2.99148 9.09241 3.04839C9.18995 3.06465 9.27938 3.0809 9.3688 3.09716C9.45821 3.11342 9.5395 3.13781 9.62892 3.16219C9.66957 3.17032 9.71021 3.18658 9.75086 3.20284C9.91344 3.25974 10.0598 3.31665 10.198 3.38981C10.3605 2.34929 10.198 1.64206 9.63705 1.008C9.01925 0.300774 7.90557 0 6.47486 0H2.32905C2.03641 0 1.79253 0.211356 1.74376 0.504001L0.00414825 11.4538C-0.0283679 11.6733 0.134213 11.8684 0.353697 11.8684H2.91434L4.25563 3.40606Z" fill="#2A3466"/>
<path fill-rule="evenodd" clip-rule="evenodd" d="M10.189 3.39111C10.1728 3.4724 10.1646 3.55369 10.1484 3.63498C9.60372 6.4395 7.73404 7.41498 5.34411 7.41498H4.12475C3.83211 7.41498 3.58824 7.62634 3.53946 7.91898L2.74282 12.9915C2.7103 13.1785 2.85662 13.3492 3.05172 13.3492H5.20591C5.45792 13.3492 5.6774 13.1622 5.71804 12.9102L5.74243 12.8045L6.14888 10.2276L6.17327 10.0813C6.21391 9.82931 6.4334 9.64234 6.6854 9.64234H7.01056C9.09972 9.64234 10.7337 8.79692 11.2133 6.33382C11.4165 5.30956 11.3108 4.44789 10.7824 3.84634C10.6199 3.6675 10.4248 3.51305 10.189 3.39111Z" fill="#498DBD"/>
<path fill-rule="evenodd" clip-rule="evenodd" d="M9.61958 3.16189C9.53829 3.13751 9.44887 3.11312 9.35945 3.09686C9.27003 3.0806 9.18061 3.05622 9.08306 3.04809C8.7579 2.99118 8.3921 2.9668 8.01003 2.9668H4.75842C4.67713 2.9668 4.60397 2.98306 4.5308 3.01557C4.38448 3.08873 4.27068 3.22693 4.24629 3.40576L3.55532 7.78731L3.53906 7.91738C3.58784 7.63286 3.83171 7.41338 4.12435 7.41338H5.34371C7.73364 7.41338 9.60332 6.44602 10.148 3.63338C10.1642 3.55209 10.1805 3.4708 10.1886 3.38951C10.0504 3.31635 9.90409 3.25131 9.74151 3.20254C9.70087 3.18628 9.66022 3.17815 9.61958 3.16189Z" fill="#20264C"/>
</svg>
