<svg width="17" height="20" viewBox="0 0 17 20" fill="none" xmlns="http://www.w3.org/2000/svg">
<path d="M2.125 20.0001C1.54062 20.0001 1.04054 19.8153 0.62475 19.4457C0.208958 19.0761 0.000708333 18.6313 0 18.1112V8.66675C0 8.1473 0.20825 7.70279 0.62475 7.33319C1.04125 6.9636 1.54133 6.77849 2.125 6.77786H3.1875V4.88897C3.1875 3.58249 3.70565 2.46899 4.74194 1.54847C5.77823 0.627952 7.03092 0.167378 8.5 0.166749C9.96908 0.166119 11.2221 0.626693 12.2591 1.54847C13.2961 2.47025 13.8139 3.58375 13.8125 4.88897V6.77786H14.875C15.4594 6.77786 15.9598 6.96297 16.3763 7.33319C16.7928 7.70342 17.0007 8.14793 17 8.66675V18.1112C17 18.6306 16.7921 19.0755 16.3763 19.4457C15.9605 19.8159 15.4601 20.0007 14.875 20.0001H2.125ZM2.125 18.1112H14.875V8.66675H2.125V18.1112ZM8.5 15.2779C9.08437 15.2779 9.58481 15.0931 10.0013 14.7235C10.4178 14.3539 10.6257 13.909 10.625 13.389C10.6243 12.8689 10.4164 12.4244 10.0013 12.0554C9.58623 11.6865 9.08579 11.5013 8.5 11.5001C7.91421 11.4988 7.41412 11.6839 6.99975 12.0554C6.58537 12.4269 6.37712 12.8714 6.375 13.389C6.37287 13.9065 6.58112 14.3514 6.99975 14.7235C7.41837 15.0956 7.91846 15.2804 8.5 15.2779ZM5.3125 6.77786H11.6875V4.88897C11.6875 4.10193 11.3776 3.43295 10.7578 2.88203C10.138 2.3311 9.38542 2.05564 8.5 2.05564C7.61458 2.05564 6.86198 2.3311 6.24219 2.88203C5.6224 3.43295 5.3125 4.10193 5.3125 4.88897V6.77786Z" fill="black" fill-opacity="0.8"/>
</svg>
