<svg width="214" height="206" viewBox="0 0 214 206" fill="none" xmlns="http://www.w3.org/2000/svg">
<path d="M178.509 31.6501H69.0864C66.6138 31.6501 64.6094 33.6546 64.6094 36.1271V170.479C64.6094 172.952 66.6138 174.956 69.0864 174.956H178.509C180.982 174.956 182.986 172.952 182.986 170.479V36.1271C182.986 33.6546 180.982 31.6501 178.509 31.6501Z" fill="#225A4B"/>
<path opacity="0.6" d="M178.509 31.6501H69.0864C66.6138 31.6501 64.6094 33.6546 64.6094 36.1271V170.479C64.6094 172.952 66.6138 174.956 69.0864 174.956H178.509C180.982 174.956 182.986 172.952 182.986 170.479V36.1271C182.986 33.6546 180.982 31.6501 178.509 31.6501Z" fill="white"/>
<path d="M163.806 119.936H83.7834V133.636H163.806V119.936Z" fill="white"/>
<g opacity="0.4">
<path d="M87.8198 126.518C87.8163 126.25 87.8675 125.983 87.9702 125.736C88.0729 125.488 88.2251 125.263 88.4174 125.076C88.6097 124.889 88.8381 124.743 89.0887 124.647C89.3392 124.551 89.6067 124.507 89.8749 124.518C90.1413 124.508 90.4067 124.555 90.6542 124.654C90.9017 124.753 91.1258 124.902 91.3121 125.093L91.0491 125.356C90.8978 125.203 90.7165 125.082 90.5166 125.002C90.3166 124.922 90.1023 124.884 89.8871 124.891C89.4556 124.891 89.0418 125.062 88.7367 125.368C88.4316 125.673 88.2602 126.086 88.2602 126.518C88.2602 126.949 88.4316 127.363 88.7367 127.668C89.0418 127.973 89.4556 128.145 89.8871 128.145C90.1029 128.152 90.3178 128.113 90.518 128.032C90.7181 127.951 90.899 127.829 91.0491 127.674L91.3121 127.937C91.1251 128.128 90.9 128.278 90.6514 128.377C90.4028 128.476 90.1362 128.522 89.8687 128.512C89.6012 128.523 89.3341 128.48 89.0839 128.385C88.8336 128.29 88.6056 128.144 88.4136 127.957C88.2217 127.771 88.0701 127.547 87.9679 127.299C87.8658 127.051 87.8154 126.786 87.8198 126.518Z" fill="#263238"/>
<path d="M91.6851 127.006C91.6839 126.709 91.7711 126.417 91.9357 126.169C92.1003 125.921 92.3348 125.727 92.6096 125.612C92.8845 125.497 93.1872 125.467 93.4794 125.524C93.7717 125.581 94.0403 125.724 94.2514 125.934C94.4624 126.144 94.6063 126.412 94.6648 126.705C94.7234 126.997 94.694 127.299 94.5803 127.575C94.4666 127.85 94.2737 128.085 94.0262 128.251C93.7786 128.416 93.4875 128.505 93.1897 128.505C92.9908 128.512 92.7926 128.478 92.6074 128.405C92.4222 128.332 92.2539 128.222 92.1129 128.081C91.9719 127.941 91.8612 127.773 91.7876 127.588C91.714 127.403 91.6791 127.205 91.6851 127.006ZM94.2844 127.006C94.2748 126.791 94.2021 126.583 94.0751 126.408C93.9482 126.233 93.7728 126.1 93.5706 126.024C93.3684 125.949 93.1485 125.934 92.9381 125.982C92.7277 126.031 92.5362 126.14 92.3873 126.296C92.2385 126.453 92.1389 126.649 92.1009 126.862C92.0629 127.074 92.0883 127.293 92.1738 127.491C92.2593 127.69 92.4012 127.858 92.5818 127.976C92.7624 128.095 92.9738 128.157 93.1897 128.156C93.3389 128.159 93.4872 128.131 93.625 128.073C93.7628 128.016 93.8872 127.93 93.9901 127.822C94.0931 127.714 94.1724 127.586 94.2231 127.445C94.2738 127.305 94.2946 127.155 94.2844 127.006Z" fill="#263238"/>
<path d="M98.2172 126.768V128.481H97.8197V126.805C97.8377 126.682 97.8276 126.556 97.7902 126.437C97.7528 126.319 97.6891 126.21 97.6038 126.12C97.5185 126.029 97.4139 125.959 97.2977 125.914C97.1815 125.87 97.0568 125.852 96.9329 125.863C96.7915 125.853 96.6496 125.875 96.5173 125.925C96.3851 125.976 96.2655 126.056 96.167 126.157C96.0686 126.259 95.9936 126.382 95.9473 126.516C95.9011 126.65 95.8847 126.792 95.8993 126.933V128.481H95.5017V125.526H95.8809V126.071C95.9999 125.884 96.1675 125.733 96.3657 125.634C96.5639 125.535 96.7853 125.491 97.0063 125.508C97.1728 125.495 97.3402 125.519 97.4963 125.579C97.6524 125.638 97.7935 125.732 97.9092 125.852C98.025 125.973 98.1127 126.117 98.1659 126.276C98.2192 126.434 98.2367 126.602 98.2172 126.768Z" fill="#263238"/>
<path d="M100.26 124.291C100.479 124.28 100.695 124.345 100.872 124.475L100.737 124.774C100.613 124.674 100.456 124.622 100.297 124.627C99.9603 124.627 99.7768 124.817 99.7768 125.184V125.527H100.688V125.863H99.789V128.481H99.3915V125.863H98.8655V125.527H99.3915V125.166C99.3824 125.049 99.3985 124.932 99.4389 124.822C99.4792 124.712 99.5428 124.612 99.6252 124.529C99.7077 124.446 99.8071 124.382 99.9166 124.341C100.026 124.3 100.143 124.283 100.26 124.291ZM102.144 124.591C102.145 124.63 102.138 124.668 102.123 124.704C102.109 124.74 102.087 124.773 102.06 124.8C102.032 124.828 101.999 124.849 101.963 124.864C101.927 124.878 101.889 124.885 101.85 124.884C101.809 124.89 101.768 124.887 101.728 124.876C101.688 124.864 101.652 124.844 101.62 124.818C101.589 124.791 101.564 124.757 101.547 124.72C101.53 124.682 101.521 124.641 101.521 124.6C101.521 124.559 101.53 124.518 101.547 124.48C101.564 124.443 101.589 124.409 101.62 124.382C101.652 124.355 101.688 124.335 101.728 124.324C101.768 124.312 101.809 124.31 101.85 124.316C101.888 124.314 101.925 124.32 101.96 124.333C101.995 124.346 102.027 124.366 102.055 124.391C102.082 124.417 102.104 124.448 102.119 124.482C102.135 124.516 102.143 124.553 102.144 124.591ZM101.648 125.527H102.046V128.481H101.648V125.527Z" fill="#263238"/>
<path d="M104.645 125.509V125.894H104.547C104.407 125.888 104.266 125.912 104.136 125.966C104.006 126.019 103.89 126.101 103.795 126.205C103.701 126.309 103.63 126.433 103.589 126.567C103.547 126.702 103.536 126.844 103.556 126.983V128.488H103.171V125.534H103.55V126.115C103.651 125.916 103.809 125.752 104.005 125.644C104.2 125.536 104.423 125.489 104.645 125.509Z" fill="#263238"/>
<path d="M110.229 126.768V128.48H109.831V126.805C109.831 126.193 109.52 125.863 108.987 125.863C108.849 125.856 108.71 125.88 108.582 125.933C108.453 125.986 108.338 126.066 108.243 126.168C108.149 126.27 108.078 126.391 108.035 126.523C107.993 126.655 107.98 126.795 107.997 126.933V128.48H107.599V126.805C107.599 126.193 107.287 125.863 106.749 125.863C106.61 125.857 106.473 125.882 106.344 125.935C106.216 125.988 106.101 126.068 106.007 126.17C105.913 126.272 105.842 126.392 105.799 126.524C105.756 126.656 105.742 126.795 105.758 126.933V128.48H105.361V125.526H105.746V126.065C105.862 125.885 106.023 125.74 106.213 125.642C106.403 125.544 106.615 125.498 106.828 125.508C107.044 125.491 107.261 125.54 107.448 125.649C107.635 125.759 107.784 125.923 107.874 126.12C107.996 125.922 108.168 125.76 108.374 125.652C108.58 125.545 108.811 125.495 109.042 125.508C109.208 125.495 109.374 125.52 109.529 125.58C109.683 125.64 109.823 125.734 109.936 125.855C110.05 125.976 110.135 126.12 110.186 126.278C110.237 126.436 110.251 126.603 110.229 126.768Z" fill="#263238"/>
<path d="M116.15 124.555V128.481H115.807L113.281 125.295V128.481H112.865V124.555H113.208L115.74 127.741V124.555H116.15Z" fill="#263238"/>
<path d="M119.911 127.129H117.465C117.472 127.273 117.509 127.414 117.572 127.544C117.634 127.674 117.722 127.79 117.831 127.886C117.939 127.982 118.065 128.055 118.201 128.101C118.338 128.148 118.483 128.166 118.627 128.156C118.796 128.162 118.965 128.13 119.12 128.062C119.276 127.994 119.414 127.893 119.526 127.765L119.752 128.028C119.54 128.249 119.268 128.403 118.969 128.471C118.67 128.538 118.358 128.516 118.071 128.407C117.785 128.298 117.537 128.107 117.358 127.858C117.18 127.609 117.078 127.313 117.067 127.007C117.056 126.812 117.085 126.618 117.153 126.435C117.22 126.252 117.325 126.085 117.46 125.945C117.595 125.804 117.757 125.693 117.937 125.618C118.116 125.543 118.31 125.505 118.504 125.508C118.699 125.504 118.893 125.541 119.072 125.616C119.252 125.691 119.415 125.802 119.549 125.943C119.684 126.084 119.787 126.251 119.854 126.434C119.92 126.617 119.948 126.812 119.936 127.007C119.917 127.037 119.911 127.08 119.911 127.129ZM117.465 126.829H119.556C119.556 126.552 119.446 126.286 119.25 126.09C119.054 125.894 118.788 125.783 118.51 125.783C118.233 125.783 117.967 125.894 117.771 126.09C117.575 126.286 117.465 126.552 117.465 126.829Z" fill="#263238"/>
<path d="M125.006 125.527L123.886 128.481H123.513L122.584 126.065L121.654 128.481H121.275L120.168 125.527H120.547L121.47 128.035L122.418 125.527H122.743L123.684 128.035L124.62 125.527H125.006Z" fill="#263238"/>
<path d="M130.235 125.9C130.235 126.737 129.623 127.239 128.626 127.239H127.574V128.462H127.159V124.536H128.626C129.629 124.554 130.235 125.056 130.235 125.9ZM129.819 125.9C129.819 125.288 129.403 124.915 128.596 124.915H127.574V126.878H128.62C129.403 126.878 129.819 126.517 129.819 125.9Z" fill="#263238"/>
<path d="M133.244 126.651V128.486H132.865V128.027C132.754 128.191 132.601 128.321 132.423 128.406C132.244 128.491 132.046 128.527 131.849 128.51C131.183 128.51 130.773 128.162 130.773 127.654C130.773 127.146 131.06 126.804 131.917 126.804H132.852V126.627C132.852 126.125 132.565 125.85 132.015 125.85C131.658 125.845 131.312 125.967 131.036 126.192L130.859 125.899C131.207 125.626 131.64 125.485 132.082 125.501C132.238 125.483 132.396 125.5 132.544 125.551C132.693 125.602 132.828 125.686 132.94 125.796C133.051 125.907 133.136 126.041 133.189 126.189C133.242 126.337 133.261 126.495 133.244 126.651ZM132.846 127.593V127.11H131.917C131.342 127.11 131.158 127.336 131.158 127.636C131.158 127.935 131.433 128.192 131.904 128.192C132.105 128.205 132.304 128.154 132.473 128.046C132.642 127.938 132.773 127.78 132.846 127.593Z" fill="#263238"/>
<path d="M133.917 128.144L134.1 127.826C134.404 128.047 134.771 128.163 135.146 128.157C135.709 128.157 135.935 127.967 135.935 127.68C135.935 126.909 134.027 127.514 134.027 126.346C134.027 125.863 134.443 125.508 135.189 125.508C135.556 125.5 135.919 125.596 136.235 125.784L136.064 126.102C135.804 125.932 135.499 125.845 135.189 125.851C134.657 125.851 134.424 126.059 134.424 126.334C134.424 127.135 136.339 126.536 136.339 127.667C136.339 128.175 135.886 128.505 135.116 128.505C134.687 128.517 134.267 128.391 133.917 128.144Z" fill="#263238"/>
<path d="M136.663 128.144L136.84 127.826C137.147 128.046 137.515 128.161 137.892 128.157C138.449 128.157 138.681 127.967 138.681 127.68C138.681 126.909 136.767 127.514 136.767 126.346C136.767 125.863 137.183 125.508 137.935 125.508C138.3 125.501 138.661 125.596 138.975 125.784L138.803 126.102C138.546 125.932 138.243 125.845 137.935 125.851C137.403 125.851 137.164 126.059 137.164 126.334C137.164 127.135 139.079 126.536 139.079 127.667C139.079 128.175 138.632 128.505 137.855 128.505C137.429 128.518 137.01 128.391 136.663 128.144Z" fill="#263238"/>
<path d="M144.088 125.527L142.969 128.481H142.595L141.666 126.065L140.736 128.481H140.357L139.256 125.527H139.635L140.559 128.035L141.507 125.527H141.849L142.791 128.035L143.727 125.527H144.088Z" fill="#263238"/>
<path d="M144.308 127.006C144.308 126.71 144.396 126.421 144.56 126.175C144.724 125.928 144.958 125.736 145.232 125.623C145.505 125.509 145.806 125.479 146.097 125.536C146.387 125.594 146.654 125.736 146.864 125.945C147.074 126.154 147.217 126.42 147.275 126.71C147.334 127.001 147.305 127.302 147.193 127.576C147.08 127.849 146.889 128.084 146.643 128.249C146.398 128.415 146.109 128.504 145.813 128.505C145.613 128.512 145.415 128.479 145.229 128.407C145.044 128.334 144.875 128.224 144.734 128.083C144.593 127.943 144.482 127.775 144.409 127.589C144.335 127.404 144.301 127.206 144.308 127.006ZM146.901 127.006C146.89 126.792 146.817 126.586 146.69 126.413C146.563 126.24 146.388 126.109 146.187 126.034C145.986 125.96 145.768 125.947 145.559 125.995C145.35 126.044 145.16 126.153 145.013 126.309C144.865 126.464 144.767 126.66 144.73 126.871C144.692 127.082 144.718 127.3 144.803 127.496C144.888 127.693 145.029 127.86 145.209 127.978C145.388 128.095 145.598 128.157 145.813 128.156C145.961 128.158 146.109 128.129 146.246 128.072C146.383 128.014 146.507 127.928 146.609 127.82C146.711 127.712 146.79 127.584 146.84 127.444C146.891 127.304 146.911 127.155 146.901 127.006Z" fill="#263238"/>
<path d="M149.605 125.508V125.893H149.513C149.372 125.886 149.232 125.911 149.102 125.964C148.972 126.018 148.855 126.1 148.761 126.204C148.666 126.308 148.596 126.432 148.554 126.566C148.513 126.701 148.502 126.843 148.522 126.982V128.486H148.118V125.532H148.504V126.113C148.605 125.913 148.764 125.749 148.96 125.64C149.157 125.532 149.381 125.486 149.605 125.508Z" fill="#263238"/>
<path d="M152.987 124.315V128.48H152.607V127.869C152.49 128.063 152.322 128.222 152.122 128.33C151.922 128.437 151.697 128.489 151.47 128.48C151.072 128.48 150.691 128.322 150.41 128.041C150.129 127.76 149.971 127.379 149.971 126.982C149.971 126.584 150.129 126.203 150.41 125.922C150.691 125.641 151.072 125.483 151.47 125.483C151.691 125.476 151.91 125.525 152.106 125.627C152.302 125.729 152.468 125.88 152.589 126.064V124.291L152.987 124.315ZM152.595 127.006C152.584 126.792 152.511 126.586 152.384 126.414C152.258 126.241 152.083 126.109 151.883 126.035C151.682 125.96 151.464 125.946 151.255 125.995C151.046 126.043 150.857 126.151 150.709 126.306C150.561 126.462 150.462 126.656 150.424 126.867C150.386 127.078 150.411 127.295 150.495 127.492C150.579 127.689 150.72 127.857 150.898 127.975C151.077 128.093 151.286 128.156 151.5 128.156C151.65 128.159 151.798 128.131 151.936 128.073C152.073 128.016 152.198 127.93 152.301 127.822C152.404 127.714 152.483 127.586 152.534 127.445C152.584 127.305 152.605 127.155 152.595 127.006Z" fill="#263238"/>
</g>
<path opacity="0.2" d="M163.806 146.749H83.7834V160.449H163.806V146.749Z" fill="black"/>
<g opacity="0.5">
<path d="M84.2786 87.5406V88.458H85.5018V88.6721H84.2786V89.669H84.0278V87.3265H85.6364V87.5406H84.2786Z" fill="black"/>
<path d="M85.8625 88.787C85.8625 88.6092 85.9152 88.4354 86.014 88.2875C86.1128 88.1397 86.2532 88.0244 86.4175 87.9564C86.5818 87.8883 86.7626 87.8705 86.937 87.9052C87.1114 87.9399 87.2716 88.0255 87.3973 88.1513C87.523 88.277 87.6087 88.4372 87.6434 88.6116C87.678 88.786 87.6602 88.9668 87.5922 89.1311C87.5241 89.2953 87.4089 89.4358 87.2611 89.5345C87.1132 89.6333 86.9394 89.6861 86.7616 89.6861C86.6423 89.6903 86.5235 89.67 86.4125 89.6264C86.3015 89.5827 86.2007 89.5166 86.1163 89.4323C86.032 89.3479 85.9659 89.2471 85.9222 89.1361C85.8786 89.0251 85.8582 88.9062 85.8625 88.787ZM87.416 88.787C87.4112 88.6573 87.3682 88.5318 87.2925 88.4263C87.2168 88.3208 87.1117 88.24 86.9903 88.1939C86.8689 88.1479 86.7366 88.1386 86.61 88.1673C86.4834 88.196 86.368 88.2613 86.2783 88.3552C86.1886 88.4491 86.1286 88.5673 86.1057 88.6951C86.0828 88.8229 86.0981 88.9547 86.1497 89.0738C86.2013 89.193 86.2868 89.2943 86.3956 89.3651C86.5044 89.4359 86.6317 89.4731 86.7616 89.472C86.8506 89.4739 86.9391 89.4572 87.0214 89.4231C87.1037 89.3889 87.178 89.338 87.2396 89.2736C87.3011 89.2092 87.3486 89.1326 87.379 89.0489C87.4093 88.9651 87.4219 88.8759 87.416 88.787Z" fill="black"/>
<path d="M89.0307 87.894V88.1265H88.9756C88.8902 88.1191 88.8043 88.1312 88.7242 88.1617C88.6441 88.1923 88.572 88.2405 88.5132 88.3028C88.4544 88.3652 88.4104 88.44 88.3846 88.5217C88.3588 88.6034 88.3517 88.6899 88.364 88.7748V89.6738H88.1255V87.9063H88.3518V88.2732C88.411 88.147 88.5084 88.0424 88.6302 87.9744C88.752 87.9064 88.8921 87.8783 89.0307 87.894Z" fill="black"/>
<path d="M91.0735 87.9068V89.4541C91.0923 89.5741 91.0825 89.6968 91.0449 89.8122C91.0073 89.9277 90.943 90.0326 90.8571 90.1185C90.7713 90.2043 90.6663 90.2686 90.5509 90.3063C90.4354 90.3439 90.3127 90.3537 90.1928 90.3349C89.896 90.3476 89.6047 90.252 89.3732 90.0657L89.4956 89.8823C89.6883 90.0455 89.9342 90.1325 90.1867 90.1269C90.6332 90.1269 90.835 89.919 90.835 89.4847V89.2584C90.7593 89.369 90.6567 89.4584 90.5368 89.5184C90.417 89.5783 90.2839 89.6067 90.15 89.6009C90.0319 89.6109 89.913 89.5963 89.8008 89.558C89.6886 89.5196 89.5856 89.4584 89.4983 89.3782C89.4111 89.298 89.3414 89.2006 89.2937 89.092C89.246 88.9835 89.2214 88.8663 89.2214 88.7477C89.2214 88.6292 89.246 88.5119 89.2937 88.4034C89.3414 88.2949 89.4111 88.1974 89.4983 88.1172C89.5856 88.037 89.6886 87.9758 89.8008 87.9375C89.913 87.8992 90.0319 87.8845 90.15 87.8945C90.2862 87.8891 90.4215 87.9182 90.5435 87.9791C90.6654 88.0401 90.7699 88.1309 90.8472 88.2431V87.9068H91.0735ZM90.8411 88.7447C90.8448 88.6121 90.8088 88.4815 90.7378 88.3694C90.6668 88.2574 90.564 88.1691 90.4425 88.1158C90.3211 88.0626 90.1865 88.0467 90.056 88.0703C89.9255 88.0939 89.805 88.1559 89.7099 88.2484C89.6149 88.3409 89.5495 88.4596 89.5223 88.5894C89.495 88.7192 89.5071 88.8541 89.557 88.977C89.6069 89.0999 89.6923 89.2051 89.8022 89.2792C89.9122 89.3533 90.0418 89.3929 90.1745 89.393C90.2625 89.4011 90.3512 89.3901 90.4345 89.3606C90.5178 89.3312 90.5938 89.284 90.6572 89.2224C90.7205 89.1608 90.7698 89.0862 90.8015 89.0037C90.8333 88.9212 90.8468 88.8329 90.8411 88.7447Z" fill="black"/>
<path d="M91.5505 88.787C91.5505 88.6092 91.6032 88.4354 91.702 88.2875C91.8008 88.1397 91.9412 88.0244 92.1055 87.9564C92.2698 87.8883 92.4506 87.8705 92.625 87.9052C92.7994 87.9399 92.9595 88.0255 93.0853 88.1513C93.211 88.277 93.2967 88.4372 93.3313 88.6116C93.366 88.786 93.3482 88.9668 93.2802 89.1311C93.2121 89.2953 93.0969 89.4358 92.949 89.5345C92.8012 89.6333 92.6274 89.6861 92.4496 89.6861C92.3303 89.6903 92.2115 89.67 92.1005 89.6264C91.9895 89.5827 91.8887 89.5166 91.8043 89.4323C91.7199 89.3479 91.6539 89.2471 91.6102 89.1361C91.5665 89.0251 91.5462 88.9062 91.5505 88.787ZM93.104 88.787C93.098 88.659 93.0546 88.5357 92.9791 88.4321C92.9037 88.3286 92.7995 88.2495 92.6795 88.2046C92.5595 88.1598 92.429 88.1511 92.3042 88.1797C92.1793 88.2083 92.0656 88.2729 91.9771 88.3655C91.8886 88.4581 91.8292 88.5747 91.8064 88.7007C91.7835 88.8268 91.7981 88.9568 91.8484 89.0746C91.8987 89.1924 91.9825 89.2928 92.0893 89.3635C92.1962 89.4341 92.3215 89.4719 92.4496 89.472C92.5396 89.4757 92.6295 89.4603 92.7133 89.4269C92.797 89.3935 92.8728 89.3429 92.9357 89.2782C92.9986 89.2136 93.0472 89.1365 93.0783 89.0518C93.1094 88.9672 93.1223 88.877 93.1162 88.787H93.104Z" fill="black"/>
<path d="M94.7738 89.5652C94.6663 89.6459 94.5352 89.6889 94.4008 89.6876C94.3314 89.6953 94.2612 89.6874 94.1953 89.6643C94.1294 89.6413 94.0696 89.6037 94.0202 89.5543C93.9709 89.505 93.9333 89.4451 93.9102 89.3793C93.8872 89.3134 93.8792 89.2432 93.887 89.1738V88.1096H93.569V87.9078H93.887V87.5225H94.1255V87.9078H94.6576V88.1096H94.1255V89.1616C94.1255 89.3695 94.2295 89.4796 94.4252 89.4796C94.52 89.4814 94.6127 89.4513 94.6882 89.394L94.7738 89.5652Z" fill="black"/>
<path d="M97.9724 88.1277C97.9724 88.6293 97.6054 88.929 97.0121 88.929H96.4005V89.669H96.1498V87.3265H97.0305C97.6054 87.3265 97.9724 87.6262 97.9724 88.1277ZM97.7216 88.1277C97.7216 87.7547 97.477 87.5161 97.006 87.5161H96.3944V88.6843H97.006C97.477 88.7088 97.7216 88.4947 97.7216 88.1277Z" fill="black"/>
<path d="M99.7706 88.579V89.6676H99.5443V89.3924C99.478 89.4916 99.3863 89.5712 99.2787 89.6228C99.1711 89.6744 99.0516 89.6963 98.9327 89.686C98.5291 89.686 98.2844 89.478 98.2844 89.1722C98.2844 88.8664 98.4618 88.6707 98.9694 88.6707H99.526V88.5667C99.5313 88.5017 99.5218 88.4362 99.4983 88.3753C99.4748 88.3144 99.4379 88.2596 99.3903 88.2149C99.3427 88.1703 99.2856 88.1369 99.2234 88.1173C99.1611 88.0978 99.0952 88.0925 99.0306 88.1019C98.8077 88.0913 98.5892 88.1656 98.419 88.3099L98.3089 88.1325C98.5121 87.9717 98.7654 87.8873 99.0245 87.894C99.1217 87.8709 99.2231 87.872 99.3199 87.8972C99.4166 87.9224 99.5057 87.9709 99.5793 88.0385C99.6529 88.1061 99.7089 88.1907 99.7422 88.2849C99.7756 88.3791 99.7853 88.4801 99.7706 88.579ZM99.5321 89.1416V88.8481H98.9817C98.6392 88.8481 98.5291 88.9826 98.5291 89.1661C98.5291 89.3496 98.6942 89.4964 98.9755 89.4964C99.0939 89.5034 99.2114 89.4729 99.3113 89.4092C99.4112 89.3455 99.4885 89.2519 99.5321 89.1416Z" fill="black"/>
<path d="M100.174 89.4967L100.284 89.3132C100.463 89.4406 100.676 89.509 100.896 89.5089C101.232 89.5089 101.367 89.3927 101.367 89.2214C101.367 88.7627 100.223 89.1236 100.223 88.4263C100.223 88.1389 100.474 87.9248 100.92 87.9248C101.136 87.9215 101.347 87.9787 101.532 88.09L101.428 88.2796C101.275 88.1752 101.093 88.1217 100.908 88.1267C100.59 88.1267 100.449 88.249 100.449 88.4202C100.449 88.8973 101.593 88.5364 101.593 89.2153C101.593 89.5211 101.324 89.7168 100.865 89.7168C100.617 89.7191 100.375 89.6419 100.174 89.4967Z" fill="black"/>
<path d="M101.813 89.4967L101.923 89.3132C102.102 89.4398 102.316 89.5082 102.535 89.5089C102.871 89.5089 103.006 89.3927 103.006 89.2214C103.006 88.7627 101.868 89.1236 101.868 88.4263C101.868 88.1389 102.113 87.9248 102.56 87.9248C102.775 87.9215 102.987 87.9787 103.171 88.09L103.067 88.2796C102.914 88.1752 102.732 88.1217 102.547 88.1267C102.229 88.1267 102.089 88.249 102.089 88.4202C102.089 88.8973 103.232 88.5364 103.232 89.2153C103.232 89.5211 102.963 89.7168 102.504 89.7168C102.257 89.7191 102.014 89.6419 101.813 89.4967Z" fill="black"/>
<path d="M106.229 87.9054L105.617 89.6668H105.391L104.835 88.2234L104.278 89.6668H104.052L103.391 87.9054H103.618L104.168 89.4038L104.737 87.9054H104.939L105.501 89.4038L106.064 87.9054H106.229Z" fill="black"/>
<path d="M106.382 88.787C106.382 88.6092 106.435 88.4354 106.534 88.2875C106.632 88.1397 106.773 88.0244 106.937 87.9564C107.101 87.8883 107.282 87.8705 107.456 87.9052C107.631 87.9399 107.791 88.0255 107.917 88.1513C108.043 88.277 108.128 88.4372 108.163 88.6116C108.198 88.786 108.18 88.9668 108.112 89.1311C108.044 89.2953 107.928 89.4358 107.781 89.5345C107.633 89.6333 107.459 89.6861 107.281 89.6861C107.162 89.6903 107.043 89.67 106.932 89.6264C106.821 89.5827 106.72 89.5166 106.636 89.4323C106.551 89.3479 106.485 89.2471 106.442 89.1361C106.398 89.0251 106.378 88.9062 106.382 88.787ZM107.936 88.787C107.93 88.659 107.886 88.5357 107.811 88.4321C107.735 88.3286 107.631 88.2495 107.511 88.2046C107.391 88.1598 107.261 88.1511 107.136 88.1797C107.011 88.2083 106.897 88.2729 106.809 88.3655C106.72 88.4581 106.661 88.5747 106.638 88.7007C106.615 88.8268 106.63 88.9568 106.68 89.0746C106.73 89.1924 106.814 89.2928 106.921 89.3635C107.028 89.4341 107.153 89.4719 107.281 89.472C107.37 89.4739 107.459 89.4572 107.541 89.4231C107.623 89.3889 107.698 89.338 107.759 89.2736C107.821 89.2092 107.868 89.1326 107.898 89.0489C107.929 88.9651 107.941 88.8759 107.936 88.787Z" fill="black"/>
<path d="M109.55 87.8948V88.1272H109.495C109.41 88.1198 109.324 88.1319 109.244 88.1625C109.164 88.193 109.091 88.2412 109.033 88.3036C108.974 88.3659 108.93 88.4407 108.904 88.5225C108.878 88.6042 108.871 88.6907 108.883 88.7755V89.6746H108.676V87.907H108.902V88.274C108.959 88.1529 109.052 88.052 109.168 87.9844C109.283 87.9168 109.416 87.8855 109.55 87.8948Z" fill="black"/>
<path d="M111.575 87.1849V89.6681H111.342V89.3195C111.273 89.4362 111.173 89.532 111.053 89.5966C110.934 89.6612 110.799 89.6923 110.663 89.6864C110.438 89.6678 110.229 89.5654 110.076 89.3994C109.923 89.2334 109.838 89.016 109.838 88.7904C109.838 88.5648 109.923 88.3474 110.076 88.1814C110.229 88.0155 110.438 87.913 110.663 87.8944C110.796 87.8902 110.927 87.9201 111.045 87.9811C111.163 88.0421 111.263 88.1323 111.336 88.243V87.1849H111.575ZM111.336 88.7873C111.33 88.6594 111.287 88.536 111.211 88.4325C111.136 88.329 111.032 88.2499 110.912 88.205C110.792 88.1601 110.661 88.1514 110.536 88.18C110.411 88.2086 110.298 88.2732 110.209 88.3659C110.121 88.4585 110.061 88.575 110.038 88.7011C110.016 88.8271 110.03 88.9571 110.08 89.0749C110.131 89.1927 110.215 89.2932 110.321 89.3638C110.428 89.4345 110.553 89.4722 110.682 89.4724C110.771 89.4743 110.859 89.4576 110.941 89.4234C111.024 89.3893 111.098 89.3383 111.16 89.2739C111.221 89.2095 111.269 89.133 111.299 89.0492C111.329 88.9654 111.342 88.8763 111.336 88.7873Z" fill="black"/>
<path d="M113.305 87.9243C113.305 87.6796 113.11 87.5145 112.767 87.5145C112.646 87.5063 112.526 87.5264 112.414 87.5731C112.303 87.6198 112.204 87.6919 112.125 87.7836L111.948 87.6491C112.051 87.531 112.181 87.4383 112.326 87.3779C112.471 87.3175 112.628 87.291 112.785 87.3005C113.25 87.3005 113.556 87.5268 113.556 87.9121C113.556 88.4809 112.944 88.5237 112.944 88.9885H112.7C112.694 88.4136 113.305 88.3585 113.305 87.9243ZM112.645 89.4961C112.652 89.4555 112.674 89.4188 112.706 89.3924C112.738 89.366 112.778 89.3516 112.819 89.3516C112.86 89.3516 112.9 89.366 112.932 89.3924C112.964 89.4188 112.986 89.4555 112.993 89.4961C112.998 89.5218 112.997 89.5481 112.991 89.5734C112.984 89.5986 112.972 89.6221 112.956 89.6422C112.939 89.6622 112.918 89.6784 112.894 89.6895C112.871 89.7005 112.845 89.7063 112.819 89.7063C112.793 89.7063 112.767 89.7005 112.744 89.6895C112.72 89.6784 112.699 89.6622 112.683 89.6422C112.666 89.6221 112.654 89.5986 112.647 89.5734C112.641 89.5481 112.64 89.5218 112.645 89.4961Z" fill="black"/>
</g>
<path d="M163.806 145.906H83.7834V159.606H163.806V145.906Z" fill="#225A4B"/>
<path d="M101.233 154.327L101.483 153.801C101.919 154.16 102.467 154.352 103.031 154.346C103.838 154.346 104.187 154.034 104.187 153.624C104.187 152.48 101.349 153.202 101.349 151.459C101.349 150.737 101.911 150.12 103.141 150.12C103.674 150.11 104.199 150.254 104.651 150.535L104.431 151.068C104.045 150.823 103.598 150.692 103.141 150.688C102.346 150.688 102.003 151.025 102.003 151.434C102.003 152.578 104.847 151.863 104.847 153.581C104.847 154.303 104.236 154.915 103.012 154.915C102.369 154.931 101.74 154.723 101.233 154.327Z" fill="white"/>
<path d="M108.927 153.324H106.046C106.091 153.627 106.249 153.903 106.488 154.095C106.727 154.288 107.03 154.384 107.336 154.363C107.527 154.369 107.718 154.334 107.894 154.26C108.07 154.187 108.228 154.076 108.358 153.935L108.713 154.351C108.452 154.618 108.119 154.803 107.755 154.884C107.391 154.966 107.012 154.941 106.662 154.811C106.312 154.682 106.007 154.454 105.784 154.156C105.561 153.857 105.429 153.5 105.404 153.128C105.391 152.888 105.428 152.649 105.512 152.424C105.596 152.199 105.726 151.994 105.893 151.822C106.06 151.65 106.261 151.514 106.483 151.423C106.705 151.332 106.944 151.288 107.184 151.293C107.423 151.287 107.661 151.33 107.882 151.421C108.103 151.512 108.303 151.648 108.468 151.821C108.634 151.994 108.761 152.2 108.842 152.425C108.923 152.65 108.956 152.889 108.939 153.128C108.939 153.183 108.933 153.262 108.927 153.324ZM106.046 152.865H108.327C108.292 152.587 108.157 152.332 107.947 152.147C107.737 151.962 107.466 151.86 107.187 151.86C106.907 151.86 106.637 151.962 106.427 152.147C106.217 152.332 106.081 152.587 106.046 152.865Z" fill="white"/>
<path d="M111.832 154.681C111.608 154.849 111.334 154.935 111.055 154.926C110.904 154.943 110.751 154.926 110.608 154.877C110.464 154.827 110.334 154.746 110.226 154.639C110.118 154.532 110.035 154.402 109.984 154.259C109.932 154.116 109.914 153.964 109.93 153.813V151.88H109.318V151.354H109.93V150.577H110.572V151.354H111.593V151.88H110.572V153.806C110.557 153.885 110.561 153.966 110.583 154.043C110.605 154.12 110.645 154.191 110.699 154.25C110.753 154.309 110.819 154.355 110.894 154.384C110.968 154.413 111.049 154.425 111.128 154.418C111.31 154.423 111.487 154.364 111.63 154.253L111.832 154.681Z" fill="white"/>
<path d="M118.296 151.831C118.296 152.852 117.556 153.464 116.339 153.464H115.177V154.889H114.51V150.198H116.345C117.556 150.198 118.296 150.809 118.296 151.831ZM117.624 151.831C117.624 151.158 117.177 150.779 116.321 150.779H115.177V152.883H116.321C117.177 152.883 117.624 152.491 117.624 151.831Z" fill="white"/>
<path d="M121.972 152.744V154.89H121.361V154.42C121.224 154.595 121.046 154.734 120.841 154.823C120.637 154.911 120.414 154.947 120.193 154.927C119.391 154.927 118.884 154.499 118.884 153.881C118.884 153.264 119.251 152.842 120.309 152.842H121.33V152.719C121.33 152.175 121.012 151.857 120.376 151.857C119.968 151.857 119.573 151.992 119.251 152.242L118.982 151.759C119.406 151.447 119.923 151.286 120.449 151.3C121.422 151.3 121.972 151.771 121.972 152.744ZM121.33 153.802V153.306H120.333C119.722 153.306 119.52 153.557 119.52 153.857C119.52 154.157 119.813 154.432 120.303 154.432C120.518 154.447 120.733 154.395 120.918 154.282C121.102 154.169 121.246 154.001 121.33 153.802Z" fill="white"/>
<path d="M122.743 154.511L123.012 154.003C123.376 154.24 123.801 154.367 124.235 154.37C124.847 154.37 125.079 154.193 125.079 153.887C125.079 153.092 122.835 153.783 122.835 152.37C122.835 151.759 123.403 151.3 124.315 151.3C124.768 151.292 125.215 151.404 125.611 151.624L125.336 152.132C125.029 151.938 124.671 151.84 124.309 151.85C123.746 151.85 123.471 152.058 123.471 152.34C123.471 153.177 125.727 152.492 125.727 153.875C125.727 154.517 125.116 154.927 124.192 154.927C123.678 154.939 123.172 154.794 122.743 154.511Z" fill="white"/>
<path d="M126.076 154.511L126.345 154.003C126.71 154.24 127.134 154.367 127.568 154.37C128.18 154.37 128.412 154.193 128.412 153.887C128.412 153.092 126.168 153.783 126.168 152.37C126.168 151.758 126.737 151.3 127.648 151.3C128.099 151.293 128.544 151.404 128.938 151.624L128.663 152.132C128.358 151.939 128.002 151.842 127.642 151.85C127.079 151.85 126.804 152.058 126.804 152.34C126.804 153.177 129.055 152.492 129.055 153.875C129.055 154.517 128.443 154.927 127.519 154.927C127.007 154.937 126.504 154.792 126.076 154.511Z" fill="white"/>
<path d="M135.189 151.336L133.862 154.89H133.25L132.223 152.192L131.183 154.89H130.571L129.256 151.336H129.868L130.902 154.162L131.972 151.336H132.528L133.58 154.174L134.639 151.336H135.189Z" fill="white"/>
<path d="M135.415 153.103C135.415 152.74 135.523 152.385 135.724 152.083C135.926 151.782 136.213 151.546 136.548 151.408C136.883 151.269 137.252 151.232 137.608 151.303C137.964 151.374 138.291 151.549 138.548 151.805C138.804 152.062 138.979 152.389 139.05 152.745C139.12 153.101 139.084 153.47 138.945 153.805C138.806 154.14 138.571 154.427 138.269 154.628C137.968 154.83 137.613 154.938 137.25 154.938C137.007 154.947 136.764 154.906 136.537 154.817C136.31 154.728 136.104 154.594 135.932 154.421C135.759 154.249 135.625 154.043 135.536 153.816C135.447 153.589 135.406 153.346 135.415 153.103ZM138.473 153.103C138.467 152.861 138.39 152.626 138.25 152.429C138.111 152.231 137.916 152.079 137.69 151.992C137.464 151.905 137.218 151.887 136.982 151.94C136.746 151.993 136.531 152.115 136.364 152.291C136.197 152.466 136.086 152.687 136.045 152.925C136.004 153.163 136.034 153.409 136.132 153.63C136.23 153.851 136.392 154.038 136.596 154.167C136.801 154.297 137.039 154.363 137.281 154.357C137.443 154.359 137.603 154.327 137.752 154.264C137.901 154.201 138.036 154.107 138.147 153.989C138.258 153.871 138.343 153.732 138.397 153.579C138.451 153.426 138.473 153.264 138.461 153.103H138.473Z" fill="white"/>
<path d="M141.911 151.299V151.911H141.764C141.605 151.9 141.445 151.925 141.297 151.984C141.149 152.043 141.016 152.135 140.909 152.252C140.801 152.37 140.721 152.51 140.676 152.663C140.63 152.816 140.619 152.977 140.645 153.134V154.908H140.033V151.354H140.645V151.966C140.773 151.748 140.959 151.57 141.183 151.452C141.406 151.335 141.658 151.282 141.911 151.299Z" fill="white"/>
<path d="M146.021 149.916V154.889H145.409V154.326C145.264 154.523 145.072 154.682 144.852 154.789C144.631 154.895 144.388 154.946 144.143 154.937C143.71 154.871 143.315 154.651 143.03 154.319C142.744 153.986 142.588 153.562 142.588 153.124C142.588 152.686 142.744 152.262 143.03 151.929C143.315 151.597 143.71 151.377 144.143 151.311C144.378 151.305 144.61 151.354 144.822 151.454C145.035 151.553 145.221 151.701 145.366 151.886V149.928L146.021 149.916ZM145.372 153.103C145.366 152.861 145.289 152.626 145.149 152.429C145.01 152.231 144.815 152.079 144.589 151.992C144.363 151.905 144.117 151.887 143.881 151.94C143.645 151.993 143.43 152.115 143.263 152.291C143.097 152.466 142.986 152.687 142.944 152.925C142.903 153.163 142.933 153.408 143.031 153.63C143.129 153.851 143.291 154.038 143.495 154.167C143.7 154.297 143.938 154.362 144.18 154.356C144.343 154.36 144.505 154.33 144.655 154.268C144.806 154.205 144.941 154.112 145.054 153.994C145.166 153.876 145.252 153.735 145.307 153.582C145.362 153.428 145.384 153.265 145.372 153.103Z" fill="white"/>
<g opacity="0.6">
<path d="M98.5293 52.9037L97.4223 51.3257C97.3183 51.3257 97.2082 51.3257 97.0981 51.3257H95.8321V52.8853H95.0981V47.7478H97.0981C98.4314 47.7478 99.2387 48.4267 99.2387 49.5398C99.2557 49.8962 99.1546 50.2481 98.9511 50.5412C98.7476 50.8342 98.4532 51.0519 98.1134 51.1606L99.3366 52.8853L98.5293 52.9037ZM98.5293 49.5582C98.5293 48.8242 98.04 48.4083 97.0981 48.4083H95.8749V50.7202H97.0981C98.0155 50.7202 98.5048 50.2921 98.5048 49.5582H98.5293Z" fill="#263238"/>
<path d="M103.826 51.1963H100.676C100.72 51.5294 100.891 51.8327 101.153 52.0434C101.415 52.254 101.748 52.3558 102.083 52.3278C102.292 52.3356 102.5 52.2982 102.693 52.2179C102.887 52.1377 103.06 52.0166 103.202 51.8629L103.593 52.3155C103.306 52.6072 102.941 52.8094 102.541 52.8976C102.142 52.9859 101.725 52.9564 101.342 52.8127C100.959 52.669 100.626 52.4173 100.383 52.0881C100.14 51.7589 99.9972 51.3662 99.9728 50.9578C99.9618 50.6972 100.004 50.4371 100.098 50.1938C100.192 49.9504 100.335 49.7289 100.518 49.5431C100.701 49.3572 100.92 49.211 101.162 49.1135C101.404 49.0159 101.663 48.9692 101.924 48.9761C102.183 48.9698 102.442 49.0173 102.682 49.1159C102.922 49.2144 103.14 49.3617 103.32 49.5486C103.501 49.7354 103.64 49.9576 103.731 50.2012C103.821 50.4449 103.86 50.7045 103.844 50.9639C103.845 51.0417 103.839 51.1195 103.826 51.1963ZM100.676 50.6886H103.171C103.171 50.3585 103.04 50.042 102.807 49.8086C102.574 49.5751 102.257 49.444 101.927 49.444C101.597 49.444 101.28 49.5751 101.047 49.8086C100.813 50.042 100.682 50.3585 100.682 50.6886H100.676Z" fill="#263238"/>
<path d="M104.327 52.4942L104.621 51.9377C105.028 52.2001 105.501 52.3402 105.985 52.3413C106.639 52.3413 106.908 52.1395 106.908 51.8092C106.908 50.9407 104.462 51.693 104.462 50.1457C104.462 49.4484 105.074 48.9775 106.083 48.9775C106.577 48.9702 107.064 49.0925 107.496 49.3322L107.196 49.8888C106.86 49.6805 106.471 49.5742 106.077 49.583C105.465 49.583 105.159 49.8093 105.159 50.1151C105.159 51.0325 107.606 50.2863 107.606 51.797C107.606 52.5003 106.957 52.9468 105.924 52.9468C105.358 52.9602 104.802 52.8025 104.327 52.4942Z" fill="#263238"/>
<path d="M111.997 51.1973H108.841C108.888 51.5291 109.06 51.8307 109.321 52.0408C109.582 52.2509 109.913 52.3538 110.248 52.3287C110.458 52.3367 110.667 52.2993 110.861 52.2191C111.055 52.1389 111.23 52.0177 111.373 51.8639L111.764 52.3165C111.568 52.5236 111.329 52.6855 111.064 52.7911C110.799 52.8967 110.514 52.9435 110.229 52.9281C109.958 52.9487 109.686 52.9123 109.43 52.8211C109.174 52.7299 108.939 52.586 108.742 52.3987C108.545 52.2113 108.389 51.9848 108.285 51.7336C108.181 51.4824 108.131 51.2122 108.138 50.9404C108.128 50.6801 108.171 50.4204 108.265 50.1774C108.359 49.9345 108.502 49.7134 108.685 49.5277C108.867 49.342 109.086 49.1958 109.328 49.0979C109.569 49.0001 109.828 48.9527 110.089 48.9588C110.35 48.9513 110.611 48.9987 110.853 49.098C111.095 49.1973 111.313 49.3463 111.494 49.5353C111.675 49.7244 111.815 49.9493 111.903 50.1955C111.992 50.4417 112.028 50.7038 112.009 50.9649C112.009 51.0383 112.003 51.13 111.997 51.1973ZM108.841 50.6896H111.336C111.306 50.38 111.161 50.0929 110.93 49.8841C110.7 49.6752 110.4 49.5595 110.089 49.5595C109.778 49.5595 109.478 49.6752 109.247 49.8841C109.016 50.0929 108.872 50.38 108.841 50.6896Z" fill="#263238"/>
<path d="M115.177 52.6768C114.933 52.8614 114.633 52.9564 114.327 52.9459C114.162 52.9632 113.996 52.9434 113.839 52.8881C113.683 52.8327 113.541 52.7432 113.424 52.6259C113.307 52.5087 113.217 52.3668 113.162 52.2105C113.106 52.0542 113.087 51.8875 113.104 51.7227V49.5881H112.443V49.0071H113.104V48.157H113.807V49.0071H114.92V49.5881H113.807V51.6921C113.795 51.7772 113.802 51.8639 113.828 51.9458C113.854 52.0278 113.898 52.1029 113.956 52.1657C114.015 52.2285 114.087 52.2773 114.167 52.3086C114.247 52.3399 114.333 52.3528 114.419 52.3465C114.618 52.3474 114.811 52.2829 114.969 52.163L115.177 52.6768Z" fill="#263238"/>
<path d="M122.248 49.5573C122.248 50.6704 121.44 51.3493 120.107 51.3493H118.841V52.9028H118.107V47.7653H120.107C121.44 47.7653 122.248 48.4441 122.248 49.5573ZM121.514 49.5573C121.514 48.8233 121.024 48.4075 120.082 48.4075H118.859V50.7071H120.082C121.024 50.7071 121.52 50.2912 121.52 49.5573H121.514Z" fill="#263238"/>
<path d="M126.272 50.5545V52.9031H125.605V52.3894C125.456 52.5825 125.261 52.7349 125.038 52.8322C124.814 52.9295 124.57 52.9687 124.327 52.9459C123.446 52.9459 122.89 52.475 122.89 51.8022C122.89 51.1294 123.293 50.6646 124.449 50.6646H125.568V50.524C125.568 49.9123 125.22 49.5882 124.523 49.5882C124.079 49.5844 123.648 49.731 123.299 50.0041L123.006 49.4781C123.471 49.1361 124.037 48.9596 124.614 48.9766C125.672 48.9766 126.272 49.4903 126.272 50.5545ZM125.568 51.7166V51.1723H124.48C123.782 51.1723 123.587 51.4414 123.587 51.7839C123.587 52.1264 123.911 52.3955 124.443 52.3955C124.678 52.4145 124.913 52.3592 125.115 52.2374C125.317 52.1156 125.476 51.9334 125.568 51.7166Z" fill="#263238"/>
<path d="M127.085 52.4943L127.379 51.9377C127.786 52.2002 128.259 52.3403 128.743 52.3414C129.397 52.3414 129.673 52.1396 129.673 51.8093C129.673 50.9408 127.226 51.6931 127.226 50.1457C127.226 49.4485 127.838 48.9776 128.847 48.9776C129.341 48.9694 129.828 49.0918 130.26 49.3323L129.96 49.8889C129.625 49.6799 129.236 49.5736 128.841 49.583C128.229 49.583 127.923 49.8093 127.923 50.1151C127.923 51.0326 130.37 50.2864 130.37 51.7971C130.37 52.5004 129.721 52.9469 128.688 52.9469C128.12 52.9604 127.562 52.8027 127.085 52.4943Z" fill="#263238"/>
<path d="M130.767 52.4942L131.061 51.9377C131.467 52.2007 131.941 52.3409 132.425 52.3413C133.073 52.3413 133.348 52.1395 133.348 51.8092C133.348 50.9407 130.902 51.693 130.902 50.1456C130.902 49.4484 131.513 48.9775 132.522 48.9775C133.018 48.9703 133.507 49.0925 133.941 49.3322L133.636 49.8888C133.3 49.6798 132.911 49.5735 132.516 49.583C131.905 49.583 131.599 49.8093 131.599 50.1151C131.599 51.0325 134.045 50.2863 134.045 51.797C134.045 52.5003 133.397 52.9468 132.363 52.9468C131.798 52.9614 131.241 52.8035 130.767 52.4942Z" fill="#263238"/>
<path d="M140.743 49.0139L139.293 52.9037H138.645L137.526 49.9558L136.388 52.9037H135.709L134.266 49.0139H134.932L136.064 52.1148L137.238 49.0139H137.85L138.999 52.127L140.162 49.0139H140.743Z" fill="#263238"/>
<path d="M140.987 50.9649C140.98 50.5631 141.092 50.1681 141.31 49.8304C141.528 49.4927 141.842 49.2275 142.211 49.0686C142.58 48.9098 142.988 48.8644 143.383 48.9383C143.778 49.0123 144.143 49.2021 144.429 49.4837C144.716 49.7653 144.913 50.1259 144.994 50.5196C145.075 50.9133 145.037 51.3222 144.885 51.6942C144.733 52.0663 144.474 52.3847 144.14 52.6088C143.806 52.8329 143.413 52.9526 143.011 52.9527C142.746 52.9645 142.48 52.9215 142.232 52.8263C141.983 52.731 141.757 52.5857 141.567 52.3992C141.377 52.2127 141.227 51.9891 141.128 51.7424C141.028 51.4956 140.98 51.231 140.987 50.9649ZM144.32 50.9649C144.308 50.709 144.221 50.4622 144.071 50.2552C143.92 50.0481 143.711 49.8899 143.471 49.8002C143.231 49.7104 142.97 49.6931 142.721 49.7503C142.471 49.8075 142.243 49.9367 142.066 50.122C141.889 50.3072 141.771 50.5403 141.725 50.7924C141.679 51.0445 141.709 51.3045 141.809 51.5401C141.91 51.7757 142.077 51.9766 142.291 52.1179C142.505 52.2592 142.755 52.3347 143.011 52.3349C143.19 52.3397 143.367 52.307 143.532 52.239C143.697 52.171 143.846 52.0692 143.97 51.9401C144.093 51.8111 144.188 51.6576 144.248 51.4897C144.309 51.3217 144.333 51.143 144.32 50.9649Z" fill="#263238"/>
<path d="M148.1 48.9769V49.6619H147.935C147.764 49.6503 147.593 49.677 147.433 49.74C147.273 49.8029 147.13 49.9006 147.013 50.0259C146.896 50.1512 146.808 50.301 146.756 50.4644C146.704 50.6278 146.689 50.8008 146.712 50.9707V52.9095H145.984V49.0197H146.657V49.6741C146.806 49.4326 147.021 49.2387 147.277 49.1152C147.533 48.9917 147.818 48.9437 148.1 48.9769Z" fill="#263238"/>
<path d="M152.596 47.4601V52.9034H151.923V52.2918C151.763 52.5066 151.553 52.6791 151.311 52.7942C151.069 52.9093 150.802 52.9636 150.534 52.9523C150.027 52.9242 149.55 52.7028 149.201 52.3337C148.852 51.9646 148.657 51.4758 148.657 50.9677C148.657 50.4596 148.852 49.9708 149.201 49.6017C149.55 49.2326 150.027 49.0112 150.534 48.983C150.793 48.9725 151.05 49.0222 151.286 49.1284C151.521 49.2346 151.729 49.3942 151.892 49.5946V47.454L152.596 47.4601ZM151.898 50.9646C151.886 50.7084 151.799 50.4614 151.648 50.2543C151.497 50.0471 151.288 49.8889 151.048 49.7993C150.808 49.7098 150.546 49.6928 150.297 49.7505C150.047 49.8082 149.819 49.938 149.642 50.1239C149.466 50.3097 149.348 50.5434 149.302 50.7959C149.257 51.0483 149.288 51.3085 149.389 51.544C149.491 51.7795 149.659 51.98 149.874 52.1205C150.088 52.2611 150.339 52.3355 150.596 52.3346C150.774 52.3385 150.95 52.3052 151.115 52.2368C151.279 52.1684 151.427 52.0665 151.55 51.9375C151.672 51.8085 151.767 51.6554 151.827 51.4879C151.887 51.3203 151.911 51.1421 151.898 50.9646Z" fill="#263238"/>
</g>
<path d="M163.806 99.3804H83.7834V113.08H163.806V99.3804Z" fill="white"/>
<g opacity="0.4">
<path d="M91.4466 103.997V107.923H91.1041L88.5781 104.737V107.923H88.1622V103.997H88.4925L91.0246 107.183V103.997H91.4466Z" fill="#263238"/>
<path d="M95.22 106.571H92.7736C92.7813 106.715 92.8177 106.856 92.8805 106.986C92.9433 107.116 93.0314 107.232 93.1395 107.328C93.2476 107.423 93.3737 107.496 93.5104 107.543C93.6471 107.589 93.7916 107.608 93.9356 107.598C94.1045 107.604 94.2726 107.572 94.4279 107.505C94.5833 107.439 94.7221 107.339 94.8347 107.213L95.061 107.47C94.849 107.691 94.5766 107.845 94.2776 107.913C93.9787 107.98 93.6665 107.958 93.38 107.849C93.0936 107.74 92.8456 107.549 92.6671 107.3C92.4885 107.051 92.3873 106.755 92.376 106.448C92.3651 106.254 92.3943 106.059 92.4619 105.877C92.5294 105.694 92.6339 105.527 92.7687 105.387C92.9035 105.246 93.0658 105.135 93.2456 105.06C93.4253 104.984 93.6185 104.947 93.8133 104.95C94.0081 104.946 94.2015 104.983 94.3813 105.058C94.5612 105.133 94.7235 105.244 94.858 105.385C94.9926 105.526 95.0964 105.693 95.1629 105.876C95.2294 106.059 95.2572 106.254 95.2445 106.448C95.22 106.485 95.22 106.528 95.22 106.571ZM92.7736 106.277H94.8653C94.8653 106 94.7551 105.734 94.5589 105.538C94.3628 105.342 94.0968 105.231 93.8194 105.231C93.542 105.231 93.276 105.342 93.0799 105.538C92.8838 105.734 92.7736 106 92.7736 106.277Z" fill="#263238"/>
<path d="M100.303 104.976L99.1895 107.924H98.8103L97.8807 105.508L96.9511 107.924H96.5719L95.4648 104.976H95.8318L96.7553 107.484L97.7033 104.976H98.0458L98.9877 107.484L99.9235 104.976H100.303Z" fill="#263238"/>
<path d="M105.532 105.342C105.532 106.18 104.92 106.688 103.93 106.688H102.871V107.911H102.456V103.984H103.93C104.926 103.997 105.532 104.504 105.532 105.342ZM105.116 105.342C105.116 104.731 104.7 104.357 103.893 104.357H102.847V106.321H103.893C104.7 106.321 105.116 105.96 105.116 105.342Z" fill="#263238"/>
<path d="M108.541 106.095V107.93H108.162V107.471C108.052 107.637 107.9 107.769 107.722 107.856C107.543 107.942 107.344 107.978 107.147 107.96C106.48 107.96 106.07 107.612 106.07 107.104C106.07 106.597 106.364 106.266 107.208 106.266H108.144V106.089C108.154 105.979 108.14 105.868 108.101 105.765C108.062 105.662 108 105.569 107.92 105.493C107.84 105.418 107.743 105.361 107.638 105.329C107.532 105.297 107.421 105.289 107.312 105.306C106.952 105.3 106.603 105.424 106.327 105.655L106.15 105.355C106.498 105.082 106.931 104.941 107.373 104.957C107.528 104.938 107.686 104.955 107.834 105.005C107.982 105.055 108.118 105.137 108.23 105.246C108.342 105.355 108.428 105.488 108.482 105.635C108.536 105.782 108.556 105.939 108.541 106.095ZM108.144 107.037V106.554H107.22C106.645 106.554 106.462 106.78 106.462 107.086C106.462 107.392 106.737 107.642 107.208 107.642C107.408 107.654 107.607 107.602 107.775 107.493C107.943 107.384 108.072 107.224 108.144 107.037Z" fill="#263238"/>
<path d="M109.214 107.586L109.397 107.274C109.702 107.492 110.068 107.607 110.443 107.604C111.006 107.604 111.238 107.415 111.238 107.121C111.238 106.35 109.324 106.962 109.324 105.794C109.324 105.311 109.74 104.95 110.492 104.95C110.857 104.946 111.216 105.041 111.532 105.225L111.36 105.543C111.102 105.375 110.8 105.287 110.492 105.292C109.954 105.292 109.721 105.5 109.721 105.782C109.721 106.577 111.636 105.977 111.636 107.109C111.636 107.623 111.183 107.953 110.412 107.953C109.984 107.963 109.563 107.834 109.214 107.586Z" fill="#263238"/>
<path d="M111.96 107.586L112.137 107.274C112.446 107.489 112.813 107.605 113.189 107.604C113.746 107.604 113.978 107.415 113.978 107.121C113.978 106.35 112.064 106.962 112.064 105.794C112.064 105.311 112.48 104.95 113.232 104.95C113.599 104.947 113.96 105.042 114.278 105.225L114.101 105.543C113.843 105.373 113.54 105.286 113.232 105.292C112.7 105.292 112.461 105.5 112.461 105.782C112.461 106.577 114.376 105.977 114.376 107.109C114.376 107.623 113.929 107.953 113.153 107.953C112.726 107.964 112.307 107.835 111.96 107.586Z" fill="#263238"/>
<path d="M119.385 104.976L118.272 107.924H117.893L116.963 105.508L116.015 107.924H115.636L114.529 104.976H114.908L115.832 107.484L116.78 104.976H117.122L118.064 107.484L119 104.976H119.385Z" fill="#263238"/>
<path d="M119.605 106.449C119.606 106.153 119.695 105.864 119.86 105.619C120.025 105.373 120.259 105.182 120.533 105.07C120.806 104.957 121.107 104.928 121.397 104.986C121.687 105.044 121.954 105.186 122.163 105.396C122.372 105.605 122.515 105.871 122.573 106.161C122.631 106.451 122.602 106.752 122.489 107.026C122.376 107.299 122.185 107.533 121.94 107.699C121.694 107.864 121.405 107.952 121.11 107.954C120.91 107.961 120.711 107.928 120.525 107.855C120.339 107.782 120.17 107.671 120.028 107.53C119.887 107.389 119.777 107.22 119.704 107.034C119.631 106.848 119.597 106.649 119.605 106.449ZM122.198 106.449C122.187 106.235 122.114 106.029 121.987 105.856C121.86 105.683 121.685 105.552 121.484 105.477C121.283 105.403 121.065 105.389 120.856 105.438C120.647 105.487 120.457 105.596 120.31 105.751C120.162 105.907 120.064 106.103 120.027 106.314C119.989 106.525 120.015 106.742 120.1 106.939C120.185 107.136 120.326 107.303 120.506 107.421C120.685 107.538 120.895 107.6 121.11 107.599C121.258 107.601 121.406 107.572 121.543 107.514C121.68 107.456 121.804 107.371 121.906 107.263C122.008 107.155 122.087 107.027 122.137 106.887C122.188 106.746 122.208 106.598 122.198 106.449Z" fill="#263238"/>
<path d="M124.907 104.95V105.342H124.81C124.669 105.334 124.529 105.357 124.399 105.41C124.269 105.463 124.153 105.545 124.058 105.648C123.963 105.752 123.892 105.875 123.851 106.009C123.81 106.144 123.799 106.285 123.819 106.424V107.929H123.415V104.981H123.8V105.556C123.902 105.355 124.062 105.189 124.26 105.081C124.458 104.973 124.683 104.927 124.907 104.95Z" fill="#263238"/>
<path d="M128.284 103.764V107.923H127.904V107.342C127.787 107.536 127.619 107.695 127.419 107.803C127.219 107.91 126.994 107.962 126.767 107.954C126.385 107.929 126.027 107.76 125.765 107.481C125.504 107.203 125.358 106.834 125.358 106.452C125.358 106.07 125.504 105.702 125.765 105.423C126.027 105.144 126.385 104.975 126.767 104.951C126.991 104.946 127.212 104.999 127.408 105.107C127.605 105.214 127.769 105.371 127.886 105.562V103.788L128.284 103.764ZM127.892 106.449C127.881 106.235 127.808 106.029 127.682 105.856C127.555 105.684 127.38 105.552 127.18 105.478C126.979 105.403 126.761 105.389 126.552 105.437C126.343 105.486 126.154 105.594 126.006 105.749C125.858 105.904 125.759 106.099 125.721 106.31C125.683 106.521 125.708 106.738 125.792 106.935C125.877 107.132 126.017 107.299 126.195 107.417C126.374 107.535 126.583 107.599 126.797 107.599C126.947 107.602 127.095 107.574 127.233 107.516C127.371 107.459 127.495 107.373 127.598 107.265C127.701 107.157 127.78 107.028 127.831 106.888C127.882 106.747 127.902 106.598 127.892 106.449Z" fill="#263238"/>
</g>
<path d="M163.806 68.4263H83.7834V82.1263H163.806V68.4263Z" fill="white"/>
<g opacity="0.4">
<path d="M87.8199 75.008C87.8065 74.5978 87.916 74.1929 88.1341 73.8452C88.3523 73.4975 88.6693 73.2229 89.0446 73.0565C89.4198 72.8902 89.8362 72.8396 90.2403 72.9114C90.6445 72.9832 91.018 73.174 91.313 73.4594C91.6081 73.7447 91.8111 74.1117 91.8963 74.5133C91.9814 74.9148 91.9447 75.3326 91.7909 75.7132C91.6371 76.0937 91.3731 76.4197 91.0329 76.6493C90.6926 76.8789 90.2915 77.0017 89.8811 77.0019C89.613 77.0135 89.3453 76.9704 89.0944 76.8752C88.8435 76.78 88.6147 76.6347 88.4218 76.4481C88.229 76.2615 88.0761 76.0376 87.9726 75.79C87.8692 75.5424 87.8172 75.2764 87.8199 75.008ZM91.5263 75.008C91.5312 74.6802 91.4383 74.3583 91.2595 74.0834C91.0808 73.8085 90.8243 73.593 90.5226 73.4645C90.221 73.3359 89.8879 73.3 89.5658 73.3615C89.2437 73.4229 88.9472 73.5788 88.714 73.8094C88.4809 74.0399 88.3216 74.3347 88.2566 74.6561C88.1916 74.9774 88.2237 75.3109 88.3489 75.614C88.474 75.9171 88.6866 76.176 88.9595 76.3578C89.2324 76.5396 89.5532 76.6361 89.8811 76.6349C90.0996 76.6459 90.3181 76.6117 90.5228 76.5344C90.7275 76.4571 90.9141 76.3384 91.0708 76.1857C91.2275 76.033 91.351 75.8496 91.4336 75.6469C91.5162 75.4443 91.5561 75.2268 91.5508 75.008H91.5263Z" fill="#263238"/>
<path d="M92.7739 72.8062H93.1715V76.9712H92.7739V72.8062Z" fill="#263238"/>
<path d="M96.988 72.8062V76.9712H96.6088V76.3596C96.4901 76.5529 96.3223 76.7114 96.1225 76.8188C95.9227 76.9262 95.698 76.9788 95.4712 76.9712C95.0738 76.9712 94.6927 76.8133 94.4117 76.5323C94.1306 76.2513 93.9728 75.8702 93.9728 75.4728C93.9728 75.0754 94.1306 74.6942 94.4117 74.4132C94.6927 74.1322 95.0738 73.9743 95.4712 73.9743C95.6949 73.97 95.9158 74.0241 96.1121 74.1314C96.3084 74.2386 96.4733 74.3953 96.5905 74.5859V72.8123L96.988 72.8062ZM96.5966 75.4911C96.587 75.2755 96.5142 75.0674 96.3873 74.8928C96.2604 74.7182 96.0849 74.5847 95.8827 74.509C95.6806 74.4333 95.4606 74.4188 95.2502 74.4671C95.0399 74.5155 94.8483 74.6246 94.6995 74.7809C94.5506 74.9373 94.451 75.1339 94.413 75.3464C94.3751 75.5589 94.4004 75.7779 94.4859 75.9761C94.5714 76.1743 94.7133 76.343 94.8939 76.4612C95.0745 76.5794 95.2859 76.6419 95.5018 76.6409C95.6508 76.6429 95.7987 76.6141 95.936 76.5563C96.0734 76.4985 96.1974 76.4129 96.3001 76.305C96.4029 76.197 96.4823 76.069 96.5333 75.929C96.5843 75.7889 96.6059 75.6399 96.5966 75.4911Z" fill="#263238"/>
<path d="M102.725 74.3913C102.725 75.2231 102.113 75.7307 101.123 75.7307H100.071V76.954H99.6547V73.0458H101.123C102.119 73.0458 102.725 73.5473 102.725 74.3913ZM102.309 74.3913C102.309 73.7797 101.893 73.4005 101.086 73.4005H100.046V75.3638H101.086C101.893 75.3638 102.309 75.009 102.309 74.3913Z" fill="#263238"/>
<path d="M105.74 75.1423V76.9771H105.355V76.5123C105.245 76.6778 105.093 76.8106 104.914 76.8967C104.736 76.9828 104.537 77.0191 104.339 77.0016C103.673 77.0016 103.263 76.653 103.263 76.1453C103.263 75.6377 103.557 75.3074 104.401 75.3074H105.342V75.1301C105.342 74.6224 105.055 74.3472 104.505 74.3472C104.145 74.3432 103.796 74.4667 103.52 74.6958L103.342 74.4023C103.689 74.1265 104.123 73.9853 104.566 74.0047C104.721 73.9859 104.879 74.002 105.028 74.052C105.176 74.1019 105.312 74.1844 105.424 74.2935C105.537 74.4025 105.623 74.5353 105.678 74.6821C105.733 74.829 105.754 74.9862 105.74 75.1423ZM105.342 76.0842V75.601H104.394C103.826 75.601 103.636 75.8273 103.636 76.127C103.636 76.4267 103.911 76.6835 104.382 76.6835C104.585 76.7002 104.789 76.6509 104.962 76.5429C105.135 76.4349 105.268 76.2741 105.342 76.0842Z" fill="#263238"/>
<path d="M106.413 76.6544L106.59 76.3363C106.897 76.5558 107.265 76.6715 107.642 76.6666C108.199 76.6666 108.431 76.477 108.431 76.1896C108.431 75.4189 106.517 76.0244 106.517 74.8562C106.517 74.3731 106.933 74.0183 107.685 74.0183C108.052 74.0123 108.414 74.1075 108.731 74.2936L108.554 74.6116C108.296 74.4417 107.993 74.3542 107.685 74.3608C107.153 74.3608 106.914 74.5627 106.914 74.844C106.914 75.6452 108.829 75.0397 108.829 76.1773C108.829 76.685 108.382 77.0152 107.606 77.0152C107.179 77.0281 106.761 76.9014 106.413 76.6544Z" fill="#263238"/>
<path d="M109.153 76.6529L109.336 76.3348C109.64 76.5554 110.007 76.6713 110.382 76.6651C110.945 76.6651 111.171 76.4755 111.171 76.188C111.171 75.4174 109.263 76.0229 109.263 74.8547C109.263 74.3716 109.679 74.0168 110.425 74.0168C110.793 74.0088 111.155 74.1042 111.471 74.292L111.3 74.6101C111.04 74.4407 110.735 74.3534 110.425 74.3593C109.893 74.3593 109.661 74.5611 109.661 74.8425C109.661 75.6437 111.575 75.0382 111.575 76.1758C111.575 76.6834 111.122 77.0137 110.352 77.0137C109.924 77.0257 109.503 76.8991 109.153 76.6529Z" fill="#263238"/>
<path d="M116.578 74.0181L115.465 76.9721H115.091L114.156 74.5257L113.226 76.9721H112.853L111.734 74.0181H112.113L113.043 76.5257L113.991 74.0181H114.333L115.275 76.5257L116.211 74.0181H116.578Z" fill="#263238"/>
<path d="M116.798 75.4911C116.798 75.1936 116.886 74.9027 117.052 74.6552C117.217 74.4078 117.452 74.215 117.727 74.1011C118.002 73.9872 118.304 73.9574 118.596 74.0155C118.888 74.0735 119.156 74.2168 119.367 74.4272C119.577 74.6377 119.72 74.9057 119.778 75.1976C119.836 75.4895 119.807 75.792 119.693 76.0669C119.579 76.3418 119.386 76.5768 119.139 76.7421C118.891 76.9074 118.6 76.9957 118.303 76.9957C118.103 77.0034 117.904 76.9698 117.718 76.8969C117.532 76.8241 117.363 76.7135 117.222 76.5722C117.08 76.4309 116.97 76.262 116.897 76.0759C116.824 75.8899 116.79 75.6908 116.798 75.4911ZM119.397 75.4911C119.388 75.2755 119.315 75.0674 119.188 74.8928C119.061 74.7182 118.886 74.5847 118.684 74.509C118.481 74.4334 118.261 74.4188 118.051 74.4671C117.841 74.5155 117.649 74.6246 117.5 74.7809C117.351 74.9373 117.252 75.1339 117.214 75.3464C117.176 75.5589 117.201 75.7779 117.287 75.9761C117.372 76.1743 117.514 76.343 117.695 76.4612C117.875 76.5794 118.087 76.6419 118.303 76.641C118.452 76.6438 118.6 76.6156 118.738 76.5582C118.876 76.5007 119 76.4151 119.103 76.307C119.206 76.1989 119.285 76.0705 119.336 75.93C119.387 75.7896 119.408 75.6401 119.397 75.4911Z" fill="#263238"/>
<path d="M122.131 73.9991V74.3844H122.033C121.893 74.3775 121.753 74.4018 121.623 74.4556C121.493 74.5093 121.376 74.5911 121.281 74.6952C121.187 74.7992 121.116 74.9229 121.075 75.0574C121.034 75.1918 121.023 75.3338 121.043 75.473V76.9776H120.645V74.0235H121.024V74.6045C121.127 74.404 121.287 74.239 121.484 74.1309C121.682 74.0229 121.907 73.977 122.131 73.9991Z" fill="#263238"/>
<path d="M125.483 72.8062V76.9712H125.104V76.3596C124.984 76.5534 124.815 76.7121 124.614 76.8195C124.413 76.9269 124.188 76.9793 123.96 76.9712C123.563 76.9712 123.181 76.8133 122.9 76.5323C122.619 76.2513 122.462 75.8702 122.462 75.4728C122.462 75.0754 122.619 74.6942 122.9 74.4132C123.181 74.1322 123.563 73.9743 123.96 73.9743C124.184 73.9707 124.406 74.0251 124.603 74.1323C124.8 74.2394 124.966 74.3957 125.085 74.5859V72.8123L125.483 72.8062ZM125.091 75.4911C125.082 75.2755 125.009 75.0674 124.882 74.8928C124.755 74.7182 124.58 74.5847 124.378 74.509C124.175 74.4333 123.955 74.4188 123.745 74.4671C123.535 74.5155 123.343 74.6246 123.194 74.7809C123.045 74.9373 122.946 75.1339 122.908 75.3464C122.87 75.5589 122.895 75.7779 122.981 75.9761C123.066 76.1743 123.208 76.343 123.389 76.4612C123.569 76.5794 123.781 76.6419 123.997 76.6409C124.146 76.6429 124.294 76.6141 124.431 76.5563C124.568 76.4985 124.692 76.4129 124.795 76.305C124.898 76.197 124.977 76.069 125.028 75.929C125.079 75.7889 125.101 75.6399 125.091 75.4911Z" fill="#263238"/>
</g>
<path d="M196.479 180.132C196.479 180.132 192.699 180.633 191.084 180.132C189.469 179.63 190.075 172.303 188.43 172.15C184.632 171.802 185.28 181.532 186.895 183.581C188.509 185.63 196.821 184.762 196.821 184.762L196.479 180.132Z" fill="#225A4B"/>
<path opacity="0.2" d="M196.479 180.132C196.479 180.132 192.699 180.633 191.084 180.132C189.469 179.63 190.075 172.303 188.43 172.15C184.632 171.802 185.28 181.532 186.895 183.581C188.509 185.63 196.821 184.762 196.821 184.762L196.479 180.132Z" fill="white"/>
<path d="M196.79 197.385C196.79 197.385 191.194 147.698 197.873 147.129C204.552 146.56 206.166 164.077 203.585 196.755L196.79 197.385Z" fill="#225A4B"/>
<path opacity="0.3" d="M196.79 197.385C196.79 197.385 191.194 147.698 197.873 147.129C204.552 146.56 206.166 164.077 203.585 196.755L196.79 197.385Z" fill="white"/>
<path d="M188.944 191.373H210.919L209.084 205.428H190.779L188.944 191.373Z" fill="#263238"/>
<path d="M203.426 163.416C203.426 163.416 209.542 163.74 209.695 163.416C209.848 163.092 209.879 156.076 212.46 156.474C215.041 156.871 213.909 165.354 212.46 166.339C211.01 167.324 203.426 167.856 203.426 167.856C203.426 167.856 202.411 164.725 203.426 163.416Z" fill="#225A4B"/>
<path opacity="0.4" d="M203.426 163.416C203.426 163.416 209.542 163.74 209.695 163.416C209.848 163.092 209.879 156.076 212.46 156.474C215.041 156.871 213.909 165.354 212.46 166.339C211.01 167.324 203.426 167.856 203.426 167.856C203.426 167.856 202.411 164.725 203.426 163.416Z" fill="white"/>
<path d="M199.567 192.859C198.215 179.606 196.748 166.285 197.084 152.946C197.182 151.924 197.249 146.922 198.949 147.686C199.168 147.868 199.334 148.104 199.433 148.371C199.953 149.98 200.281 151.645 200.411 153.331C201.696 166.615 201.598 179.985 201.53 193.312C201.28 179.997 201.261 166.64 199.959 153.386C199.787 151.765 198.809 144.652 197.812 150.151C197.484 152.976 197.363 155.822 197.451 158.664C197.677 170.083 198.601 181.477 199.567 192.859Z" fill="#225A4B"/>
<path d="M204.191 165.085C205.977 164.913 209.157 164.803 210.686 164.406C210.686 162.308 211.426 159.458 212.179 157.225C211.965 158.222 211.757 159.672 211.567 160.718C211.325 161.977 211.178 163.253 211.127 164.534C211.029 164.834 210.656 164.889 210.417 164.95C208.347 165.23 206.253 165.275 204.173 165.085H204.191Z" fill="#225A4B"/>
<path d="M204.191 166.707C206.741 166.236 209.585 166.052 212.087 165.453C212.735 164.425 212.699 162.976 212.882 161.783C213.029 160.45 213.139 159.11 213.267 157.771C213.338 159.118 213.338 160.467 213.267 161.814C213.244 163.016 213.059 164.209 212.717 165.361C212.646 165.579 212.501 165.765 212.307 165.887C209.639 166.411 206.928 166.685 204.209 166.707H204.191Z" fill="#225A4B"/>
<path d="M194.595 181.49C192.833 181.526 191.011 181.612 189.304 181.025C188.883 180.655 188.617 180.139 188.558 179.581C188.339 178.469 188.229 177.339 188.228 176.205C188.202 175.081 188.241 173.956 188.344 172.835C188.43 173.955 188.497 175.074 188.595 176.187C188.669 177.292 188.812 178.391 189.023 179.478C189.151 179.979 189.274 180.609 189.684 180.701C191.29 181.103 192.926 181.371 194.576 181.502L194.595 181.49Z" fill="#225A4B"/>
<path d="M187.219 173.722L187.616 177.63C187.861 179.337 187.818 181.196 188.497 182.774C188.604 182.854 188.721 182.92 188.846 182.97C190.68 183.581 192.68 183.624 194.595 183.85C193.282 183.919 191.965 183.892 190.656 183.771C189.751 183.618 188.21 183.649 187.898 182.548C187.139 179.667 187.182 176.652 187.219 173.698V173.722Z" fill="#225A4B"/>
<path d="M173.506 35.4126C175.414 32.0889 178.562 29.658 182.26 28.6535C185.958 27.649 189.904 28.153 193.231 30.0549L192.619 31.0885L196.717 29.9754L195.604 25.8776L194.992 26.9051C191.279 24.7772 186.932 24.0354 182.723 24.8117C178.514 25.588 174.718 27.8322 172.008 31.1449C169.299 34.4576 167.852 38.624 167.926 42.903C168 47.1819 169.589 51.296 172.412 54.5132L175.139 52.1218C173.16 49.8539 171.939 47.0244 171.646 44.0288C171.354 41.0331 172.004 38.0208 173.506 35.4126Z" fill="#263238"/>
<path d="M199.806 30.8983L197.054 33.2285C199.254 35.8216 200.47 39.1077 200.487 42.5088C200.504 45.9098 199.321 49.2079 197.146 51.8227C194.971 54.4374 191.944 56.2014 188.596 56.8041C185.249 57.4069 181.796 56.8098 178.846 55.118L179.458 54.0844L175.341 55.2465L176.455 59.3442L177.066 58.3106C180.76 60.4119 185.076 61.1453 189.256 60.3823C193.437 59.6192 197.215 57.4084 199.928 54.1377C202.641 50.867 204.116 46.7453 204.094 42.4957C204.071 38.2462 202.553 34.1403 199.806 30.8983Z" fill="#263238"/>
<g opacity="0.6">
<path d="M173.507 35.4124C175.414 32.0887 178.562 29.6578 182.26 28.6532C185.958 27.6487 189.904 28.1528 193.231 30.0547L192.619 31.0883L196.717 29.9752L195.604 25.8774L194.992 26.9049C191.279 24.7769 186.932 24.0351 182.723 24.8115C178.515 25.5878 174.718 27.8319 172.008 31.1446C169.299 34.4573 167.852 38.6238 167.926 42.9027C168 47.1817 169.59 51.2957 172.412 54.5129L175.14 52.1215C173.161 49.8536 171.939 47.0242 171.647 44.0285C171.354 41.0328 172.004 38.0205 173.507 35.4124Z" fill="white"/>
<path d="M199.806 30.8983L197.053 33.2285C199.254 35.8216 200.47 39.1077 200.487 42.5088C200.504 45.9098 199.321 49.2079 197.146 51.8227C194.971 54.4374 191.943 56.2014 188.596 56.8041C185.249 57.4069 181.796 56.8098 178.846 55.118L179.457 54.0844L175.341 55.2465L176.454 59.3442L177.066 58.3106C180.76 60.4119 185.075 61.1453 189.256 60.3823C193.437 59.6192 197.215 57.4084 199.928 54.1377C202.641 50.867 204.116 46.7453 204.094 42.4957C204.071 38.2462 202.553 34.1403 199.806 30.8983Z" fill="white"/>
</g>
<path d="M183.427 25.4552H179.439V13.223C179.439 10.9732 178.545 8.8155 176.955 7.22463C175.364 5.63375 173.206 4.74001 170.956 4.74001C168.706 4.74001 166.549 5.63375 164.958 7.22463C163.367 8.8155 162.473 10.9732 162.473 13.223V25.4552H158.485V13.223C158.485 9.91559 159.799 6.74362 162.138 4.4049C164.477 2.06619 167.649 0.752319 170.956 0.752319C174.264 0.752319 177.436 2.06619 179.774 4.4049C182.113 6.74362 183.427 9.91559 183.427 13.223V25.4552Z" fill="#263238"/>
<g opacity="0.3">
<path d="M183.427 25.4556H179.439V13.2234C179.439 10.9736 178.545 8.81587 176.954 7.22499C175.363 5.63412 173.206 4.74037 170.956 4.74037C168.706 4.74037 166.548 5.63412 164.957 7.22499C163.367 8.81587 162.473 10.9736 162.473 13.2234V25.4556H158.485V13.2234C158.485 9.91595 159.799 6.74398 162.138 4.40527C164.476 2.06656 167.648 0.752686 170.956 0.752686C174.263 0.752686 177.435 2.06656 179.774 4.40527C182.113 6.74398 183.427 9.91595 183.427 13.2234V25.4556Z" fill="white"/>
</g>
<path d="M187.995 22.3432V42.3612C187.995 42.6664 187.935 42.9686 187.819 43.2506C187.702 43.5325 187.531 43.7888 187.315 44.0046C187.099 44.2204 186.843 44.3916 186.561 44.5084C186.279 44.6252 185.977 44.6853 185.671 44.6853H156.229C155.924 44.6845 155.623 44.6237 155.342 44.5065C155.061 44.3893 154.806 44.2179 154.591 44.002C154.377 43.7862 154.206 43.5302 154.091 43.2487C153.975 42.9672 153.916 42.6656 153.917 42.3612V22.3432C153.916 22.0388 153.975 21.7372 154.091 21.4557C154.206 21.1741 154.377 20.9182 154.591 20.7023C154.806 20.4865 155.061 20.3151 155.342 20.1979C155.623 20.0807 155.924 20.0199 156.229 20.0191H185.671C186.056 20.0164 186.436 20.1133 186.772 20.3004C187.143 20.4974 187.452 20.7918 187.668 21.1517C187.884 21.5117 187.997 21.9236 187.995 22.3432Z" fill="#B98F05"/>
<path opacity="0.2" d="M186.772 20.3004V39.9147C186.772 40.2197 186.712 40.5216 186.595 40.8032C186.478 41.0848 186.307 41.3407 186.091 41.556C185.875 41.7713 185.619 41.9419 185.337 42.058C185.055 42.1742 184.753 42.2335 184.448 42.2327H155.005C154.625 42.2339 154.251 42.1393 153.917 41.9575V22.3432C153.916 22.0388 153.975 21.7372 154.091 21.4557C154.206 21.1741 154.377 20.9182 154.591 20.7023C154.806 20.4865 155.061 20.3151 155.342 20.1979C155.623 20.0807 155.924 20.0199 156.229 20.0191H185.671C186.056 20.0164 186.436 20.1133 186.772 20.3004Z" fill="white"/>
<path opacity="0.5" d="M175.341 29.8413C175.33 29.0431 175.101 28.263 174.679 27.5853C174.258 26.9076 173.659 26.3578 172.948 25.9954C172.236 25.6329 171.44 25.4715 170.643 25.5285C169.847 25.5856 169.081 25.8588 168.429 26.3189C167.777 26.779 167.262 27.4085 166.941 28.1394C166.62 28.8704 166.505 29.675 166.608 30.4667C166.71 31.2584 167.027 32.007 167.524 32.6318C168.021 33.2567 168.679 33.734 169.427 34.0124L169.225 39.3457H172.73L172.21 34.1164C173.122 33.8342 173.918 33.2662 174.482 32.4963C175.046 31.7264 175.347 30.7956 175.341 29.8413Z" fill="black"/>
<path d="M30.6162 35.4126L32.6468 41.9385L34.6712 35.4126H30.6162Z" fill="#225A4B"/>
<path d="M49.2458 19.8219H16.0416C13.14 19.8219 10.7878 22.1741 10.7878 25.0756V32.1519C10.7878 35.0535 13.14 37.4057 16.0416 37.4057H49.2458C52.1474 37.4057 54.4995 35.0535 54.4995 32.1519V25.0756C54.4995 22.1741 52.1474 19.8219 49.2458 19.8219Z" fill="#225A4B"/>
<path d="M21.0629 28.6048L22.2127 29.2531L21.913 29.7791L20.7449 29.0941V30.409H20.1333V29.0941L18.9651 29.7791L18.6654 29.2531L19.8275 28.6048L18.6654 27.9932L18.9651 27.4549L20.1333 28.1399V26.8066H20.7449V28.1094L21.913 27.4244L22.2127 27.9626L21.0629 28.6048Z" fill="white"/>
<path d="M25.1239 28.6048L26.2737 29.2531L25.974 29.7791L24.8059 29.0941V30.409H24.2309V29.0941L23.0505 29.7791L22.7509 29.2531L23.9129 28.6048L22.7509 27.9932L23.0505 27.4549L24.2187 28.1399V26.8066H24.7936V28.1094L25.9618 27.4244L26.2615 27.9626L25.1239 28.6048Z" fill="white"/>
<path d="M29.1668 28.6057L30.3166 29.254L30.0169 29.78L28.8488 29.095V30.4099H28.2371V29.095L27.069 29.78L26.7693 29.254L27.9252 28.6057L26.7693 27.9941L27.069 27.4559L28.2371 28.1409V26.8381H28.8488V28.1409L30.0169 27.4559L30.3166 27.9941L29.1668 28.6057Z" fill="white"/>
<path d="M33.2461 28.6057L34.3959 29.254L34.0962 29.78L32.928 29.095V30.4099H32.347V29.095L31.1788 29.78L30.8792 29.254L32.0351 28.6057L30.8792 27.9941L31.1788 27.4559L32.347 28.1409V26.8381H32.928V28.1409L34.0962 27.4559L34.3959 27.9941L33.2461 28.6057Z" fill="white"/>
<path d="M37.3072 28.6057L38.457 29.254L38.1573 29.78L36.983 29.095V30.4099H36.3714V29.095L35.2827 29.78L34.9769 29.254L36.139 28.6057L34.9769 27.9941L35.2827 27.4559L36.4509 28.1409V26.8381H37.0625V28.1409L38.2368 27.4559L38.5365 27.9941L37.3072 28.6057Z" fill="white"/>
<path d="M41.3622 28.6057L42.5181 29.254L42.2184 29.78L41.0441 29.095V30.4099H40.4631V29.095L39.2888 29.78L38.9891 29.254L40.1512 28.6057L38.9891 27.9941L39.2888 27.4559L40.4631 28.1409V26.8381H41.0441V28.1409L42.2184 27.4559L42.5181 27.9941L41.3622 28.6057Z" fill="white"/>
<path d="M45.4231 28.6048L46.573 29.2531L46.2733 29.7791L45.1051 29.0941V30.409H44.4935V29.0941L43.3253 29.7791L43.0256 29.2531L44.1877 28.6048L43.0256 27.9932L43.3253 27.4549L44.4935 28.1399V26.8066H45.1051V28.1094L46.2733 27.4244L46.573 27.9626L45.4231 28.6048Z" fill="white"/>
<path d="M59.1783 80.9784L62.9091 78.5626L58.7074 75.9816C58.7074 75.9816 55.5087 78.3363 56.7931 79.9326L59.1783 80.9784Z" fill="#B55B52"/>
<path d="M64.8236 74.5923L60.4567 73.6014L58.7075 75.9806L62.9093 78.5616L64.8236 74.5923Z" fill="#B55B52"/>
<path d="M43.8453 73.1381C46.2061 76.7099 48.573 81.0523 51.7962 83.8351C51.8574 83.884 51.8329 83.8351 51.5944 83.8351C51.472 83.8657 51.5332 83.9268 51.784 83.8351C52.5179 83.4168 53.1639 82.8601 53.6861 82.196C54.8822 80.7463 55.9465 79.1928 56.8664 77.5539C56.9092 77.4866 56.8664 77.5539 56.8664 77.6273C56.8509 77.7389 56.8509 77.8521 56.8664 77.9637C56.9215 78.0187 56.7258 77.8597 57.105 78.6976C57.2838 78.9649 57.5378 79.1733 57.835 79.2963C58.1322 79.4193 58.4592 79.4515 58.7747 79.3887C58.9766 79.3452 59.1673 79.2602 59.3347 79.1391C59.5021 79.018 59.6425 78.8635 59.7471 78.6854C59.6515 78.7982 59.5656 78.9189 59.4902 79.0462L56.7502 77.878C56.8166 77.489 56.976 77.1218 57.215 76.8077C57.4364 76.5587 57.7289 76.3836 58.0529 76.3062C58.3708 76.2439 58.7 76.2769 58.9992 76.4009C59.2983 76.525 59.5543 76.7346 59.7349 77.0034C60.1141 77.8475 59.9245 77.6884 59.9795 77.7496C59.9864 77.9448 59.9679 78.1401 59.9245 78.3306C58.9642 82.4101 56.4566 89.1316 51.258 89.1683C47.5883 88.832 44.8055 84.8014 42.7444 82.2572C41.2816 80.2983 39.9338 78.2562 38.7078 76.1411L43.8147 73.1442L43.8453 73.1381Z" fill="#B55B52"/>
<path d="M41.9617 70.4518C44.4081 71.2591 49.3683 82.5311 49.3683 82.5311L40.9403 86.531C40.9403 86.531 39.2278 77.6749 39.5642 74.8187C39.7751 73.1099 40.6332 71.547 41.9617 70.4518Z" fill="#225A4B"/>
<path opacity="0.7" d="M41.9617 70.4518C44.4081 71.2591 49.3683 82.5311 49.3683 82.5311L40.9403 86.531C40.9403 86.531 39.2278 77.6749 39.5642 74.8187C39.7751 73.1099 40.6332 71.547 41.9617 70.4518Z" fill="white"/>
<path d="M51.8696 201.134L47.5761 202.351L46.5547 195.666L46.0043 192.095L50.2978 190.877L51.0317 195.666L51.8696 201.134Z" fill="#B55B52"/>
<path d="M27.1852 201.483L22.7571 202.07L22.7143 195.667L22.6837 191.685L27.1179 191.11L27.1485 195.667L27.1852 201.483Z" fill="#B55B52"/>
<path opacity="0.2" d="M27.1179 191.11L27.1485 195.667H22.7143L22.6837 191.685L27.1179 191.11Z" fill="black"/>
<path opacity="0.2" d="M51.0317 195.666H46.5547L46.0043 192.095L50.2978 190.877L51.0317 195.666Z" fill="black"/>
<path d="M51.7962 200.462L46.9033 200.334C46.8144 200.331 46.7272 200.358 46.656 200.412C46.5849 200.465 46.534 200.541 46.5118 200.627L45.4905 204.554C45.4583 204.648 45.4499 204.749 45.4659 204.848C45.4818 204.947 45.5218 205.04 45.5821 205.12C45.6425 205.199 45.7214 205.263 45.812 205.305C45.9027 205.347 46.0023 205.366 46.1021 205.361C47.8635 205.361 50.3833 205.361 52.6157 205.404C55.2028 205.477 56.848 205.349 59.8816 205.404C61.7164 205.453 62.2852 203.624 61.5268 203.434C58.059 202.578 55.7961 202.749 52.842 200.817C52.5326 200.605 52.1707 200.482 51.7962 200.462Z" fill="#263238"/>
<path d="M52.1693 201.005C52.1656 200.984 52.1689 200.961 52.1788 200.941C52.1887 200.921 52.2047 200.905 52.2244 200.895C52.4323 200.797 54.261 199.935 54.7931 200.253C54.8436 200.282 54.8854 200.324 54.9144 200.375C54.9434 200.425 54.9585 200.482 54.9583 200.54C54.9641 200.636 54.9471 200.732 54.9089 200.821C54.8706 200.909 54.8121 200.987 54.7381 201.048C54.2366 201.464 52.9644 201.256 52.2489 201.091C52.2282 201.087 52.2092 201.077 52.1949 201.061C52.1806 201.046 52.1716 201.026 52.1693 201.005ZM52.6036 200.956C53.5883 201.146 54.3222 201.122 54.6035 200.883C54.6533 200.845 54.6924 200.794 54.717 200.736C54.7417 200.678 54.751 200.615 54.7442 200.553C54.7461 200.53 54.7414 200.506 54.7305 200.486C54.7197 200.465 54.7032 200.448 54.6831 200.437H54.6464C54.31 200.296 53.3253 200.638 52.6036 200.956Z" fill="#225A4B"/>
<path d="M52.206 201.074C52.1912 201.065 52.1797 201.051 52.1731 201.034C52.1665 201.018 52.1652 201 52.1693 200.983C52.2335 200.352 52.497 199.759 52.9216 199.288C53.0056 199.218 53.1038 199.167 53.2093 199.139C53.3149 199.11 53.4254 199.105 53.5332 199.123C53.8207 199.16 53.9002 199.307 53.9185 199.429C53.9797 199.931 52.8788 200.866 52.3284 201.093C52.3043 201.099 52.279 201.099 52.255 201.093L52.206 201.074ZM53.4843 199.331C53.4074 199.321 53.3292 199.326 53.2545 199.347C53.1798 199.368 53.1103 199.405 53.0501 199.454C52.7112 199.83 52.4975 200.302 52.4384 200.805C53.0011 200.493 53.7534 199.759 53.7106 199.454C53.7106 199.454 53.7106 199.386 53.6188 199.356L53.4843 199.331Z" fill="#225A4B"/>
<path d="M27.0077 200.462L22.1149 200.334C22.026 200.331 21.9388 200.358 21.8676 200.412C21.7965 200.465 21.7456 200.541 21.7234 200.627L20.6959 204.554C20.6708 204.648 20.6675 204.747 20.6864 204.843C20.7052 204.939 20.7457 205.029 20.8046 205.107C20.8636 205.184 20.9395 205.248 21.0267 205.292C21.1138 205.336 21.2099 205.36 21.3075 205.361C23.0629 205.361 25.5888 205.361 27.8212 205.404C30.4083 205.477 32.0474 205.349 35.081 205.404C36.9158 205.453 37.4907 203.624 36.7262 203.434C33.2645 202.578 30.9954 202.749 28.0475 200.817C27.7394 200.607 27.38 200.484 27.0077 200.462Z" fill="#263238"/>
<path d="M27.3319 201.005C27.3286 200.983 27.3328 200.96 27.3439 200.94C27.3549 200.92 27.3722 200.904 27.393 200.895C27.601 200.797 29.4236 199.935 29.9557 200.253C30.0061 200.282 30.0479 200.324 30.0769 200.375C30.1059 200.425 30.1211 200.482 30.1208 200.54C30.1273 200.636 30.1114 200.732 30.0742 200.82C30.037 200.908 29.9797 200.986 29.9068 201.048C29.3991 201.464 28.127 201.256 27.4114 201.091C27.3914 201.086 27.3734 201.075 27.3593 201.06C27.3453 201.044 27.3358 201.026 27.3319 201.005ZM27.7722 200.956C28.7508 201.146 29.4909 201.122 29.7722 200.883C29.8211 200.844 29.8595 200.793 29.8841 200.736C29.9086 200.678 29.9185 200.615 29.9129 200.553C29.9128 200.529 29.9066 200.506 29.8948 200.486C29.883 200.465 29.866 200.448 29.8456 200.437H29.8089C29.5031 200.296 28.5184 200.638 27.7967 200.956H27.7722Z" fill="#225A4B"/>
<path d="M27.3992 201.073C27.3838 201.064 27.3716 201.05 27.364 201.034C27.3563 201.017 27.3537 200.999 27.3563 200.981C27.4235 200.35 27.689 199.757 28.1147 199.287C28.1985 199.217 28.2967 199.165 28.4023 199.137C28.5079 199.108 28.6185 199.103 28.7264 199.122C29.0138 199.159 29.0933 199.305 29.1055 199.428C29.1728 199.929 28.0658 200.865 27.5215 201.091C27.4953 201.097 27.4681 201.097 27.442 201.091L27.3992 201.073ZM28.6774 199.33C28.6005 199.319 28.5222 199.325 28.4475 199.346C28.3728 199.367 28.3032 199.403 28.2432 199.452C27.907 199.83 27.6937 200.302 27.6316 200.804C28.1943 200.492 28.9465 199.758 28.9098 199.452C28.9046 199.428 28.8926 199.406 28.8752 199.389C28.8579 199.372 28.8359 199.36 28.812 199.354C28.769 199.338 28.7234 199.33 28.6774 199.33Z" fill="#225A4B"/>
<path d="M18.0537 104.176C15.7051 114.341 19.7295 194.321 19.7295 194.321H27.5092L30.8363 127.656L43.0685 194.321L51.3864 193.71C45.9492 142.078 41.1481 111.252 41.1481 111.252V107.357L18.0537 104.176Z" fill="#263238"/>
<path opacity="0.2" d="M51.3987 193.697L43.0808 194.309L33.4479 141.833L30.8425 127.65L27.5153 194.315H19.7357C19.7357 194.315 15.7113 114.323 18.0537 104.176L41.1725 107.363V111.259C41.1725 111.259 45.9614 142.096 51.3987 193.697Z" fill="white"/>
<path d="M17.5461 69.7987C18.3609 74.5979 18.8167 79.4512 18.91 84.3183C18.9895 87.7127 18.91 90.942 18.7938 93.8655C18.488 100.722 17.8275 105.908 17.8581 107.688L41.1971 108.104C46.7627 83.7005 41.9799 70.4531 41.9799 70.4531C40.1705 69.9507 38.3323 69.5586 36.4754 69.2788C36.0677 69.2258 35.66 69.1769 35.2522 69.132C31.9517 68.881 28.6395 68.8197 25.3319 68.9485C24.7203 68.9485 24.0659 69.0036 23.4482 69.0525C20.329 69.3155 17.5461 69.7987 17.5461 69.7987Z" fill="#225A4B"/>
<path d="M36.0106 69.9264C36.0106 69.9264 34.6222 71.9386 33.5091 72.0793C31.9312 72.2933 26.1698 68.7643 26.1698 68.7643C27.5031 67.7796 28.1575 65.6329 28.445 63.3638C28.6506 61.522 28.6895 59.6654 28.5612 57.8165L33.9495 63.6757C33.24 65.5106 32.818 67.4677 34.2125 68.8438C34.725 69.3324 35.339 69.702 36.0106 69.9264Z" fill="#B55B52"/>
<path opacity="0.2" d="M34.2002 68.8246C31.8267 67.5295 29.8371 65.6307 28.4327 63.3201C28.6384 61.4783 28.6772 59.6217 28.5489 57.7728L33.9372 63.632C33.2278 65.4852 32.8363 67.4791 34.2002 68.8246Z" fill="black"/>
<path d="M40.1756 52.5329C40.6343 54.2271 40.1756 57.6643 37.9005 56.4411C35.6253 55.2179 39.4111 49.6094 40.1756 52.5329Z" fill="#263238"/>
<path d="M28.0169 54.2746C27.5704 58.5558 27.0934 61.0634 28.8854 63.5894C31.5887 67.3813 37.1849 66.2499 38.9036 62.1582C40.457 58.4885 40.9219 52.0667 37.0259 49.7181C36.1615 49.1986 35.1794 48.9068 34.1715 48.87C33.1636 48.8333 32.1629 49.0528 31.2629 49.508C30.3629 49.9632 29.5931 50.6392 29.0254 51.4728C28.4577 52.3064 28.1107 53.2704 28.0169 54.2746Z" fill="#B55B52"/>
<path d="M31.1361 52.0619L31.3502 47.2485C31.3502 47.2485 26.2372 46.6369 26.3534 49.2791C23.4543 50.5634 24.6042 55.0343 28.3227 57.3645C30.4878 55.7866 30.4206 51.7438 30.4206 51.7438C30.6407 51.8539 30.8854 51.9579 31.1361 52.0619Z" fill="#263238"/>
<path d="M25.7846 57.5466C25.863 58.0778 26.046 58.5881 26.3232 59.048C26.6004 59.5078 26.9661 59.9081 27.3992 60.2255C28.5613 61.0695 29.6561 60.1398 29.7539 58.7821C29.8457 57.5588 29.3503 55.6445 27.9803 55.3387C27.678 55.2792 27.3658 55.2952 27.0713 55.3854C26.7767 55.4755 26.509 55.6369 26.2918 55.8553C26.0746 56.0737 25.9147 56.3423 25.8262 56.6374C25.7377 56.9324 25.7234 57.2447 25.7846 57.5466Z" fill="#B55B52"/>
<path d="M34.2983 56.4714C34.2371 56.82 34.3778 57.1258 34.6041 57.1625C34.8304 57.1992 35.0628 56.9485 35.1178 56.5998C35.1729 56.2512 35.0383 55.9454 34.812 55.9087C34.5857 55.872 34.3533 56.1228 34.2983 56.4714Z" fill="#263238"/>
<path d="M38.2246 57.0834C38.1695 57.432 38.3102 57.7439 38.5365 57.7745C38.7628 57.8051 38.9952 57.5604 39.0503 57.2118C39.1053 56.8632 38.9707 56.5574 38.7445 56.5207C38.5182 56.484 38.2857 56.7409 38.2246 57.0834Z" fill="#263238"/>
<path d="M36.9463 57.082C37.209 58.173 37.6206 59.2225 38.1695 60.2012C37.9019 60.3203 37.6123 60.3818 37.3194 60.3818C37.0265 60.3818 36.7369 60.3203 36.4692 60.2012L36.9463 57.082Z" fill="#A02724"/>
<path d="M34.3837 61.2405C34.5297 61.2865 34.6789 61.3213 34.8302 61.3445C34.8569 61.348 34.8839 61.3411 34.9056 61.3251C34.9273 61.3091 34.9419 61.2854 34.9464 61.2588C34.9491 61.2452 34.9489 61.2311 34.946 61.2175C34.9431 61.2038 34.9375 61.1909 34.9295 61.1795C34.9215 61.1681 34.9113 61.1584 34.8995 61.151C34.8877 61.1437 34.8745 61.1387 34.8608 61.1365C34.4291 61.0787 34.017 60.9201 33.6579 60.6737C33.2988 60.4272 33.0027 60.0996 32.7936 59.7176C32.7889 59.7047 32.7816 59.6929 32.7721 59.683C32.7627 59.6731 32.7512 59.6653 32.7385 59.6601C32.7258 59.6549 32.7122 59.6525 32.6985 59.6529C32.6848 59.6533 32.6714 59.6566 32.659 59.6625C32.6341 59.6733 32.6143 59.6934 32.6041 59.7186C32.5938 59.7437 32.5937 59.7719 32.604 59.7971C32.7861 60.1466 33.038 60.4551 33.3441 60.7034C33.6503 60.9516 34.0041 61.1344 34.3837 61.2405Z" fill="#263238"/>
<path d="M33.2952 55.016C33.33 55.0276 33.3674 55.0292 33.4031 55.0205C33.4388 55.0119 33.4714 54.9933 33.497 54.9671C33.6816 54.7829 33.9063 54.644 34.1535 54.5612C34.4008 54.4784 34.6638 54.4541 34.9221 54.49C34.9482 54.496 34.9752 54.4969 35.0016 54.4924C35.0281 54.488 35.0533 54.4784 35.0761 54.4642C35.0988 54.45 35.1185 54.4315 35.134 54.4097C35.1496 54.3879 35.1607 54.3632 35.1667 54.3371C35.1727 54.311 35.1736 54.284 35.1691 54.2575C35.1647 54.2311 35.1551 54.2058 35.1409 54.1831C35.1267 54.1604 35.1082 54.1407 35.0864 54.1251C35.0646 54.1096 35.0399 54.0985 35.0138 54.0925C34.6895 54.0374 34.3566 54.0614 34.0435 54.1626C33.7305 54.2637 33.4465 54.439 33.2157 54.6735C33.1768 54.7125 33.155 54.7653 33.155 54.8203C33.155 54.8753 33.1768 54.9281 33.2157 54.9671C33.2385 54.9887 33.2656 55.0054 33.2952 55.016Z" fill="#263238"/>
<path d="M40.1755 56.0006C40.2133 56.0128 40.254 56.0128 40.2917 56.0006C40.3443 55.985 40.3886 55.9493 40.415 55.9011C40.4413 55.853 40.4476 55.7965 40.4324 55.7437C40.3464 55.4282 40.1851 55.1381 39.9625 54.8985C39.7399 54.6588 39.4625 54.4767 39.1541 54.3676C39.1015 54.354 39.0456 54.361 38.9979 54.3872C38.9502 54.4133 38.9142 54.4566 38.8973 54.5083C38.8821 54.561 38.8884 54.6176 38.9147 54.6657C38.9411 54.7138 38.9854 54.7496 39.0379 54.7652C39.2825 54.8513 39.5018 54.9971 39.6759 55.1893C39.8499 55.3816 39.9733 55.6141 40.0349 55.8661C40.0456 55.8983 40.064 55.9274 40.0885 55.9508C40.113 55.9743 40.1429 55.9914 40.1755 56.0006Z" fill="#263238"/>
<path d="M26.3534 49.2783C26.3534 49.2783 23.7113 46.6545 32.6775 46.893C41.6436 47.1315 43.136 52.159 39.026 53.3271L38.8425 52.5076C38.1366 52.8715 37.3611 53.0805 36.5679 53.1206C35.7747 53.1607 34.9822 53.0309 34.2432 52.74L34.8915 52.3363C34.8915 52.3363 28.7693 52.9602 26.3534 49.2783Z" fill="#263238"/>
<path d="M33.5091 72.0616C33.5091 72.0616 32.3654 73.3827 31.0627 74.6854C29.1606 73.7252 24.7081 71.1503 24.9466 68.7711C25.2096 68.08 27.02 67.6396 27.02 67.6396C27.02 67.6396 28.9404 70.2023 33.5091 72.0616Z" fill="#225A4B"/>
<path d="M33.5092 72.0604C34.4449 72.8146 35.2686 73.698 35.9556 74.6842C37.3562 73.779 36.6528 69.3509 36.1391 68.8617C35.3984 68.457 34.5672 68.2466 33.7232 68.25C34.0004 68.8546 34.1257 69.5177 34.0884 70.1817C34.0511 70.8458 33.8523 71.4906 33.5092 72.0604Z" fill="#225A4B"/>
<g opacity="0.5">
<path d="M33.5094 72.0626C33.5094 72.0626 32.3657 73.3836 31.0629 74.6864C29.1608 73.7261 24.7083 71.1513 24.9468 68.7721C25.2098 68.081 27.0202 67.6406 27.0202 67.6406C27.0202 67.6406 28.9407 70.2033 33.5094 72.0626Z" fill="white"/>
<path d="M33.5095 72.0631C34.4452 72.8173 35.269 73.7007 35.956 74.6869C37.3565 73.7817 36.6532 69.3536 36.1394 68.8643C35.3987 68.4597 34.5676 68.2493 33.7236 68.2527C34.0007 68.8573 34.1261 69.5204 34.0888 70.1844C34.0515 70.8484 33.8526 71.4933 33.5095 72.0631Z" fill="white"/>
</g>
<path opacity="0.2" d="M33.4479 141.832L30.8424 127.649L31.3439 120.145C31.3439 120.145 34.9096 133.16 33.4479 141.832Z" fill="black"/>
<path d="M19.9926 76.2746C17.7296 80.0482 14.2251 85.4487 12.3047 89.2835C11.2833 91.4547 10.9652 93.7789 10.4087 96.1213C9.87658 98.6228 9.34448 101.173 8.75733 103.693L5.83384 103.436C5.72987 100.788 5.75434 98.1641 5.91336 95.5158C6.11519 92.7575 6.26197 89.7789 7.30171 87.1612C9.36894 82.1277 12.0906 77.6263 15.008 73.0942L19.9926 76.2868V76.2746Z" fill="#B55B52"/>
<path d="M17.5462 69.7977C14.2619 70.6479 8.37207 82.4519 8.37207 82.4519L15.3505 86.9717L21.644 80.8556C22.0052 78.6415 21.8694 76.3748 21.2464 74.2197C20.2251 70.5378 17.5462 69.7977 17.5462 69.7977Z" fill="#225A4B"/>
<path opacity="0.7" d="M17.5462 69.7977C14.2619 70.6479 8.37207 82.4519 8.37207 82.4519L15.3505 86.9717L21.644 80.8556C22.0052 78.6415 21.8694 76.3748 21.2464 74.2197C20.2251 70.5378 17.5462 69.7977 17.5462 69.7977Z" fill="white"/>
<path d="M20.0216 106.186L68.5031 54.7742C68.7643 54.4972 69.0775 54.2744 69.4248 54.1185C69.7721 53.9625 70.1467 53.8765 70.5272 53.8654C70.9078 53.8542 71.2868 53.9181 71.6426 54.0534C71.9985 54.1887 72.3242 54.3928 72.6012 54.654L73.7714 55.7576C74.3308 56.2851 74.6577 57.0132 74.6803 57.7817C74.7028 58.5503 74.4191 59.2963 73.8916 59.8556L25.4101 111.267L20.0216 106.186Z" fill="#263238"/>
<path opacity="0.6" d="M20.0216 106.186L68.5031 54.7742C68.7643 54.4972 69.0775 54.2744 69.4248 54.1185C69.7721 53.9625 70.1467 53.8765 70.5272 53.8654C70.9078 53.8542 71.2868 53.9181 71.6426 54.0534C71.9985 54.1887 72.3242 54.3928 72.6012 54.654L73.7714 55.7576C74.3308 56.2851 74.6577 57.0132 74.6803 57.7817C74.7028 58.5503 74.4191 59.2963 73.8916 59.8556L25.4101 111.267L20.0216 106.186Z" fill="white"/>
<path opacity="0.2" d="M72.9579 54.9974L73.7714 55.7619C74.0483 56.0225 74.2711 56.335 74.4271 56.6817C74.5831 57.0284 74.6693 57.4024 74.6806 57.7824C74.692 58.1624 74.6283 58.541 74.4933 58.8963C74.3583 59.2517 74.1545 59.577 73.8937 59.8536L25.4114 111.272L24.6041 110.507L73.0864 59.0891C73.3468 58.8121 73.5501 58.4865 73.6846 58.1309C73.8191 57.7753 73.8822 57.3967 73.8703 57.0166C73.8584 56.6366 73.7716 56.2627 73.6151 55.9162C73.4585 55.5698 73.2352 55.2575 72.9579 54.9974Z" fill="black"/>
<path d="M57.4904 74.9052L66.4749 83.3821L67.6431 82.1406L66.481 81.0458L68.3281 79.0825L67.6492 78.4403L70.4259 75.4985L71.1048 76.1407L72.8417 74.2997L74.0038 75.4006L75.2087 74.1162L74.5298 73.4741L76.2667 71.627L74.9029 70.3426L76.0405 69.1378L78.0893 71.0643L80.1688 68.8625L71.1843 60.3856L57.4904 74.9052Z" fill="#263238"/>
<path opacity="0.6" d="M57.4904 74.9052L66.4749 83.3821L67.6431 82.1406L66.481 81.0458L68.3281 79.0825L67.6492 78.4403L70.4259 75.4985L71.1048 76.1407L72.8417 74.2997L74.0038 75.4006L75.2087 74.1162L74.5298 73.4741L76.2667 71.627L74.9029 70.3426L76.0405 69.1378L78.0893 71.0643L80.1688 68.8625L71.1843 60.3856L57.4904 74.9052Z" fill="white"/>
<g opacity="0.2">
<path opacity="0.6" d="M66.8333 81.3827L65.6667 82.6198L66.4766 83.3834L67.6431 82.1464L66.8333 81.3827Z" fill="black"/>
<path opacity="0.6" d="M71.1046 76.1384L70.4257 75.4901L67.649 78.4381L68.3279 79.0803L66.4808 81.0435L65.6674 80.279L67.5205 78.3157L66.8355 77.6736L69.6122 74.7256L70.2972 75.3739L72.0281 73.533L72.8415 74.2975L71.1046 76.1384Z" fill="black"/>
<path opacity="0.6" d="M73.7164 72.7017L75.4595 70.8607L76.2729 71.6252L74.5298 73.4723L75.2148 74.1145L74.0039 75.3989L73.1965 74.6343L74.4014 73.35L73.7164 72.7017Z" fill="black"/>
<path opacity="0.6" d="M75.2243 68.3695L74.0872 69.5753L74.897 70.339L76.0341 69.1332L75.2243 68.3695Z" fill="black"/>
<path opacity="0.6" d="M79.3571 68.1011L77.2759 70.3081L78.0857 71.0718L80.167 68.8648L79.3571 68.1011Z" fill="black"/>
</g>
<path d="M67.2128 55.1953L52.3503 70.9559C52.1047 71.2164 52.1167 71.6267 52.3772 71.8724L57.7702 76.958C58.0307 77.2037 58.441 77.1917 58.6866 76.9312L73.5491 61.1705C73.7948 60.91 73.7827 60.4997 73.5223 60.254L68.1293 55.1684C67.8688 54.9227 67.4585 54.9348 67.2128 55.1953Z" fill="#263238"/>
<path d="M25.6928 127.889C24.5648 129.086 23.2122 130.048 21.7122 130.722C20.2122 131.396 18.5941 131.767 16.9505 131.815C15.3068 131.864 13.6698 131.588 12.1328 131.003C10.5958 130.419 9.18906 129.537 7.99283 128.409L3.93174 124.58C2.73523 123.452 1.77264 122.1 1.09895 120.6C0.425265 119.1 0.0536727 117.482 0.0053969 115.838C-0.0428789 114.194 0.233111 112.557 0.817601 111.02C1.40209 109.483 2.28363 108.077 3.41188 106.88C4.54084 105.679 5.89583 104.712 7.39913 104.036C8.90243 103.36 10.5245 102.986 12.1723 102.938C13.8201 102.89 15.4612 103.167 17.0015 103.755C18.5419 104.342 19.9511 105.227 21.1485 106.36L25.2035 110.189C26.3979 111.319 27.3581 112.673 28.0291 114.174C28.7001 115.676 29.0689 117.294 29.1143 118.938C29.1597 120.581 28.881 122.218 28.2939 123.754C27.7068 125.29 26.823 126.695 25.6928 127.889Z" fill="#263238"/>
<path d="M21.0262 123.485C20.4649 124.081 19.7917 124.561 19.0449 124.897C18.2982 125.233 17.4925 125.418 16.674 125.442C15.8556 125.467 15.0403 125.33 14.2748 125.039C13.5094 124.748 12.8087 124.309 12.2129 123.748L8.37199 120.078C7.77617 119.516 7.29687 118.843 6.96147 118.096C6.62608 117.349 6.44117 116.543 6.41732 115.725C6.39346 114.906 6.53113 114.091 6.82244 113.326C7.11376 112.561 7.55302 111.86 8.11512 111.265C8.67582 110.668 9.34871 110.189 10.0952 109.853C10.8417 109.517 11.6472 109.332 12.4654 109.308C13.2836 109.284 14.0984 109.422 14.8632 109.714C15.6281 110.005 16.3278 110.445 16.9223 111.008L20.7999 114.678C21.9972 115.816 22.6935 117.383 22.736 119.034C22.7784 120.686 22.1634 122.286 21.0262 123.485Z" fill="white"/>
<path opacity="0.5" d="M67.2128 55.1953L52.3503 70.9559C52.1047 71.2164 52.1167 71.6267 52.3772 71.8724L57.7702 76.958C58.0307 77.2037 58.441 77.1917 58.6866 76.9312L73.5491 61.1705C73.7948 60.91 73.7827 60.4997 73.5223 60.254L68.1293 55.1684C67.8688 54.9227 67.4585 54.9348 67.2128 55.1953Z" fill="white"/>
<g opacity="0.5">
<path d="M25.6928 127.89C24.5648 129.086 23.2122 130.049 21.7122 130.723C20.2122 131.396 18.5941 131.768 16.9505 131.816C15.3068 131.865 13.6698 131.589 12.1328 131.004C10.5958 130.42 9.18906 129.538 7.99283 128.41L3.93174 124.581C2.73523 123.453 1.77264 122.101 1.09895 120.601C0.425265 119.101 0.0536727 117.482 0.0053969 115.839C-0.0428789 114.195 0.233111 112.558 0.817601 111.021C1.40209 109.484 2.28363 108.077 3.41188 106.881C4.54084 105.68 5.89583 104.713 7.39913 104.037C8.90243 103.36 10.5245 102.987 12.1723 102.939C13.8201 102.891 15.4612 103.168 17.0015 103.755C18.5419 104.343 19.9511 105.228 21.1485 106.361L25.2035 110.19C26.3979 111.32 27.3581 112.674 28.0291 114.175C28.7001 115.676 29.0689 117.295 29.1143 118.939C29.1597 120.582 28.881 122.219 28.2939 123.755C27.7068 125.29 26.823 126.696 25.6928 127.89Z" fill="#FFFCF6"/>
</g>
<path opacity="0.2" d="M71.8999 58.7224L73.5267 60.2514C73.5879 60.3118 73.6366 60.3836 73.6697 60.4629C73.7029 60.5422 73.72 60.6273 73.72 60.7132C73.72 60.7991 73.7029 60.8842 73.6697 60.9635C73.6366 61.0428 73.5879 61.1147 73.5267 61.175L58.6646 76.93C58.6048 76.991 58.5335 77.0395 58.4547 77.0726C58.3759 77.1057 58.2914 77.1228 58.2059 77.1228C58.1205 77.1228 58.0359 77.1057 57.9572 77.0726C57.8784 77.0395 57.807 76.991 57.7472 76.93L56.1265 75.401C56.2478 75.5209 56.4115 75.5881 56.5821 75.5881C56.7527 75.5881 56.9164 75.5209 57.0378 75.401L71.8999 59.6398C71.9609 59.58 72.0094 59.5087 72.0425 59.4299C72.0756 59.3511 72.0926 59.2666 72.0926 59.1811C72.0926 59.0957 72.0756 59.0111 72.0425 58.9323C72.0094 58.8536 71.9609 58.7822 71.8999 58.7224Z" fill="black"/>
<g opacity="0.2">
<path d="M15.7113 109.876L16.9345 111.02C15.7192 109.969 14.1454 109.428 12.5409 109.509C10.9365 109.59 9.42509 110.287 8.32152 111.454C7.21794 112.622 6.60727 114.17 6.61667 115.776C6.62607 117.383 7.25483 118.924 8.372 120.078L7.14878 118.928C5.946 117.793 5.24355 116.226 5.19595 114.573C5.14835 112.919 5.7595 111.315 6.89496 110.112C8.03042 108.909 9.59718 108.207 11.2506 108.159C12.904 108.111 14.5085 108.723 15.7113 109.858V109.876Z" fill="black"/>
<path d="M23.962 109.069L25.1852 110.219C27.5249 112.516 28.8708 115.639 28.9338 118.917C28.9968 122.195 27.7719 125.367 25.5221 127.752C23.2723 130.137 20.177 131.545 16.9007 131.674C13.6245 131.802 10.4285 130.641 7.99897 128.439L6.77576 127.295C9.19718 129.549 12.4117 130.753 15.7178 130.645C19.0239 130.537 22.1531 129.126 24.4225 126.719C26.6919 124.313 27.9171 121.106 27.8308 117.799C27.7445 114.493 26.3537 111.354 23.962 109.069Z" fill="black"/>
</g>
<g opacity="0.2">
<path d="M15.7113 109.876L16.9345 111.02C15.7192 109.969 14.1454 109.428 12.5409 109.509C10.9365 109.59 9.42509 110.287 8.32152 111.454C7.21794 112.622 6.60727 114.17 6.61667 115.776C6.62607 117.383 7.25483 118.924 8.372 120.078L7.14878 118.928C5.946 117.793 5.24355 116.226 5.19595 114.573C5.14835 112.919 5.7595 111.315 6.89496 110.112C8.03042 108.909 9.59718 108.207 11.2506 108.159C12.904 108.111 14.5085 108.723 15.7113 109.858V109.876Z" fill="black"/>
<path d="M15.7113 109.876L16.9345 111.02C15.7192 109.969 14.1454 109.428 12.5409 109.509C10.9365 109.59 9.42509 110.287 8.32152 111.454C7.21794 112.622 6.60727 114.17 6.61667 115.776C6.62607 117.383 7.25483 118.924 8.372 120.078L7.14878 118.928C5.946 117.793 5.24355 116.226 5.19595 114.573C5.14835 112.919 5.7595 111.315 6.89496 110.112C8.03042 108.909 9.59718 108.207 11.2506 108.159C12.904 108.111 14.5085 108.723 15.7113 109.858V109.876Z" fill="black"/>
</g>
<path d="M6.40259 110.42L10.8979 109.295L10.3964 106.011L4.91638 107.118L6.40259 110.42Z" fill="#B55B52"/>
<path d="M5.96223 102.819L4.91638 107.1L10.4209 105.993C10.4209 105.993 10.4943 102.146 8.45148 101.896L5.96223 102.819Z" fill="#B55B52"/>
</svg>
