<svg width="39" height="34" viewBox="0 0 39 34" fill="none" xmlns="http://www.w3.org/2000/svg">
<path d="M26.668 1.44995C26.5938 1.55907 26.2732 1.8066 26.1926 1.81847C26.1696 1.82186 26.1088 1.86223 26.064 1.90418C25.9268 2.03829 25.5588 2.22996 25.3034 2.30686C25.1719 2.34587 25.0278 2.40637 24.9862 2.44391C24.8927 2.52838 24.1547 2.81775 23.7732 2.91716C23.6224 2.959 23.4405 3.029 23.3721 3.0705C23.3036 3.11199 23.1442 3.17475 23.0198 3.20879C22.8948 3.23899 22.7123 3.30514 22.6088 3.34789C22.5096 3.39391 22.2959 3.46074 22.1401 3.49546C21.9844 3.53018 21.757 3.61081 21.636 3.66791C21.5149 3.72502 21.1193 3.86185 20.7592 3.9738C20.3985 4.08191 20.0292 4.21094 19.9377 4.25583C19.8468 4.30457 19.6994 4.36948 19.6068 4.40668C18.9904 4.6428 18.7855 4.71619 18.678 4.73202C18.6089 4.7422 18.4911 4.7949 18.4129 4.84962C18.3352 4.9082 18.2005 4.9791 18.1144 5.00748C17.813 5.11864 17.3304 5.33112 17.2933 5.37194C17.2496 5.42158 16.8964 5.60714 16.6422 5.7192C16.5425 5.76138 16.3121 5.90137 16.1304 6.02632C15.9525 6.15071 15.7801 6.25858 15.7494 6.26311C15.7187 6.26763 15.67 6.31015 15.6378 6.35809C15.6057 6.40603 15.557 6.44855 15.5263 6.45307C15.4648 6.46212 15.1267 6.69653 15.0529 6.78201C14.9688 6.87688 14.6033 7.13888 14.5419 7.14793C14.515 7.15189 14.4729 7.18559 14.4472 7.22471C14.4096 7.28916 14.2904 7.38527 14.0441 7.55116C13.9834 7.59153 13.8872 7.68425 13.831 7.75537C13.7747 7.8265 13.6741 7.91594 13.609 7.95303C13.5438 7.99012 13.4596 8.05751 13.423 8.10218C13.3858 8.14299 13.2601 8.24793 13.143 8.33194C13.0264 8.4198 12.9149 8.51479 12.8964 8.54894C12.8778 8.58308 12.7772 8.67253 12.6711 8.751C12.565 8.82948 12.3943 8.97636 12.2922 9.08175C12.19 9.18713 12.074 9.27884 12.0356 9.28449C11.9972 9.29015 11.9338 9.33877 11.895 9.39553C11.8563 9.4523 11.7464 9.55881 11.6474 9.63231C11.5528 9.70909 11.4418 9.80792 11.4046 9.84874C11.3681 9.8934 11.2953 9.9591 11.2455 9.99393C11.1432 10.0718 10.9738 10.2264 10.6967 10.5029C10.525 10.6695 10.2014 10.9764 9.97345 11.1868C9.92478 11.2293 9.80295 11.3611 9.69862 11.4786C9.59485 11.5999 9.45111 11.7429 9.38438 11.7959C9.31437 11.8533 9.19852 11.9725 9.12919 12.0613C9.05602 12.1506 8.93261 12.2984 8.85233 12.3927C8.40056 12.8952 7.10149 14.5987 7.11166 14.6678C7.11505 14.6909 7.04967 14.8066 6.96623 14.9328C6.87839 15.0557 6.75407 15.2507 6.68429 15.3631C6.61451 15.4755 6.51797 15.6194 6.47213 15.6811C6.42628 15.7428 6.36746 15.8497 6.34194 15.9163C6.31699 15.9867 6.23479 16.1481 6.15191 16.2781C6.07288 16.4076 5.98198 16.5899 5.95218 16.6807C5.92237 16.7715 5.87348 16.8926 5.84299 16.952C5.81251 17.0115 5.74939 17.1426 5.70592 17.2472C5.65861 17.3523 5.59437 17.4757 5.56219 17.5236C5.53385 17.571 5.46102 17.7427 5.4057 17.9001C5.35094 18.0614 5.28793 18.2199 5.26942 18.2541C5.2509 18.2882 5.19174 18.4462 5.14353 18.5986C5.09148 18.7516 5.04101 18.8886 5.02294 18.8991C4.98523 18.9361 4.70195 19.838 4.66819 20.0354C4.61197 20.3736 4.54288 20.6508 4.49105 20.7252C4.46542 20.7644 4.42861 20.8876 4.41699 20.9954C4.37601 21.3038 4.32171 21.575 4.25634 21.8242C4.22393 21.9507 4.20429 22.1107 4.21389 22.1761C4.22349 22.2414 4.21356 22.3607 4.19414 22.4421C4.17416 22.5197 4.15621 22.6912 4.15238 22.8253C4.14798 22.9556 4.11298 23.1178 4.07922 23.1817C3.99973 23.3348 4.05631 23.4797 4.17352 23.4231C4.21733 23.4009 4.35486 23.3493 4.47873 23.3114C4.60204 23.2697 4.78609 23.1876 4.88354 23.13C5.0921 23.0011 5.50988 22.6411 5.63544 22.4812C5.68512 22.4189 5.76484 22.3207 5.81892 22.2617C5.97463 22.0934 6.55862 21.3162 6.72878 21.0594C6.81165 20.9294 6.9616 20.6952 7.06412 20.5387C7.16225 20.3789 7.32529 20.1271 7.4207 19.9756C7.51668 19.8279 7.67588 19.5767 7.77073 19.4213C7.86557 19.2659 8.01665 19.0395 8.10122 18.921C8.18579 18.8025 8.25173 18.6906 8.24891 18.6714C8.24496 18.6445 8.3398 18.4891 8.71715 17.9073C9.25371 17.0741 10.1864 15.8135 10.5786 15.3865C10.6196 15.3451 10.6512 15.2933 10.6567 15.2768C10.6615 15.2565 10.7674 15.123 10.8914 14.9791C11.0159 14.839 11.231 14.5677 11.3718 14.3781C11.5132 14.1923 11.6655 14.001 11.7142 13.9585C11.7623 13.9121 11.8618 13.815 11.9372 13.741C12.0126 13.6671 12.1619 13.5351 12.2669 13.449C12.3719 13.3628 12.5141 13.2358 12.5786 13.1674C12.6425 13.0952 12.7623 13.0029 12.8411 12.952C12.9205 12.905 13.0157 12.832 13.0528 12.7912C13.0894 12.7466 13.224 12.6482 13.3532 12.5663C13.4829 12.4883 13.6169 12.3861 13.6574 12.3408C13.6934 12.2923 13.7388 12.2542 13.7541 12.252C13.7848 12.2474 14.1297 12.0317 14.2895 11.9178C14.4558 11.7951 14.8298 11.5908 14.9679 11.543C15.0385 11.5168 15.1366 11.4631 15.1852 11.4206C15.2891 11.3268 15.6309 11.1704 16.0857 11.0091C16.2726 10.9462 16.4534 10.8685 16.4961 10.8387C16.5557 10.7906 17.2531 10.6251 17.8185 10.5222C18.1354 10.4637 18.688 10.4608 18.8447 10.5124C18.9315 10.5428 19.0579 10.5753 19.1221 10.5854C19.3143 10.6121 19.3208 10.7368 19.1391 10.9678C19.0534 11.0786 18.9648 11.1702 18.938 11.1742C18.9111 11.1782 18.8591 11.2251 18.8198 11.278C18.785 11.3342 18.6915 11.4187 18.6165 11.469C18.5421 11.5231 18.4425 11.5928 18.3933 11.6315C18.3435 11.6663 18.2477 11.7354 18.1793 11.7769C18.1109 11.8184 18.0074 11.8886 17.9467 11.929C17.8898 11.9688 17.772 12.0215 17.6898 12.0493C17.607 12.0733 17.4981 12.1325 17.4467 12.1833C17.3947 12.2302 17.2819 12.29 17.1921 12.319C17.1016 12.3441 16.9954 12.3951 16.9538 12.4326C16.9117 12.4663 16.806 12.5212 16.7155 12.5463C16.6257 12.5752 16.4833 12.6473 16.3946 12.7114C16.306 12.7755 16.197 12.8347 16.1471 12.8421C16.0972 12.8494 16.0161 12.8849 15.9631 12.9242C15.91 12.9634 15.7961 13.0156 15.7177 13.0428C15.6355 13.0706 15.5014 13.1454 15.4204 13.2084C15.3394 13.2713 15.242 13.3289 15.2036 13.3345C15.1658 13.344 15.0705 13.3895 14.9922 13.4442C14.914 13.499 14.8148 13.545 14.777 13.5545C14.7156 13.5635 14.2421 13.865 13.9406 14.0822C13.7245 14.2397 13.4423 14.4816 13.3374 14.5952C13.2735 14.6675 13.138 14.8131 13.0358 14.9185C12.7785 15.196 12.4724 15.6221 12.4269 15.7662C12.3483 16.0056 12.2782 16.1691 12.2138 16.265C12.1746 16.3179 12.1496 16.3884 12.1541 16.4191C12.1586 16.4499 12.1427 16.5818 12.123 16.7143C12.0994 16.8474 12.0744 17.0514 12.071 17.1619C12.0644 17.2768 12.052 17.4592 12.0409 17.5709C12.0331 17.678 12.0363 17.7797 12.0539 17.7928C12.0886 17.8152 12.29 17.6913 12.4393 17.5593C12.5536 17.4561 12.9072 17.2469 12.9801 17.2361C13.0147 17.231 13.1056 17.1823 13.1794 17.1243C13.3212 17.0209 13.5385 16.8986 13.9224 16.7085C14.032 16.6531 14.1727 16.5695 14.229 16.5259C14.2892 16.4817 14.3659 16.4429 14.4042 16.4372C14.4426 16.4316 14.516 16.3972 14.5691 16.358C14.6227 16.3226 14.7559 16.2676 14.8688 16.2353C14.9817 16.2029 15.117 16.1359 15.1684 16.0851C15.2203 16.0382 15.3468 15.9646 15.4514 15.9295C15.6641 15.855 15.9215 15.7385 16.2632 15.5546C16.6564 15.3475 17.0097 15.1894 17.1133 15.1741C17.1709 15.1656 17.2542 15.118 17.3011 15.064C17.3525 15.0132 17.5858 14.8924 17.8225 14.7947C18.0591 14.697 18.2859 14.5851 18.3274 14.5476C18.4248 14.4625 19.0372 14.1995 19.3086 14.1242C19.4215 14.0918 19.554 14.033 19.6027 13.9905C19.6864 13.9193 19.9421 13.7913 20.3602 13.6197C20.4675 13.5764 20.5765 13.5172 20.5994 13.4863C20.6502 13.4317 20.97 13.2589 21.2242 13.1468C21.3053 13.1113 21.4152 13.0323 21.4655 12.9738C21.5201 12.9187 21.5907 12.8651 21.6253 12.86C21.6598 12.8549 21.7392 12.8078 21.7944 12.7565C21.8535 12.7046 21.929 12.6581 21.9636 12.653C21.9981 12.6479 22.0687 12.5943 22.1228 12.5353C22.173 12.4769 22.2573 12.4095 22.3087 12.3862C22.3602 12.3629 22.4314 12.3131 22.4696 12.28C22.5074 12.243 22.5654 12.2109 22.6038 12.2053C22.6422 12.1996 22.7024 12.1554 22.7384 12.1069C22.7744 12.0584 22.8925 11.9546 23.0063 11.875C23.1202 11.7954 23.3165 11.6368 23.4412 11.5242C23.5664 11.4154 23.7332 11.2691 23.8174 11.2017C23.9016 11.1343 24.064 10.9847 24.1755 10.8623C24.2913 10.7431 24.4312 10.6007 24.4853 10.5417C24.6389 10.3855 25.1886 9.69578 25.1972 9.64739C25.2015 9.62319 25.2587 9.53228 25.3248 9.44792C25.4793 9.2445 25.7839 8.72833 25.8049 8.63097C25.8146 8.59027 25.8533 8.5335 25.8883 8.50478C25.9272 8.4755 25.9713 8.40222 25.9859 8.34117C26.0204 8.20254 26.128 7.94711 26.1946 7.83913C26.2235 7.79559 26.2913 7.61671 26.3438 7.44009C26.3969 7.26732 26.4577 7.12089 26.4769 7.11807C26.4961 7.11524 26.52 7.0371 26.5333 6.94088C26.5433 6.84907 26.5643 6.75171 26.5801 6.72582C26.5959 6.69993 26.6246 6.60144 26.6418 6.50465C26.6628 6.4073 26.6969 6.2923 26.7263 6.25262C26.7749 6.18262 26.8006 6.03744 26.8637 5.50578C26.8791 5.36998 26.9065 5.23633 26.925 5.20218C26.9436 5.16804 26.9658 5.10585 26.9749 5.0613C27.0072 4.90729 27.0311 4.18896 27.0171 3.85325C27.0098 3.66974 27.0242 3.44767 27.0469 3.36185C27.0939 3.17426 27.0339 2.33867 26.9354 1.74834C26.8584 1.30409 26.8071 1.2488 26.668 1.44995Z" fill="black" fill-opacity="0.85"/>
<path d="M11.4519 31.5826C11.5326 31.4782 11.8676 31.2507 11.9488 31.2437C11.972 31.2417 12.0351 31.2051 12.0824 31.166C12.2275 31.0405 12.6064 30.8716 12.866 30.8104C12.9997 30.7795 13.1472 30.7278 13.191 30.6929C13.2894 30.6143 14.0437 30.3704 14.4305 30.2944C14.5835 30.2618 14.7694 30.203 14.8402 30.1658C14.911 30.1285 15.074 30.0756 15.2002 30.0492C15.3268 30.0267 15.513 29.9717 15.6189 29.9354C15.7207 29.8955 15.9381 29.8418 16.0956 29.8166C16.2532 29.7915 16.4851 29.7248 16.6094 29.6752C16.7337 29.6256 17.1369 29.5131 17.5031 29.4233C17.8697 29.3373 18.2462 29.231 18.3402 29.1918C18.4339 29.1487 18.5849 29.0929 18.6796 29.0614C19.3092 28.8632 19.5182 28.8025 19.6265 28.7932C19.6961 28.7872 19.8168 28.7418 19.8983 28.692C19.9794 28.6382 20.1181 28.5757 20.2057 28.5526C20.5133 28.46 21.0079 28.2773 21.0475 28.2388C21.0941 28.1919 21.4579 28.0282 21.7185 27.9318C21.8205 27.8958 22.0591 27.7701 22.248 27.6564C22.4331 27.5431 22.6117 27.4459 22.6427 27.4433C22.6736 27.4407 22.7248 27.4012 22.7598 27.3553C22.7948 27.3094 22.846 27.2699 22.8769 27.2673C22.9388 27.262 23.2906 27.0486 23.3694 26.9678C23.4591 26.8782 23.8398 26.6389 23.9017 26.6337C23.9288 26.6313 23.9728 26.6003 24.0008 26.5628C24.0422 26.5007 24.1671 26.4121 24.423 26.2615C24.4861 26.2249 24.5877 26.1382 24.6482 26.0706C24.7086 26.0031 24.8145 25.9199 24.8818 25.8869C24.949 25.8538 25.0372 25.7917 25.0764 25.7493C25.116 25.7108 25.2479 25.6138 25.3699 25.537C25.4916 25.4564 25.6087 25.3684 25.6292 25.3355C25.6498 25.3025 25.7557 25.2193 25.8664 25.1475C25.9771 25.0756 26.1563 24.9394 26.2647 24.8404C26.3731 24.7415 26.4944 24.657 26.5331 24.6537C26.5717 24.6504 26.638 24.6057 26.6801 24.5514C26.7222 24.4971 26.8384 24.3975 26.9417 24.3301C27.0408 24.2593 27.1576 24.1674 27.1971 24.1289C27.2364 24.0866 27.3129 24.0254 27.3648 23.9937C27.4716 23.9221 27.6502 23.7782 27.9435 23.5191C28.125 23.3632 28.4666 23.0766 28.707 22.8805C28.7581 22.8411 28.8877 22.7169 28.999 22.606C29.11 22.4912 29.2621 22.3573 29.3319 22.3084C29.4053 22.2553 29.5282 22.1434 29.6028 22.059C29.6812 21.9743 29.8134 21.8343 29.8992 21.7451C30.3807 21.271 31.7808 19.6498 31.7749 19.5802C31.7729 19.5569 31.8452 19.4455 31.9361 19.3246C32.0313 19.2072 32.1672 19.0201 32.2437 18.9122C32.3202 18.8043 32.4253 18.6666 32.4748 18.6077C32.5243 18.5489 32.5895 18.4458 32.619 18.3809C32.6482 18.3121 32.74 18.1561 32.8307 18.0313C32.9174 17.9069 33.0192 17.7305 33.0545 17.6417C33.0897 17.5529 33.1459 17.435 33.1799 17.3775C33.214 17.32 33.2849 17.193 33.3347 17.0912C33.3883 16.9892 33.4599 16.8699 33.4949 16.824C33.5261 16.7785 33.6092 16.6115 33.674 16.4577C33.7385 16.3001 33.811 16.1457 33.8315 16.1128C33.8521 16.0798 33.9207 15.9258 33.9781 15.7766C34.0394 15.627 34.0981 15.4933 34.1167 15.4839C34.1566 15.4493 34.4941 14.5664 34.5398 14.3714C34.6165 14.0372 34.7023 13.7647 34.7585 13.6936C34.7865 13.6561 34.8307 13.5353 34.8489 13.4285C34.9085 13.1231 34.9792 12.8557 35.0596 12.611C35.0996 12.4866 35.1289 12.3281 35.1233 12.2623C35.1177 12.1965 35.1349 12.078 35.1592 11.998C35.1838 11.9218 35.2122 11.7516 35.2241 11.618C35.2364 11.4883 35.2812 11.3284 35.3188 11.2667C35.4075 11.1188 35.3598 10.9707 35.2394 11.02C35.1943 11.0395 35.0539 11.0827 34.9279 11.113C34.8023 11.1471 34.6136 11.2178 34.5128 11.2694C34.2968 11.3853 33.858 11.7193 33.7229 11.8712C33.6696 11.9304 33.584 12.0235 33.5264 12.0791C33.3608 12.2376 32.7307 12.9778 32.5453 13.2238C32.4546 13.3485 32.2907 13.5731 32.1789 13.7231C32.0713 13.8766 31.8932 14.118 31.7888 14.2634C31.684 14.405 31.5098 14.6461 31.4057 14.7954C31.3016 14.9447 31.1371 15.1615 31.0455 15.2747C30.9539 15.3878 30.8812 15.4954 30.8829 15.5148C30.8852 15.5419 30.7811 15.6912 30.3691 16.249C29.7829 17.0479 28.7754 18.2494 28.358 18.6517C28.3145 18.6905 28.2798 18.7403 28.2734 18.7564C28.2674 18.7764 28.1535 18.9032 28.021 19.0393C27.8882 19.1716 27.657 19.4292 27.505 19.6099C27.3526 19.7867 27.1889 19.9684 27.1378 20.0079C27.0869 20.0513 26.9818 20.1421 26.902 20.2114C26.8222 20.2806 26.6652 20.4032 26.5551 20.4828C26.4451 20.5624 26.2955 20.6805 26.227 20.7449C26.1588 20.8131 26.0336 20.8979 25.9518 20.9439C25.8698 20.986 25.7703 21.053 25.7308 21.0915C25.6915 21.1339 25.5512 21.2239 25.4173 21.2977C25.2831 21.3677 25.1431 21.4615 25.1 21.5042C25.0611 21.5505 25.0134 21.5857 24.998 21.5871C24.967 21.5897 24.6097 21.784 24.4433 21.888C24.2699 22.0003 23.8842 22.1815 23.7434 22.2208C23.6713 22.2426 23.5702 22.2902 23.519 22.3297C23.4096 22.4171 23.059 22.5523 22.5952 22.6856C22.4048 22.737 22.2197 22.8035 22.1753 22.8307C22.1128 22.875 21.4067 22.9978 20.8361 23.0661C20.5162 23.1052 19.9644 23.0744 19.8112 23.0134C19.7264 22.9777 19.6022 22.9377 19.5387 22.9236C19.3485 22.8853 19.3495 22.7604 19.545 22.5409C19.6373 22.4355 19.7312 22.3494 19.7583 22.3471C19.7854 22.3448 19.84 22.3011 19.8825 22.2507C19.9207 22.1967 20.0192 22.1181 20.0971 22.0725C20.1746 22.0229 20.2783 21.9595 20.3298 21.9239C20.3816 21.8921 20.4813 21.829 20.5522 21.7917C20.623 21.7545 20.7305 21.6907 20.7936 21.6541C20.8528 21.6178 20.9736 21.5724 21.0573 21.5497C21.1414 21.5308 21.2537 21.4783 21.3081 21.4307C21.3628 21.387 21.479 21.3342 21.5705 21.3108C21.6623 21.2912 21.7714 21.2468 21.8152 21.2119C21.8593 21.1808 21.9681 21.1325 22.0599 21.1129C22.1514 21.0895 22.2979 21.0263 22.3903 20.9677C22.4826 20.9091 22.595 20.8566 22.6453 20.8523C22.6955 20.848 22.7786 20.8175 22.834 20.7815C22.8893 20.7456 23.0062 20.7005 23.0861 20.6781C23.1698 20.6553 23.3083 20.5889 23.3929 20.531C23.4775 20.473 23.5783 20.4215 23.6169 20.4182C23.6553 20.411 23.7532 20.3714 23.8346 20.3216C23.916 20.2717 24.0178 20.2318 24.0561 20.2246C24.118 20.2194 24.6089 19.9473 24.923 19.7488C25.1483 19.6048 25.4446 19.3805 25.5562 19.2735C25.6244 19.2053 25.7685 19.0681 25.8769 18.9692C26.1506 18.7079 26.482 18.3012 26.5362 18.1601C26.6292 17.926 26.7091 17.767 26.7791 17.6752C26.8216 17.6248 26.8508 17.556 26.8481 17.5251C26.8455 17.4941 26.8694 17.3633 26.8972 17.2323C26.9288 17.1009 26.9661 16.8988 26.9762 16.7887C26.9898 16.6745 27.0133 16.4931 27.0311 16.3823C27.0454 16.2758 27.0484 16.1742 27.0316 16.16C26.9984 16.1355 26.7898 16.247 26.6327 16.3696C26.5124 16.4657 26.1467 16.653 26.0732 16.6592C26.0384 16.6622 25.9448 16.7053 25.8675 16.7587C25.7198 16.8533 25.4954 16.9622 25.1007 17.1285C24.988 17.1771 24.8425 17.252 24.7836 17.2921C24.7208 17.3326 24.6419 17.3666 24.6033 17.3699C24.5646 17.3732 24.4892 17.4031 24.4339 17.439C24.3782 17.4711 24.242 17.5178 24.1273 17.5432C24.0126 17.5686 23.8735 17.6273 23.8192 17.6749C23.7645 17.7186 23.6338 17.7843 23.5272 17.8129C23.3104 17.8744 23.0464 17.975 22.6941 18.1377C22.2891 18.3205 21.9269 18.4568 21.8225 18.4657C21.7645 18.4707 21.6785 18.5131 21.6283 18.5642C21.574 18.6118 21.3338 18.7181 21.0916 18.8012C20.8494 18.8843 20.6163 18.9822 20.5726 19.0172C20.4703 19.0961 19.843 19.3214 19.5675 19.38C19.4529 19.4054 19.317 19.4561 19.2658 19.4955C19.178 19.5615 18.9149 19.6737 18.4873 19.8195C18.3774 19.8562 18.2651 19.9087 18.2403 19.9381C18.1863 19.9895 17.8566 20.1425 17.5961 20.2389C17.513 20.2694 17.3984 20.3416 17.3447 20.3969C17.2868 20.4486 17.2131 20.4978 17.1783 20.5008C17.1435 20.5038 17.0615 20.5459 17.0032 20.5938C16.9411 20.642 16.8629 20.6838 16.8281 20.6868C16.7933 20.6897 16.7196 20.7389 16.662 20.7946C16.6083 20.8499 16.5202 20.912 16.4674 20.9321C16.4145 20.9522 16.3405 20.9975 16.3003 21.0283C16.2604 21.0629 16.2005 21.0914 16.1619 21.0947C16.1232 21.098 16.0604 21.1385 16.0215 21.1847C15.9826 21.2309 15.8584 21.3274 15.74 21.3999C15.6216 21.4724 15.4159 21.6187 15.2847 21.7235C15.1531 21.8245 14.9777 21.9604 14.8895 22.0225C14.8014 22.0846 14.6302 22.2241 14.5115 22.3395C14.3887 22.4514 14.2404 22.585 14.1828 22.6406C14.02 22.7871 13.4294 23.4421 13.4179 23.4899C13.4121 23.5138 13.3495 23.6011 13.2784 23.6812C13.1119 23.8749 12.7765 24.3715 12.7496 24.4674C12.7374 24.5075 12.6953 24.5618 12.6586 24.5883C12.6181 24.6152 12.5696 24.6856 12.5513 24.7457C12.5084 24.8819 12.3855 25.1304 12.3126 25.2341C12.2811 25.2758 12.2025 25.4502 12.1393 25.6233C12.0759 25.7925 12.0062 25.935 11.9869 25.9366C11.9676 25.9383 11.9391 26.0148 11.9199 26.11C11.9043 26.2011 11.8774 26.297 11.8601 26.3219C11.8427 26.3467 11.8081 26.4433 11.7851 26.5389C11.7583 26.6347 11.7172 26.7475 11.6854 26.7853C11.6327 26.8522 11.5982 26.9955 11.5029 27.5224C11.4793 27.657 11.4438 27.7887 11.4233 27.8217C11.4027 27.8546 11.3767 27.9153 11.3649 27.9592C11.3233 28.111 11.2558 28.8265 11.2494 29.1625C11.2456 29.3461 11.2177 29.5669 11.1898 29.6512C11.1316 29.8355 11.1407 30.6732 11.2032 31.2685C11.2531 31.7166 11.3009 31.7749 11.4519 31.5826Z" fill="#225A4B" fill-opacity="0.9"/>
</svg>
