<svg width="17" height="18" viewBox="0 0 17 18" fill="none" xmlns="http://www.w3.org/2000/svg">
<path d="M15.3 0.320068H1.7C1.24913 0.320068 0.81673 0.499175 0.497918 0.817987C0.179107 1.1368 0 1.5692 0 2.02007V6.78007C0 11.3947 2.2372 14.1938 4.114 15.7297C6.12935 17.3779 8.1464 17.9397 8.2314 17.9644C8.4073 18.012 8.5927 18.012 8.7686 17.9644C8.8536 17.9406 10.8707 17.3779 12.886 15.7297C14.7628 14.1938 17 11.3947 17 6.78007V2.02007C17 1.5692 16.8209 1.1368 16.5021 0.817987C16.1833 0.499175 15.7509 0.320068 15.3 0.320068ZM14.96 6.78007C14.96 9.81542 13.8474 12.2787 11.6526 14.1028C10.7119 14.8791 9.64577 15.4893 8.5 15.9074C7.35413 15.4895 6.28795 14.8793 5.34735 14.1028C3.15265 12.2787 2.04 9.81542 2.04 6.78007V2.36007H14.96V6.78007ZM4.37835 9.54172C4.28347 9.44684 4.20821 9.3342 4.15686 9.21023C4.10551 9.08626 4.07908 8.9534 4.07908 8.81922C4.07908 8.68504 4.10551 8.55217 4.15686 8.4282C4.20821 8.30424 4.28347 8.1916 4.37835 8.09672C4.47323 8.00184 4.58587 7.92657 4.70984 7.87523C4.8338 7.82388 4.96667 7.79745 5.10085 7.79745C5.23503 7.79745 5.3679 7.82388 5.49186 7.87523C5.61583 7.92657 5.72847 8.00184 5.82335 8.09672L7.14 9.41507L11.1783 5.37587C11.37 5.18425 11.6299 5.0766 11.9008 5.0766C12.1718 5.0766 12.4317 5.18425 12.6233 5.37587C12.815 5.56749 12.9226 5.82738 12.9226 6.09837C12.9226 6.36936 12.815 6.62925 12.6233 6.82087L7.86335 11.5809C7.76859 11.676 7.65599 11.7514 7.53201 11.8029C7.40802 11.8544 7.2751 11.8809 7.14085 11.8809C7.0066 11.8809 6.87368 11.8544 6.7497 11.8029C6.62571 11.7514 6.51311 11.676 6.41835 11.5809L4.37835 9.54172Z" fill="black" fill-opacity="0.8"/>
</svg>
