<svg width="37" height="12" viewBox="0 0 37 12" fill="none" xmlns="http://www.w3.org/2000/svg">
<path d="M24.1865 0.0302734C25.1261 0.0302842 26.0597 0.203817 26.9463 0.532227L26.4355 2.92383C25.6391 2.55345 24.7664 2.37397 23.8877 2.39941L23.5059 2.42383H23.5049C22.6861 2.53338 22.2693 2.93224 22.2148 3.3418L22.209 3.42383C22.201 3.78342 22.4729 4.05882 22.8652 4.31445C23.0626 4.44301 23.2939 4.56816 23.54 4.69824C23.7865 4.82849 24.049 4.96323 24.3115 5.11133C25.2967 5.66714 26.2725 6.40227 26.3857 7.73438L26.3965 8.00879C26.3874 9.19869 25.8745 10.179 24.9756 10.8594C24.0758 11.5403 22.7866 11.9223 21.2256 11.9102L20.7285 11.8936C19.5925 11.8282 18.5417 11.5833 17.9336 11.3115L18.4629 8.83984C19.1103 9.14146 19.9179 9.53117 21.2373 9.55957H21.5127C21.9463 9.55342 22.3977 9.46431 22.7422 9.27734C23.0871 9.09007 23.3288 8.8024 23.332 8.40039L23.3281 8.30273C23.3074 8.08036 23.2028 7.88379 22.9863 7.68359C22.8016 7.51285 22.5342 7.3388 22.166 7.14258L21.7637 6.9375C21.197 6.66326 20.5416 6.29412 20.0303 5.78809C19.5513 5.3141 19.1997 4.72131 19.165 3.97363L19.1621 3.82227V3.82129C19.1713 2.70562 19.6914 1.7593 20.5762 1.09082C21.4618 0.42185 22.7143 0.0302734 24.1865 0.0302734ZM5.1582 0.25C5.78481 0.25 6.32308 0.680272 6.47656 1.28027L6.50195 1.40332L7.75977 8.09375L7.7793 8.19824L7.81738 8.09961L10.9297 0.256836H13.9922L9.17969 11.751H6.06152L3.68652 2.5498C3.6132 2.26571 3.54442 2.0674 3.4375 1.91016C3.35691 1.79171 3.25549 1.6976 3.11621 1.60742L2.96289 1.51758C2.2456 1.12858 1.07371 0.764651 0.0361328 0.538086L0.0986328 0.25H5.1582ZM32.0303 0.25H34.5635L36.9619 11.7451H34.2598L33.8984 10.042L33.8926 10.0176H30.0068L30 10.0381L29.3848 11.7451H26.3135L30.7832 1.08594C30.9735 0.610245 31.421 0.286424 31.9287 0.25293L32.0303 0.25ZM18.2764 0.25L15.8164 11.7451H12.8877L15.3477 0.25H18.2764ZM32.4414 3.33496L30.8672 7.6748L30.8516 7.71582H33.4111L33.4033 7.67969L32.5 3.33887L32.4785 3.2334L32.4414 3.33496Z" fill="#1C32C2" stroke="#225A4B" stroke-width="0.061046"/>
</svg>
